%TF.GenerationSoftware,KiCad,Pcbnew,9.0.2*%
%TF.CreationDate,2025-06-29T18:35:55-07:00*%
%TF.ProjectId,pcb,7063622e-6b69-4636-9164-5f7063625858,rev?*%
%TF.SameCoordinates,Original*%
%TF.FileFunction,Copper,L2,Bot*%
%TF.FilePolarity,Positive*%
%FSLAX46Y46*%
G04 Gerber Fmt 4.6, Leading zero omitted, Abs format (unit mm)*
G04 Created by KiCad (PCBNEW 9.0.2) date 2025-06-29 18:35:55*
%MOMM*%
%LPD*%
G01*
G04 APERTURE LIST*
%TA.AperFunction,ComponentPad*%
%ADD10C,2.200000*%
%TD*%
%TA.AperFunction,WasherPad*%
%ADD11O,3.200000X2.000000*%
%TD*%
%TA.AperFunction,ComponentPad*%
%ADD12R,2.000000X2.000000*%
%TD*%
%TA.AperFunction,ComponentPad*%
%ADD13C,2.000000*%
%TD*%
%TA.AperFunction,ComponentPad*%
%ADD14C,1.400000*%
%TD*%
%TA.AperFunction,ComponentPad*%
%ADD15C,1.815000*%
%TD*%
%TA.AperFunction,ComponentPad*%
%ADD16R,1.815000X1.815000*%
%TD*%
%TA.AperFunction,ComponentPad*%
%ADD17C,1.524000*%
%TD*%
%TA.AperFunction,Conductor*%
%ADD18C,0.200000*%
%TD*%
G04 APERTURE END LIST*
D10*
%TO.P,SW2,1,1*%
%TO.N,GND*%
X87550000Y-102160000D03*
%TO.P,SW2,2,2*%
%TO.N,Net-(U1-GPIO27{slash}ADC1{slash}A1)*%
X81200000Y-104700000D03*
%TD*%
D11*
%TO.P,SW5,*%
%TO.N,*%
X127000000Y-76950000D03*
X127000000Y-88150000D03*
D12*
%TO.P,SW5,A,A*%
%TO.N,Net-(U1-GPIO2{slash}SCK)*%
X119500000Y-80050000D03*
D13*
%TO.P,SW5,B,B*%
%TO.N,Net-(U1-GPIO4{slash}MISO)*%
X119500000Y-85050000D03*
%TO.P,SW5,C,C*%
%TO.N,GND*%
X119500000Y-82550000D03*
%TO.P,SW5,S1,S1*%
%TO.N,Net-(U1-GPIO3{slash}MOSI)*%
X134000000Y-85050000D03*
%TO.P,SW5,S2,S2*%
%TO.N,GND*%
X134000000Y-80050000D03*
%TD*%
D10*
%TO.P,SW1,1,1*%
%TO.N,GND*%
X68450000Y-102110000D03*
%TO.P,SW1,2,2*%
%TO.N,Net-(U1-GPIO26{slash}ADC0{slash}A0)*%
X62100000Y-104650000D03*
%TD*%
D14*
%TO.P,R3,1*%
%TO.N,Net-(U1-GPIO6{slash}SDA)*%
X136050000Y-99380000D03*
%TO.P,R3,2*%
%TO.N,Net-(D3-PadA)*%
X136050000Y-107000000D03*
%TD*%
D10*
%TO.P,SW4,1,1*%
%TO.N,GND*%
X125700000Y-102135000D03*
%TO.P,SW4,2,2*%
%TO.N,Net-(U1-GPIO29{slash}ADC3{slash}A3)*%
X119350000Y-104675000D03*
%TD*%
D15*
%TO.P,D3,A*%
%TO.N,Net-(D3-PadA)*%
X143270000Y-103000000D03*
D16*
%TO.P,D3,C*%
%TO.N,GND*%
X140730000Y-103000000D03*
%TD*%
D15*
%TO.P,D2,A*%
%TO.N,Net-(D2-PadA)*%
X143540000Y-93000000D03*
D16*
%TO.P,D2,C*%
%TO.N,GND*%
X141000000Y-93000000D03*
%TD*%
D14*
%TO.P,R1,1*%
%TO.N,Net-(U1-GPIO0{slash}TX)*%
X148970000Y-77870000D03*
%TO.P,R1,2*%
%TO.N,Net-(D1-PadA)*%
X148970000Y-85490000D03*
%TD*%
D17*
%TO.P,U1,1,GPIO26/ADC0/A0*%
%TO.N,Net-(U1-GPIO26{slash}ADC0{slash}A0)*%
X58290000Y-73048500D03*
%TO.P,U1,2,GPIO27/ADC1/A1*%
%TO.N,Net-(U1-GPIO27{slash}ADC1{slash}A1)*%
X58290000Y-75588500D03*
%TO.P,U1,3,GPIO28/ADC2/A2*%
%TO.N,Net-(U1-GPIO28{slash}ADC2{slash}A2)*%
X58290000Y-78128500D03*
%TO.P,U1,4,GPIO29/ADC3/A3*%
%TO.N,Net-(U1-GPIO29{slash}ADC3{slash}A3)*%
X58290000Y-80668500D03*
%TO.P,U1,5,GPIO6/SDA*%
%TO.N,Net-(U1-GPIO6{slash}SDA)*%
X58290000Y-83208500D03*
%TO.P,U1,6,GPIO7/SCL*%
%TO.N,Net-(U1-GPIO7{slash}SCL)*%
X58290000Y-85748500D03*
%TO.P,U1,7,GPIO0/TX*%
%TO.N,Net-(U1-GPIO0{slash}TX)*%
X58290000Y-88288500D03*
%TO.P,U1,8,GPIO1/RX*%
%TO.N,Net-(U1-GPIO1{slash}RX)*%
X73530000Y-88288500D03*
%TO.P,U1,9,GPIO2/SCK*%
%TO.N,Net-(U1-GPIO2{slash}SCK)*%
X73530000Y-85748500D03*
%TO.P,U1,10,GPIO4/MISO*%
%TO.N,Net-(U1-GPIO4{slash}MISO)*%
X73530000Y-83208500D03*
%TO.P,U1,11,GPIO3/MOSI*%
%TO.N,Net-(U1-GPIO3{slash}MOSI)*%
X73530000Y-80668500D03*
%TO.P,U1,12,3V3*%
%TO.N,unconnected-(U1-3V3-Pad12)*%
X73530000Y-78128500D03*
%TO.P,U1,13,GND*%
%TO.N,GND*%
X73530000Y-75588500D03*
%TO.P,U1,14,VBUS*%
%TO.N,unconnected-(U1-VBUS-Pad14)*%
X73530000Y-73048500D03*
%TD*%
D14*
%TO.P,R4,1*%
%TO.N,Net-(U1-GPIO1{slash}RX)*%
X135990000Y-109790000D03*
%TO.P,R4,2*%
%TO.N,Net-(D4-PadA)*%
X135990000Y-117410000D03*
%TD*%
%TO.P,R2,1*%
%TO.N,Net-(U1-GPIO7{slash}SCL)*%
X148790000Y-89330000D03*
%TO.P,R2,2*%
%TO.N,Net-(D2-PadA)*%
X148790000Y-96950000D03*
%TD*%
D15*
%TO.P,D1,A*%
%TO.N,Net-(D1-PadA)*%
X143540000Y-82000000D03*
D16*
%TO.P,D1,C*%
%TO.N,GND*%
X141000000Y-82000000D03*
%TD*%
D10*
%TO.P,SW3,1,1*%
%TO.N,GND*%
X106650000Y-102150000D03*
%TO.P,SW3,2,2*%
%TO.N,Net-(U1-GPIO28{slash}ADC2{slash}A2)*%
X100300000Y-104690000D03*
%TD*%
D15*
%TO.P,D4,A*%
%TO.N,Net-(D4-PadA)*%
X143270000Y-112000000D03*
D16*
%TO.P,D4,C*%
%TO.N,GND*%
X140730000Y-112000000D03*
%TD*%
D18*
%TO.N,GND*%
X125700000Y-102135000D02*
X139865000Y-102135000D01*
X139865000Y-102135000D02*
X140730000Y-103000000D01*
%TO.N,Net-(D1-PadA)*%
X145480000Y-82000000D02*
X148970000Y-85490000D01*
X143540000Y-82000000D02*
X145480000Y-82000000D01*
%TO.N,Net-(D2-PadA)*%
X143540000Y-93000000D02*
X144840000Y-93000000D01*
X144840000Y-93000000D02*
X148790000Y-96950000D01*
%TO.N,Net-(D3-PadA)*%
X143270000Y-103000000D02*
X139270000Y-107000000D01*
X139270000Y-107000000D02*
X136050000Y-107000000D01*
%TO.N,Net-(D4-PadA)*%
X137860000Y-117410000D02*
X135990000Y-117410000D01*
X143270000Y-112000000D02*
X137860000Y-117410000D01*
%TO.N,Net-(U1-GPIO0{slash}TX)*%
X125398608Y-86811500D02*
X134340108Y-77870000D01*
X59767000Y-86811500D02*
X125398608Y-86811500D01*
X58290000Y-88288500D02*
X59767000Y-86811500D01*
X134340108Y-77870000D02*
X148970000Y-77870000D01*
%TO.N,Net-(U1-GPIO7{slash}SCL)*%
X57227000Y-88728810D02*
X57999190Y-89501000D01*
X58290000Y-85748500D02*
X57227000Y-86811500D01*
X57999190Y-89501000D02*
X148619000Y-89501000D01*
X57227000Y-86811500D02*
X57227000Y-88728810D01*
X148619000Y-89501000D02*
X148790000Y-89330000D01*
%TO.N,Net-(U1-GPIO6{slash}SDA)*%
X58290000Y-83208500D02*
X56826000Y-84672500D01*
X61710090Y-93779000D02*
X130449000Y-93779000D01*
X130449000Y-93779000D02*
X136050000Y-99380000D01*
X56826000Y-84672500D02*
X56826000Y-88894910D01*
X56826000Y-88894910D02*
X61710090Y-93779000D01*
%TO.N,Net-(U1-GPIO26{slash}ADC0{slash}A0)*%
X54620000Y-74710000D02*
X54660000Y-74710000D01*
X62100000Y-104650000D02*
X54620000Y-97170000D01*
X54620000Y-97170000D02*
X54620000Y-74710000D01*
X56321500Y-73048500D02*
X58290000Y-73048500D01*
X54660000Y-74710000D02*
X56321500Y-73048500D01*
%TO.N,Net-(U1-GPIO27{slash}ADC1{slash}A1)*%
X56441500Y-75588500D02*
X58290000Y-75588500D01*
X64131314Y-104700000D02*
X55120000Y-95688686D01*
X81200000Y-104700000D02*
X64131314Y-104700000D01*
X55120000Y-76860000D02*
X55170000Y-76860000D01*
X55170000Y-76860000D02*
X56441500Y-75588500D01*
X55120000Y-95688686D02*
X55120000Y-76860000D01*
%TO.N,Net-(U1-GPIO28{slash}ADC2{slash}A2)*%
X83191314Y-104690000D02*
X81800314Y-103299000D01*
X100300000Y-104690000D02*
X83191314Y-104690000D01*
X55640000Y-95040000D02*
X55640000Y-79270000D01*
X80407686Y-103511000D02*
X64111000Y-103511000D01*
X81800314Y-103299000D02*
X80619686Y-103299000D01*
X80619686Y-103299000D02*
X80407686Y-103511000D01*
X55640000Y-79270000D02*
X56781500Y-78128500D01*
X64111000Y-103511000D02*
X55640000Y-95040000D01*
X56781500Y-78128500D02*
X58290000Y-78128500D01*
%TO.N,Net-(U1-GPIO29{slash}ADC3{slash}A3)*%
X80050000Y-103110000D02*
X71120000Y-94180000D01*
X56041000Y-81460000D02*
X56070000Y-81460000D01*
X100880314Y-103289000D02*
X88402314Y-103289000D01*
X102266314Y-104675000D02*
X100880314Y-103289000D01*
X56070000Y-81460000D02*
X56861500Y-80668500D01*
X81966414Y-102898000D02*
X80262000Y-102898000D01*
X56861500Y-80668500D02*
X58290000Y-80668500D01*
X119350000Y-104675000D02*
X102266314Y-104675000D01*
X61331000Y-94180000D02*
X56041000Y-88890000D01*
X80262000Y-102898000D02*
X80050000Y-103110000D01*
X87681314Y-104010000D02*
X83078414Y-104010000D01*
X88402314Y-103289000D02*
X87681314Y-104010000D01*
X83078414Y-104010000D02*
X81966414Y-102898000D01*
X56041000Y-88890000D02*
X56041000Y-81460000D01*
X71120000Y-94180000D02*
X61331000Y-94180000D01*
%TO.N,Net-(U1-GPIO3{slash}MOSI)*%
X149384628Y-76869000D02*
X149971000Y-77455372D01*
X138461108Y-80588892D02*
X134000000Y-85050000D01*
X149971000Y-78284628D02*
X147666736Y-80588892D01*
X134774008Y-76869000D02*
X149384628Y-76869000D01*
X73530000Y-80668500D02*
X75449500Y-78749000D01*
X147666736Y-80588892D02*
X138461108Y-80588892D01*
X149971000Y-77455372D02*
X149971000Y-78284628D01*
X75449500Y-78749000D02*
X132894008Y-78749000D01*
X132894008Y-78749000D02*
X134774008Y-76869000D01*
%TO.N,Net-(U1-GPIO2{slash}SCK)*%
X117818500Y-81731500D02*
X119500000Y-80050000D01*
X72467000Y-82768190D02*
X73503690Y-81731500D01*
X72467000Y-84685500D02*
X72467000Y-82768190D01*
X73530000Y-85748500D02*
X72467000Y-84685500D01*
X73503690Y-81731500D02*
X117818500Y-81731500D01*
%TO.N,Net-(U1-GPIO4{slash}MISO)*%
X117658500Y-83208500D02*
X119500000Y-85050000D01*
X73530000Y-83208500D02*
X117658500Y-83208500D01*
%TD*%
%TA.AperFunction,Conductor*%
%TO.N,GND*%
G36*
X56445703Y-90144384D02*
G01*
X56452180Y-90150415D01*
X60962284Y-94660520D01*
X60962286Y-94660521D01*
X60962290Y-94660524D01*
X61099209Y-94739573D01*
X61099216Y-94739577D01*
X61251943Y-94780501D01*
X61251945Y-94780501D01*
X61417654Y-94780501D01*
X61417670Y-94780500D01*
X70819903Y-94780500D01*
X70886942Y-94800185D01*
X70907584Y-94816819D01*
X78789584Y-102698819D01*
X78823069Y-102760142D01*
X78818085Y-102829834D01*
X78776213Y-102885767D01*
X78710749Y-102910184D01*
X78701903Y-102910500D01*
X70040198Y-102910500D01*
X69973159Y-102890815D01*
X69927404Y-102838011D01*
X69917460Y-102768853D01*
X69929712Y-102730207D01*
X69932780Y-102724184D01*
X70010602Y-102484669D01*
X70050000Y-102235928D01*
X70050000Y-101984071D01*
X70010602Y-101735330D01*
X69932780Y-101495815D01*
X69818442Y-101271416D01*
X69744250Y-101169301D01*
X69744250Y-101169300D01*
X69127577Y-101785973D01*
X69114641Y-101754742D01*
X69032563Y-101631903D01*
X68928097Y-101527437D01*
X68805258Y-101445359D01*
X68774024Y-101432421D01*
X69390698Y-100815748D01*
X69288583Y-100741557D01*
X69064184Y-100627219D01*
X68824669Y-100549397D01*
X68575928Y-100510000D01*
X68324072Y-100510000D01*
X68075330Y-100549397D01*
X67835815Y-100627219D01*
X67611413Y-100741559D01*
X67509301Y-100815747D01*
X67509300Y-100815748D01*
X68125974Y-101432421D01*
X68094742Y-101445359D01*
X67971903Y-101527437D01*
X67867437Y-101631903D01*
X67785359Y-101754742D01*
X67772421Y-101785974D01*
X67155748Y-101169300D01*
X67155747Y-101169301D01*
X67081559Y-101271413D01*
X66967219Y-101495815D01*
X66889397Y-101735330D01*
X66850000Y-101984071D01*
X66850000Y-102235928D01*
X66889397Y-102484669D01*
X66967219Y-102724184D01*
X66970288Y-102730207D01*
X66983183Y-102798876D01*
X66956906Y-102863616D01*
X66899799Y-102903872D01*
X66859802Y-102910500D01*
X64411097Y-102910500D01*
X64344058Y-102890815D01*
X64323416Y-102874181D01*
X56276819Y-94827584D01*
X56243334Y-94766261D01*
X56240500Y-94739903D01*
X56240500Y-90238097D01*
X56260185Y-90171058D01*
X56312989Y-90125303D01*
X56382147Y-90115359D01*
X56445703Y-90144384D01*
G37*
%TD.AperFunction*%
%TA.AperFunction,Conductor*%
G36*
X131779049Y-79369185D02*
G01*
X131824804Y-79421989D01*
X131834748Y-79491147D01*
X131805723Y-79554703D01*
X131799691Y-79561181D01*
X125186192Y-86174681D01*
X125124869Y-86208166D01*
X125098511Y-86211000D01*
X120754567Y-86211000D01*
X120687528Y-86191315D01*
X120641773Y-86138511D01*
X120631829Y-86069353D01*
X120654247Y-86014116D01*
X120783343Y-85836433D01*
X120890568Y-85625992D01*
X120963553Y-85401368D01*
X120965742Y-85387545D01*
X121000500Y-85168097D01*
X121000500Y-84931902D01*
X120963553Y-84698631D01*
X120899856Y-84502593D01*
X120890568Y-84474008D01*
X120890566Y-84474005D01*
X120890566Y-84474003D01*
X120811618Y-84319060D01*
X120783343Y-84263567D01*
X120644517Y-84072490D01*
X120477510Y-83905483D01*
X120421259Y-83864614D01*
X120378595Y-83809284D01*
X120373902Y-83777455D01*
X119629409Y-83032962D01*
X119692993Y-83015925D01*
X119807007Y-82950099D01*
X119900099Y-82857007D01*
X119965925Y-82742993D01*
X119982962Y-82679409D01*
X120722658Y-83419105D01*
X120722658Y-83419104D01*
X120782914Y-83336169D01*
X120782918Y-83336163D01*
X120890102Y-83125802D01*
X120963065Y-82901247D01*
X121000000Y-82668052D01*
X121000000Y-82431947D01*
X120963065Y-82198752D01*
X120890102Y-81974197D01*
X120782914Y-81763828D01*
X120713394Y-81668142D01*
X120689914Y-81602335D01*
X120705739Y-81534281D01*
X120739401Y-81495989D01*
X120742329Y-81493796D01*
X120742331Y-81493796D01*
X120857546Y-81407546D01*
X120943796Y-81292331D01*
X120994091Y-81157483D01*
X121000500Y-81097873D01*
X121000499Y-79473499D01*
X121020184Y-79406461D01*
X121072987Y-79360706D01*
X121124499Y-79349500D01*
X131712010Y-79349500D01*
X131779049Y-79369185D01*
G37*
%TD.AperFunction*%
%TA.AperFunction,Conductor*%
G36*
X151962539Y-70520185D02*
G01*
X152008294Y-70572989D01*
X152019500Y-70624500D01*
X152019500Y-119375500D01*
X151999815Y-119442539D01*
X151947011Y-119488294D01*
X151895500Y-119499500D01*
X53624500Y-119499500D01*
X53557461Y-119479815D01*
X53511706Y-119427011D01*
X53500500Y-119375500D01*
X53500500Y-117315513D01*
X134789500Y-117315513D01*
X134789500Y-117504486D01*
X134819059Y-117691118D01*
X134877454Y-117870836D01*
X134927765Y-117969576D01*
X134963240Y-118039199D01*
X135074310Y-118192073D01*
X135207927Y-118325690D01*
X135360801Y-118436760D01*
X135440347Y-118477290D01*
X135529163Y-118522545D01*
X135529165Y-118522545D01*
X135529168Y-118522547D01*
X135625497Y-118553846D01*
X135708881Y-118580940D01*
X135895514Y-118610500D01*
X135895519Y-118610500D01*
X136084486Y-118610500D01*
X136271118Y-118580940D01*
X136450832Y-118522547D01*
X136619199Y-118436760D01*
X136772073Y-118325690D01*
X136905690Y-118192073D01*
X137000475Y-118061613D01*
X137055804Y-118018949D01*
X137100792Y-118010500D01*
X137773331Y-118010500D01*
X137773347Y-118010501D01*
X137780943Y-118010501D01*
X137939054Y-118010501D01*
X137939057Y-118010501D01*
X138091785Y-117969577D01*
X138141904Y-117940639D01*
X138228716Y-117890520D01*
X138340520Y-117778716D01*
X138340520Y-117778714D01*
X138350728Y-117768507D01*
X138350730Y-117768504D01*
X142739845Y-113379388D01*
X142801166Y-113345905D01*
X142865841Y-113349139D01*
X142940293Y-113373331D01*
X143022378Y-113386331D01*
X143159183Y-113408000D01*
X143159188Y-113408000D01*
X143380817Y-113408000D01*
X143599707Y-113373331D01*
X143810484Y-113304845D01*
X144007953Y-113204230D01*
X144187251Y-113073962D01*
X144343962Y-112917251D01*
X144474230Y-112737953D01*
X144574845Y-112540484D01*
X144643331Y-112329707D01*
X144658565Y-112233521D01*
X144678000Y-112110817D01*
X144678000Y-111889182D01*
X144643331Y-111670292D01*
X144611554Y-111572496D01*
X144574845Y-111459516D01*
X144574843Y-111459513D01*
X144574843Y-111459511D01*
X144474229Y-111262046D01*
X144343962Y-111082749D01*
X144187251Y-110926038D01*
X144007953Y-110795770D01*
X143810488Y-110695156D01*
X143599707Y-110626668D01*
X143380817Y-110592000D01*
X143380812Y-110592000D01*
X143159188Y-110592000D01*
X143159183Y-110592000D01*
X142940292Y-110626668D01*
X142729511Y-110695156D01*
X142532046Y-110795770D01*
X142456835Y-110850415D01*
X142352749Y-110926038D01*
X142352747Y-110926040D01*
X142352745Y-110926041D01*
X142311693Y-110967093D01*
X142250370Y-111000578D01*
X142180678Y-110995592D01*
X142124745Y-110953720D01*
X142107831Y-110922743D01*
X142080855Y-110850415D01*
X142080850Y-110850406D01*
X141994690Y-110735312D01*
X141994687Y-110735309D01*
X141879593Y-110649149D01*
X141879586Y-110649145D01*
X141744879Y-110598903D01*
X141744872Y-110598901D01*
X141685344Y-110592500D01*
X140980000Y-110592500D01*
X140980000Y-111445743D01*
X140963521Y-111436229D01*
X140809650Y-111395000D01*
X140650350Y-111395000D01*
X140496479Y-111436229D01*
X140480000Y-111445743D01*
X140480000Y-110592500D01*
X139774655Y-110592500D01*
X139715127Y-110598901D01*
X139715120Y-110598903D01*
X139580413Y-110649145D01*
X139580406Y-110649149D01*
X139465312Y-110735309D01*
X139465309Y-110735312D01*
X139379149Y-110850406D01*
X139379145Y-110850413D01*
X139328903Y-110985120D01*
X139328901Y-110985127D01*
X139322500Y-111044655D01*
X139322500Y-111750000D01*
X140175743Y-111750000D01*
X140166229Y-111766479D01*
X140125000Y-111920350D01*
X140125000Y-112079650D01*
X140166229Y-112233521D01*
X140175743Y-112250000D01*
X139322500Y-112250000D01*
X139322500Y-112955344D01*
X139328901Y-113014872D01*
X139328903Y-113014879D01*
X139379145Y-113149586D01*
X139379149Y-113149593D01*
X139465309Y-113264687D01*
X139465312Y-113264690D01*
X139580406Y-113350850D01*
X139580413Y-113350854D01*
X139715120Y-113401096D01*
X139715127Y-113401098D01*
X139774655Y-113407499D01*
X139774672Y-113407500D01*
X140480000Y-113407500D01*
X140480000Y-112554256D01*
X140496479Y-112563771D01*
X140650350Y-112605000D01*
X140809650Y-112605000D01*
X140963521Y-112563771D01*
X140980000Y-112554256D01*
X140980000Y-113389402D01*
X140960315Y-113456441D01*
X140943681Y-113477083D01*
X137647584Y-116773181D01*
X137586261Y-116806666D01*
X137559903Y-116809500D01*
X137100792Y-116809500D01*
X137033753Y-116789815D01*
X137000474Y-116758386D01*
X136905690Y-116627927D01*
X136772073Y-116494310D01*
X136619199Y-116383240D01*
X136450836Y-116297454D01*
X136271118Y-116239059D01*
X136084486Y-116209500D01*
X136084481Y-116209500D01*
X135895519Y-116209500D01*
X135895514Y-116209500D01*
X135708881Y-116239059D01*
X135529163Y-116297454D01*
X135360800Y-116383240D01*
X135273579Y-116446610D01*
X135207927Y-116494310D01*
X135207925Y-116494312D01*
X135207924Y-116494312D01*
X135074312Y-116627924D01*
X135074312Y-116627925D01*
X135074310Y-116627927D01*
X135026610Y-116693579D01*
X134963240Y-116780800D01*
X134877454Y-116949163D01*
X134819059Y-117128881D01*
X134789500Y-117315513D01*
X53500500Y-117315513D01*
X53500500Y-109695513D01*
X134789500Y-109695513D01*
X134789500Y-109884486D01*
X134819059Y-110071118D01*
X134877454Y-110250836D01*
X134963240Y-110419199D01*
X135074310Y-110572073D01*
X135207927Y-110705690D01*
X135360801Y-110816760D01*
X135426835Y-110850406D01*
X135529163Y-110902545D01*
X135529165Y-110902545D01*
X135529168Y-110902547D01*
X135601472Y-110926040D01*
X135708881Y-110960940D01*
X135895514Y-110990500D01*
X135895519Y-110990500D01*
X136084486Y-110990500D01*
X136271118Y-110960940D01*
X136378528Y-110926040D01*
X136450832Y-110902547D01*
X136619199Y-110816760D01*
X136772073Y-110705690D01*
X136905690Y-110572073D01*
X137016760Y-110419199D01*
X137102547Y-110250832D01*
X137160940Y-110071118D01*
X137190500Y-109884486D01*
X137190500Y-109695513D01*
X137160940Y-109508881D01*
X137102545Y-109329163D01*
X137043226Y-109212743D01*
X137016760Y-109160801D01*
X136905690Y-109007927D01*
X136772073Y-108874310D01*
X136619199Y-108763240D01*
X136450836Y-108677454D01*
X136271118Y-108619059D01*
X136084486Y-108589500D01*
X136084481Y-108589500D01*
X135895519Y-108589500D01*
X135895514Y-108589500D01*
X135708881Y-108619059D01*
X135529163Y-108677454D01*
X135360800Y-108763240D01*
X135273579Y-108826610D01*
X135207927Y-108874310D01*
X135207925Y-108874312D01*
X135207924Y-108874312D01*
X135074312Y-109007924D01*
X135074312Y-109007925D01*
X135074310Y-109007927D01*
X135032671Y-109065238D01*
X134963240Y-109160800D01*
X134877454Y-109329163D01*
X134819059Y-109508881D01*
X134789500Y-109695513D01*
X53500500Y-109695513D01*
X53500500Y-97249054D01*
X54019498Y-97249054D01*
X54060423Y-97401785D01*
X54089358Y-97451900D01*
X54089359Y-97451904D01*
X54089360Y-97451904D01*
X54139479Y-97538714D01*
X54139481Y-97538717D01*
X54258349Y-97657585D01*
X54258355Y-97657590D01*
X60567841Y-103967076D01*
X60601326Y-104028399D01*
X60598091Y-104093074D01*
X60579727Y-104149593D01*
X60538910Y-104275214D01*
X60534950Y-104300215D01*
X60499500Y-104524038D01*
X60499500Y-104775962D01*
X60503460Y-104800962D01*
X60538910Y-105024785D01*
X60616760Y-105264383D01*
X60694598Y-105417147D01*
X60726981Y-105480703D01*
X60731132Y-105488848D01*
X60879201Y-105692649D01*
X60879205Y-105692654D01*
X60879207Y-105692656D01*
X61057344Y-105870793D01*
X61057345Y-105870794D01*
X61057344Y-105870794D01*
X61063661Y-105875383D01*
X61106327Y-105930714D01*
X61112305Y-106000327D01*
X61079699Y-106062122D01*
X61018860Y-106096479D01*
X60971378Y-106098174D01*
X60916611Y-106089500D01*
X60743389Y-106089500D01*
X60703728Y-106095781D01*
X60572302Y-106116597D01*
X60407552Y-106170128D01*
X60253211Y-106248768D01*
X60204455Y-106284192D01*
X60113072Y-106350586D01*
X60113070Y-106350588D01*
X60113069Y-106350588D01*
X59990588Y-106473069D01*
X59990588Y-106473070D01*
X59990586Y-106473072D01*
X59961526Y-106513070D01*
X59888768Y-106613211D01*
X59810128Y-106767552D01*
X59756597Y-106932302D01*
X59748678Y-106982302D01*
X59729500Y-107103389D01*
X59729500Y-107276611D01*
X59733460Y-107301611D01*
X59744087Y-107368713D01*
X59756598Y-107447701D01*
X59783547Y-107530642D01*
X59810128Y-107612447D01*
X59819063Y-107629984D01*
X59888768Y-107766788D01*
X59990586Y-107906928D01*
X60113072Y-108029414D01*
X60253212Y-108131232D01*
X60407555Y-108209873D01*
X60572299Y-108263402D01*
X60743389Y-108290500D01*
X60743390Y-108290500D01*
X60916610Y-108290500D01*
X60916611Y-108290500D01*
X61087701Y-108263402D01*
X61252445Y-108209873D01*
X61406788Y-108131232D01*
X61546928Y-108029414D01*
X61669414Y-107906928D01*
X61771232Y-107766788D01*
X61849873Y-107612445D01*
X61903402Y-107447701D01*
X61930500Y-107276611D01*
X61930500Y-107103389D01*
X61903402Y-106932299D01*
X61849873Y-106767555D01*
X61771232Y-106613212D01*
X61669414Y-106473072D01*
X61617482Y-106421140D01*
X61583997Y-106359817D01*
X61588981Y-106290125D01*
X61630853Y-106234192D01*
X61696317Y-106209775D01*
X61724561Y-106210986D01*
X61725212Y-106211089D01*
X61725215Y-106211090D01*
X61974038Y-106250500D01*
X61974039Y-106250500D01*
X62225961Y-106250500D01*
X62225962Y-106250500D01*
X62474785Y-106211090D01*
X62714379Y-106133241D01*
X62938845Y-106018870D01*
X63142656Y-105870793D01*
X63320793Y-105692656D01*
X63468870Y-105488845D01*
X63583241Y-105264379D01*
X63587195Y-105252208D01*
X63626627Y-105194534D01*
X63690984Y-105167331D01*
X63759831Y-105179241D01*
X63767126Y-105183135D01*
X63899523Y-105259574D01*
X63899526Y-105259575D01*
X63899530Y-105259577D01*
X64010753Y-105289379D01*
X64052256Y-105300500D01*
X64052257Y-105300500D01*
X64317449Y-105300500D01*
X64384488Y-105320185D01*
X64430243Y-105372989D01*
X64440187Y-105442147D01*
X64411162Y-105505703D01*
X64405130Y-105512181D01*
X64214358Y-105702952D01*
X64214352Y-105702959D01*
X64034761Y-105937006D01*
X63887258Y-106192489D01*
X63887254Y-106192499D01*
X63774364Y-106465038D01*
X63774361Y-106465048D01*
X63721264Y-106663212D01*
X63698008Y-106750004D01*
X63698006Y-106750015D01*
X63659500Y-107042486D01*
X63659500Y-107337513D01*
X63684927Y-107530642D01*
X63698007Y-107629993D01*
X63772212Y-107906930D01*
X63774361Y-107914951D01*
X63774364Y-107914961D01*
X63887254Y-108187500D01*
X63887258Y-108187510D01*
X64034761Y-108442993D01*
X64214352Y-108677040D01*
X64214358Y-108677047D01*
X64422952Y-108885641D01*
X64422959Y-108885647D01*
X64657006Y-109065238D01*
X64912489Y-109212741D01*
X64912490Y-109212741D01*
X64912493Y-109212743D01*
X65185048Y-109325639D01*
X65470007Y-109401993D01*
X65762494Y-109440500D01*
X65762501Y-109440500D01*
X66057499Y-109440500D01*
X66057506Y-109440500D01*
X66349993Y-109401993D01*
X66634952Y-109325639D01*
X66907507Y-109212743D01*
X67162994Y-109065238D01*
X67397042Y-108885646D01*
X67605646Y-108677042D01*
X67785238Y-108442994D01*
X67932743Y-108187507D01*
X68045639Y-107914952D01*
X68121993Y-107629993D01*
X68160500Y-107337506D01*
X68160500Y-107103389D01*
X69889500Y-107103389D01*
X69889500Y-107276611D01*
X69893460Y-107301611D01*
X69904087Y-107368713D01*
X69916598Y-107447701D01*
X69943547Y-107530642D01*
X69970128Y-107612447D01*
X69979063Y-107629984D01*
X70048768Y-107766788D01*
X70150586Y-107906928D01*
X70273072Y-108029414D01*
X70413212Y-108131232D01*
X70567555Y-108209873D01*
X70732299Y-108263402D01*
X70903389Y-108290500D01*
X70903390Y-108290500D01*
X71076610Y-108290500D01*
X71076611Y-108290500D01*
X71247701Y-108263402D01*
X71412445Y-108209873D01*
X71566788Y-108131232D01*
X71706928Y-108029414D01*
X71829414Y-107906928D01*
X71931232Y-107766788D01*
X72009873Y-107612445D01*
X72063402Y-107447701D01*
X72090500Y-107276611D01*
X72090500Y-107103389D01*
X72063402Y-106932299D01*
X72009873Y-106767555D01*
X71931232Y-106613212D01*
X71829414Y-106473072D01*
X71706928Y-106350586D01*
X71566788Y-106248768D01*
X71412445Y-106170127D01*
X71247701Y-106116598D01*
X71247699Y-106116597D01*
X71247698Y-106116597D01*
X71116271Y-106095781D01*
X71076611Y-106089500D01*
X70903389Y-106089500D01*
X70863728Y-106095781D01*
X70732302Y-106116597D01*
X70567552Y-106170128D01*
X70413211Y-106248768D01*
X70364455Y-106284192D01*
X70273072Y-106350586D01*
X70273070Y-106350588D01*
X70273069Y-106350588D01*
X70150588Y-106473069D01*
X70150588Y-106473070D01*
X70150586Y-106473072D01*
X70121526Y-106513070D01*
X70048768Y-106613211D01*
X69970128Y-106767552D01*
X69916597Y-106932302D01*
X69908678Y-106982302D01*
X69889500Y-107103389D01*
X68160500Y-107103389D01*
X68160500Y-107042494D01*
X68121993Y-106750007D01*
X68045639Y-106465048D01*
X67932743Y-106192493D01*
X67927401Y-106183241D01*
X67785238Y-105937006D01*
X67605647Y-105702959D01*
X67605641Y-105702952D01*
X67414870Y-105512181D01*
X67381385Y-105450858D01*
X67386369Y-105381166D01*
X67428241Y-105325233D01*
X67493705Y-105300816D01*
X67502551Y-105300500D01*
X79633700Y-105300500D01*
X79700739Y-105320185D01*
X79744184Y-105368204D01*
X79826036Y-105528848D01*
X79831132Y-105538848D01*
X79979201Y-105742649D01*
X79979205Y-105742654D01*
X79979207Y-105742656D01*
X80157344Y-105920793D01*
X80157345Y-105920794D01*
X80157344Y-105920794D01*
X80163661Y-105925383D01*
X80206327Y-105980714D01*
X80212305Y-106050327D01*
X80179699Y-106112122D01*
X80118860Y-106146479D01*
X80071378Y-106148174D01*
X80016611Y-106139500D01*
X79843389Y-106139500D01*
X79830143Y-106141598D01*
X79672302Y-106166597D01*
X79507552Y-106220128D01*
X79353211Y-106298768D01*
X79296289Y-106340125D01*
X79213072Y-106400586D01*
X79213070Y-106400588D01*
X79213069Y-106400588D01*
X79090588Y-106523069D01*
X79090588Y-106523070D01*
X79090586Y-106523072D01*
X79078892Y-106539168D01*
X78988768Y-106663211D01*
X78910128Y-106817552D01*
X78856597Y-106982302D01*
X78840675Y-107082832D01*
X78829500Y-107153389D01*
X78829500Y-107326611D01*
X78831226Y-107337506D01*
X78855013Y-107487697D01*
X78856598Y-107497701D01*
X78910127Y-107662445D01*
X78988768Y-107816788D01*
X79090586Y-107956928D01*
X79213072Y-108079414D01*
X79353212Y-108181232D01*
X79507555Y-108259873D01*
X79672299Y-108313402D01*
X79843389Y-108340500D01*
X79843390Y-108340500D01*
X80016610Y-108340500D01*
X80016611Y-108340500D01*
X80187701Y-108313402D01*
X80352445Y-108259873D01*
X80506788Y-108181232D01*
X80646928Y-108079414D01*
X80769414Y-107956928D01*
X80871232Y-107816788D01*
X80949873Y-107662445D01*
X81003402Y-107497701D01*
X81030500Y-107326611D01*
X81030500Y-107153389D01*
X81003402Y-106982299D01*
X80949873Y-106817555D01*
X80871232Y-106663212D01*
X80769414Y-106523072D01*
X80717482Y-106471140D01*
X80683997Y-106409817D01*
X80688981Y-106340125D01*
X80730853Y-106284192D01*
X80796317Y-106259775D01*
X80824561Y-106260986D01*
X80825212Y-106261089D01*
X80825215Y-106261090D01*
X81074038Y-106300500D01*
X81074039Y-106300500D01*
X81325961Y-106300500D01*
X81325962Y-106300500D01*
X81574785Y-106261090D01*
X81814379Y-106183241D01*
X82038845Y-106068870D01*
X82242656Y-105920793D01*
X82420793Y-105742656D01*
X82568870Y-105538845D01*
X82683241Y-105314379D01*
X82697294Y-105271126D01*
X82736729Y-105213453D01*
X82801087Y-105186254D01*
X82869934Y-105198166D01*
X82877219Y-105202055D01*
X82886229Y-105207257D01*
X82959529Y-105249577D01*
X83112257Y-105290500D01*
X83488494Y-105290500D01*
X83555533Y-105310185D01*
X83601288Y-105362989D01*
X83611232Y-105432147D01*
X83582207Y-105495703D01*
X83563981Y-105512876D01*
X83522952Y-105544358D01*
X83314358Y-105752952D01*
X83314352Y-105752959D01*
X83134761Y-105987006D01*
X82987258Y-106242489D01*
X82987254Y-106242499D01*
X82874364Y-106515038D01*
X82874361Y-106515048D01*
X82800685Y-106790015D01*
X82798008Y-106800004D01*
X82798006Y-106800015D01*
X82759500Y-107092486D01*
X82759500Y-107387513D01*
X82788654Y-107608949D01*
X82798007Y-107679993D01*
X82872212Y-107956930D01*
X82874361Y-107964951D01*
X82874364Y-107964961D01*
X82987254Y-108237500D01*
X82987258Y-108237510D01*
X83134761Y-108492993D01*
X83314352Y-108727040D01*
X83314358Y-108727047D01*
X83522952Y-108935641D01*
X83522959Y-108935647D01*
X83757006Y-109115238D01*
X84012489Y-109262741D01*
X84012490Y-109262741D01*
X84012493Y-109262743D01*
X84285048Y-109375639D01*
X84570007Y-109451993D01*
X84862494Y-109490500D01*
X84862501Y-109490500D01*
X85157499Y-109490500D01*
X85157506Y-109490500D01*
X85449993Y-109451993D01*
X85734952Y-109375639D01*
X86007507Y-109262743D01*
X86262994Y-109115238D01*
X86497042Y-108935646D01*
X86705646Y-108727042D01*
X86885238Y-108492994D01*
X87032743Y-108237507D01*
X87145639Y-107964952D01*
X87221993Y-107679993D01*
X87260500Y-107387506D01*
X87260500Y-107153389D01*
X88989500Y-107153389D01*
X88989500Y-107326611D01*
X88991226Y-107337506D01*
X89015013Y-107487697D01*
X89016598Y-107497701D01*
X89070127Y-107662445D01*
X89148768Y-107816788D01*
X89250586Y-107956928D01*
X89373072Y-108079414D01*
X89513212Y-108181232D01*
X89667555Y-108259873D01*
X89832299Y-108313402D01*
X90003389Y-108340500D01*
X90003390Y-108340500D01*
X90176610Y-108340500D01*
X90176611Y-108340500D01*
X90347701Y-108313402D01*
X90512445Y-108259873D01*
X90666788Y-108181232D01*
X90806928Y-108079414D01*
X90929414Y-107956928D01*
X91031232Y-107816788D01*
X91109873Y-107662445D01*
X91163402Y-107497701D01*
X91190500Y-107326611D01*
X91190500Y-107153389D01*
X91163402Y-106982299D01*
X91109873Y-106817555D01*
X91031232Y-106663212D01*
X90929414Y-106523072D01*
X90806928Y-106400586D01*
X90666788Y-106298768D01*
X90512445Y-106220127D01*
X90347701Y-106166598D01*
X90347699Y-106166597D01*
X90347698Y-106166597D01*
X90189857Y-106141598D01*
X90176611Y-106139500D01*
X90003389Y-106139500D01*
X89990143Y-106141598D01*
X89832302Y-106166597D01*
X89667552Y-106220128D01*
X89513211Y-106298768D01*
X89456289Y-106340125D01*
X89373072Y-106400586D01*
X89373070Y-106400588D01*
X89373069Y-106400588D01*
X89250588Y-106523069D01*
X89250588Y-106523070D01*
X89250586Y-106523072D01*
X89238892Y-106539168D01*
X89148768Y-106663211D01*
X89070128Y-106817552D01*
X89016597Y-106982302D01*
X89000675Y-107082832D01*
X88989500Y-107153389D01*
X87260500Y-107153389D01*
X87260500Y-107092494D01*
X87221993Y-106800007D01*
X87145639Y-106515048D01*
X87138606Y-106498070D01*
X87097777Y-106399500D01*
X87032743Y-106242493D01*
X87029046Y-106236090D01*
X86885238Y-105987006D01*
X86705647Y-105752959D01*
X86705641Y-105752952D01*
X86497047Y-105544358D01*
X86489866Y-105538848D01*
X86456018Y-105512875D01*
X86414817Y-105456448D01*
X86410662Y-105386702D01*
X86444875Y-105325781D01*
X86506592Y-105293029D01*
X86531506Y-105290500D01*
X98733700Y-105290500D01*
X98800739Y-105310185D01*
X98844184Y-105358204D01*
X98926296Y-105519358D01*
X98931132Y-105528848D01*
X99079201Y-105732649D01*
X99079205Y-105732654D01*
X99079207Y-105732656D01*
X99257344Y-105910793D01*
X99257345Y-105910794D01*
X99257344Y-105910794D01*
X99263661Y-105915383D01*
X99306327Y-105970714D01*
X99312305Y-106040327D01*
X99279699Y-106102122D01*
X99218860Y-106136479D01*
X99171378Y-106138174D01*
X99116611Y-106129500D01*
X98943389Y-106129500D01*
X98903728Y-106135781D01*
X98772302Y-106156597D01*
X98607552Y-106210128D01*
X98453211Y-106288768D01*
X98396289Y-106330125D01*
X98313072Y-106390586D01*
X98313070Y-106390588D01*
X98313069Y-106390588D01*
X98190588Y-106513069D01*
X98190588Y-106513070D01*
X98190586Y-106513072D01*
X98183323Y-106523069D01*
X98088768Y-106653211D01*
X98010128Y-106807552D01*
X97956597Y-106972302D01*
X97939146Y-107082486D01*
X97929500Y-107143389D01*
X97929500Y-107316611D01*
X97932811Y-107337513D01*
X97955460Y-107480520D01*
X97956598Y-107487701D01*
X98010127Y-107652445D01*
X98088768Y-107806788D01*
X98190586Y-107946928D01*
X98313072Y-108069414D01*
X98453212Y-108171232D01*
X98607555Y-108249873D01*
X98772299Y-108303402D01*
X98943389Y-108330500D01*
X98943390Y-108330500D01*
X99116610Y-108330500D01*
X99116611Y-108330500D01*
X99287701Y-108303402D01*
X99452445Y-108249873D01*
X99606788Y-108171232D01*
X99746928Y-108069414D01*
X99869414Y-107946928D01*
X99971232Y-107806788D01*
X100049873Y-107652445D01*
X100103402Y-107487701D01*
X100130500Y-107316611D01*
X100130500Y-107143389D01*
X100103402Y-106972299D01*
X100049873Y-106807555D01*
X99971232Y-106653212D01*
X99869414Y-106513072D01*
X99817482Y-106461140D01*
X99783997Y-106399817D01*
X99788981Y-106330125D01*
X99830853Y-106274192D01*
X99896317Y-106249775D01*
X99924561Y-106250986D01*
X99925212Y-106251089D01*
X99925215Y-106251090D01*
X100174038Y-106290500D01*
X100174039Y-106290500D01*
X100425961Y-106290500D01*
X100425962Y-106290500D01*
X100674785Y-106251090D01*
X100914379Y-106173241D01*
X101138845Y-106058870D01*
X101342656Y-105910793D01*
X101520793Y-105732656D01*
X101668870Y-105528845D01*
X101783241Y-105304379D01*
X101794713Y-105269071D01*
X101834149Y-105211397D01*
X101898507Y-105184197D01*
X101967354Y-105196111D01*
X101974645Y-105200003D01*
X102034523Y-105234574D01*
X102034524Y-105234575D01*
X102034526Y-105234575D01*
X102034529Y-105234577D01*
X102187257Y-105275501D01*
X102187260Y-105275501D01*
X102352967Y-105275501D01*
X102352983Y-105275500D01*
X102595010Y-105275500D01*
X102662049Y-105295185D01*
X102707804Y-105347989D01*
X102717748Y-105417147D01*
X102688723Y-105480703D01*
X102670497Y-105497876D01*
X102622952Y-105534358D01*
X102414358Y-105742952D01*
X102414352Y-105742959D01*
X102234761Y-105977006D01*
X102087258Y-106232489D01*
X102087254Y-106232499D01*
X101974364Y-106505038D01*
X101974361Y-106505048D01*
X101898008Y-106790004D01*
X101898006Y-106790015D01*
X101859500Y-107082486D01*
X101859500Y-107377513D01*
X101879661Y-107530642D01*
X101898007Y-107669993D01*
X101972212Y-107946930D01*
X101974361Y-107954951D01*
X101974364Y-107954961D01*
X102087254Y-108227500D01*
X102087258Y-108227510D01*
X102234761Y-108482993D01*
X102414352Y-108717040D01*
X102414358Y-108717047D01*
X102622952Y-108925641D01*
X102622959Y-108925647D01*
X102857006Y-109105238D01*
X103112489Y-109252741D01*
X103112490Y-109252741D01*
X103112493Y-109252743D01*
X103385048Y-109365639D01*
X103670007Y-109441993D01*
X103962494Y-109480500D01*
X103962501Y-109480500D01*
X104257499Y-109480500D01*
X104257506Y-109480500D01*
X104549993Y-109441993D01*
X104834952Y-109365639D01*
X105107507Y-109252743D01*
X105362994Y-109105238D01*
X105597042Y-108925646D01*
X105805646Y-108717042D01*
X105985238Y-108482994D01*
X106132743Y-108227507D01*
X106245639Y-107954952D01*
X106321993Y-107669993D01*
X106360500Y-107377506D01*
X106360500Y-107143389D01*
X108089500Y-107143389D01*
X108089500Y-107316611D01*
X108092811Y-107337513D01*
X108115460Y-107480520D01*
X108116598Y-107487701D01*
X108170127Y-107652445D01*
X108248768Y-107806788D01*
X108350586Y-107946928D01*
X108473072Y-108069414D01*
X108613212Y-108171232D01*
X108767555Y-108249873D01*
X108932299Y-108303402D01*
X109103389Y-108330500D01*
X109103390Y-108330500D01*
X109276610Y-108330500D01*
X109276611Y-108330500D01*
X109447701Y-108303402D01*
X109612445Y-108249873D01*
X109766788Y-108171232D01*
X109906928Y-108069414D01*
X110029414Y-107946928D01*
X110131232Y-107806788D01*
X110209873Y-107652445D01*
X110263402Y-107487701D01*
X110290500Y-107316611D01*
X110290500Y-107143389D01*
X110263402Y-106972299D01*
X110209873Y-106807555D01*
X110131232Y-106653212D01*
X110029414Y-106513072D01*
X109906928Y-106390586D01*
X109766788Y-106288768D01*
X109632071Y-106220127D01*
X109612447Y-106210128D01*
X109612446Y-106210127D01*
X109612445Y-106210127D01*
X109447701Y-106156598D01*
X109447699Y-106156597D01*
X109447698Y-106156597D01*
X109316271Y-106135781D01*
X109276611Y-106129500D01*
X109103389Y-106129500D01*
X109063728Y-106135781D01*
X108932302Y-106156597D01*
X108767552Y-106210128D01*
X108613211Y-106288768D01*
X108556289Y-106330125D01*
X108473072Y-106390586D01*
X108473070Y-106390588D01*
X108473069Y-106390588D01*
X108350588Y-106513069D01*
X108350588Y-106513070D01*
X108350586Y-106513072D01*
X108343323Y-106523069D01*
X108248768Y-106653211D01*
X108170128Y-106807552D01*
X108116597Y-106972302D01*
X108099146Y-107082486D01*
X108089500Y-107143389D01*
X106360500Y-107143389D01*
X106360500Y-107082494D01*
X106321993Y-106790007D01*
X106245639Y-106505048D01*
X106242749Y-106498072D01*
X106202051Y-106399817D01*
X106132743Y-106232493D01*
X106124333Y-106217927D01*
X105985238Y-105977006D01*
X105805647Y-105742959D01*
X105805641Y-105742952D01*
X105597047Y-105534358D01*
X105589862Y-105528845D01*
X105549502Y-105497875D01*
X105508301Y-105441448D01*
X105504146Y-105371702D01*
X105538359Y-105310781D01*
X105600076Y-105278029D01*
X105624990Y-105275500D01*
X117783700Y-105275500D01*
X117850739Y-105295185D01*
X117894184Y-105343204D01*
X117980636Y-105512876D01*
X117981132Y-105513848D01*
X118129201Y-105717649D01*
X118129205Y-105717654D01*
X118129207Y-105717656D01*
X118307344Y-105895793D01*
X118307345Y-105895794D01*
X118307344Y-105895794D01*
X118313661Y-105900383D01*
X118356327Y-105955714D01*
X118362305Y-106025327D01*
X118329699Y-106087122D01*
X118268860Y-106121479D01*
X118221378Y-106123174D01*
X118166611Y-106114500D01*
X117993389Y-106114500D01*
X117980143Y-106116598D01*
X117822302Y-106141597D01*
X117657552Y-106195128D01*
X117503211Y-106273768D01*
X117446289Y-106315125D01*
X117363072Y-106375586D01*
X117363070Y-106375588D01*
X117363069Y-106375588D01*
X117240588Y-106498069D01*
X117240588Y-106498070D01*
X117240586Y-106498072D01*
X117210732Y-106539163D01*
X117138768Y-106638211D01*
X117060128Y-106792552D01*
X117006597Y-106957302D01*
X116984870Y-107094486D01*
X116979500Y-107128389D01*
X116979500Y-107301611D01*
X116983460Y-107326611D01*
X117004718Y-107460836D01*
X117006598Y-107472701D01*
X117060127Y-107637445D01*
X117138768Y-107791788D01*
X117240586Y-107931928D01*
X117363072Y-108054414D01*
X117503212Y-108156232D01*
X117657555Y-108234873D01*
X117822299Y-108288402D01*
X117993389Y-108315500D01*
X117993390Y-108315500D01*
X118166610Y-108315500D01*
X118166611Y-108315500D01*
X118337701Y-108288402D01*
X118502445Y-108234873D01*
X118656788Y-108156232D01*
X118796928Y-108054414D01*
X118919414Y-107931928D01*
X119021232Y-107791788D01*
X119099873Y-107637445D01*
X119153402Y-107472701D01*
X119180500Y-107301611D01*
X119180500Y-107128389D01*
X119170854Y-107067486D01*
X120909500Y-107067486D01*
X120909500Y-107362513D01*
X120935445Y-107559576D01*
X120948007Y-107654993D01*
X121022212Y-107931930D01*
X121024361Y-107939951D01*
X121024364Y-107939961D01*
X121137254Y-108212500D01*
X121137258Y-108212510D01*
X121284761Y-108467993D01*
X121464352Y-108702040D01*
X121464358Y-108702047D01*
X121672952Y-108910641D01*
X121672959Y-108910647D01*
X121907006Y-109090238D01*
X122162489Y-109237741D01*
X122162490Y-109237741D01*
X122162493Y-109237743D01*
X122435048Y-109350639D01*
X122720007Y-109426993D01*
X123012494Y-109465500D01*
X123012501Y-109465500D01*
X123307499Y-109465500D01*
X123307506Y-109465500D01*
X123599993Y-109426993D01*
X123884952Y-109350639D01*
X124157507Y-109237743D01*
X124412994Y-109090238D01*
X124647042Y-108910646D01*
X124855646Y-108702042D01*
X125035238Y-108467994D01*
X125182743Y-108212507D01*
X125295639Y-107939952D01*
X125371993Y-107654993D01*
X125410500Y-107362506D01*
X125410500Y-107128389D01*
X127139500Y-107128389D01*
X127139500Y-107301611D01*
X127143460Y-107326611D01*
X127164718Y-107460836D01*
X127166598Y-107472701D01*
X127220127Y-107637445D01*
X127298768Y-107791788D01*
X127400586Y-107931928D01*
X127523072Y-108054414D01*
X127663212Y-108156232D01*
X127817555Y-108234873D01*
X127982299Y-108288402D01*
X128153389Y-108315500D01*
X128153390Y-108315500D01*
X128326610Y-108315500D01*
X128326611Y-108315500D01*
X128497701Y-108288402D01*
X128662445Y-108234873D01*
X128816788Y-108156232D01*
X128956928Y-108054414D01*
X129079414Y-107931928D01*
X129181232Y-107791788D01*
X129259873Y-107637445D01*
X129313402Y-107472701D01*
X129340500Y-107301611D01*
X129340500Y-107128389D01*
X129313402Y-106957299D01*
X129296576Y-106905513D01*
X134849500Y-106905513D01*
X134849500Y-107094486D01*
X134879059Y-107281118D01*
X134937454Y-107460836D01*
X134987765Y-107559576D01*
X135023240Y-107629199D01*
X135134310Y-107782073D01*
X135267927Y-107915690D01*
X135420801Y-108026760D01*
X135500347Y-108067290D01*
X135589163Y-108112545D01*
X135589165Y-108112545D01*
X135589168Y-108112547D01*
X135685497Y-108143846D01*
X135768881Y-108170940D01*
X135955514Y-108200500D01*
X135955519Y-108200500D01*
X136144486Y-108200500D01*
X136331118Y-108170940D01*
X136376387Y-108156231D01*
X136510832Y-108112547D01*
X136679199Y-108026760D01*
X136832073Y-107915690D01*
X136965690Y-107782073D01*
X137060475Y-107651613D01*
X137115804Y-107608949D01*
X137160792Y-107600500D01*
X139183331Y-107600500D01*
X139183347Y-107600501D01*
X139190943Y-107600501D01*
X139349054Y-107600501D01*
X139349057Y-107600501D01*
X139501785Y-107559577D01*
X139551904Y-107530639D01*
X139638716Y-107480520D01*
X139750520Y-107368716D01*
X139750520Y-107368714D01*
X139760728Y-107358507D01*
X139760730Y-107358504D01*
X142739845Y-104379388D01*
X142801166Y-104345905D01*
X142865841Y-104349139D01*
X142940293Y-104373331D01*
X143022378Y-104386331D01*
X143159183Y-104408000D01*
X143159188Y-104408000D01*
X143380817Y-104408000D01*
X143599707Y-104373331D01*
X143810484Y-104304845D01*
X144007953Y-104204230D01*
X144187251Y-104073962D01*
X144343962Y-103917251D01*
X144474230Y-103737953D01*
X144574845Y-103540484D01*
X144643331Y-103329707D01*
X144658565Y-103233521D01*
X144678000Y-103110817D01*
X144678000Y-102889182D01*
X144643331Y-102670292D01*
X144599811Y-102536352D01*
X144574845Y-102459516D01*
X144574843Y-102459513D01*
X144574843Y-102459511D01*
X144495203Y-102303210D01*
X144474230Y-102262047D01*
X144343962Y-102082749D01*
X144187251Y-101926038D01*
X144007953Y-101795770D01*
X143987463Y-101785330D01*
X143810488Y-101695156D01*
X143599707Y-101626668D01*
X143380817Y-101592000D01*
X143380812Y-101592000D01*
X143159188Y-101592000D01*
X143159183Y-101592000D01*
X142940292Y-101626668D01*
X142729511Y-101695156D01*
X142532046Y-101795770D01*
X142456835Y-101850415D01*
X142352749Y-101926038D01*
X142352747Y-101926040D01*
X142352745Y-101926041D01*
X142311693Y-101967093D01*
X142250370Y-102000578D01*
X142180678Y-101995592D01*
X142124745Y-101953720D01*
X142107831Y-101922743D01*
X142080855Y-101850415D01*
X142080850Y-101850406D01*
X141994690Y-101735312D01*
X141994687Y-101735309D01*
X141879593Y-101649149D01*
X141879586Y-101649145D01*
X141744879Y-101598903D01*
X141744872Y-101598901D01*
X141685344Y-101592500D01*
X140980000Y-101592500D01*
X140980000Y-102445743D01*
X140963521Y-102436229D01*
X140809650Y-102395000D01*
X140650350Y-102395000D01*
X140496479Y-102436229D01*
X140480000Y-102445743D01*
X140480000Y-101592500D01*
X139774655Y-101592500D01*
X139715127Y-101598901D01*
X139715120Y-101598903D01*
X139580413Y-101649145D01*
X139580406Y-101649149D01*
X139465312Y-101735309D01*
X139465309Y-101735312D01*
X139379149Y-101850406D01*
X139379145Y-101850413D01*
X139328903Y-101985120D01*
X139328901Y-101985127D01*
X139322500Y-102044655D01*
X139322500Y-102750000D01*
X140175743Y-102750000D01*
X140166229Y-102766479D01*
X140125000Y-102920350D01*
X140125000Y-103079650D01*
X140166229Y-103233521D01*
X140175743Y-103250000D01*
X139322500Y-103250000D01*
X139322500Y-103955344D01*
X139328901Y-104014872D01*
X139328903Y-104014879D01*
X139379145Y-104149586D01*
X139379149Y-104149593D01*
X139465309Y-104264687D01*
X139465312Y-104264690D01*
X139580406Y-104350850D01*
X139580413Y-104350854D01*
X139715120Y-104401096D01*
X139715127Y-104401098D01*
X139774655Y-104407499D01*
X139774672Y-104407500D01*
X140480000Y-104407500D01*
X140480000Y-103554256D01*
X140496479Y-103563771D01*
X140650350Y-103605000D01*
X140809650Y-103605000D01*
X140963521Y-103563771D01*
X140980000Y-103554256D01*
X140980000Y-104389402D01*
X140960315Y-104456441D01*
X140943681Y-104477083D01*
X139057584Y-106363181D01*
X138996261Y-106396666D01*
X138969903Y-106399500D01*
X137160792Y-106399500D01*
X137093753Y-106379815D01*
X137060474Y-106348386D01*
X137054472Y-106340125D01*
X136965690Y-106217927D01*
X136832073Y-106084310D01*
X136679199Y-105973240D01*
X136657151Y-105962006D01*
X136510836Y-105887454D01*
X136331118Y-105829059D01*
X136144486Y-105799500D01*
X136144481Y-105799500D01*
X135955519Y-105799500D01*
X135955514Y-105799500D01*
X135768881Y-105829059D01*
X135589163Y-105887454D01*
X135420800Y-105973240D01*
X135383519Y-106000327D01*
X135267927Y-106084310D01*
X135267925Y-106084312D01*
X135267924Y-106084312D01*
X135134312Y-106217924D01*
X135134312Y-106217925D01*
X135134310Y-106217927D01*
X135110216Y-106251090D01*
X135023240Y-106370800D01*
X134937454Y-106539163D01*
X134879059Y-106718881D01*
X134849500Y-106905513D01*
X129296576Y-106905513D01*
X129259873Y-106792555D01*
X129259871Y-106792552D01*
X129259871Y-106792550D01*
X129193970Y-106663212D01*
X129181232Y-106638212D01*
X129079414Y-106498072D01*
X128956928Y-106375586D01*
X128816788Y-106273768D01*
X128662445Y-106195127D01*
X128497701Y-106141598D01*
X128497699Y-106141597D01*
X128497698Y-106141597D01*
X128339857Y-106116598D01*
X128326611Y-106114500D01*
X128153389Y-106114500D01*
X128140143Y-106116598D01*
X127982302Y-106141597D01*
X127817552Y-106195128D01*
X127663211Y-106273768D01*
X127606289Y-106315125D01*
X127523072Y-106375586D01*
X127523070Y-106375588D01*
X127523069Y-106375588D01*
X127400588Y-106498069D01*
X127400588Y-106498070D01*
X127400586Y-106498072D01*
X127370732Y-106539163D01*
X127298768Y-106638211D01*
X127220128Y-106792552D01*
X127166597Y-106957302D01*
X127144870Y-107094486D01*
X127139500Y-107128389D01*
X125410500Y-107128389D01*
X125410500Y-107067494D01*
X125371993Y-106775007D01*
X125295639Y-106490048D01*
X125288606Y-106473070D01*
X125243089Y-106363181D01*
X125182743Y-106217493D01*
X125179046Y-106211090D01*
X125035238Y-105962006D01*
X124855647Y-105727959D01*
X124855641Y-105727952D01*
X124647047Y-105519358D01*
X124647040Y-105519352D01*
X124412993Y-105339761D01*
X124157510Y-105192258D01*
X124157500Y-105192254D01*
X123884961Y-105079364D01*
X123884954Y-105079362D01*
X123884952Y-105079361D01*
X123599993Y-105003007D01*
X123551113Y-104996571D01*
X123307513Y-104964500D01*
X123307506Y-104964500D01*
X123012494Y-104964500D01*
X123012486Y-104964500D01*
X122734085Y-105001153D01*
X122720007Y-105003007D01*
X122638730Y-105024785D01*
X122435048Y-105079361D01*
X122435038Y-105079364D01*
X122162499Y-105192254D01*
X122162489Y-105192258D01*
X121907006Y-105339761D01*
X121672959Y-105519352D01*
X121672952Y-105519358D01*
X121464358Y-105727952D01*
X121464352Y-105727959D01*
X121284761Y-105962006D01*
X121137258Y-106217489D01*
X121137254Y-106217499D01*
X121024364Y-106490038D01*
X121024361Y-106490048D01*
X120954707Y-106750004D01*
X120948008Y-106775004D01*
X120948006Y-106775015D01*
X120909500Y-107067486D01*
X119170854Y-107067486D01*
X119153402Y-106957299D01*
X119099873Y-106792555D01*
X119021232Y-106638212D01*
X118919414Y-106498072D01*
X118867482Y-106446140D01*
X118833997Y-106384817D01*
X118838981Y-106315125D01*
X118880853Y-106259192D01*
X118946317Y-106234775D01*
X118974561Y-106235986D01*
X118975212Y-106236089D01*
X118975215Y-106236090D01*
X119224038Y-106275500D01*
X119224039Y-106275500D01*
X119475961Y-106275500D01*
X119475962Y-106275500D01*
X119724785Y-106236090D01*
X119964379Y-106158241D01*
X120188845Y-106043870D01*
X120392656Y-105895793D01*
X120570793Y-105717656D01*
X120718870Y-105513845D01*
X120833241Y-105289379D01*
X120911090Y-105049785D01*
X120950500Y-104800962D01*
X120950500Y-104549038D01*
X120911090Y-104300215D01*
X120833241Y-104060621D01*
X120833239Y-104060618D01*
X120833239Y-104060616D01*
X120760190Y-103917251D01*
X120718870Y-103836155D01*
X120656275Y-103750000D01*
X120570798Y-103632350D01*
X120570794Y-103632345D01*
X120392654Y-103454205D01*
X120392649Y-103454201D01*
X120188848Y-103306132D01*
X120188847Y-103306131D01*
X120188845Y-103306130D01*
X120078684Y-103250000D01*
X119964383Y-103191760D01*
X119724785Y-103113910D01*
X119578231Y-103090698D01*
X119475962Y-103074500D01*
X119224038Y-103074500D01*
X119121775Y-103090697D01*
X118975214Y-103113910D01*
X118735616Y-103191760D01*
X118511151Y-103306132D01*
X118307350Y-103454201D01*
X118307345Y-103454205D01*
X118129205Y-103632345D01*
X118129201Y-103632350D01*
X117981132Y-103836151D01*
X117894185Y-104006795D01*
X117846211Y-104057591D01*
X117783700Y-104074500D01*
X102566411Y-104074500D01*
X102499372Y-104054815D01*
X102478730Y-104038181D01*
X101367904Y-102927355D01*
X101367902Y-102927352D01*
X101249031Y-102808481D01*
X101249030Y-102808480D01*
X101162218Y-102758360D01*
X101162218Y-102758359D01*
X101162214Y-102758358D01*
X101112099Y-102729423D01*
X100959371Y-102688499D01*
X100801257Y-102688499D01*
X100793661Y-102688499D01*
X100793645Y-102688500D01*
X89230965Y-102688500D01*
X89163926Y-102668815D01*
X89118171Y-102616011D01*
X89108227Y-102546853D01*
X89110388Y-102535567D01*
X89110602Y-102534674D01*
X89150000Y-102285928D01*
X89150000Y-102034070D01*
X89149999Y-102034069D01*
X89148415Y-102024071D01*
X105050000Y-102024071D01*
X105050000Y-102275928D01*
X105089397Y-102524669D01*
X105167219Y-102764184D01*
X105281557Y-102988583D01*
X105355748Y-103090697D01*
X105355748Y-103090698D01*
X105972421Y-102474024D01*
X105985359Y-102505258D01*
X106067437Y-102628097D01*
X106171903Y-102732563D01*
X106294742Y-102814641D01*
X106325974Y-102827577D01*
X105709300Y-103444250D01*
X105811416Y-103518442D01*
X106035815Y-103632780D01*
X106275330Y-103710602D01*
X106524072Y-103750000D01*
X106775928Y-103750000D01*
X107024669Y-103710602D01*
X107264184Y-103632780D01*
X107488575Y-103518446D01*
X107488581Y-103518442D01*
X107590697Y-103444250D01*
X107590698Y-103444250D01*
X106974025Y-102827578D01*
X107005258Y-102814641D01*
X107128097Y-102732563D01*
X107232563Y-102628097D01*
X107314641Y-102505258D01*
X107327577Y-102474025D01*
X107944250Y-103090698D01*
X107944250Y-103090697D01*
X108018442Y-102988581D01*
X108018446Y-102988575D01*
X108132780Y-102764184D01*
X108210602Y-102524669D01*
X108250000Y-102275928D01*
X108250000Y-102024071D01*
X108249925Y-102023598D01*
X108249925Y-102023597D01*
X108247624Y-102009071D01*
X124100000Y-102009071D01*
X124100000Y-102260928D01*
X124139397Y-102509669D01*
X124217219Y-102749184D01*
X124331557Y-102973583D01*
X124405748Y-103075697D01*
X124405748Y-103075698D01*
X125022421Y-102459024D01*
X125035359Y-102490258D01*
X125117437Y-102613097D01*
X125221903Y-102717563D01*
X125344742Y-102799641D01*
X125375974Y-102812577D01*
X124759300Y-103429250D01*
X124861416Y-103503442D01*
X125085815Y-103617780D01*
X125325330Y-103695602D01*
X125574072Y-103735000D01*
X125825928Y-103735000D01*
X126074669Y-103695602D01*
X126314184Y-103617780D01*
X126538575Y-103503446D01*
X126538581Y-103503442D01*
X126640697Y-103429250D01*
X126640698Y-103429250D01*
X126024025Y-102812578D01*
X126055258Y-102799641D01*
X126178097Y-102717563D01*
X126282563Y-102613097D01*
X126364641Y-102490258D01*
X126377577Y-102459025D01*
X126994250Y-103075698D01*
X126994250Y-103075697D01*
X127068442Y-102973581D01*
X127068446Y-102973575D01*
X127182780Y-102749184D01*
X127260602Y-102509669D01*
X127300000Y-102260928D01*
X127300000Y-102009071D01*
X127260602Y-101760330D01*
X127182780Y-101520815D01*
X127068442Y-101296416D01*
X126994250Y-101194301D01*
X126994250Y-101194300D01*
X126377577Y-101810973D01*
X126364641Y-101779742D01*
X126282563Y-101656903D01*
X126178097Y-101552437D01*
X126055258Y-101470359D01*
X126024024Y-101457421D01*
X126640698Y-100840748D01*
X126538583Y-100766557D01*
X126314184Y-100652219D01*
X126074669Y-100574397D01*
X125825928Y-100535000D01*
X125574072Y-100535000D01*
X125325330Y-100574397D01*
X125085815Y-100652219D01*
X124861413Y-100766559D01*
X124759301Y-100840747D01*
X124759300Y-100840748D01*
X125375974Y-101457421D01*
X125344742Y-101470359D01*
X125221903Y-101552437D01*
X125117437Y-101656903D01*
X125035359Y-101779742D01*
X125022421Y-101810974D01*
X124405748Y-101194300D01*
X124405747Y-101194301D01*
X124331559Y-101296413D01*
X124217219Y-101520815D01*
X124139397Y-101760330D01*
X124100000Y-102009071D01*
X108247624Y-102009071D01*
X108210602Y-101775330D01*
X108132780Y-101535815D01*
X108018442Y-101311416D01*
X107944250Y-101209301D01*
X107944250Y-101209300D01*
X107327577Y-101825973D01*
X107314641Y-101794742D01*
X107232563Y-101671903D01*
X107128097Y-101567437D01*
X107005258Y-101485359D01*
X106974024Y-101472421D01*
X107590697Y-100855749D01*
X107590697Y-100855748D01*
X107488583Y-100781557D01*
X107264184Y-100667219D01*
X107024669Y-100589397D01*
X106775928Y-100550000D01*
X106524072Y-100550000D01*
X106275330Y-100589397D01*
X106035815Y-100667219D01*
X105811413Y-100781559D01*
X105709301Y-100855747D01*
X105709300Y-100855748D01*
X106325974Y-101472421D01*
X106294742Y-101485359D01*
X106171903Y-101567437D01*
X106067437Y-101671903D01*
X105985359Y-101794742D01*
X105972421Y-101825974D01*
X105355748Y-101209300D01*
X105355747Y-101209301D01*
X105281559Y-101311413D01*
X105167219Y-101535815D01*
X105089397Y-101775330D01*
X105050000Y-102024071D01*
X89148415Y-102024071D01*
X89110602Y-101785330D01*
X89032780Y-101545815D01*
X88918442Y-101321416D01*
X88844250Y-101219301D01*
X88844250Y-101219300D01*
X88227577Y-101835974D01*
X88214641Y-101804742D01*
X88132563Y-101681903D01*
X88028097Y-101577437D01*
X87905258Y-101495359D01*
X87874024Y-101482421D01*
X88490698Y-100865748D01*
X88388583Y-100791557D01*
X88164184Y-100677219D01*
X87924669Y-100599397D01*
X87675928Y-100560000D01*
X87424072Y-100560000D01*
X87175330Y-100599397D01*
X86935815Y-100677219D01*
X86711413Y-100791559D01*
X86609301Y-100865747D01*
X86609300Y-100865748D01*
X87225974Y-101482421D01*
X87194742Y-101495359D01*
X87071903Y-101577437D01*
X86967437Y-101681903D01*
X86885359Y-101804742D01*
X86872421Y-101835974D01*
X86255748Y-101219300D01*
X86255747Y-101219301D01*
X86181559Y-101321413D01*
X86067219Y-101545815D01*
X85989397Y-101785330D01*
X85950000Y-102034071D01*
X85950000Y-102285928D01*
X85989397Y-102534669D01*
X86067219Y-102774184D01*
X86181557Y-102998583D01*
X86255748Y-103100697D01*
X86255748Y-103100698D01*
X86872421Y-102484024D01*
X86885359Y-102515258D01*
X86967437Y-102638097D01*
X87071903Y-102742563D01*
X87194742Y-102824641D01*
X87225975Y-102837578D01*
X86690372Y-103373181D01*
X86629049Y-103406666D01*
X86602691Y-103409500D01*
X83378511Y-103409500D01*
X83311472Y-103389815D01*
X83290830Y-103373181D01*
X82454004Y-102536355D01*
X82454002Y-102536352D01*
X82335131Y-102417481D01*
X82335130Y-102417480D01*
X82248318Y-102367360D01*
X82248318Y-102367359D01*
X82248314Y-102367358D01*
X82198199Y-102338423D01*
X82045471Y-102297499D01*
X81887357Y-102297499D01*
X81879761Y-102297499D01*
X81879745Y-102297500D01*
X80182938Y-102297500D01*
X80176210Y-102299303D01*
X80164211Y-102299016D01*
X80152969Y-102303210D01*
X80129931Y-102298198D01*
X80106360Y-102297636D01*
X80094715Y-102290537D01*
X80084696Y-102288358D01*
X80056442Y-102267207D01*
X72380416Y-94591181D01*
X72346931Y-94529858D01*
X72351915Y-94460166D01*
X72393787Y-94404233D01*
X72459251Y-94379816D01*
X72468097Y-94379500D01*
X130148903Y-94379500D01*
X130215942Y-94399185D01*
X130236584Y-94415819D01*
X134839933Y-99019168D01*
X134873418Y-99080491D01*
X134874725Y-99126247D01*
X134849500Y-99285513D01*
X134849500Y-99474486D01*
X134879059Y-99661118D01*
X134937454Y-99840836D01*
X135023240Y-100009199D01*
X135134310Y-100162073D01*
X135267927Y-100295690D01*
X135420801Y-100406760D01*
X135500347Y-100447290D01*
X135589163Y-100492545D01*
X135589165Y-100492545D01*
X135589168Y-100492547D01*
X135685497Y-100523846D01*
X135768881Y-100550940D01*
X135955514Y-100580500D01*
X135955519Y-100580500D01*
X136144486Y-100580500D01*
X136331118Y-100550940D01*
X136335867Y-100549397D01*
X136510832Y-100492547D01*
X136679199Y-100406760D01*
X136832073Y-100295690D01*
X136965690Y-100162073D01*
X137076760Y-100009199D01*
X137162547Y-99840832D01*
X137220940Y-99661118D01*
X137250500Y-99474486D01*
X137250500Y-99285513D01*
X137220940Y-99098881D01*
X137162545Y-98919163D01*
X137076759Y-98750800D01*
X136965690Y-98597927D01*
X136832073Y-98464310D01*
X136679199Y-98353240D01*
X136510836Y-98267454D01*
X136331118Y-98209059D01*
X136144486Y-98179500D01*
X136144481Y-98179500D01*
X135955519Y-98179500D01*
X135955514Y-98179500D01*
X135796247Y-98204725D01*
X135726953Y-98195770D01*
X135689168Y-98169933D01*
X130936963Y-93417728D01*
X130929521Y-93410286D01*
X130929520Y-93410284D01*
X130817716Y-93298480D01*
X130702196Y-93231785D01*
X130701831Y-93231574D01*
X130680786Y-93219423D01*
X130642603Y-93209192D01*
X130528057Y-93178499D01*
X130369943Y-93178499D01*
X130362347Y-93178499D01*
X130362331Y-93178500D01*
X62010187Y-93178500D01*
X61943148Y-93158815D01*
X61922506Y-93142181D01*
X60824980Y-92044655D01*
X139592500Y-92044655D01*
X139592500Y-92750000D01*
X140445743Y-92750000D01*
X140436229Y-92766479D01*
X140395000Y-92920350D01*
X140395000Y-93079650D01*
X140436229Y-93233521D01*
X140445743Y-93250000D01*
X139592500Y-93250000D01*
X139592500Y-93955344D01*
X139598901Y-94014872D01*
X139598903Y-94014879D01*
X139649145Y-94149586D01*
X139649149Y-94149593D01*
X139735309Y-94264687D01*
X139735312Y-94264690D01*
X139850406Y-94350850D01*
X139850413Y-94350854D01*
X139985120Y-94401096D01*
X139985127Y-94401098D01*
X140044655Y-94407499D01*
X140044672Y-94407500D01*
X140750000Y-94407500D01*
X140750000Y-93554256D01*
X140766479Y-93563771D01*
X140920350Y-93605000D01*
X141079650Y-93605000D01*
X141233521Y-93563771D01*
X141250000Y-93554256D01*
X141250000Y-94407500D01*
X141955328Y-94407500D01*
X141955344Y-94407499D01*
X142014872Y-94401098D01*
X142014879Y-94401096D01*
X142149586Y-94350854D01*
X142149593Y-94350850D01*
X142264687Y-94264690D01*
X142264690Y-94264687D01*
X142350850Y-94149593D01*
X142350853Y-94149588D01*
X142377830Y-94077257D01*
X142419701Y-94021322D01*
X142485165Y-93996904D01*
X142553438Y-94011755D01*
X142581694Y-94032907D01*
X142622749Y-94073962D01*
X142802047Y-94204230D01*
X142895344Y-94251767D01*
X142999511Y-94304843D01*
X142999513Y-94304843D01*
X142999516Y-94304845D01*
X143112496Y-94341554D01*
X143210292Y-94373331D01*
X143429183Y-94408000D01*
X143429188Y-94408000D01*
X143650817Y-94408000D01*
X143869707Y-94373331D01*
X144080484Y-94304845D01*
X144277953Y-94204230D01*
X144457251Y-94073962D01*
X144613962Y-93917251D01*
X144652364Y-93864393D01*
X144707691Y-93821729D01*
X144777305Y-93815748D01*
X144839100Y-93848353D01*
X144840363Y-93849598D01*
X147579933Y-96589169D01*
X147613418Y-96650492D01*
X147614725Y-96696248D01*
X147589500Y-96855513D01*
X147589500Y-97044486D01*
X147619059Y-97231118D01*
X147677454Y-97410836D01*
X147742612Y-97538714D01*
X147763240Y-97579199D01*
X147874310Y-97732073D01*
X148007927Y-97865690D01*
X148160801Y-97976760D01*
X148240347Y-98017290D01*
X148329163Y-98062545D01*
X148329165Y-98062545D01*
X148329168Y-98062547D01*
X148425497Y-98093846D01*
X148508881Y-98120940D01*
X148695514Y-98150500D01*
X148695519Y-98150500D01*
X148884486Y-98150500D01*
X149071118Y-98120940D01*
X149250832Y-98062547D01*
X149419199Y-97976760D01*
X149572073Y-97865690D01*
X149705690Y-97732073D01*
X149816760Y-97579199D01*
X149902547Y-97410832D01*
X149960940Y-97231118D01*
X149990500Y-97044486D01*
X149990500Y-96855513D01*
X149960940Y-96668881D01*
X149902545Y-96489163D01*
X149816759Y-96320800D01*
X149705690Y-96167927D01*
X149572073Y-96034310D01*
X149419199Y-95923240D01*
X149250836Y-95837454D01*
X149071118Y-95779059D01*
X148884486Y-95749500D01*
X148884481Y-95749500D01*
X148695519Y-95749500D01*
X148695514Y-95749500D01*
X148536248Y-95774725D01*
X148466954Y-95765770D01*
X148429169Y-95739933D01*
X145327590Y-92638355D01*
X145327588Y-92638352D01*
X145208717Y-92519481D01*
X145208716Y-92519480D01*
X145121904Y-92469360D01*
X145121904Y-92469359D01*
X145121900Y-92469358D01*
X145071785Y-92440423D01*
X144919057Y-92399499D01*
X144919054Y-92399499D01*
X144890253Y-92399499D01*
X144823214Y-92379814D01*
X144779768Y-92331794D01*
X144744229Y-92262046D01*
X144613962Y-92082749D01*
X144457251Y-91926038D01*
X144277953Y-91795770D01*
X144080488Y-91695156D01*
X143869707Y-91626668D01*
X143650817Y-91592000D01*
X143650812Y-91592000D01*
X143429188Y-91592000D01*
X143429183Y-91592000D01*
X143210292Y-91626668D01*
X142999511Y-91695156D01*
X142802046Y-91795770D01*
X142726835Y-91850415D01*
X142622749Y-91926038D01*
X142622747Y-91926040D01*
X142622745Y-91926041D01*
X142581693Y-91967093D01*
X142520370Y-92000578D01*
X142450678Y-91995592D01*
X142394745Y-91953720D01*
X142377831Y-91922743D01*
X142350855Y-91850415D01*
X142350850Y-91850406D01*
X142264690Y-91735312D01*
X142264687Y-91735309D01*
X142149593Y-91649149D01*
X142149586Y-91649145D01*
X142014879Y-91598903D01*
X142014872Y-91598901D01*
X141955344Y-91592500D01*
X141250000Y-91592500D01*
X141250000Y-92445743D01*
X141233521Y-92436229D01*
X141079650Y-92395000D01*
X140920350Y-92395000D01*
X140766479Y-92436229D01*
X140750000Y-92445743D01*
X140750000Y-91592500D01*
X140044655Y-91592500D01*
X139985127Y-91598901D01*
X139985120Y-91598903D01*
X139850413Y-91649145D01*
X139850406Y-91649149D01*
X139735312Y-91735309D01*
X139735309Y-91735312D01*
X139649149Y-91850406D01*
X139649145Y-91850413D01*
X139598903Y-91985120D01*
X139598901Y-91985127D01*
X139592500Y-92044655D01*
X60824980Y-92044655D01*
X59093506Y-90313181D01*
X59060021Y-90251858D01*
X59065005Y-90182166D01*
X59106877Y-90126233D01*
X59172341Y-90101816D01*
X59181187Y-90101500D01*
X147812374Y-90101500D01*
X147879413Y-90121185D01*
X147900055Y-90137818D01*
X148007927Y-90245690D01*
X148160801Y-90356760D01*
X148240347Y-90397290D01*
X148329163Y-90442545D01*
X148329165Y-90442545D01*
X148329168Y-90442547D01*
X148425497Y-90473846D01*
X148508881Y-90500940D01*
X148695514Y-90530500D01*
X148695519Y-90530500D01*
X148884486Y-90530500D01*
X149071118Y-90500940D01*
X149250832Y-90442547D01*
X149419199Y-90356760D01*
X149572073Y-90245690D01*
X149705690Y-90112073D01*
X149816760Y-89959199D01*
X149902547Y-89790832D01*
X149960940Y-89611118D01*
X149990500Y-89424486D01*
X149990500Y-89235513D01*
X149960940Y-89048881D01*
X149902545Y-88869163D01*
X149846339Y-88758853D01*
X149816760Y-88700801D01*
X149705690Y-88547927D01*
X149572073Y-88414310D01*
X149419199Y-88303240D01*
X149250836Y-88217454D01*
X149071118Y-88159059D01*
X148884486Y-88129500D01*
X148884481Y-88129500D01*
X148695519Y-88129500D01*
X148695514Y-88129500D01*
X148508881Y-88159059D01*
X148329163Y-88217454D01*
X148160800Y-88303240D01*
X148073579Y-88366610D01*
X148007927Y-88414310D01*
X148007925Y-88414312D01*
X148007924Y-88414312D01*
X147874312Y-88547924D01*
X147874312Y-88547925D01*
X147874310Y-88547927D01*
X147848002Y-88584137D01*
X147763240Y-88700800D01*
X147713446Y-88798528D01*
X147698424Y-88828011D01*
X147695986Y-88832795D01*
X147648012Y-88883591D01*
X147585501Y-88900500D01*
X129103864Y-88900500D01*
X129036825Y-88880815D01*
X128991070Y-88828011D01*
X128981126Y-88758853D01*
X128989299Y-88729058D01*
X128990562Y-88726006D01*
X128990563Y-88725999D01*
X128990568Y-88725992D01*
X129063553Y-88501368D01*
X129100500Y-88268097D01*
X129100500Y-88031902D01*
X129063553Y-87798631D01*
X129007723Y-87626806D01*
X128990568Y-87574008D01*
X128990566Y-87574005D01*
X128990566Y-87574003D01*
X128915323Y-87426331D01*
X128883343Y-87363567D01*
X128744517Y-87172490D01*
X128577510Y-87005483D01*
X128386433Y-86866657D01*
X128175996Y-86759433D01*
X127951368Y-86686446D01*
X127718097Y-86649500D01*
X127718092Y-86649500D01*
X126709205Y-86649500D01*
X126642166Y-86629815D01*
X126596411Y-86577011D01*
X126586467Y-86507853D01*
X126615492Y-86444297D01*
X126621524Y-86437819D01*
X129263260Y-83796083D01*
X132429689Y-80629653D01*
X132491009Y-80596171D01*
X132560701Y-80601155D01*
X132616634Y-80643027D01*
X132627852Y-80661042D01*
X132717087Y-80836174D01*
X132777338Y-80919104D01*
X132777340Y-80919105D01*
X133517037Y-80179408D01*
X133534075Y-80242993D01*
X133599901Y-80357007D01*
X133692993Y-80450099D01*
X133807007Y-80515925D01*
X133870590Y-80532962D01*
X133130893Y-81272658D01*
X133213828Y-81332914D01*
X133424197Y-81440102D01*
X133648752Y-81513065D01*
X133648751Y-81513065D01*
X133881948Y-81550000D01*
X134118052Y-81550000D01*
X134351247Y-81513065D01*
X134575802Y-81440102D01*
X134786163Y-81332918D01*
X134786169Y-81332914D01*
X134869104Y-81272658D01*
X134869105Y-81272658D01*
X134129408Y-80532962D01*
X134192993Y-80515925D01*
X134307007Y-80450099D01*
X134400099Y-80357007D01*
X134465925Y-80242993D01*
X134482962Y-80179409D01*
X135222658Y-80919105D01*
X135222658Y-80919104D01*
X135282914Y-80836169D01*
X135282918Y-80836163D01*
X135390102Y-80625802D01*
X135463065Y-80401247D01*
X135500000Y-80168052D01*
X135500000Y-79931947D01*
X135463065Y-79698752D01*
X135390102Y-79474197D01*
X135282914Y-79263828D01*
X135222658Y-79180894D01*
X135222658Y-79180893D01*
X134482962Y-79920590D01*
X134465925Y-79857007D01*
X134400099Y-79742993D01*
X134307007Y-79649901D01*
X134192993Y-79584075D01*
X134129408Y-79567037D01*
X134869105Y-78827340D01*
X134869104Y-78827338D01*
X134786174Y-78767087D01*
X134664293Y-78704985D01*
X134613497Y-78657010D01*
X134596702Y-78589189D01*
X134619239Y-78523054D01*
X134673955Y-78479603D01*
X134720588Y-78470500D01*
X147859208Y-78470500D01*
X147926247Y-78490185D01*
X147959524Y-78521612D01*
X148054310Y-78652073D01*
X148187927Y-78785690D01*
X148321130Y-78882468D01*
X148363795Y-78937798D01*
X148369774Y-79007412D01*
X148337168Y-79069207D01*
X148335925Y-79070467D01*
X147454320Y-79952073D01*
X147392997Y-79985558D01*
X147366639Y-79988392D01*
X138382048Y-79988392D01*
X138341127Y-79999356D01*
X138341127Y-79999357D01*
X138313316Y-80006809D01*
X138229322Y-80029315D01*
X138229317Y-80029318D01*
X138092398Y-80108367D01*
X138092390Y-80108373D01*
X137980586Y-80220178D01*
X134603563Y-83597200D01*
X134542240Y-83630685D01*
X134477564Y-83627450D01*
X134351370Y-83586447D01*
X134118097Y-83549500D01*
X134118092Y-83549500D01*
X133881908Y-83549500D01*
X133881903Y-83549500D01*
X133648631Y-83586446D01*
X133424003Y-83659433D01*
X133213566Y-83766657D01*
X133128193Y-83828685D01*
X133022490Y-83905483D01*
X133022488Y-83905485D01*
X133022487Y-83905485D01*
X132855485Y-84072487D01*
X132855485Y-84072488D01*
X132855483Y-84072490D01*
X132795862Y-84154550D01*
X132716657Y-84263566D01*
X132609433Y-84474003D01*
X132536446Y-84698631D01*
X132499500Y-84931902D01*
X132499500Y-85168097D01*
X132536446Y-85401368D01*
X132609433Y-85625996D01*
X132683377Y-85771118D01*
X132716657Y-85836433D01*
X132855483Y-86027510D01*
X133022490Y-86194517D01*
X133213567Y-86333343D01*
X133312991Y-86384002D01*
X133424003Y-86440566D01*
X133424005Y-86440566D01*
X133424008Y-86440568D01*
X133544412Y-86479689D01*
X133648631Y-86513553D01*
X133881903Y-86550500D01*
X133881908Y-86550500D01*
X134118097Y-86550500D01*
X134351368Y-86513553D01*
X134368911Y-86507853D01*
X134575992Y-86440568D01*
X134786433Y-86333343D01*
X134977510Y-86194517D01*
X135144517Y-86027510D01*
X135283343Y-85836433D01*
X135390568Y-85625992D01*
X135463553Y-85401368D01*
X135465742Y-85387545D01*
X135500500Y-85168097D01*
X135500500Y-84931902D01*
X135465025Y-84707927D01*
X135463553Y-84698632D01*
X135422547Y-84572433D01*
X135420553Y-84502593D01*
X135452796Y-84446437D01*
X138673524Y-81225711D01*
X138734847Y-81192226D01*
X138761205Y-81189392D01*
X139468500Y-81189392D01*
X139535539Y-81209077D01*
X139581294Y-81261881D01*
X139592500Y-81313392D01*
X139592500Y-81750000D01*
X140445743Y-81750000D01*
X140436229Y-81766479D01*
X140395000Y-81920350D01*
X140395000Y-82079650D01*
X140436229Y-82233521D01*
X140445743Y-82250000D01*
X139592500Y-82250000D01*
X139592500Y-82955344D01*
X139598901Y-83014872D01*
X139598903Y-83014879D01*
X139649145Y-83149586D01*
X139649149Y-83149593D01*
X139735309Y-83264687D01*
X139735312Y-83264690D01*
X139850406Y-83350850D01*
X139850413Y-83350854D01*
X139985120Y-83401096D01*
X139985127Y-83401098D01*
X140044655Y-83407499D01*
X140044672Y-83407500D01*
X140750000Y-83407500D01*
X140750000Y-82554256D01*
X140766479Y-82563771D01*
X140920350Y-82605000D01*
X141079650Y-82605000D01*
X141233521Y-82563771D01*
X141250000Y-82554256D01*
X141250000Y-83407500D01*
X141955328Y-83407500D01*
X141955344Y-83407499D01*
X142014872Y-83401098D01*
X142014879Y-83401096D01*
X142149586Y-83350854D01*
X142149593Y-83350850D01*
X142264687Y-83264690D01*
X142264690Y-83264687D01*
X142350850Y-83149593D01*
X142350853Y-83149588D01*
X142377830Y-83077257D01*
X142419701Y-83021322D01*
X142485165Y-82996904D01*
X142553438Y-83011755D01*
X142581694Y-83032907D01*
X142622749Y-83073962D01*
X142802047Y-83204230D01*
X142895344Y-83251767D01*
X142999511Y-83304843D01*
X142999513Y-83304843D01*
X142999516Y-83304845D01*
X143095902Y-83336163D01*
X143210292Y-83373331D01*
X143429183Y-83408000D01*
X143429188Y-83408000D01*
X143650817Y-83408000D01*
X143869707Y-83373331D01*
X144080484Y-83304845D01*
X144277953Y-83204230D01*
X144457251Y-83073962D01*
X144613962Y-82917251D01*
X144744230Y-82737953D01*
X144779768Y-82668204D01*
X144827741Y-82617410D01*
X144890252Y-82600500D01*
X145179903Y-82600500D01*
X145246942Y-82620185D01*
X145267584Y-82636819D01*
X147759933Y-85129168D01*
X147793418Y-85190491D01*
X147794725Y-85236247D01*
X147769500Y-85395513D01*
X147769500Y-85584486D01*
X147799059Y-85771118D01*
X147857454Y-85950836D01*
X147907308Y-86048679D01*
X147943240Y-86119199D01*
X148054310Y-86272073D01*
X148187927Y-86405690D01*
X148340801Y-86516760D01*
X148407020Y-86550500D01*
X148509163Y-86602545D01*
X148509165Y-86602545D01*
X148509168Y-86602547D01*
X148593090Y-86629815D01*
X148688881Y-86660940D01*
X148875514Y-86690500D01*
X148875519Y-86690500D01*
X149064486Y-86690500D01*
X149251118Y-86660940D01*
X149286326Y-86649500D01*
X149430832Y-86602547D01*
X149599199Y-86516760D01*
X149752073Y-86405690D01*
X149885690Y-86272073D01*
X149996760Y-86119199D01*
X150082547Y-85950832D01*
X150140940Y-85771118D01*
X150170500Y-85584486D01*
X150170500Y-85395513D01*
X150140940Y-85208881D01*
X150101275Y-85086806D01*
X150082547Y-85029168D01*
X150082545Y-85029165D01*
X150082545Y-85029163D01*
X149996759Y-84860800D01*
X149885690Y-84707927D01*
X149752073Y-84574310D01*
X149599199Y-84463240D01*
X149430836Y-84377454D01*
X149251118Y-84319059D01*
X149064486Y-84289500D01*
X149064481Y-84289500D01*
X148875519Y-84289500D01*
X148875514Y-84289500D01*
X148716247Y-84314725D01*
X148646953Y-84305770D01*
X148609168Y-84279933D01*
X145967590Y-81638355D01*
X145967588Y-81638352D01*
X145848717Y-81519481D01*
X145848716Y-81519480D01*
X145808028Y-81495989D01*
X145767162Y-81472395D01*
X145767156Y-81472392D01*
X145761904Y-81469360D01*
X145711785Y-81440423D01*
X145674856Y-81430527D01*
X145665577Y-81426319D01*
X145646522Y-81409893D01*
X145625044Y-81396802D01*
X145620512Y-81387473D01*
X145612655Y-81380700D01*
X145605505Y-81356579D01*
X145594515Y-81333955D01*
X145595746Y-81323657D01*
X145592798Y-81313711D01*
X145599823Y-81289552D01*
X145602810Y-81264579D01*
X145609413Y-81256581D01*
X145612310Y-81246621D01*
X145631278Y-81230098D01*
X145647295Y-81210701D01*
X145657175Y-81207542D01*
X145664996Y-81200731D01*
X145689883Y-81197087D01*
X145713847Y-81189427D01*
X145716798Y-81189392D01*
X147580067Y-81189392D01*
X147580083Y-81189393D01*
X147587679Y-81189393D01*
X147745790Y-81189393D01*
X147745793Y-81189393D01*
X147898521Y-81148469D01*
X147954542Y-81116125D01*
X148035452Y-81069412D01*
X148147256Y-80957608D01*
X148147256Y-80957606D01*
X148157460Y-80947403D01*
X148157464Y-80947398D01*
X150329506Y-78775356D01*
X150329511Y-78775352D01*
X150339714Y-78765148D01*
X150339716Y-78765148D01*
X150451520Y-78653344D01*
X150530577Y-78516412D01*
X150571500Y-78363685D01*
X150571500Y-77376315D01*
X150564321Y-77349520D01*
X150530577Y-77223587D01*
X150497051Y-77165519D01*
X150451520Y-77086656D01*
X150339716Y-76974852D01*
X150339715Y-76974851D01*
X150335385Y-76970521D01*
X150335374Y-76970511D01*
X149872218Y-76507355D01*
X149872216Y-76507352D01*
X149753345Y-76388481D01*
X149753344Y-76388480D01*
X149666532Y-76338360D01*
X149666532Y-76338359D01*
X149666528Y-76338358D01*
X149616413Y-76309423D01*
X149463685Y-76268499D01*
X149305571Y-76268499D01*
X149297975Y-76268499D01*
X149297959Y-76268500D01*
X134694948Y-76268500D01*
X134654027Y-76279464D01*
X134654027Y-76279465D01*
X134625104Y-76287215D01*
X134542222Y-76309423D01*
X134542217Y-76309426D01*
X134405298Y-76388475D01*
X134405290Y-76388481D01*
X134293486Y-76500286D01*
X132681592Y-78112181D01*
X132620269Y-78145666D01*
X132593911Y-78148500D01*
X128822889Y-78148500D01*
X128755850Y-78128815D01*
X128710095Y-78076011D01*
X128700151Y-78006853D01*
X128729176Y-77943297D01*
X128735208Y-77936819D01*
X128744517Y-77927510D01*
X128883343Y-77736433D01*
X128990568Y-77525992D01*
X129063553Y-77301368D01*
X129085069Y-77165521D01*
X129100500Y-77068097D01*
X129100500Y-76831902D01*
X129063553Y-76598631D01*
X129002576Y-76410964D01*
X128990568Y-76374008D01*
X128990566Y-76374005D01*
X128990566Y-76374003D01*
X128914807Y-76225319D01*
X128883343Y-76163567D01*
X128744517Y-75972490D01*
X128577510Y-75805483D01*
X128386433Y-75666657D01*
X128375138Y-75660902D01*
X128175996Y-75559433D01*
X127951368Y-75486446D01*
X127718097Y-75449500D01*
X127718092Y-75449500D01*
X126281908Y-75449500D01*
X126281903Y-75449500D01*
X126048631Y-75486446D01*
X125824003Y-75559433D01*
X125613566Y-75666657D01*
X125584382Y-75687861D01*
X125422490Y-75805483D01*
X125422488Y-75805485D01*
X125422487Y-75805485D01*
X125255485Y-75972487D01*
X125255485Y-75972488D01*
X125255483Y-75972490D01*
X125211520Y-76033000D01*
X125116657Y-76163566D01*
X125009433Y-76374003D01*
X124936446Y-76598631D01*
X124899500Y-76831902D01*
X124899500Y-77068097D01*
X124936446Y-77301368D01*
X125009433Y-77525996D01*
X125071585Y-77647975D01*
X125116657Y-77736433D01*
X125255483Y-77927510D01*
X125255485Y-77927512D01*
X125264792Y-77936819D01*
X125298277Y-77998142D01*
X125293293Y-78067834D01*
X125251421Y-78123767D01*
X125185957Y-78148184D01*
X125177111Y-78148500D01*
X75536169Y-78148500D01*
X75536153Y-78148499D01*
X75528557Y-78148499D01*
X75370443Y-78148499D01*
X75263087Y-78177265D01*
X75217710Y-78189424D01*
X75217709Y-78189425D01*
X75175021Y-78214071D01*
X75175013Y-78214077D01*
X75167595Y-78218360D01*
X75080784Y-78268480D01*
X74995026Y-78354237D01*
X74988962Y-78358960D01*
X74963324Y-78369081D01*
X74939133Y-78382291D01*
X74931288Y-78381730D01*
X74923974Y-78384618D01*
X74896938Y-78379273D01*
X74869442Y-78377307D01*
X74863144Y-78372592D01*
X74855431Y-78371068D01*
X74835576Y-78351955D01*
X74813508Y-78335435D01*
X74810759Y-78328065D01*
X74805094Y-78322612D01*
X74798723Y-78295794D01*
X74789092Y-78269970D01*
X74789626Y-78257499D01*
X74788946Y-78254634D01*
X74789861Y-78252030D01*
X74790302Y-78241735D01*
X74792500Y-78227861D01*
X74792500Y-78029139D01*
X74761413Y-77832864D01*
X74730081Y-77736433D01*
X74700006Y-77643870D01*
X74700005Y-77643867D01*
X74640967Y-77528000D01*
X74609787Y-77466806D01*
X74492981Y-77306036D01*
X74352464Y-77165519D01*
X74191694Y-77048713D01*
X74034667Y-76968703D01*
X73983872Y-76920729D01*
X73967077Y-76852908D01*
X73989614Y-76786773D01*
X74034669Y-76747734D01*
X74191422Y-76667864D01*
X74228716Y-76640768D01*
X73614095Y-76026147D01*
X73701571Y-76002708D01*
X73802930Y-75944189D01*
X73885689Y-75861430D01*
X73944208Y-75760071D01*
X73967647Y-75672594D01*
X74582268Y-76287215D01*
X74609362Y-76249925D01*
X74699542Y-76072937D01*
X74760924Y-75884023D01*
X74760924Y-75884020D01*
X74792000Y-75687821D01*
X74792000Y-75489178D01*
X74760924Y-75292979D01*
X74760924Y-75292976D01*
X74699542Y-75104062D01*
X74609358Y-74927067D01*
X74582268Y-74889783D01*
X73967647Y-75504404D01*
X73944208Y-75416929D01*
X73885689Y-75315570D01*
X73802930Y-75232811D01*
X73701571Y-75174292D01*
X73614094Y-75150852D01*
X74228716Y-74536231D01*
X74228715Y-74536230D01*
X74191432Y-74509141D01*
X74034668Y-74429265D01*
X73983872Y-74381290D01*
X73967077Y-74313469D01*
X73989615Y-74247334D01*
X74034667Y-74208296D01*
X74191694Y-74128287D01*
X74352464Y-74011481D01*
X74492981Y-73870964D01*
X74609787Y-73710194D01*
X74700005Y-73533132D01*
X74761413Y-73344136D01*
X74792500Y-73147861D01*
X74792500Y-72949139D01*
X74761413Y-72752864D01*
X74730709Y-72658366D01*
X74700006Y-72563870D01*
X74700005Y-72563867D01*
X74640967Y-72448000D01*
X74609787Y-72386806D01*
X74492981Y-72226036D01*
X74352464Y-72085519D01*
X74191694Y-71968713D01*
X74014632Y-71878494D01*
X74014629Y-71878493D01*
X73825637Y-71817087D01*
X73727498Y-71801543D01*
X73629361Y-71786000D01*
X73430639Y-71786000D01*
X73365214Y-71796362D01*
X73234362Y-71817087D01*
X73045370Y-71878493D01*
X73045367Y-71878494D01*
X72868305Y-71968713D01*
X72707533Y-72085521D01*
X72567021Y-72226033D01*
X72450213Y-72386805D01*
X72359994Y-72563867D01*
X72359993Y-72563870D01*
X72298587Y-72752862D01*
X72267500Y-72949139D01*
X72267500Y-73147860D01*
X72298587Y-73344137D01*
X72359993Y-73533129D01*
X72359994Y-73533132D01*
X72419033Y-73649000D01*
X72450213Y-73710194D01*
X72567019Y-73870964D01*
X72707536Y-74011481D01*
X72868306Y-74128287D01*
X73025332Y-74208296D01*
X73076127Y-74256269D01*
X73092922Y-74324090D01*
X73070385Y-74390225D01*
X73025332Y-74429264D01*
X72868566Y-74509141D01*
X72831283Y-74536229D01*
X72831282Y-74536230D01*
X73445906Y-75150852D01*
X73358429Y-75174292D01*
X73257070Y-75232811D01*
X73174311Y-75315570D01*
X73115792Y-75416929D01*
X73092352Y-75504405D01*
X72477730Y-74889782D01*
X72477729Y-74889783D01*
X72450643Y-74927064D01*
X72360457Y-75104062D01*
X72299075Y-75292976D01*
X72299075Y-75292979D01*
X72268000Y-75489178D01*
X72268000Y-75687821D01*
X72299075Y-75884020D01*
X72299075Y-75884023D01*
X72360457Y-76072937D01*
X72450641Y-76249932D01*
X72477730Y-76287215D01*
X73092352Y-75672593D01*
X73115792Y-75760071D01*
X73174311Y-75861430D01*
X73257070Y-75944189D01*
X73358429Y-76002708D01*
X73445905Y-76026147D01*
X72831283Y-76640768D01*
X72831283Y-76640769D01*
X72868567Y-76667858D01*
X73025331Y-76747734D01*
X73076127Y-76795709D01*
X73092922Y-76863530D01*
X73070384Y-76929665D01*
X73025331Y-76968704D01*
X72868305Y-77048713D01*
X72707533Y-77165521D01*
X72567021Y-77306033D01*
X72450213Y-77466805D01*
X72359994Y-77643867D01*
X72359993Y-77643870D01*
X72298587Y-77832862D01*
X72283596Y-77927511D01*
X72267500Y-78029139D01*
X72267500Y-78227861D01*
X72278260Y-78295794D01*
X72298587Y-78424137D01*
X72359993Y-78613129D01*
X72359994Y-78613132D01*
X72419033Y-78729000D01*
X72450213Y-78790194D01*
X72567019Y-78950964D01*
X72707536Y-79091481D01*
X72868306Y-79208287D01*
X72971708Y-79260973D01*
X73024780Y-79288015D01*
X73075576Y-79335990D01*
X73092371Y-79403811D01*
X73069833Y-79469946D01*
X73024780Y-79508985D01*
X72868305Y-79588713D01*
X72707533Y-79705521D01*
X72567021Y-79846033D01*
X72450213Y-80006805D01*
X72359994Y-80183867D01*
X72359993Y-80183870D01*
X72298587Y-80372862D01*
X72267500Y-80569139D01*
X72267500Y-80767860D01*
X72298587Y-80964137D01*
X72359993Y-81153129D01*
X72359994Y-81153132D01*
X72429505Y-81289552D01*
X72450213Y-81330194D01*
X72567019Y-81490964D01*
X72567020Y-81490965D01*
X72567021Y-81490966D01*
X72643323Y-81567268D01*
X72676808Y-81628591D01*
X72671824Y-81698283D01*
X72643323Y-81742630D01*
X72098286Y-82287668D01*
X71986481Y-82399472D01*
X71986477Y-82399477D01*
X71943181Y-82474470D01*
X71907424Y-82536401D01*
X71907423Y-82536402D01*
X71889043Y-82605000D01*
X71866499Y-82689133D01*
X71866499Y-82689135D01*
X71866499Y-82857236D01*
X71866500Y-82857249D01*
X71866500Y-84598830D01*
X71866499Y-84598848D01*
X71866499Y-84764554D01*
X71866498Y-84764554D01*
X71907423Y-84917285D01*
X71915866Y-84931908D01*
X71915867Y-84931910D01*
X71986477Y-85054212D01*
X71986481Y-85054217D01*
X72105349Y-85173085D01*
X72105355Y-85173090D01*
X72266237Y-85333972D01*
X72299722Y-85395295D01*
X72299160Y-85448022D01*
X72299349Y-85448052D01*
X72299146Y-85449331D01*
X72299133Y-85450587D01*
X72298587Y-85452860D01*
X72267500Y-85649139D01*
X72267500Y-85847860D01*
X72298586Y-86044136D01*
X72300063Y-86048679D01*
X72302060Y-86118520D01*
X72265981Y-86178354D01*
X72203281Y-86209183D01*
X72182133Y-86211000D01*
X59687940Y-86211000D01*
X59666737Y-86216681D01*
X59596887Y-86215016D01*
X59539026Y-86175851D01*
X59511524Y-86111621D01*
X59516719Y-86058582D01*
X59521412Y-86044138D01*
X59521413Y-86044136D01*
X59552500Y-85847861D01*
X59552500Y-85649139D01*
X59521413Y-85452864D01*
X59460005Y-85263868D01*
X59460005Y-85263867D01*
X59410149Y-85166020D01*
X59369787Y-85086806D01*
X59252981Y-84926036D01*
X59112464Y-84785519D01*
X58951694Y-84668713D01*
X58795218Y-84588984D01*
X58744423Y-84541010D01*
X58727628Y-84473189D01*
X58750165Y-84407054D01*
X58795218Y-84368015D01*
X58951694Y-84288287D01*
X59112464Y-84171481D01*
X59252981Y-84030964D01*
X59369787Y-83870194D01*
X59460005Y-83693132D01*
X59521413Y-83504136D01*
X59552500Y-83307861D01*
X59552500Y-83109139D01*
X59521413Y-82912864D01*
X59464583Y-82737957D01*
X59460006Y-82723870D01*
X59460005Y-82723867D01*
X59400967Y-82608000D01*
X59369787Y-82546806D01*
X59252981Y-82386036D01*
X59112464Y-82245519D01*
X58951694Y-82128713D01*
X58795218Y-82048984D01*
X58744423Y-82001010D01*
X58727628Y-81933189D01*
X58750165Y-81867054D01*
X58795218Y-81828015D01*
X58951694Y-81748287D01*
X59112464Y-81631481D01*
X59252981Y-81490964D01*
X59369787Y-81330194D01*
X59460005Y-81153132D01*
X59521413Y-80964136D01*
X59552500Y-80767861D01*
X59552500Y-80569139D01*
X59521413Y-80372864D01*
X59470189Y-80215212D01*
X59460006Y-80183870D01*
X59460005Y-80183867D01*
X59400967Y-80068000D01*
X59369787Y-80006806D01*
X59252981Y-79846036D01*
X59112464Y-79705519D01*
X58951694Y-79588713D01*
X58795218Y-79508984D01*
X58744423Y-79461010D01*
X58727628Y-79393189D01*
X58750165Y-79327054D01*
X58795218Y-79288015D01*
X58951694Y-79208287D01*
X59112464Y-79091481D01*
X59252981Y-78950964D01*
X59369787Y-78790194D01*
X59460005Y-78613132D01*
X59521413Y-78424136D01*
X59552500Y-78227861D01*
X59552500Y-78029139D01*
X59521413Y-77832864D01*
X59490081Y-77736433D01*
X59460006Y-77643870D01*
X59460005Y-77643867D01*
X59400967Y-77528000D01*
X59369787Y-77466806D01*
X59252981Y-77306036D01*
X59112464Y-77165519D01*
X58951694Y-77048713D01*
X58795218Y-76968984D01*
X58744423Y-76921010D01*
X58727628Y-76853189D01*
X58750165Y-76787054D01*
X58795218Y-76748015D01*
X58951694Y-76668287D01*
X59112464Y-76551481D01*
X59252981Y-76410964D01*
X59369787Y-76250194D01*
X59460005Y-76073132D01*
X59521413Y-75884136D01*
X59552500Y-75687861D01*
X59552500Y-75489139D01*
X59521413Y-75292864D01*
X59473045Y-75144000D01*
X59460006Y-75103870D01*
X59460005Y-75103867D01*
X59400967Y-74988000D01*
X59369787Y-74926806D01*
X59252981Y-74766036D01*
X59112464Y-74625519D01*
X58951694Y-74508713D01*
X58795218Y-74428984D01*
X58744423Y-74381010D01*
X58727628Y-74313189D01*
X58750165Y-74247054D01*
X58795218Y-74208015D01*
X58951694Y-74128287D01*
X59112464Y-74011481D01*
X59252981Y-73870964D01*
X59369787Y-73710194D01*
X59460005Y-73533132D01*
X59521413Y-73344136D01*
X59552500Y-73147861D01*
X59552500Y-72949139D01*
X59521413Y-72752864D01*
X59490709Y-72658366D01*
X59460006Y-72563870D01*
X59460005Y-72563867D01*
X59400967Y-72448000D01*
X59369787Y-72386806D01*
X59252981Y-72226036D01*
X59112464Y-72085519D01*
X58951694Y-71968713D01*
X58774632Y-71878494D01*
X58774629Y-71878493D01*
X58585637Y-71817087D01*
X58487498Y-71801543D01*
X58389361Y-71786000D01*
X58190639Y-71786000D01*
X58125214Y-71796362D01*
X57994362Y-71817087D01*
X57805370Y-71878493D01*
X57805367Y-71878494D01*
X57628305Y-71968713D01*
X57467533Y-72085521D01*
X57327021Y-72226033D01*
X57210210Y-72386809D01*
X57209000Y-72388785D01*
X57208343Y-72389378D01*
X57207349Y-72390748D01*
X57207061Y-72390539D01*
X57157190Y-72435663D01*
X57103270Y-72448000D01*
X56408169Y-72448000D01*
X56408153Y-72447999D01*
X56400557Y-72447999D01*
X56242443Y-72447999D01*
X56135087Y-72476765D01*
X56089710Y-72488924D01*
X56089709Y-72488925D01*
X56039596Y-72517859D01*
X56039595Y-72517860D01*
X55996189Y-72542920D01*
X55952785Y-72567979D01*
X55952782Y-72567981D01*
X55840978Y-72679786D01*
X54357469Y-74163294D01*
X54331789Y-74183000D01*
X54251284Y-74229480D01*
X54251281Y-74229482D01*
X54139481Y-74341282D01*
X54139475Y-74341290D01*
X54060426Y-74478209D01*
X54060423Y-74478216D01*
X54019500Y-74630943D01*
X54019500Y-97083330D01*
X54019499Y-97083348D01*
X54019499Y-97249054D01*
X54019498Y-97249054D01*
X53500500Y-97249054D01*
X53500500Y-70624500D01*
X53520185Y-70557461D01*
X53572989Y-70511706D01*
X53624500Y-70500500D01*
X151895500Y-70500500D01*
X151962539Y-70520185D01*
G37*
%TD.AperFunction*%
%TD*%
M02*
