%TF.GenerationSoftware,KiCad,Pcbnew,9.0.2*%
%TF.CreationDate,2025-06-29T18:35:55-07:00*%
%TF.ProjectId,pcb,7063622e-6b69-4636-9164-5f7063625858,rev?*%
%TF.SameCoordinates,Original*%
%TF.FileFunction,Legend,Bot*%
%TF.FilePolarity,Positive*%
%FSLAX46Y46*%
G04 Gerber Fmt 4.6, Leading zero omitted, Abs format (unit mm)*
G04 Created by KiCad (PCBNEW 9.0.2) date 2025-06-29 18:35:55*
%MOMM*%
%LPD*%
G01*
G04 APERTURE LIST*
%ADD10C,0.100000*%
%ADD11C,0.120000*%
%ADD12C,0.150000*%
%ADD13C,0.300000*%
%ADD14C,0.000000*%
G04 APERTURE END LIST*
D10*
X133227992Y-72625368D02*
X133227992Y-72720606D01*
X133037516Y-72625368D02*
X133037516Y-72720606D01*
X132727993Y-72887273D02*
X132727993Y-73125368D01*
X132894659Y-72625368D02*
X132727993Y-72887273D01*
X132727993Y-72887273D02*
X132561326Y-72625368D01*
X132323231Y-73125368D02*
X132370850Y-73101559D01*
X132370850Y-73101559D02*
X132394660Y-73077749D01*
X132394660Y-73077749D02*
X132418469Y-73030130D01*
X132418469Y-73030130D02*
X132418469Y-72887273D01*
X132418469Y-72887273D02*
X132394660Y-72839654D01*
X132394660Y-72839654D02*
X132370850Y-72815844D01*
X132370850Y-72815844D02*
X132323231Y-72792035D01*
X132323231Y-72792035D02*
X132251803Y-72792035D01*
X132251803Y-72792035D02*
X132204184Y-72815844D01*
X132204184Y-72815844D02*
X132180374Y-72839654D01*
X132180374Y-72839654D02*
X132156565Y-72887273D01*
X132156565Y-72887273D02*
X132156565Y-73030130D01*
X132156565Y-73030130D02*
X132180374Y-73077749D01*
X132180374Y-73077749D02*
X132204184Y-73101559D01*
X132204184Y-73101559D02*
X132251803Y-73125368D01*
X132251803Y-73125368D02*
X132323231Y-73125368D01*
X131727993Y-72792035D02*
X131727993Y-73125368D01*
X131942279Y-72792035D02*
X131942279Y-73053939D01*
X131942279Y-73053939D02*
X131918469Y-73101559D01*
X131918469Y-73101559D02*
X131870850Y-73125368D01*
X131870850Y-73125368D02*
X131799422Y-73125368D01*
X131799422Y-73125368D02*
X131751803Y-73101559D01*
X131751803Y-73101559D02*
X131727993Y-73077749D01*
X130894660Y-73125368D02*
X130894660Y-72625368D01*
X130894660Y-73101559D02*
X130942279Y-73125368D01*
X130942279Y-73125368D02*
X131037517Y-73125368D01*
X131037517Y-73125368D02*
X131085136Y-73101559D01*
X131085136Y-73101559D02*
X131108946Y-73077749D01*
X131108946Y-73077749D02*
X131132755Y-73030130D01*
X131132755Y-73030130D02*
X131132755Y-72887273D01*
X131132755Y-72887273D02*
X131108946Y-72839654D01*
X131108946Y-72839654D02*
X131085136Y-72815844D01*
X131085136Y-72815844D02*
X131037517Y-72792035D01*
X131037517Y-72792035D02*
X130942279Y-72792035D01*
X130942279Y-72792035D02*
X130894660Y-72815844D01*
X130585136Y-73125368D02*
X130632755Y-73101559D01*
X130632755Y-73101559D02*
X130656565Y-73077749D01*
X130656565Y-73077749D02*
X130680374Y-73030130D01*
X130680374Y-73030130D02*
X130680374Y-72887273D01*
X130680374Y-72887273D02*
X130656565Y-72839654D01*
X130656565Y-72839654D02*
X130632755Y-72815844D01*
X130632755Y-72815844D02*
X130585136Y-72792035D01*
X130585136Y-72792035D02*
X130513708Y-72792035D01*
X130513708Y-72792035D02*
X130466089Y-72815844D01*
X130466089Y-72815844D02*
X130442279Y-72839654D01*
X130442279Y-72839654D02*
X130418470Y-72887273D01*
X130418470Y-72887273D02*
X130418470Y-73030130D01*
X130418470Y-73030130D02*
X130442279Y-73077749D01*
X130442279Y-73077749D02*
X130466089Y-73101559D01*
X130466089Y-73101559D02*
X130513708Y-73125368D01*
X130513708Y-73125368D02*
X130585136Y-73125368D01*
X130204184Y-72792035D02*
X130204184Y-73125368D01*
X130204184Y-72839654D02*
X130180374Y-72815844D01*
X130180374Y-72815844D02*
X130132755Y-72792035D01*
X130132755Y-72792035D02*
X130061327Y-72792035D01*
X130061327Y-72792035D02*
X130013708Y-72815844D01*
X130013708Y-72815844D02*
X129989898Y-72863463D01*
X129989898Y-72863463D02*
X129989898Y-73125368D01*
X129727993Y-72625368D02*
X129775612Y-72720606D01*
X129585136Y-72792035D02*
X129394660Y-72792035D01*
X129513708Y-72625368D02*
X129513708Y-73053939D01*
X129513708Y-73053939D02*
X129489898Y-73101559D01*
X129489898Y-73101559D02*
X129442279Y-73125368D01*
X129442279Y-73125368D02*
X129394660Y-73125368D01*
X128847042Y-73125368D02*
X128847042Y-72625368D01*
X128632756Y-73125368D02*
X128632756Y-72863463D01*
X128632756Y-72863463D02*
X128656566Y-72815844D01*
X128656566Y-72815844D02*
X128704185Y-72792035D01*
X128704185Y-72792035D02*
X128775613Y-72792035D01*
X128775613Y-72792035D02*
X128823232Y-72815844D01*
X128823232Y-72815844D02*
X128847042Y-72839654D01*
X128180375Y-73125368D02*
X128180375Y-72863463D01*
X128180375Y-72863463D02*
X128204185Y-72815844D01*
X128204185Y-72815844D02*
X128251804Y-72792035D01*
X128251804Y-72792035D02*
X128347042Y-72792035D01*
X128347042Y-72792035D02*
X128394661Y-72815844D01*
X128180375Y-73101559D02*
X128227994Y-73125368D01*
X128227994Y-73125368D02*
X128347042Y-73125368D01*
X128347042Y-73125368D02*
X128394661Y-73101559D01*
X128394661Y-73101559D02*
X128418470Y-73053939D01*
X128418470Y-73053939D02*
X128418470Y-73006320D01*
X128418470Y-73006320D02*
X128394661Y-72958701D01*
X128394661Y-72958701D02*
X128347042Y-72934892D01*
X128347042Y-72934892D02*
X128227994Y-72934892D01*
X128227994Y-72934892D02*
X128180375Y-72911082D01*
X127989899Y-72792035D02*
X127870851Y-73125368D01*
X127870851Y-73125368D02*
X127751804Y-72792035D01*
X127370852Y-73101559D02*
X127418471Y-73125368D01*
X127418471Y-73125368D02*
X127513709Y-73125368D01*
X127513709Y-73125368D02*
X127561328Y-73101559D01*
X127561328Y-73101559D02*
X127585137Y-73053939D01*
X127585137Y-73053939D02*
X127585137Y-72863463D01*
X127585137Y-72863463D02*
X127561328Y-72815844D01*
X127561328Y-72815844D02*
X127513709Y-72792035D01*
X127513709Y-72792035D02*
X127418471Y-72792035D01*
X127418471Y-72792035D02*
X127370852Y-72815844D01*
X127370852Y-72815844D02*
X127347042Y-72863463D01*
X127347042Y-72863463D02*
X127347042Y-72911082D01*
X127347042Y-72911082D02*
X127585137Y-72958701D01*
X126823233Y-72792035D02*
X126632757Y-72792035D01*
X126751805Y-72625368D02*
X126751805Y-73053939D01*
X126751805Y-73053939D02*
X126727995Y-73101559D01*
X126727995Y-73101559D02*
X126680376Y-73125368D01*
X126680376Y-73125368D02*
X126632757Y-73125368D01*
X126394662Y-73125368D02*
X126442281Y-73101559D01*
X126442281Y-73101559D02*
X126466091Y-73077749D01*
X126466091Y-73077749D02*
X126489900Y-73030130D01*
X126489900Y-73030130D02*
X126489900Y-72887273D01*
X126489900Y-72887273D02*
X126466091Y-72839654D01*
X126466091Y-72839654D02*
X126442281Y-72815844D01*
X126442281Y-72815844D02*
X126394662Y-72792035D01*
X126394662Y-72792035D02*
X126323234Y-72792035D01*
X126323234Y-72792035D02*
X126275615Y-72815844D01*
X126275615Y-72815844D02*
X126251805Y-72839654D01*
X126251805Y-72839654D02*
X126227996Y-72887273D01*
X126227996Y-72887273D02*
X126227996Y-73030130D01*
X126227996Y-73030130D02*
X126251805Y-73077749D01*
X126251805Y-73077749D02*
X126275615Y-73101559D01*
X126275615Y-73101559D02*
X126323234Y-73125368D01*
X126323234Y-73125368D02*
X126394662Y-73125368D01*
X125632758Y-73125368D02*
X125632758Y-72625368D01*
X125632758Y-72815844D02*
X125585139Y-72792035D01*
X125585139Y-72792035D02*
X125489901Y-72792035D01*
X125489901Y-72792035D02*
X125442282Y-72815844D01*
X125442282Y-72815844D02*
X125418472Y-72839654D01*
X125418472Y-72839654D02*
X125394663Y-72887273D01*
X125394663Y-72887273D02*
X125394663Y-73030130D01*
X125394663Y-73030130D02*
X125418472Y-73077749D01*
X125418472Y-73077749D02*
X125442282Y-73101559D01*
X125442282Y-73101559D02*
X125489901Y-73125368D01*
X125489901Y-73125368D02*
X125585139Y-73125368D01*
X125585139Y-73125368D02*
X125632758Y-73101559D01*
X124989901Y-73101559D02*
X125037520Y-73125368D01*
X125037520Y-73125368D02*
X125132758Y-73125368D01*
X125132758Y-73125368D02*
X125180377Y-73101559D01*
X125180377Y-73101559D02*
X125204186Y-73053939D01*
X125204186Y-73053939D02*
X125204186Y-72863463D01*
X125204186Y-72863463D02*
X125180377Y-72815844D01*
X125180377Y-72815844D02*
X125132758Y-72792035D01*
X125132758Y-72792035D02*
X125037520Y-72792035D01*
X125037520Y-72792035D02*
X124989901Y-72815844D01*
X124989901Y-72815844D02*
X124966091Y-72863463D01*
X124966091Y-72863463D02*
X124966091Y-72911082D01*
X124966091Y-72911082D02*
X125204186Y-72958701D01*
X124442282Y-72792035D02*
X124251806Y-72792035D01*
X124370854Y-72625368D02*
X124370854Y-73053939D01*
X124370854Y-73053939D02*
X124347044Y-73101559D01*
X124347044Y-73101559D02*
X124299425Y-73125368D01*
X124299425Y-73125368D02*
X124251806Y-73125368D01*
X124085140Y-73125368D02*
X124085140Y-72625368D01*
X123870854Y-73125368D02*
X123870854Y-72863463D01*
X123870854Y-72863463D02*
X123894664Y-72815844D01*
X123894664Y-72815844D02*
X123942283Y-72792035D01*
X123942283Y-72792035D02*
X124013711Y-72792035D01*
X124013711Y-72792035D02*
X124061330Y-72815844D01*
X124061330Y-72815844D02*
X124085140Y-72839654D01*
X123442283Y-73101559D02*
X123489902Y-73125368D01*
X123489902Y-73125368D02*
X123585140Y-73125368D01*
X123585140Y-73125368D02*
X123632759Y-73101559D01*
X123632759Y-73101559D02*
X123656568Y-73053939D01*
X123656568Y-73053939D02*
X123656568Y-72863463D01*
X123656568Y-72863463D02*
X123632759Y-72815844D01*
X123632759Y-72815844D02*
X123585140Y-72792035D01*
X123585140Y-72792035D02*
X123489902Y-72792035D01*
X123489902Y-72792035D02*
X123442283Y-72815844D01*
X123442283Y-72815844D02*
X123418473Y-72863463D01*
X123418473Y-72863463D02*
X123418473Y-72911082D01*
X123418473Y-72911082D02*
X123656568Y-72958701D01*
X122608950Y-72792035D02*
X122608950Y-73196797D01*
X122608950Y-73196797D02*
X122632760Y-73244416D01*
X122632760Y-73244416D02*
X122656569Y-73268225D01*
X122656569Y-73268225D02*
X122704188Y-73292035D01*
X122704188Y-73292035D02*
X122775617Y-73292035D01*
X122775617Y-73292035D02*
X122823236Y-73268225D01*
X122608950Y-73101559D02*
X122656569Y-73125368D01*
X122656569Y-73125368D02*
X122751807Y-73125368D01*
X122751807Y-73125368D02*
X122799426Y-73101559D01*
X122799426Y-73101559D02*
X122823236Y-73077749D01*
X122823236Y-73077749D02*
X122847045Y-73030130D01*
X122847045Y-73030130D02*
X122847045Y-72887273D01*
X122847045Y-72887273D02*
X122823236Y-72839654D01*
X122823236Y-72839654D02*
X122799426Y-72815844D01*
X122799426Y-72815844D02*
X122751807Y-72792035D01*
X122751807Y-72792035D02*
X122656569Y-72792035D01*
X122656569Y-72792035D02*
X122608950Y-72815844D01*
X122370855Y-73125368D02*
X122370855Y-72792035D01*
X122370855Y-72887273D02*
X122347045Y-72839654D01*
X122347045Y-72839654D02*
X122323236Y-72815844D01*
X122323236Y-72815844D02*
X122275617Y-72792035D01*
X122275617Y-72792035D02*
X122227998Y-72792035D01*
X121870855Y-73101559D02*
X121918474Y-73125368D01*
X121918474Y-73125368D02*
X122013712Y-73125368D01*
X122013712Y-73125368D02*
X122061331Y-73101559D01*
X122061331Y-73101559D02*
X122085140Y-73053939D01*
X122085140Y-73053939D02*
X122085140Y-72863463D01*
X122085140Y-72863463D02*
X122061331Y-72815844D01*
X122061331Y-72815844D02*
X122013712Y-72792035D01*
X122013712Y-72792035D02*
X121918474Y-72792035D01*
X121918474Y-72792035D02*
X121870855Y-72815844D01*
X121870855Y-72815844D02*
X121847045Y-72863463D01*
X121847045Y-72863463D02*
X121847045Y-72911082D01*
X121847045Y-72911082D02*
X122085140Y-72958701D01*
X121418474Y-73125368D02*
X121418474Y-72863463D01*
X121418474Y-72863463D02*
X121442284Y-72815844D01*
X121442284Y-72815844D02*
X121489903Y-72792035D01*
X121489903Y-72792035D02*
X121585141Y-72792035D01*
X121585141Y-72792035D02*
X121632760Y-72815844D01*
X121418474Y-73101559D02*
X121466093Y-73125368D01*
X121466093Y-73125368D02*
X121585141Y-73125368D01*
X121585141Y-73125368D02*
X121632760Y-73101559D01*
X121632760Y-73101559D02*
X121656569Y-73053939D01*
X121656569Y-73053939D02*
X121656569Y-73006320D01*
X121656569Y-73006320D02*
X121632760Y-72958701D01*
X121632760Y-72958701D02*
X121585141Y-72934892D01*
X121585141Y-72934892D02*
X121466093Y-72934892D01*
X121466093Y-72934892D02*
X121418474Y-72911082D01*
X121251807Y-72792035D02*
X121061331Y-72792035D01*
X121180379Y-72625368D02*
X121180379Y-73053939D01*
X121180379Y-73053939D02*
X121156569Y-73101559D01*
X121156569Y-73101559D02*
X121108950Y-73125368D01*
X121108950Y-73125368D02*
X121061331Y-73125368D01*
X120704189Y-73101559D02*
X120751808Y-73125368D01*
X120751808Y-73125368D02*
X120847046Y-73125368D01*
X120847046Y-73125368D02*
X120894665Y-73101559D01*
X120894665Y-73101559D02*
X120918474Y-73053939D01*
X120918474Y-73053939D02*
X120918474Y-72863463D01*
X120918474Y-72863463D02*
X120894665Y-72815844D01*
X120894665Y-72815844D02*
X120847046Y-72792035D01*
X120847046Y-72792035D02*
X120751808Y-72792035D01*
X120751808Y-72792035D02*
X120704189Y-72815844D01*
X120704189Y-72815844D02*
X120680379Y-72863463D01*
X120680379Y-72863463D02*
X120680379Y-72911082D01*
X120680379Y-72911082D02*
X120918474Y-72958701D01*
X120489903Y-73101559D02*
X120442284Y-73125368D01*
X120442284Y-73125368D02*
X120347046Y-73125368D01*
X120347046Y-73125368D02*
X120299427Y-73101559D01*
X120299427Y-73101559D02*
X120275618Y-73053939D01*
X120275618Y-73053939D02*
X120275618Y-73030130D01*
X120275618Y-73030130D02*
X120299427Y-72982511D01*
X120299427Y-72982511D02*
X120347046Y-72958701D01*
X120347046Y-72958701D02*
X120418475Y-72958701D01*
X120418475Y-72958701D02*
X120466094Y-72934892D01*
X120466094Y-72934892D02*
X120489903Y-72887273D01*
X120489903Y-72887273D02*
X120489903Y-72863463D01*
X120489903Y-72863463D02*
X120466094Y-72815844D01*
X120466094Y-72815844D02*
X120418475Y-72792035D01*
X120418475Y-72792035D02*
X120347046Y-72792035D01*
X120347046Y-72792035D02*
X120299427Y-72815844D01*
X120132760Y-72792035D02*
X119942284Y-72792035D01*
X120061332Y-72625368D02*
X120061332Y-73053939D01*
X120061332Y-73053939D02*
X120037522Y-73101559D01*
X120037522Y-73101559D02*
X119989903Y-73125368D01*
X119989903Y-73125368D02*
X119942284Y-73125368D01*
X119299428Y-72625368D02*
X119204190Y-72625368D01*
X119204190Y-72625368D02*
X119156571Y-72649178D01*
X119156571Y-72649178D02*
X119108952Y-72696797D01*
X119108952Y-72696797D02*
X119085142Y-72792035D01*
X119085142Y-72792035D02*
X119085142Y-72958701D01*
X119085142Y-72958701D02*
X119108952Y-73053939D01*
X119108952Y-73053939D02*
X119156571Y-73101559D01*
X119156571Y-73101559D02*
X119204190Y-73125368D01*
X119204190Y-73125368D02*
X119299428Y-73125368D01*
X119299428Y-73125368D02*
X119347047Y-73101559D01*
X119347047Y-73101559D02*
X119394666Y-73053939D01*
X119394666Y-73053939D02*
X119418475Y-72958701D01*
X119418475Y-72958701D02*
X119418475Y-72792035D01*
X119418475Y-72792035D02*
X119394666Y-72696797D01*
X119394666Y-72696797D02*
X119347047Y-72649178D01*
X119347047Y-72649178D02*
X119299428Y-72625368D01*
X118870856Y-73125368D02*
X118870856Y-72792035D01*
X118870856Y-72839654D02*
X118847046Y-72815844D01*
X118847046Y-72815844D02*
X118799427Y-72792035D01*
X118799427Y-72792035D02*
X118727999Y-72792035D01*
X118727999Y-72792035D02*
X118680380Y-72815844D01*
X118680380Y-72815844D02*
X118656570Y-72863463D01*
X118656570Y-72863463D02*
X118656570Y-73125368D01*
X118656570Y-72863463D02*
X118632761Y-72815844D01*
X118632761Y-72815844D02*
X118585142Y-72792035D01*
X118585142Y-72792035D02*
X118513713Y-72792035D01*
X118513713Y-72792035D02*
X118466094Y-72815844D01*
X118466094Y-72815844D02*
X118442284Y-72863463D01*
X118442284Y-72863463D02*
X118442284Y-73125368D01*
X118204189Y-72792035D02*
X118204189Y-73125368D01*
X118204189Y-72839654D02*
X118180379Y-72815844D01*
X118180379Y-72815844D02*
X118132760Y-72792035D01*
X118132760Y-72792035D02*
X118061332Y-72792035D01*
X118061332Y-72792035D02*
X118013713Y-72815844D01*
X118013713Y-72815844D02*
X117989903Y-72863463D01*
X117989903Y-72863463D02*
X117989903Y-73125368D01*
X117751808Y-73125368D02*
X117751808Y-72792035D01*
X117751808Y-72625368D02*
X117775617Y-72649178D01*
X117775617Y-72649178D02*
X117751808Y-72672987D01*
X117751808Y-72672987D02*
X117727998Y-72649178D01*
X117727998Y-72649178D02*
X117751808Y-72625368D01*
X117751808Y-72625368D02*
X117751808Y-72672987D01*
X117513713Y-72934892D02*
X117132761Y-72934892D01*
X116894665Y-73125368D02*
X116894665Y-72625368D01*
X116894665Y-72625368D02*
X116727998Y-72982511D01*
X116727998Y-72982511D02*
X116561332Y-72625368D01*
X116561332Y-72625368D02*
X116561332Y-73125368D01*
X116108950Y-73125368D02*
X116108950Y-72863463D01*
X116108950Y-72863463D02*
X116132760Y-72815844D01*
X116132760Y-72815844D02*
X116180379Y-72792035D01*
X116180379Y-72792035D02*
X116275617Y-72792035D01*
X116275617Y-72792035D02*
X116323236Y-72815844D01*
X116108950Y-73101559D02*
X116156569Y-73125368D01*
X116156569Y-73125368D02*
X116275617Y-73125368D01*
X116275617Y-73125368D02*
X116323236Y-73101559D01*
X116323236Y-73101559D02*
X116347045Y-73053939D01*
X116347045Y-73053939D02*
X116347045Y-73006320D01*
X116347045Y-73006320D02*
X116323236Y-72958701D01*
X116323236Y-72958701D02*
X116275617Y-72934892D01*
X116275617Y-72934892D02*
X116156569Y-72934892D01*
X116156569Y-72934892D02*
X116108950Y-72911082D01*
X115870855Y-72792035D02*
X115870855Y-73125368D01*
X115870855Y-72839654D02*
X115847045Y-72815844D01*
X115847045Y-72815844D02*
X115799426Y-72792035D01*
X115799426Y-72792035D02*
X115727998Y-72792035D01*
X115727998Y-72792035D02*
X115680379Y-72815844D01*
X115680379Y-72815844D02*
X115656569Y-72863463D01*
X115656569Y-72863463D02*
X115656569Y-73125368D01*
X114847046Y-73101559D02*
X114894665Y-73125368D01*
X114894665Y-73125368D02*
X114989903Y-73125368D01*
X114989903Y-73125368D02*
X115037522Y-73101559D01*
X115037522Y-73101559D02*
X115061331Y-73053939D01*
X115061331Y-73053939D02*
X115061331Y-72863463D01*
X115061331Y-72863463D02*
X115037522Y-72815844D01*
X115037522Y-72815844D02*
X114989903Y-72792035D01*
X114989903Y-72792035D02*
X114894665Y-72792035D01*
X114894665Y-72792035D02*
X114847046Y-72815844D01*
X114847046Y-72815844D02*
X114823236Y-72863463D01*
X114823236Y-72863463D02*
X114823236Y-72911082D01*
X114823236Y-72911082D02*
X115061331Y-72958701D01*
X114656570Y-72792035D02*
X114537522Y-73125368D01*
X114537522Y-73125368D02*
X114418475Y-72792035D01*
X114037523Y-73101559D02*
X114085142Y-73125368D01*
X114085142Y-73125368D02*
X114180380Y-73125368D01*
X114180380Y-73125368D02*
X114227999Y-73101559D01*
X114227999Y-73101559D02*
X114251808Y-73053939D01*
X114251808Y-73053939D02*
X114251808Y-72863463D01*
X114251808Y-72863463D02*
X114227999Y-72815844D01*
X114227999Y-72815844D02*
X114180380Y-72792035D01*
X114180380Y-72792035D02*
X114085142Y-72792035D01*
X114085142Y-72792035D02*
X114037523Y-72815844D01*
X114037523Y-72815844D02*
X114013713Y-72863463D01*
X114013713Y-72863463D02*
X114013713Y-72911082D01*
X114013713Y-72911082D02*
X114251808Y-72958701D01*
X113799428Y-73125368D02*
X113799428Y-72792035D01*
X113799428Y-72887273D02*
X113775618Y-72839654D01*
X113775618Y-72839654D02*
X113751809Y-72815844D01*
X113751809Y-72815844D02*
X113704190Y-72792035D01*
X113704190Y-72792035D02*
X113656571Y-72792035D01*
X113489904Y-73077749D02*
X113466094Y-73101559D01*
X113466094Y-73101559D02*
X113489904Y-73125368D01*
X113489904Y-73125368D02*
X113513713Y-73101559D01*
X113513713Y-73101559D02*
X113489904Y-73077749D01*
X113489904Y-73077749D02*
X113489904Y-73125368D01*
X112775619Y-72887273D02*
X112775619Y-73125368D01*
X112942285Y-72625368D02*
X112775619Y-72887273D01*
X112775619Y-72887273D02*
X112608952Y-72625368D01*
X112370857Y-73125368D02*
X112418476Y-73101559D01*
X112418476Y-73101559D02*
X112442286Y-73077749D01*
X112442286Y-73077749D02*
X112466095Y-73030130D01*
X112466095Y-73030130D02*
X112466095Y-72887273D01*
X112466095Y-72887273D02*
X112442286Y-72839654D01*
X112442286Y-72839654D02*
X112418476Y-72815844D01*
X112418476Y-72815844D02*
X112370857Y-72792035D01*
X112370857Y-72792035D02*
X112299429Y-72792035D01*
X112299429Y-72792035D02*
X112251810Y-72815844D01*
X112251810Y-72815844D02*
X112228000Y-72839654D01*
X112228000Y-72839654D02*
X112204191Y-72887273D01*
X112204191Y-72887273D02*
X112204191Y-73030130D01*
X112204191Y-73030130D02*
X112228000Y-73077749D01*
X112228000Y-73077749D02*
X112251810Y-73101559D01*
X112251810Y-73101559D02*
X112299429Y-73125368D01*
X112299429Y-73125368D02*
X112370857Y-73125368D01*
X111775619Y-72792035D02*
X111775619Y-73125368D01*
X111989905Y-72792035D02*
X111989905Y-73053939D01*
X111989905Y-73053939D02*
X111966095Y-73101559D01*
X111966095Y-73101559D02*
X111918476Y-73125368D01*
X111918476Y-73125368D02*
X111847048Y-73125368D01*
X111847048Y-73125368D02*
X111799429Y-73101559D01*
X111799429Y-73101559D02*
X111775619Y-73077749D01*
X111156572Y-72792035D02*
X111156572Y-73220606D01*
X111156572Y-73220606D02*
X111180381Y-73268225D01*
X111180381Y-73268225D02*
X111228000Y-73292035D01*
X111228000Y-73292035D02*
X111251810Y-73292035D01*
X111156572Y-72625368D02*
X111180381Y-72649178D01*
X111180381Y-72649178D02*
X111156572Y-72672987D01*
X111156572Y-72672987D02*
X111132762Y-72649178D01*
X111132762Y-72649178D02*
X111156572Y-72625368D01*
X111156572Y-72625368D02*
X111156572Y-72672987D01*
X110704191Y-72792035D02*
X110704191Y-73125368D01*
X110918477Y-72792035D02*
X110918477Y-73053939D01*
X110918477Y-73053939D02*
X110894667Y-73101559D01*
X110894667Y-73101559D02*
X110847048Y-73125368D01*
X110847048Y-73125368D02*
X110775620Y-73125368D01*
X110775620Y-73125368D02*
X110728001Y-73101559D01*
X110728001Y-73101559D02*
X110704191Y-73077749D01*
X110489905Y-73101559D02*
X110442286Y-73125368D01*
X110442286Y-73125368D02*
X110347048Y-73125368D01*
X110347048Y-73125368D02*
X110299429Y-73101559D01*
X110299429Y-73101559D02*
X110275620Y-73053939D01*
X110275620Y-73053939D02*
X110275620Y-73030130D01*
X110275620Y-73030130D02*
X110299429Y-72982511D01*
X110299429Y-72982511D02*
X110347048Y-72958701D01*
X110347048Y-72958701D02*
X110418477Y-72958701D01*
X110418477Y-72958701D02*
X110466096Y-72934892D01*
X110466096Y-72934892D02*
X110489905Y-72887273D01*
X110489905Y-72887273D02*
X110489905Y-72863463D01*
X110489905Y-72863463D02*
X110466096Y-72815844D01*
X110466096Y-72815844D02*
X110418477Y-72792035D01*
X110418477Y-72792035D02*
X110347048Y-72792035D01*
X110347048Y-72792035D02*
X110299429Y-72815844D01*
X110132762Y-72792035D02*
X109942286Y-72792035D01*
X110061334Y-72625368D02*
X110061334Y-73053939D01*
X110061334Y-73053939D02*
X110037524Y-73101559D01*
X110037524Y-73101559D02*
X109989905Y-73125368D01*
X109989905Y-73125368D02*
X109942286Y-73125368D01*
X109394668Y-73125368D02*
X109394668Y-72625368D01*
X109180382Y-73125368D02*
X109180382Y-72863463D01*
X109180382Y-72863463D02*
X109204192Y-72815844D01*
X109204192Y-72815844D02*
X109251811Y-72792035D01*
X109251811Y-72792035D02*
X109323239Y-72792035D01*
X109323239Y-72792035D02*
X109370858Y-72815844D01*
X109370858Y-72815844D02*
X109394668Y-72839654D01*
X108728001Y-73125368D02*
X108728001Y-72863463D01*
X108728001Y-72863463D02*
X108751811Y-72815844D01*
X108751811Y-72815844D02*
X108799430Y-72792035D01*
X108799430Y-72792035D02*
X108894668Y-72792035D01*
X108894668Y-72792035D02*
X108942287Y-72815844D01*
X108728001Y-73101559D02*
X108775620Y-73125368D01*
X108775620Y-73125368D02*
X108894668Y-73125368D01*
X108894668Y-73125368D02*
X108942287Y-73101559D01*
X108942287Y-73101559D02*
X108966096Y-73053939D01*
X108966096Y-73053939D02*
X108966096Y-73006320D01*
X108966096Y-73006320D02*
X108942287Y-72958701D01*
X108942287Y-72958701D02*
X108894668Y-72934892D01*
X108894668Y-72934892D02*
X108775620Y-72934892D01*
X108775620Y-72934892D02*
X108728001Y-72911082D01*
X108537525Y-72792035D02*
X108418477Y-73125368D01*
X108418477Y-73125368D02*
X108299430Y-72792035D01*
X107918478Y-73101559D02*
X107966097Y-73125368D01*
X107966097Y-73125368D02*
X108061335Y-73125368D01*
X108061335Y-73125368D02*
X108108954Y-73101559D01*
X108108954Y-73101559D02*
X108132763Y-73053939D01*
X108132763Y-73053939D02*
X108132763Y-72863463D01*
X108132763Y-72863463D02*
X108108954Y-72815844D01*
X108108954Y-72815844D02*
X108061335Y-72792035D01*
X108061335Y-72792035D02*
X107966097Y-72792035D01*
X107966097Y-72792035D02*
X107918478Y-72815844D01*
X107918478Y-72815844D02*
X107894668Y-72863463D01*
X107894668Y-72863463D02*
X107894668Y-72911082D01*
X107894668Y-72911082D02*
X108132763Y-72958701D01*
X107370859Y-72792035D02*
X107180383Y-72792035D01*
X107299431Y-72625368D02*
X107299431Y-73053939D01*
X107299431Y-73053939D02*
X107275621Y-73101559D01*
X107275621Y-73101559D02*
X107228002Y-73125368D01*
X107228002Y-73125368D02*
X107180383Y-73125368D01*
X106942288Y-73125368D02*
X106989907Y-73101559D01*
X106989907Y-73101559D02*
X107013717Y-73077749D01*
X107013717Y-73077749D02*
X107037526Y-73030130D01*
X107037526Y-73030130D02*
X107037526Y-72887273D01*
X107037526Y-72887273D02*
X107013717Y-72839654D01*
X107013717Y-72839654D02*
X106989907Y-72815844D01*
X106989907Y-72815844D02*
X106942288Y-72792035D01*
X106942288Y-72792035D02*
X106870860Y-72792035D01*
X106870860Y-72792035D02*
X106823241Y-72815844D01*
X106823241Y-72815844D02*
X106799431Y-72839654D01*
X106799431Y-72839654D02*
X106775622Y-72887273D01*
X106775622Y-72887273D02*
X106775622Y-73030130D01*
X106775622Y-73030130D02*
X106799431Y-73077749D01*
X106799431Y-73077749D02*
X106823241Y-73101559D01*
X106823241Y-73101559D02*
X106870860Y-73125368D01*
X106870860Y-73125368D02*
X106942288Y-73125368D01*
X106180384Y-73125368D02*
X106180384Y-72625368D01*
X106180384Y-72815844D02*
X106132765Y-72792035D01*
X106132765Y-72792035D02*
X106037527Y-72792035D01*
X106037527Y-72792035D02*
X105989908Y-72815844D01*
X105989908Y-72815844D02*
X105966098Y-72839654D01*
X105966098Y-72839654D02*
X105942289Y-72887273D01*
X105942289Y-72887273D02*
X105942289Y-73030130D01*
X105942289Y-73030130D02*
X105966098Y-73077749D01*
X105966098Y-73077749D02*
X105989908Y-73101559D01*
X105989908Y-73101559D02*
X106037527Y-73125368D01*
X106037527Y-73125368D02*
X106132765Y-73125368D01*
X106132765Y-73125368D02*
X106180384Y-73101559D01*
X105537527Y-73101559D02*
X105585146Y-73125368D01*
X105585146Y-73125368D02*
X105680384Y-73125368D01*
X105680384Y-73125368D02*
X105728003Y-73101559D01*
X105728003Y-73101559D02*
X105751812Y-73053939D01*
X105751812Y-73053939D02*
X105751812Y-72863463D01*
X105751812Y-72863463D02*
X105728003Y-72815844D01*
X105728003Y-72815844D02*
X105680384Y-72792035D01*
X105680384Y-72792035D02*
X105585146Y-72792035D01*
X105585146Y-72792035D02*
X105537527Y-72815844D01*
X105537527Y-72815844D02*
X105513717Y-72863463D01*
X105513717Y-72863463D02*
X105513717Y-72911082D01*
X105513717Y-72911082D02*
X105751812Y-72958701D01*
X104989908Y-72792035D02*
X104799432Y-72792035D01*
X104918480Y-72625368D02*
X104918480Y-73053939D01*
X104918480Y-73053939D02*
X104894670Y-73101559D01*
X104894670Y-73101559D02*
X104847051Y-73125368D01*
X104847051Y-73125368D02*
X104799432Y-73125368D01*
X104632766Y-73125368D02*
X104632766Y-72625368D01*
X104418480Y-73125368D02*
X104418480Y-72863463D01*
X104418480Y-72863463D02*
X104442290Y-72815844D01*
X104442290Y-72815844D02*
X104489909Y-72792035D01*
X104489909Y-72792035D02*
X104561337Y-72792035D01*
X104561337Y-72792035D02*
X104608956Y-72815844D01*
X104608956Y-72815844D02*
X104632766Y-72839654D01*
X103989909Y-73101559D02*
X104037528Y-73125368D01*
X104037528Y-73125368D02*
X104132766Y-73125368D01*
X104132766Y-73125368D02*
X104180385Y-73101559D01*
X104180385Y-73101559D02*
X104204194Y-73053939D01*
X104204194Y-73053939D02*
X104204194Y-72863463D01*
X104204194Y-72863463D02*
X104180385Y-72815844D01*
X104180385Y-72815844D02*
X104132766Y-72792035D01*
X104132766Y-72792035D02*
X104037528Y-72792035D01*
X104037528Y-72792035D02*
X103989909Y-72815844D01*
X103989909Y-72815844D02*
X103966099Y-72863463D01*
X103966099Y-72863463D02*
X103966099Y-72911082D01*
X103966099Y-72911082D02*
X104204194Y-72958701D01*
X103156576Y-72792035D02*
X103156576Y-73196797D01*
X103156576Y-73196797D02*
X103180386Y-73244416D01*
X103180386Y-73244416D02*
X103204195Y-73268225D01*
X103204195Y-73268225D02*
X103251814Y-73292035D01*
X103251814Y-73292035D02*
X103323243Y-73292035D01*
X103323243Y-73292035D02*
X103370862Y-73268225D01*
X103156576Y-73101559D02*
X103204195Y-73125368D01*
X103204195Y-73125368D02*
X103299433Y-73125368D01*
X103299433Y-73125368D02*
X103347052Y-73101559D01*
X103347052Y-73101559D02*
X103370862Y-73077749D01*
X103370862Y-73077749D02*
X103394671Y-73030130D01*
X103394671Y-73030130D02*
X103394671Y-72887273D01*
X103394671Y-72887273D02*
X103370862Y-72839654D01*
X103370862Y-72839654D02*
X103347052Y-72815844D01*
X103347052Y-72815844D02*
X103299433Y-72792035D01*
X103299433Y-72792035D02*
X103204195Y-72792035D01*
X103204195Y-72792035D02*
X103156576Y-72815844D01*
X102918481Y-73125368D02*
X102918481Y-72792035D01*
X102918481Y-72887273D02*
X102894671Y-72839654D01*
X102894671Y-72839654D02*
X102870862Y-72815844D01*
X102870862Y-72815844D02*
X102823243Y-72792035D01*
X102823243Y-72792035D02*
X102775624Y-72792035D01*
X102418481Y-73101559D02*
X102466100Y-73125368D01*
X102466100Y-73125368D02*
X102561338Y-73125368D01*
X102561338Y-73125368D02*
X102608957Y-73101559D01*
X102608957Y-73101559D02*
X102632766Y-73053939D01*
X102632766Y-73053939D02*
X102632766Y-72863463D01*
X102632766Y-72863463D02*
X102608957Y-72815844D01*
X102608957Y-72815844D02*
X102561338Y-72792035D01*
X102561338Y-72792035D02*
X102466100Y-72792035D01*
X102466100Y-72792035D02*
X102418481Y-72815844D01*
X102418481Y-72815844D02*
X102394671Y-72863463D01*
X102394671Y-72863463D02*
X102394671Y-72911082D01*
X102394671Y-72911082D02*
X102632766Y-72958701D01*
X101966100Y-73125368D02*
X101966100Y-72863463D01*
X101966100Y-72863463D02*
X101989910Y-72815844D01*
X101989910Y-72815844D02*
X102037529Y-72792035D01*
X102037529Y-72792035D02*
X102132767Y-72792035D01*
X102132767Y-72792035D02*
X102180386Y-72815844D01*
X101966100Y-73101559D02*
X102013719Y-73125368D01*
X102013719Y-73125368D02*
X102132767Y-73125368D01*
X102132767Y-73125368D02*
X102180386Y-73101559D01*
X102180386Y-73101559D02*
X102204195Y-73053939D01*
X102204195Y-73053939D02*
X102204195Y-73006320D01*
X102204195Y-73006320D02*
X102180386Y-72958701D01*
X102180386Y-72958701D02*
X102132767Y-72934892D01*
X102132767Y-72934892D02*
X102013719Y-72934892D01*
X102013719Y-72934892D02*
X101966100Y-72911082D01*
X101799433Y-72792035D02*
X101608957Y-72792035D01*
X101728005Y-72625368D02*
X101728005Y-73053939D01*
X101728005Y-73053939D02*
X101704195Y-73101559D01*
X101704195Y-73101559D02*
X101656576Y-73125368D01*
X101656576Y-73125368D02*
X101608957Y-73125368D01*
X101251815Y-73101559D02*
X101299434Y-73125368D01*
X101299434Y-73125368D02*
X101394672Y-73125368D01*
X101394672Y-73125368D02*
X101442291Y-73101559D01*
X101442291Y-73101559D02*
X101466100Y-73053939D01*
X101466100Y-73053939D02*
X101466100Y-72863463D01*
X101466100Y-72863463D02*
X101442291Y-72815844D01*
X101442291Y-72815844D02*
X101394672Y-72792035D01*
X101394672Y-72792035D02*
X101299434Y-72792035D01*
X101299434Y-72792035D02*
X101251815Y-72815844D01*
X101251815Y-72815844D02*
X101228005Y-72863463D01*
X101228005Y-72863463D02*
X101228005Y-72911082D01*
X101228005Y-72911082D02*
X101466100Y-72958701D01*
X101037529Y-73101559D02*
X100989910Y-73125368D01*
X100989910Y-73125368D02*
X100894672Y-73125368D01*
X100894672Y-73125368D02*
X100847053Y-73101559D01*
X100847053Y-73101559D02*
X100823244Y-73053939D01*
X100823244Y-73053939D02*
X100823244Y-73030130D01*
X100823244Y-73030130D02*
X100847053Y-72982511D01*
X100847053Y-72982511D02*
X100894672Y-72958701D01*
X100894672Y-72958701D02*
X100966101Y-72958701D01*
X100966101Y-72958701D02*
X101013720Y-72934892D01*
X101013720Y-72934892D02*
X101037529Y-72887273D01*
X101037529Y-72887273D02*
X101037529Y-72863463D01*
X101037529Y-72863463D02*
X101013720Y-72815844D01*
X101013720Y-72815844D02*
X100966101Y-72792035D01*
X100966101Y-72792035D02*
X100894672Y-72792035D01*
X100894672Y-72792035D02*
X100847053Y-72815844D01*
X100680386Y-72792035D02*
X100489910Y-72792035D01*
X100608958Y-72625368D02*
X100608958Y-73053939D01*
X100608958Y-73053939D02*
X100585148Y-73101559D01*
X100585148Y-73101559D02*
X100537529Y-73125368D01*
X100537529Y-73125368D02*
X100489910Y-73125368D01*
X99989911Y-72792035D02*
X99870863Y-73125368D01*
X99751816Y-72792035D02*
X99870863Y-73125368D01*
X99870863Y-73125368D02*
X99918482Y-73244416D01*
X99918482Y-73244416D02*
X99942292Y-73268225D01*
X99942292Y-73268225D02*
X99989911Y-73292035D01*
X99489911Y-73125368D02*
X99537530Y-73101559D01*
X99537530Y-73101559D02*
X99561340Y-73077749D01*
X99561340Y-73077749D02*
X99585149Y-73030130D01*
X99585149Y-73030130D02*
X99585149Y-72887273D01*
X99585149Y-72887273D02*
X99561340Y-72839654D01*
X99561340Y-72839654D02*
X99537530Y-72815844D01*
X99537530Y-72815844D02*
X99489911Y-72792035D01*
X99489911Y-72792035D02*
X99418483Y-72792035D01*
X99418483Y-72792035D02*
X99370864Y-72815844D01*
X99370864Y-72815844D02*
X99347054Y-72839654D01*
X99347054Y-72839654D02*
X99323245Y-72887273D01*
X99323245Y-72887273D02*
X99323245Y-73030130D01*
X99323245Y-73030130D02*
X99347054Y-73077749D01*
X99347054Y-73077749D02*
X99370864Y-73101559D01*
X99370864Y-73101559D02*
X99418483Y-73125368D01*
X99418483Y-73125368D02*
X99489911Y-73125368D01*
X98894673Y-72792035D02*
X98894673Y-73125368D01*
X99108959Y-72792035D02*
X99108959Y-73053939D01*
X99108959Y-73053939D02*
X99085149Y-73101559D01*
X99085149Y-73101559D02*
X99037530Y-73125368D01*
X99037530Y-73125368D02*
X98966102Y-73125368D01*
X98966102Y-73125368D02*
X98918483Y-73101559D01*
X98918483Y-73101559D02*
X98894673Y-73077749D01*
X98656578Y-73077749D02*
X98632768Y-73101559D01*
X98632768Y-73101559D02*
X98656578Y-73125368D01*
X98656578Y-73125368D02*
X98680387Y-73101559D01*
X98680387Y-73101559D02*
X98656578Y-73077749D01*
X98656578Y-73077749D02*
X98656578Y-73125368D01*
X98442292Y-72625368D02*
X98442292Y-72720606D01*
X98251816Y-72625368D02*
X98251816Y-72720606D01*
X97656579Y-72934892D02*
X97275627Y-72934892D01*
X96656579Y-73125368D02*
X96656579Y-72625368D01*
X96656579Y-72625368D02*
X96537531Y-72625368D01*
X96537531Y-72625368D02*
X96466103Y-72649178D01*
X96466103Y-72649178D02*
X96418484Y-72696797D01*
X96418484Y-72696797D02*
X96394674Y-72744416D01*
X96394674Y-72744416D02*
X96370865Y-72839654D01*
X96370865Y-72839654D02*
X96370865Y-72911082D01*
X96370865Y-72911082D02*
X96394674Y-73006320D01*
X96394674Y-73006320D02*
X96418484Y-73053939D01*
X96418484Y-73053939D02*
X96466103Y-73101559D01*
X96466103Y-73101559D02*
X96537531Y-73125368D01*
X96537531Y-73125368D02*
X96656579Y-73125368D01*
X95966103Y-73101559D02*
X96013722Y-73125368D01*
X96013722Y-73125368D02*
X96108960Y-73125368D01*
X96108960Y-73125368D02*
X96156579Y-73101559D01*
X96156579Y-73101559D02*
X96180388Y-73053939D01*
X96180388Y-73053939D02*
X96180388Y-72863463D01*
X96180388Y-72863463D02*
X96156579Y-72815844D01*
X96156579Y-72815844D02*
X96108960Y-72792035D01*
X96108960Y-72792035D02*
X96013722Y-72792035D01*
X96013722Y-72792035D02*
X95966103Y-72815844D01*
X95966103Y-72815844D02*
X95942293Y-72863463D01*
X95942293Y-72863463D02*
X95942293Y-72911082D01*
X95942293Y-72911082D02*
X96180388Y-72958701D01*
X95728008Y-73125368D02*
X95728008Y-72625368D01*
X95728008Y-72815844D02*
X95680389Y-72792035D01*
X95680389Y-72792035D02*
X95585151Y-72792035D01*
X95585151Y-72792035D02*
X95537532Y-72815844D01*
X95537532Y-72815844D02*
X95513722Y-72839654D01*
X95513722Y-72839654D02*
X95489913Y-72887273D01*
X95489913Y-72887273D02*
X95489913Y-73030130D01*
X95489913Y-73030130D02*
X95513722Y-73077749D01*
X95513722Y-73077749D02*
X95537532Y-73101559D01*
X95537532Y-73101559D02*
X95585151Y-73125368D01*
X95585151Y-73125368D02*
X95680389Y-73125368D01*
X95680389Y-73125368D02*
X95728008Y-73101559D01*
X95275627Y-73125368D02*
X95275627Y-72625368D01*
X95275627Y-72815844D02*
X95228008Y-72792035D01*
X95228008Y-72792035D02*
X95132770Y-72792035D01*
X95132770Y-72792035D02*
X95085151Y-72815844D01*
X95085151Y-72815844D02*
X95061341Y-72839654D01*
X95061341Y-72839654D02*
X95037532Y-72887273D01*
X95037532Y-72887273D02*
X95037532Y-73030130D01*
X95037532Y-73030130D02*
X95061341Y-73077749D01*
X95061341Y-73077749D02*
X95085151Y-73101559D01*
X95085151Y-73101559D02*
X95132770Y-73125368D01*
X95132770Y-73125368D02*
X95228008Y-73125368D01*
X95228008Y-73125368D02*
X95275627Y-73101559D01*
X94823246Y-73125368D02*
X94823246Y-72792035D01*
X94823246Y-72625368D02*
X94847055Y-72649178D01*
X94847055Y-72649178D02*
X94823246Y-72672987D01*
X94823246Y-72672987D02*
X94799436Y-72649178D01*
X94799436Y-72649178D02*
X94823246Y-72625368D01*
X94823246Y-72625368D02*
X94823246Y-72672987D01*
X94394675Y-73101559D02*
X94442294Y-73125368D01*
X94442294Y-73125368D02*
X94537532Y-73125368D01*
X94537532Y-73125368D02*
X94585151Y-73101559D01*
X94585151Y-73101559D02*
X94608960Y-73053939D01*
X94608960Y-73053939D02*
X94608960Y-72863463D01*
X94608960Y-72863463D02*
X94585151Y-72815844D01*
X94585151Y-72815844D02*
X94537532Y-72792035D01*
X94537532Y-72792035D02*
X94442294Y-72792035D01*
X94442294Y-72792035D02*
X94394675Y-72815844D01*
X94394675Y-72815844D02*
X94370865Y-72863463D01*
X94370865Y-72863463D02*
X94370865Y-72911082D01*
X94370865Y-72911082D02*
X94608960Y-72958701D01*
X93513723Y-72649178D02*
X93561342Y-72625368D01*
X93561342Y-72625368D02*
X93632771Y-72625368D01*
X93632771Y-72625368D02*
X93704199Y-72649178D01*
X93704199Y-72649178D02*
X93751818Y-72696797D01*
X93751818Y-72696797D02*
X93775628Y-72744416D01*
X93775628Y-72744416D02*
X93799437Y-72839654D01*
X93799437Y-72839654D02*
X93799437Y-72911082D01*
X93799437Y-72911082D02*
X93775628Y-73006320D01*
X93775628Y-73006320D02*
X93751818Y-73053939D01*
X93751818Y-73053939D02*
X93704199Y-73101559D01*
X93704199Y-73101559D02*
X93632771Y-73125368D01*
X93632771Y-73125368D02*
X93585152Y-73125368D01*
X93585152Y-73125368D02*
X93513723Y-73101559D01*
X93513723Y-73101559D02*
X93489914Y-73077749D01*
X93489914Y-73077749D02*
X93489914Y-72911082D01*
X93489914Y-72911082D02*
X93585152Y-72911082D01*
X93275628Y-73125368D02*
X93275628Y-72792035D01*
X93275628Y-72887273D02*
X93251818Y-72839654D01*
X93251818Y-72839654D02*
X93228009Y-72815844D01*
X93228009Y-72815844D02*
X93180390Y-72792035D01*
X93180390Y-72792035D02*
X93132771Y-72792035D01*
X92751818Y-73125368D02*
X92751818Y-72863463D01*
X92751818Y-72863463D02*
X92775628Y-72815844D01*
X92775628Y-72815844D02*
X92823247Y-72792035D01*
X92823247Y-72792035D02*
X92918485Y-72792035D01*
X92918485Y-72792035D02*
X92966104Y-72815844D01*
X92751818Y-73101559D02*
X92799437Y-73125368D01*
X92799437Y-73125368D02*
X92918485Y-73125368D01*
X92918485Y-73125368D02*
X92966104Y-73101559D01*
X92966104Y-73101559D02*
X92989913Y-73053939D01*
X92989913Y-73053939D02*
X92989913Y-73006320D01*
X92989913Y-73006320D02*
X92966104Y-72958701D01*
X92966104Y-72958701D02*
X92918485Y-72934892D01*
X92918485Y-72934892D02*
X92799437Y-72934892D01*
X92799437Y-72934892D02*
X92751818Y-72911082D01*
X92561342Y-72792035D02*
X92442294Y-73125368D01*
X92323247Y-72792035D02*
X92442294Y-73125368D01*
X92442294Y-73125368D02*
X92489913Y-73244416D01*
X92489913Y-73244416D02*
X92513723Y-73268225D01*
X92513723Y-73268225D02*
X92561342Y-73292035D01*
X92156580Y-73101559D02*
X92108961Y-73125368D01*
X92108961Y-73125368D02*
X92013723Y-73125368D01*
X92013723Y-73125368D02*
X91966104Y-73101559D01*
X91966104Y-73101559D02*
X91942295Y-73053939D01*
X91942295Y-73053939D02*
X91942295Y-73030130D01*
X91942295Y-73030130D02*
X91966104Y-72982511D01*
X91966104Y-72982511D02*
X92013723Y-72958701D01*
X92013723Y-72958701D02*
X92085152Y-72958701D01*
X92085152Y-72958701D02*
X92132771Y-72934892D01*
X92132771Y-72934892D02*
X92156580Y-72887273D01*
X92156580Y-72887273D02*
X92156580Y-72863463D01*
X92156580Y-72863463D02*
X92132771Y-72815844D01*
X92132771Y-72815844D02*
X92085152Y-72792035D01*
X92085152Y-72792035D02*
X92013723Y-72792035D01*
X92013723Y-72792035D02*
X91966104Y-72815844D01*
X91656580Y-73125368D02*
X91704199Y-73101559D01*
X91704199Y-73101559D02*
X91728009Y-73077749D01*
X91728009Y-73077749D02*
X91751818Y-73030130D01*
X91751818Y-73030130D02*
X91751818Y-72887273D01*
X91751818Y-72887273D02*
X91728009Y-72839654D01*
X91728009Y-72839654D02*
X91704199Y-72815844D01*
X91704199Y-72815844D02*
X91656580Y-72792035D01*
X91656580Y-72792035D02*
X91585152Y-72792035D01*
X91585152Y-72792035D02*
X91537533Y-72815844D01*
X91537533Y-72815844D02*
X91513723Y-72839654D01*
X91513723Y-72839654D02*
X91489914Y-72887273D01*
X91489914Y-72887273D02*
X91489914Y-73030130D01*
X91489914Y-73030130D02*
X91513723Y-73077749D01*
X91513723Y-73077749D02*
X91537533Y-73101559D01*
X91537533Y-73101559D02*
X91585152Y-73125368D01*
X91585152Y-73125368D02*
X91656580Y-73125368D01*
X91275628Y-72792035D02*
X91275628Y-73125368D01*
X91275628Y-72839654D02*
X91251818Y-72815844D01*
X91251818Y-72815844D02*
X91204199Y-72792035D01*
X91204199Y-72792035D02*
X91132771Y-72792035D01*
X91132771Y-72792035D02*
X91085152Y-72815844D01*
X91085152Y-72815844D02*
X91061342Y-72863463D01*
X91061342Y-72863463D02*
X91061342Y-73125368D01*
X90513723Y-72792035D02*
X90323247Y-72792035D01*
X90442295Y-72625368D02*
X90442295Y-73053939D01*
X90442295Y-73053939D02*
X90418485Y-73101559D01*
X90418485Y-73101559D02*
X90370866Y-73125368D01*
X90370866Y-73125368D02*
X90323247Y-73125368D01*
X90085152Y-73125368D02*
X90132771Y-73101559D01*
X90132771Y-73101559D02*
X90156581Y-73077749D01*
X90156581Y-73077749D02*
X90180390Y-73030130D01*
X90180390Y-73030130D02*
X90180390Y-72887273D01*
X90180390Y-72887273D02*
X90156581Y-72839654D01*
X90156581Y-72839654D02*
X90132771Y-72815844D01*
X90132771Y-72815844D02*
X90085152Y-72792035D01*
X90085152Y-72792035D02*
X90013724Y-72792035D01*
X90013724Y-72792035D02*
X89966105Y-72815844D01*
X89966105Y-72815844D02*
X89942295Y-72839654D01*
X89942295Y-72839654D02*
X89918486Y-72887273D01*
X89918486Y-72887273D02*
X89918486Y-73030130D01*
X89918486Y-73030130D02*
X89942295Y-73077749D01*
X89942295Y-73077749D02*
X89966105Y-73101559D01*
X89966105Y-73101559D02*
X90013724Y-73125368D01*
X90013724Y-73125368D02*
X90085152Y-73125368D01*
X89323248Y-73125368D02*
X89323248Y-72625368D01*
X89323248Y-72625368D02*
X89156581Y-72982511D01*
X89156581Y-72982511D02*
X88989915Y-72625368D01*
X88989915Y-72625368D02*
X88989915Y-73125368D01*
X88537533Y-73125368D02*
X88537533Y-72863463D01*
X88537533Y-72863463D02*
X88561343Y-72815844D01*
X88561343Y-72815844D02*
X88608962Y-72792035D01*
X88608962Y-72792035D02*
X88704200Y-72792035D01*
X88704200Y-72792035D02*
X88751819Y-72815844D01*
X88537533Y-73101559D02*
X88585152Y-73125368D01*
X88585152Y-73125368D02*
X88704200Y-73125368D01*
X88704200Y-73125368D02*
X88751819Y-73101559D01*
X88751819Y-73101559D02*
X88775628Y-73053939D01*
X88775628Y-73053939D02*
X88775628Y-73006320D01*
X88775628Y-73006320D02*
X88751819Y-72958701D01*
X88751819Y-72958701D02*
X88704200Y-72934892D01*
X88704200Y-72934892D02*
X88585152Y-72934892D01*
X88585152Y-72934892D02*
X88537533Y-72911082D01*
X88299438Y-73125368D02*
X88299438Y-72792035D01*
X88299438Y-72887273D02*
X88275628Y-72839654D01*
X88275628Y-72839654D02*
X88251819Y-72815844D01*
X88251819Y-72815844D02*
X88204200Y-72792035D01*
X88204200Y-72792035D02*
X88156581Y-72792035D01*
X87989914Y-73125368D02*
X87989914Y-72625368D01*
X87942295Y-72934892D02*
X87799438Y-73125368D01*
X87799438Y-72792035D02*
X87989914Y-72982511D01*
X86942295Y-72649178D02*
X86989914Y-72625368D01*
X86989914Y-72625368D02*
X87061343Y-72625368D01*
X87061343Y-72625368D02*
X87132771Y-72649178D01*
X87132771Y-72649178D02*
X87180390Y-72696797D01*
X87180390Y-72696797D02*
X87204200Y-72744416D01*
X87204200Y-72744416D02*
X87228009Y-72839654D01*
X87228009Y-72839654D02*
X87228009Y-72911082D01*
X87228009Y-72911082D02*
X87204200Y-73006320D01*
X87204200Y-73006320D02*
X87180390Y-73053939D01*
X87180390Y-73053939D02*
X87132771Y-73101559D01*
X87132771Y-73101559D02*
X87061343Y-73125368D01*
X87061343Y-73125368D02*
X87013724Y-73125368D01*
X87013724Y-73125368D02*
X86942295Y-73101559D01*
X86942295Y-73101559D02*
X86918486Y-73077749D01*
X86918486Y-73077749D02*
X86918486Y-72911082D01*
X86918486Y-72911082D02*
X87013724Y-72911082D01*
X86704200Y-73125368D02*
X86704200Y-72792035D01*
X86704200Y-72887273D02*
X86680390Y-72839654D01*
X86680390Y-72839654D02*
X86656581Y-72815844D01*
X86656581Y-72815844D02*
X86608962Y-72792035D01*
X86608962Y-72792035D02*
X86561343Y-72792035D01*
X86180390Y-73125368D02*
X86180390Y-72863463D01*
X86180390Y-72863463D02*
X86204200Y-72815844D01*
X86204200Y-72815844D02*
X86251819Y-72792035D01*
X86251819Y-72792035D02*
X86347057Y-72792035D01*
X86347057Y-72792035D02*
X86394676Y-72815844D01*
X86180390Y-73101559D02*
X86228009Y-73125368D01*
X86228009Y-73125368D02*
X86347057Y-73125368D01*
X86347057Y-73125368D02*
X86394676Y-73101559D01*
X86394676Y-73101559D02*
X86418485Y-73053939D01*
X86418485Y-73053939D02*
X86418485Y-73006320D01*
X86418485Y-73006320D02*
X86394676Y-72958701D01*
X86394676Y-72958701D02*
X86347057Y-72934892D01*
X86347057Y-72934892D02*
X86228009Y-72934892D01*
X86228009Y-72934892D02*
X86180390Y-72911082D01*
X85989914Y-72792035D02*
X85870866Y-73125368D01*
X85751819Y-72792035D02*
X85870866Y-73125368D01*
X85870866Y-73125368D02*
X85918485Y-73244416D01*
X85918485Y-73244416D02*
X85942295Y-73268225D01*
X85942295Y-73268225D02*
X85989914Y-73292035D01*
X85585152Y-73101559D02*
X85537533Y-73125368D01*
X85537533Y-73125368D02*
X85442295Y-73125368D01*
X85442295Y-73125368D02*
X85394676Y-73101559D01*
X85394676Y-73101559D02*
X85370867Y-73053939D01*
X85370867Y-73053939D02*
X85370867Y-73030130D01*
X85370867Y-73030130D02*
X85394676Y-72982511D01*
X85394676Y-72982511D02*
X85442295Y-72958701D01*
X85442295Y-72958701D02*
X85513724Y-72958701D01*
X85513724Y-72958701D02*
X85561343Y-72934892D01*
X85561343Y-72934892D02*
X85585152Y-72887273D01*
X85585152Y-72887273D02*
X85585152Y-72863463D01*
X85585152Y-72863463D02*
X85561343Y-72815844D01*
X85561343Y-72815844D02*
X85513724Y-72792035D01*
X85513724Y-72792035D02*
X85442295Y-72792035D01*
X85442295Y-72792035D02*
X85394676Y-72815844D01*
X85085152Y-73125368D02*
X85132771Y-73101559D01*
X85132771Y-73101559D02*
X85156581Y-73077749D01*
X85156581Y-73077749D02*
X85180390Y-73030130D01*
X85180390Y-73030130D02*
X85180390Y-72887273D01*
X85180390Y-72887273D02*
X85156581Y-72839654D01*
X85156581Y-72839654D02*
X85132771Y-72815844D01*
X85132771Y-72815844D02*
X85085152Y-72792035D01*
X85085152Y-72792035D02*
X85013724Y-72792035D01*
X85013724Y-72792035D02*
X84966105Y-72815844D01*
X84966105Y-72815844D02*
X84942295Y-72839654D01*
X84942295Y-72839654D02*
X84918486Y-72887273D01*
X84918486Y-72887273D02*
X84918486Y-73030130D01*
X84918486Y-73030130D02*
X84942295Y-73077749D01*
X84942295Y-73077749D02*
X84966105Y-73101559D01*
X84966105Y-73101559D02*
X85013724Y-73125368D01*
X85013724Y-73125368D02*
X85085152Y-73125368D01*
X84704200Y-72792035D02*
X84704200Y-73125368D01*
X84704200Y-72839654D02*
X84680390Y-72815844D01*
X84680390Y-72815844D02*
X84632771Y-72792035D01*
X84632771Y-72792035D02*
X84561343Y-72792035D01*
X84561343Y-72792035D02*
X84513724Y-72815844D01*
X84513724Y-72815844D02*
X84489914Y-72863463D01*
X84489914Y-72863463D02*
X84489914Y-73125368D01*
X83728010Y-73315844D02*
X83751819Y-73292035D01*
X83751819Y-73292035D02*
X83799438Y-73220606D01*
X83799438Y-73220606D02*
X83823248Y-73172987D01*
X83823248Y-73172987D02*
X83847057Y-73101559D01*
X83847057Y-73101559D02*
X83870867Y-72982511D01*
X83870867Y-72982511D02*
X83870867Y-72887273D01*
X83870867Y-72887273D02*
X83847057Y-72768225D01*
X83847057Y-72768225D02*
X83823248Y-72696797D01*
X83823248Y-72696797D02*
X83799438Y-72649178D01*
X83799438Y-72649178D02*
X83751819Y-72577749D01*
X83751819Y-72577749D02*
X83728010Y-72553939D01*
X83537534Y-73125368D02*
X83537534Y-72625368D01*
X83299439Y-72792035D02*
X83299439Y-73125368D01*
X83299439Y-72839654D02*
X83275629Y-72815844D01*
X83275629Y-72815844D02*
X83228010Y-72792035D01*
X83228010Y-72792035D02*
X83156582Y-72792035D01*
X83156582Y-72792035D02*
X83108963Y-72815844D01*
X83108963Y-72815844D02*
X83085153Y-72863463D01*
X83085153Y-72863463D02*
X83085153Y-73125368D01*
X82894677Y-72792035D02*
X82775629Y-73125368D01*
X82775629Y-73125368D02*
X82656582Y-72792035D01*
X82466106Y-73125368D02*
X82466106Y-72792035D01*
X82466106Y-72625368D02*
X82489915Y-72649178D01*
X82489915Y-72649178D02*
X82466106Y-72672987D01*
X82466106Y-72672987D02*
X82442296Y-72649178D01*
X82442296Y-72649178D02*
X82466106Y-72625368D01*
X82466106Y-72625368D02*
X82466106Y-72672987D01*
X82228011Y-72792035D02*
X82228011Y-73125368D01*
X82228011Y-72839654D02*
X82204201Y-72815844D01*
X82204201Y-72815844D02*
X82156582Y-72792035D01*
X82156582Y-72792035D02*
X82085154Y-72792035D01*
X82085154Y-72792035D02*
X82037535Y-72815844D01*
X82037535Y-72815844D02*
X82013725Y-72863463D01*
X82013725Y-72863463D02*
X82013725Y-73125368D01*
X81561344Y-73101559D02*
X81608963Y-73125368D01*
X81608963Y-73125368D02*
X81704201Y-73125368D01*
X81704201Y-73125368D02*
X81751820Y-73101559D01*
X81751820Y-73101559D02*
X81775630Y-73077749D01*
X81775630Y-73077749D02*
X81799439Y-73030130D01*
X81799439Y-73030130D02*
X81799439Y-72887273D01*
X81799439Y-72887273D02*
X81775630Y-72839654D01*
X81775630Y-72839654D02*
X81751820Y-72815844D01*
X81751820Y-72815844D02*
X81704201Y-72792035D01*
X81704201Y-72792035D02*
X81608963Y-72792035D01*
X81608963Y-72792035D02*
X81561344Y-72815844D01*
X81347059Y-73125368D02*
X81347059Y-72792035D01*
X81347059Y-72625368D02*
X81370868Y-72649178D01*
X81370868Y-72649178D02*
X81347059Y-72672987D01*
X81347059Y-72672987D02*
X81323249Y-72649178D01*
X81323249Y-72649178D02*
X81347059Y-72625368D01*
X81347059Y-72625368D02*
X81347059Y-72672987D01*
X81108964Y-73125368D02*
X81108964Y-72625368D01*
X81108964Y-72815844D02*
X81061345Y-72792035D01*
X81061345Y-72792035D02*
X80966107Y-72792035D01*
X80966107Y-72792035D02*
X80918488Y-72815844D01*
X80918488Y-72815844D02*
X80894678Y-72839654D01*
X80894678Y-72839654D02*
X80870869Y-72887273D01*
X80870869Y-72887273D02*
X80870869Y-73030130D01*
X80870869Y-73030130D02*
X80894678Y-73077749D01*
X80894678Y-73077749D02*
X80918488Y-73101559D01*
X80918488Y-73101559D02*
X80966107Y-73125368D01*
X80966107Y-73125368D02*
X81061345Y-73125368D01*
X81061345Y-73125368D02*
X81108964Y-73101559D01*
X80585154Y-73125368D02*
X80632773Y-73101559D01*
X80632773Y-73101559D02*
X80656583Y-73053939D01*
X80656583Y-73053939D02*
X80656583Y-72625368D01*
X80204202Y-73101559D02*
X80251821Y-73125368D01*
X80251821Y-73125368D02*
X80347059Y-73125368D01*
X80347059Y-73125368D02*
X80394678Y-73101559D01*
X80394678Y-73101559D02*
X80418487Y-73053939D01*
X80418487Y-73053939D02*
X80418487Y-72863463D01*
X80418487Y-72863463D02*
X80394678Y-72815844D01*
X80394678Y-72815844D02*
X80347059Y-72792035D01*
X80347059Y-72792035D02*
X80251821Y-72792035D01*
X80251821Y-72792035D02*
X80204202Y-72815844D01*
X80204202Y-72815844D02*
X80180392Y-72863463D01*
X80180392Y-72863463D02*
X80180392Y-72911082D01*
X80180392Y-72911082D02*
X80418487Y-72958701D01*
X80013726Y-73315844D02*
X79989916Y-73292035D01*
X79989916Y-73292035D02*
X79942297Y-73220606D01*
X79942297Y-73220606D02*
X79918488Y-73172987D01*
X79918488Y-73172987D02*
X79894678Y-73101559D01*
X79894678Y-73101559D02*
X79870869Y-72982511D01*
X79870869Y-72982511D02*
X79870869Y-72887273D01*
X79870869Y-72887273D02*
X79894678Y-72768225D01*
X79894678Y-72768225D02*
X79918488Y-72696797D01*
X79918488Y-72696797D02*
X79942297Y-72649178D01*
X79942297Y-72649178D02*
X79989916Y-72577749D01*
X79989916Y-72577749D02*
X80013726Y-72553939D01*
D11*
X99689624Y-97686902D02*
X99718195Y-97915474D01*
X99232481Y-97686902D02*
X99261053Y-97915474D01*
X98832481Y-97686902D02*
X98696767Y-98886902D01*
X98696767Y-98886902D02*
X98361052Y-98029760D01*
X98361052Y-98029760D02*
X98239624Y-98886902D01*
X98239624Y-98886902D02*
X97803909Y-97686902D01*
X97032480Y-98829760D02*
X97153909Y-98886902D01*
X97153909Y-98886902D02*
X97382480Y-98886902D01*
X97382480Y-98886902D02*
X97489623Y-98829760D01*
X97489623Y-98829760D02*
X97532480Y-98715474D01*
X97532480Y-98715474D02*
X97475338Y-98258331D01*
X97475338Y-98258331D02*
X97403909Y-98144045D01*
X97403909Y-98144045D02*
X97282480Y-98086902D01*
X97282480Y-98086902D02*
X97053909Y-98086902D01*
X97053909Y-98086902D02*
X96946766Y-98144045D01*
X96946766Y-98144045D02*
X96903909Y-98258331D01*
X96903909Y-98258331D02*
X96918195Y-98372617D01*
X96918195Y-98372617D02*
X97503909Y-98486902D01*
X96468195Y-98886902D02*
X96368195Y-98086902D01*
X96396767Y-98315474D02*
X96325338Y-98201188D01*
X96325338Y-98201188D02*
X96261052Y-98144045D01*
X96261052Y-98144045D02*
X96139624Y-98086902D01*
X96139624Y-98086902D02*
X96025338Y-98086902D01*
X95261052Y-98829760D02*
X95382481Y-98886902D01*
X95382481Y-98886902D02*
X95611052Y-98886902D01*
X95611052Y-98886902D02*
X95718195Y-98829760D01*
X95718195Y-98829760D02*
X95761052Y-98715474D01*
X95761052Y-98715474D02*
X95703910Y-98258331D01*
X95703910Y-98258331D02*
X95632481Y-98144045D01*
X95632481Y-98144045D02*
X95511052Y-98086902D01*
X95511052Y-98086902D02*
X95282481Y-98086902D01*
X95282481Y-98086902D02*
X95175338Y-98144045D01*
X95175338Y-98144045D02*
X95132481Y-98258331D01*
X95132481Y-98258331D02*
X95146767Y-98372617D01*
X95146767Y-98372617D02*
X95732481Y-98486902D01*
X93782481Y-98886902D02*
X93682481Y-98086902D01*
X93632481Y-97686902D02*
X93696767Y-97744045D01*
X93696767Y-97744045D02*
X93646767Y-97801188D01*
X93646767Y-97801188D02*
X93582481Y-97744045D01*
X93582481Y-97744045D02*
X93632481Y-97686902D01*
X93632481Y-97686902D02*
X93646767Y-97801188D01*
X93282481Y-98086902D02*
X92825338Y-98086902D01*
X93061052Y-97686902D02*
X93189624Y-98715474D01*
X93189624Y-98715474D02*
X93146766Y-98829760D01*
X93146766Y-98829760D02*
X93039624Y-98886902D01*
X93039624Y-98886902D02*
X92925338Y-98886902D01*
X91661052Y-98829760D02*
X91553909Y-98886902D01*
X91553909Y-98886902D02*
X91325338Y-98886902D01*
X91325338Y-98886902D02*
X91203909Y-98829760D01*
X91203909Y-98829760D02*
X91132481Y-98715474D01*
X91132481Y-98715474D02*
X91125338Y-98658331D01*
X91125338Y-98658331D02*
X91168195Y-98544045D01*
X91168195Y-98544045D02*
X91275338Y-98486902D01*
X91275338Y-98486902D02*
X91446766Y-98486902D01*
X91446766Y-98486902D02*
X91553909Y-98429760D01*
X91553909Y-98429760D02*
X91596766Y-98315474D01*
X91596766Y-98315474D02*
X91589624Y-98258331D01*
X91589624Y-98258331D02*
X91518195Y-98144045D01*
X91518195Y-98144045D02*
X91396766Y-98086902D01*
X91396766Y-98086902D02*
X91225338Y-98086902D01*
X91225338Y-98086902D02*
X91118195Y-98144045D01*
X90468195Y-98886902D02*
X90575337Y-98829760D01*
X90575337Y-98829760D02*
X90625337Y-98772617D01*
X90625337Y-98772617D02*
X90668195Y-98658331D01*
X90668195Y-98658331D02*
X90625337Y-98315474D01*
X90625337Y-98315474D02*
X90553909Y-98201188D01*
X90553909Y-98201188D02*
X90489623Y-98144045D01*
X90489623Y-98144045D02*
X90368195Y-98086902D01*
X90368195Y-98086902D02*
X90196766Y-98086902D01*
X90196766Y-98086902D02*
X90089623Y-98144045D01*
X90089623Y-98144045D02*
X90039623Y-98201188D01*
X90039623Y-98201188D02*
X89996766Y-98315474D01*
X89996766Y-98315474D02*
X90039623Y-98658331D01*
X90039623Y-98658331D02*
X90111052Y-98772617D01*
X90111052Y-98772617D02*
X90175337Y-98829760D01*
X90175337Y-98829760D02*
X90296766Y-98886902D01*
X90296766Y-98886902D02*
X90468195Y-98886902D01*
X88175337Y-98829760D02*
X88296766Y-98886902D01*
X88296766Y-98886902D02*
X88525337Y-98886902D01*
X88525337Y-98886902D02*
X88632480Y-98829760D01*
X88632480Y-98829760D02*
X88675337Y-98715474D01*
X88675337Y-98715474D02*
X88618195Y-98258331D01*
X88618195Y-98258331D02*
X88546766Y-98144045D01*
X88546766Y-98144045D02*
X88425337Y-98086902D01*
X88425337Y-98086902D02*
X88196766Y-98086902D01*
X88196766Y-98086902D02*
X88089623Y-98144045D01*
X88089623Y-98144045D02*
X88046766Y-98258331D01*
X88046766Y-98258331D02*
X88061052Y-98372617D01*
X88061052Y-98372617D02*
X88646766Y-98486902D01*
X87096766Y-98886902D02*
X87018195Y-98258331D01*
X87018195Y-98258331D02*
X87061052Y-98144045D01*
X87061052Y-98144045D02*
X87168195Y-98086902D01*
X87168195Y-98086902D02*
X87396766Y-98086902D01*
X87396766Y-98086902D02*
X87518195Y-98144045D01*
X87089624Y-98829760D02*
X87211052Y-98886902D01*
X87211052Y-98886902D02*
X87496766Y-98886902D01*
X87496766Y-98886902D02*
X87603909Y-98829760D01*
X87603909Y-98829760D02*
X87646766Y-98715474D01*
X87646766Y-98715474D02*
X87632481Y-98601188D01*
X87632481Y-98601188D02*
X87561052Y-98486902D01*
X87561052Y-98486902D02*
X87439624Y-98429760D01*
X87439624Y-98429760D02*
X87153909Y-98429760D01*
X87153909Y-98429760D02*
X87032481Y-98372617D01*
X86575338Y-98829760D02*
X86468195Y-98886902D01*
X86468195Y-98886902D02*
X86239624Y-98886902D01*
X86239624Y-98886902D02*
X86118195Y-98829760D01*
X86118195Y-98829760D02*
X86046767Y-98715474D01*
X86046767Y-98715474D02*
X86039624Y-98658331D01*
X86039624Y-98658331D02*
X86082481Y-98544045D01*
X86082481Y-98544045D02*
X86189624Y-98486902D01*
X86189624Y-98486902D02*
X86361052Y-98486902D01*
X86361052Y-98486902D02*
X86468195Y-98429760D01*
X86468195Y-98429760D02*
X86511052Y-98315474D01*
X86511052Y-98315474D02*
X86503910Y-98258331D01*
X86503910Y-98258331D02*
X86432481Y-98144045D01*
X86432481Y-98144045D02*
X86311052Y-98086902D01*
X86311052Y-98086902D02*
X86139624Y-98086902D01*
X86139624Y-98086902D02*
X86032481Y-98144045D01*
X85568195Y-98086902D02*
X85382481Y-98886902D01*
X84996766Y-98086902D02*
X85382481Y-98886902D01*
X85382481Y-98886902D02*
X85532481Y-99172617D01*
X85532481Y-99172617D02*
X85596766Y-99229760D01*
X85596766Y-99229760D02*
X85718195Y-99286902D01*
X84625337Y-98772617D02*
X84575337Y-98829760D01*
X84575337Y-98829760D02*
X84639623Y-98886902D01*
X84639623Y-98886902D02*
X84689623Y-98829760D01*
X84689623Y-98829760D02*
X84625337Y-98772617D01*
X84625337Y-98772617D02*
X84639623Y-98886902D01*
X84053908Y-98772617D02*
X84003908Y-98829760D01*
X84003908Y-98829760D02*
X84068194Y-98886902D01*
X84068194Y-98886902D02*
X84118194Y-98829760D01*
X84118194Y-98829760D02*
X84053908Y-98772617D01*
X84053908Y-98772617D02*
X84068194Y-98886902D01*
X83482479Y-98772617D02*
X83432479Y-98829760D01*
X83432479Y-98829760D02*
X83496765Y-98886902D01*
X83496765Y-98886902D02*
X83546765Y-98829760D01*
X83546765Y-98829760D02*
X83482479Y-98772617D01*
X83482479Y-98772617D02*
X83496765Y-98886902D01*
X82832479Y-97686902D02*
X82861050Y-97915474D01*
X82375336Y-97686902D02*
X82403908Y-97915474D01*
X81039621Y-98429760D02*
X80125336Y-98429760D01*
X78718193Y-97686902D02*
X78032478Y-97686902D01*
X78525336Y-98886902D02*
X78375336Y-97686902D01*
X77782478Y-98886902D02*
X77632478Y-97686902D01*
X77268192Y-98886902D02*
X77189621Y-98258331D01*
X77189621Y-98258331D02*
X77232478Y-98144045D01*
X77232478Y-98144045D02*
X77339621Y-98086902D01*
X77339621Y-98086902D02*
X77511050Y-98086902D01*
X77511050Y-98086902D02*
X77632478Y-98144045D01*
X77632478Y-98144045D02*
X77696764Y-98201188D01*
X76232478Y-98829760D02*
X76353907Y-98886902D01*
X76353907Y-98886902D02*
X76582478Y-98886902D01*
X76582478Y-98886902D02*
X76689621Y-98829760D01*
X76689621Y-98829760D02*
X76732478Y-98715474D01*
X76732478Y-98715474D02*
X76675336Y-98258331D01*
X76675336Y-98258331D02*
X76603907Y-98144045D01*
X76603907Y-98144045D02*
X76482478Y-98086902D01*
X76482478Y-98086902D02*
X76253907Y-98086902D01*
X76253907Y-98086902D02*
X76146764Y-98144045D01*
X76146764Y-98144045D02*
X76103907Y-98258331D01*
X76103907Y-98258331D02*
X76118193Y-98372617D01*
X76118193Y-98372617D02*
X76703907Y-98486902D01*
X75496765Y-98886902D02*
X75603907Y-98829760D01*
X75603907Y-98829760D02*
X75646765Y-98715474D01*
X75646765Y-98715474D02*
X75518193Y-97686902D01*
X73918193Y-97686902D02*
X74061050Y-97915474D01*
X73575336Y-97686902D02*
X73325336Y-98886902D01*
X73325336Y-98886902D02*
X72775336Y-97686902D01*
X72011050Y-98886902D02*
X71932479Y-98258331D01*
X71932479Y-98258331D02*
X71975336Y-98144045D01*
X71975336Y-98144045D02*
X72082479Y-98086902D01*
X72082479Y-98086902D02*
X72311050Y-98086902D01*
X72311050Y-98086902D02*
X72432479Y-98144045D01*
X72003908Y-98829760D02*
X72125336Y-98886902D01*
X72125336Y-98886902D02*
X72411050Y-98886902D01*
X72411050Y-98886902D02*
X72518193Y-98829760D01*
X72518193Y-98829760D02*
X72561050Y-98715474D01*
X72561050Y-98715474D02*
X72546765Y-98601188D01*
X72546765Y-98601188D02*
X72475336Y-98486902D01*
X72475336Y-98486902D02*
X72353908Y-98429760D01*
X72353908Y-98429760D02*
X72068193Y-98429760D01*
X72068193Y-98429760D02*
X71946765Y-98372617D01*
X70925336Y-98886902D02*
X70775336Y-97686902D01*
X70918194Y-98829760D02*
X71039622Y-98886902D01*
X71039622Y-98886902D02*
X71268194Y-98886902D01*
X71268194Y-98886902D02*
X71375336Y-98829760D01*
X71375336Y-98829760D02*
X71425336Y-98772617D01*
X71425336Y-98772617D02*
X71468194Y-98658331D01*
X71468194Y-98658331D02*
X71425336Y-98315474D01*
X71425336Y-98315474D02*
X71353908Y-98201188D01*
X71353908Y-98201188D02*
X71289622Y-98144045D01*
X71289622Y-98144045D02*
X71168194Y-98086902D01*
X71168194Y-98086902D02*
X70939622Y-98086902D01*
X70939622Y-98086902D02*
X70832479Y-98144045D01*
X69839622Y-98886902D02*
X69761051Y-98258331D01*
X69761051Y-98258331D02*
X69803908Y-98144045D01*
X69803908Y-98144045D02*
X69911051Y-98086902D01*
X69911051Y-98086902D02*
X70139622Y-98086902D01*
X70139622Y-98086902D02*
X70261051Y-98144045D01*
X69832480Y-98829760D02*
X69953908Y-98886902D01*
X69953908Y-98886902D02*
X70239622Y-98886902D01*
X70239622Y-98886902D02*
X70346765Y-98829760D01*
X70346765Y-98829760D02*
X70389622Y-98715474D01*
X70389622Y-98715474D02*
X70375337Y-98601188D01*
X70375337Y-98601188D02*
X70303908Y-98486902D01*
X70303908Y-98486902D02*
X70182480Y-98429760D01*
X70182480Y-98429760D02*
X69896765Y-98429760D01*
X69896765Y-98429760D02*
X69775337Y-98372617D01*
X69268194Y-98886902D02*
X69168194Y-98086902D01*
X69182480Y-98201188D02*
X69118194Y-98144045D01*
X69118194Y-98144045D02*
X68996766Y-98086902D01*
X68996766Y-98086902D02*
X68825337Y-98086902D01*
X68825337Y-98086902D02*
X68718194Y-98144045D01*
X68718194Y-98144045D02*
X68675337Y-98258331D01*
X68675337Y-98258331D02*
X68753908Y-98886902D01*
X68675337Y-98258331D02*
X68603908Y-98144045D01*
X68603908Y-98144045D02*
X68482480Y-98086902D01*
X68482480Y-98086902D02*
X68311051Y-98086902D01*
X68311051Y-98086902D02*
X68203908Y-98144045D01*
X68203908Y-98144045D02*
X68161051Y-98258331D01*
X68161051Y-98258331D02*
X68239623Y-98886902D01*
X67603908Y-98829760D02*
X67611051Y-98886902D01*
X67611051Y-98886902D02*
X67682480Y-99001188D01*
X67682480Y-99001188D02*
X67746766Y-99058331D01*
X66182479Y-98886902D02*
X66032479Y-97686902D01*
X66103908Y-98258331D02*
X65418193Y-98258331D01*
X65496765Y-98886902D02*
X65346765Y-97686902D01*
X64411050Y-98886902D02*
X64332479Y-98258331D01*
X64332479Y-98258331D02*
X64375336Y-98144045D01*
X64375336Y-98144045D02*
X64482479Y-98086902D01*
X64482479Y-98086902D02*
X64711050Y-98086902D01*
X64711050Y-98086902D02*
X64832479Y-98144045D01*
X64403908Y-98829760D02*
X64525336Y-98886902D01*
X64525336Y-98886902D02*
X64811050Y-98886902D01*
X64811050Y-98886902D02*
X64918193Y-98829760D01*
X64918193Y-98829760D02*
X64961050Y-98715474D01*
X64961050Y-98715474D02*
X64946765Y-98601188D01*
X64946765Y-98601188D02*
X64875336Y-98486902D01*
X64875336Y-98486902D02*
X64753908Y-98429760D01*
X64753908Y-98429760D02*
X64468193Y-98429760D01*
X64468193Y-98429760D02*
X64346765Y-98372617D01*
X63668194Y-98886902D02*
X63775336Y-98829760D01*
X63775336Y-98829760D02*
X63818194Y-98715474D01*
X63818194Y-98715474D02*
X63689622Y-97686902D01*
X63039623Y-98886902D02*
X63146765Y-98829760D01*
X63146765Y-98829760D02*
X63196765Y-98772617D01*
X63196765Y-98772617D02*
X63239623Y-98658331D01*
X63239623Y-98658331D02*
X63196765Y-98315474D01*
X63196765Y-98315474D02*
X63125337Y-98201188D01*
X63125337Y-98201188D02*
X63061051Y-98144045D01*
X63061051Y-98144045D02*
X62939623Y-98086902D01*
X62939623Y-98086902D02*
X62768194Y-98086902D01*
X62768194Y-98086902D02*
X62661051Y-98144045D01*
X62661051Y-98144045D02*
X62611051Y-98201188D01*
X62611051Y-98201188D02*
X62568194Y-98315474D01*
X62568194Y-98315474D02*
X62611051Y-98658331D01*
X62611051Y-98658331D02*
X62682480Y-98772617D01*
X62682480Y-98772617D02*
X62746765Y-98829760D01*
X62746765Y-98829760D02*
X62868194Y-98886902D01*
X62868194Y-98886902D02*
X63039623Y-98886902D01*
X61175337Y-97686902D02*
X60432480Y-97686902D01*
X60432480Y-97686902D02*
X60889623Y-98144045D01*
X60889623Y-98144045D02*
X60718194Y-98144045D01*
X60718194Y-98144045D02*
X60611051Y-98201188D01*
X60611051Y-98201188D02*
X60561051Y-98258331D01*
X60561051Y-98258331D02*
X60518194Y-98372617D01*
X60518194Y-98372617D02*
X60553908Y-98658331D01*
X60553908Y-98658331D02*
X60625337Y-98772617D01*
X60625337Y-98772617D02*
X60689623Y-98829760D01*
X60689623Y-98829760D02*
X60811051Y-98886902D01*
X60811051Y-98886902D02*
X61153908Y-98886902D01*
X61153908Y-98886902D02*
X61261051Y-98829760D01*
X61261051Y-98829760D02*
X61311051Y-98772617D01*
D12*
X128695601Y-116190000D02*
X128695601Y-116475714D01*
X128124173Y-116190000D02*
X128124173Y-116475714D01*
X126981316Y-116904286D02*
X126767030Y-116975714D01*
X126767030Y-116975714D02*
X126695601Y-117047143D01*
X126695601Y-117047143D02*
X126624173Y-117190000D01*
X126624173Y-117190000D02*
X126624173Y-117404286D01*
X126624173Y-117404286D02*
X126695601Y-117547143D01*
X126695601Y-117547143D02*
X126767030Y-117618572D01*
X126767030Y-117618572D02*
X126909887Y-117690000D01*
X126909887Y-117690000D02*
X127481316Y-117690000D01*
X127481316Y-117690000D02*
X127481316Y-116190000D01*
X127481316Y-116190000D02*
X126981316Y-116190000D01*
X126981316Y-116190000D02*
X126838459Y-116261429D01*
X126838459Y-116261429D02*
X126767030Y-116332857D01*
X126767030Y-116332857D02*
X126695601Y-116475714D01*
X126695601Y-116475714D02*
X126695601Y-116618572D01*
X126695601Y-116618572D02*
X126767030Y-116761429D01*
X126767030Y-116761429D02*
X126838459Y-116832857D01*
X126838459Y-116832857D02*
X126981316Y-116904286D01*
X126981316Y-116904286D02*
X127481316Y-116904286D01*
X125409887Y-117618572D02*
X125552744Y-117690000D01*
X125552744Y-117690000D02*
X125838459Y-117690000D01*
X125838459Y-117690000D02*
X125981316Y-117618572D01*
X125981316Y-117618572D02*
X126052744Y-117475714D01*
X126052744Y-117475714D02*
X126052744Y-116904286D01*
X126052744Y-116904286D02*
X125981316Y-116761429D01*
X125981316Y-116761429D02*
X125838459Y-116690000D01*
X125838459Y-116690000D02*
X125552744Y-116690000D01*
X125552744Y-116690000D02*
X125409887Y-116761429D01*
X125409887Y-116761429D02*
X125338459Y-116904286D01*
X125338459Y-116904286D02*
X125338459Y-117047143D01*
X125338459Y-117047143D02*
X126052744Y-117190000D01*
X124052745Y-117618572D02*
X124195602Y-117690000D01*
X124195602Y-117690000D02*
X124481316Y-117690000D01*
X124481316Y-117690000D02*
X124624173Y-117618572D01*
X124624173Y-117618572D02*
X124695602Y-117547143D01*
X124695602Y-117547143D02*
X124767030Y-117404286D01*
X124767030Y-117404286D02*
X124767030Y-116975714D01*
X124767030Y-116975714D02*
X124695602Y-116832857D01*
X124695602Y-116832857D02*
X124624173Y-116761429D01*
X124624173Y-116761429D02*
X124481316Y-116690000D01*
X124481316Y-116690000D02*
X124195602Y-116690000D01*
X124195602Y-116690000D02*
X124052745Y-116761429D01*
X122767031Y-117690000D02*
X122767031Y-116904286D01*
X122767031Y-116904286D02*
X122838459Y-116761429D01*
X122838459Y-116761429D02*
X122981316Y-116690000D01*
X122981316Y-116690000D02*
X123267031Y-116690000D01*
X123267031Y-116690000D02*
X123409888Y-116761429D01*
X122767031Y-117618572D02*
X122909888Y-117690000D01*
X122909888Y-117690000D02*
X123267031Y-117690000D01*
X123267031Y-117690000D02*
X123409888Y-117618572D01*
X123409888Y-117618572D02*
X123481316Y-117475714D01*
X123481316Y-117475714D02*
X123481316Y-117332857D01*
X123481316Y-117332857D02*
X123409888Y-117190000D01*
X123409888Y-117190000D02*
X123267031Y-117118572D01*
X123267031Y-117118572D02*
X122909888Y-117118572D01*
X122909888Y-117118572D02*
X122767031Y-117047143D01*
X122124173Y-117618572D02*
X121981316Y-117690000D01*
X121981316Y-117690000D02*
X121695602Y-117690000D01*
X121695602Y-117690000D02*
X121552745Y-117618572D01*
X121552745Y-117618572D02*
X121481316Y-117475714D01*
X121481316Y-117475714D02*
X121481316Y-117404286D01*
X121481316Y-117404286D02*
X121552745Y-117261429D01*
X121552745Y-117261429D02*
X121695602Y-117190000D01*
X121695602Y-117190000D02*
X121909888Y-117190000D01*
X121909888Y-117190000D02*
X122052745Y-117118572D01*
X122052745Y-117118572D02*
X122124173Y-116975714D01*
X122124173Y-116975714D02*
X122124173Y-116904286D01*
X122124173Y-116904286D02*
X122052745Y-116761429D01*
X122052745Y-116761429D02*
X121909888Y-116690000D01*
X121909888Y-116690000D02*
X121695602Y-116690000D01*
X121695602Y-116690000D02*
X121552745Y-116761429D01*
X120267030Y-117618572D02*
X120409887Y-117690000D01*
X120409887Y-117690000D02*
X120695602Y-117690000D01*
X120695602Y-117690000D02*
X120838459Y-117618572D01*
X120838459Y-117618572D02*
X120909887Y-117475714D01*
X120909887Y-117475714D02*
X120909887Y-116904286D01*
X120909887Y-116904286D02*
X120838459Y-116761429D01*
X120838459Y-116761429D02*
X120695602Y-116690000D01*
X120695602Y-116690000D02*
X120409887Y-116690000D01*
X120409887Y-116690000D02*
X120267030Y-116761429D01*
X120267030Y-116761429D02*
X120195602Y-116904286D01*
X120195602Y-116904286D02*
X120195602Y-117047143D01*
X120195602Y-117047143D02*
X120909887Y-117190000D01*
X118409888Y-117690000D02*
X118409888Y-116190000D01*
X118409888Y-116761429D02*
X118267031Y-116690000D01*
X118267031Y-116690000D02*
X117981316Y-116690000D01*
X117981316Y-116690000D02*
X117838459Y-116761429D01*
X117838459Y-116761429D02*
X117767031Y-116832857D01*
X117767031Y-116832857D02*
X117695602Y-116975714D01*
X117695602Y-116975714D02*
X117695602Y-117404286D01*
X117695602Y-117404286D02*
X117767031Y-117547143D01*
X117767031Y-117547143D02*
X117838459Y-117618572D01*
X117838459Y-117618572D02*
X117981316Y-117690000D01*
X117981316Y-117690000D02*
X118267031Y-117690000D01*
X118267031Y-117690000D02*
X118409888Y-117618572D01*
X117052745Y-117690000D02*
X117052745Y-116690000D01*
X117052745Y-116975714D02*
X116981316Y-116832857D01*
X116981316Y-116832857D02*
X116909888Y-116761429D01*
X116909888Y-116761429D02*
X116767030Y-116690000D01*
X116767030Y-116690000D02*
X116624173Y-116690000D01*
X115552745Y-117618572D02*
X115695602Y-117690000D01*
X115695602Y-117690000D02*
X115981317Y-117690000D01*
X115981317Y-117690000D02*
X116124174Y-117618572D01*
X116124174Y-117618572D02*
X116195602Y-117475714D01*
X116195602Y-117475714D02*
X116195602Y-116904286D01*
X116195602Y-116904286D02*
X116124174Y-116761429D01*
X116124174Y-116761429D02*
X115981317Y-116690000D01*
X115981317Y-116690000D02*
X115695602Y-116690000D01*
X115695602Y-116690000D02*
X115552745Y-116761429D01*
X115552745Y-116761429D02*
X115481317Y-116904286D01*
X115481317Y-116904286D02*
X115481317Y-117047143D01*
X115481317Y-117047143D02*
X116195602Y-117190000D01*
X114195603Y-117690000D02*
X114195603Y-116904286D01*
X114195603Y-116904286D02*
X114267031Y-116761429D01*
X114267031Y-116761429D02*
X114409888Y-116690000D01*
X114409888Y-116690000D02*
X114695603Y-116690000D01*
X114695603Y-116690000D02*
X114838460Y-116761429D01*
X114195603Y-117618572D02*
X114338460Y-117690000D01*
X114338460Y-117690000D02*
X114695603Y-117690000D01*
X114695603Y-117690000D02*
X114838460Y-117618572D01*
X114838460Y-117618572D02*
X114909888Y-117475714D01*
X114909888Y-117475714D02*
X114909888Y-117332857D01*
X114909888Y-117332857D02*
X114838460Y-117190000D01*
X114838460Y-117190000D02*
X114695603Y-117118572D01*
X114695603Y-117118572D02*
X114338460Y-117118572D01*
X114338460Y-117118572D02*
X114195603Y-117047143D01*
X112838460Y-117690000D02*
X112838460Y-116190000D01*
X112838460Y-117618572D02*
X112981317Y-117690000D01*
X112981317Y-117690000D02*
X113267031Y-117690000D01*
X113267031Y-117690000D02*
X113409888Y-117618572D01*
X113409888Y-117618572D02*
X113481317Y-117547143D01*
X113481317Y-117547143D02*
X113552745Y-117404286D01*
X113552745Y-117404286D02*
X113552745Y-116975714D01*
X113552745Y-116975714D02*
X113481317Y-116832857D01*
X113481317Y-116832857D02*
X113409888Y-116761429D01*
X113409888Y-116761429D02*
X113267031Y-116690000D01*
X113267031Y-116690000D02*
X112981317Y-116690000D01*
X112981317Y-116690000D02*
X112838460Y-116761429D01*
X111195602Y-116690000D02*
X110624174Y-116690000D01*
X110981317Y-116190000D02*
X110981317Y-117475714D01*
X110981317Y-117475714D02*
X110909888Y-117618572D01*
X110909888Y-117618572D02*
X110767031Y-117690000D01*
X110767031Y-117690000D02*
X110624174Y-117690000D01*
X109481317Y-117690000D02*
X109481317Y-116904286D01*
X109481317Y-116904286D02*
X109552745Y-116761429D01*
X109552745Y-116761429D02*
X109695602Y-116690000D01*
X109695602Y-116690000D02*
X109981317Y-116690000D01*
X109981317Y-116690000D02*
X110124174Y-116761429D01*
X109481317Y-117618572D02*
X109624174Y-117690000D01*
X109624174Y-117690000D02*
X109981317Y-117690000D01*
X109981317Y-117690000D02*
X110124174Y-117618572D01*
X110124174Y-117618572D02*
X110195602Y-117475714D01*
X110195602Y-117475714D02*
X110195602Y-117332857D01*
X110195602Y-117332857D02*
X110124174Y-117190000D01*
X110124174Y-117190000D02*
X109981317Y-117118572D01*
X109981317Y-117118572D02*
X109624174Y-117118572D01*
X109624174Y-117118572D02*
X109481317Y-117047143D01*
X108838459Y-117618572D02*
X108695602Y-117690000D01*
X108695602Y-117690000D02*
X108409888Y-117690000D01*
X108409888Y-117690000D02*
X108267031Y-117618572D01*
X108267031Y-117618572D02*
X108195602Y-117475714D01*
X108195602Y-117475714D02*
X108195602Y-117404286D01*
X108195602Y-117404286D02*
X108267031Y-117261429D01*
X108267031Y-117261429D02*
X108409888Y-117190000D01*
X108409888Y-117190000D02*
X108624174Y-117190000D01*
X108624174Y-117190000D02*
X108767031Y-117118572D01*
X108767031Y-117118572D02*
X108838459Y-116975714D01*
X108838459Y-116975714D02*
X108838459Y-116904286D01*
X108838459Y-116904286D02*
X108767031Y-116761429D01*
X108767031Y-116761429D02*
X108624174Y-116690000D01*
X108624174Y-116690000D02*
X108409888Y-116690000D01*
X108409888Y-116690000D02*
X108267031Y-116761429D01*
X107767030Y-116690000D02*
X107195602Y-116690000D01*
X107552745Y-116190000D02*
X107552745Y-117475714D01*
X107552745Y-117475714D02*
X107481316Y-117618572D01*
X107481316Y-117618572D02*
X107338459Y-117690000D01*
X107338459Y-117690000D02*
X107195602Y-117690000D01*
X106124173Y-117618572D02*
X106267030Y-117690000D01*
X106267030Y-117690000D02*
X106552745Y-117690000D01*
X106552745Y-117690000D02*
X106695602Y-117618572D01*
X106695602Y-117618572D02*
X106767030Y-117475714D01*
X106767030Y-117475714D02*
X106767030Y-116904286D01*
X106767030Y-116904286D02*
X106695602Y-116761429D01*
X106695602Y-116761429D02*
X106552745Y-116690000D01*
X106552745Y-116690000D02*
X106267030Y-116690000D01*
X106267030Y-116690000D02*
X106124173Y-116761429D01*
X106124173Y-116761429D02*
X106052745Y-116904286D01*
X106052745Y-116904286D02*
X106052745Y-117047143D01*
X106052745Y-117047143D02*
X106767030Y-117190000D01*
X104267031Y-117690000D02*
X104267031Y-116190000D01*
X104267031Y-116761429D02*
X104124174Y-116690000D01*
X104124174Y-116690000D02*
X103838459Y-116690000D01*
X103838459Y-116690000D02*
X103695602Y-116761429D01*
X103695602Y-116761429D02*
X103624174Y-116832857D01*
X103624174Y-116832857D02*
X103552745Y-116975714D01*
X103552745Y-116975714D02*
X103552745Y-117404286D01*
X103552745Y-117404286D02*
X103624174Y-117547143D01*
X103624174Y-117547143D02*
X103695602Y-117618572D01*
X103695602Y-117618572D02*
X103838459Y-117690000D01*
X103838459Y-117690000D02*
X104124174Y-117690000D01*
X104124174Y-117690000D02*
X104267031Y-117618572D01*
X102338459Y-117618572D02*
X102481316Y-117690000D01*
X102481316Y-117690000D02*
X102767031Y-117690000D01*
X102767031Y-117690000D02*
X102909888Y-117618572D01*
X102909888Y-117618572D02*
X102981316Y-117475714D01*
X102981316Y-117475714D02*
X102981316Y-116904286D01*
X102981316Y-116904286D02*
X102909888Y-116761429D01*
X102909888Y-116761429D02*
X102767031Y-116690000D01*
X102767031Y-116690000D02*
X102481316Y-116690000D01*
X102481316Y-116690000D02*
X102338459Y-116761429D01*
X102338459Y-116761429D02*
X102267031Y-116904286D01*
X102267031Y-116904286D02*
X102267031Y-117047143D01*
X102267031Y-117047143D02*
X102981316Y-117190000D01*
X101838459Y-116690000D02*
X101267031Y-116690000D01*
X101624174Y-116190000D02*
X101624174Y-117475714D01*
X101624174Y-117475714D02*
X101552745Y-117618572D01*
X101552745Y-117618572D02*
X101409888Y-117690000D01*
X101409888Y-117690000D02*
X101267031Y-117690000D01*
X100981316Y-116690000D02*
X100409888Y-116690000D01*
X100767031Y-116190000D02*
X100767031Y-117475714D01*
X100767031Y-117475714D02*
X100695602Y-117618572D01*
X100695602Y-117618572D02*
X100552745Y-117690000D01*
X100552745Y-117690000D02*
X100409888Y-117690000D01*
X99338459Y-117618572D02*
X99481316Y-117690000D01*
X99481316Y-117690000D02*
X99767031Y-117690000D01*
X99767031Y-117690000D02*
X99909888Y-117618572D01*
X99909888Y-117618572D02*
X99981316Y-117475714D01*
X99981316Y-117475714D02*
X99981316Y-116904286D01*
X99981316Y-116904286D02*
X99909888Y-116761429D01*
X99909888Y-116761429D02*
X99767031Y-116690000D01*
X99767031Y-116690000D02*
X99481316Y-116690000D01*
X99481316Y-116690000D02*
X99338459Y-116761429D01*
X99338459Y-116761429D02*
X99267031Y-116904286D01*
X99267031Y-116904286D02*
X99267031Y-117047143D01*
X99267031Y-117047143D02*
X99981316Y-117190000D01*
X98624174Y-117690000D02*
X98624174Y-116690000D01*
X98624174Y-116975714D02*
X98552745Y-116832857D01*
X98552745Y-116832857D02*
X98481317Y-116761429D01*
X98481317Y-116761429D02*
X98338459Y-116690000D01*
X98338459Y-116690000D02*
X98195602Y-116690000D01*
X96767031Y-116690000D02*
X96195603Y-116690000D01*
X96552746Y-116190000D02*
X96552746Y-117475714D01*
X96552746Y-117475714D02*
X96481317Y-117618572D01*
X96481317Y-117618572D02*
X96338460Y-117690000D01*
X96338460Y-117690000D02*
X96195603Y-117690000D01*
X95695603Y-117690000D02*
X95695603Y-116190000D01*
X95052746Y-117690000D02*
X95052746Y-116904286D01*
X95052746Y-116904286D02*
X95124174Y-116761429D01*
X95124174Y-116761429D02*
X95267031Y-116690000D01*
X95267031Y-116690000D02*
X95481317Y-116690000D01*
X95481317Y-116690000D02*
X95624174Y-116761429D01*
X95624174Y-116761429D02*
X95695603Y-116832857D01*
X93695603Y-117690000D02*
X93695603Y-116904286D01*
X93695603Y-116904286D02*
X93767031Y-116761429D01*
X93767031Y-116761429D02*
X93909888Y-116690000D01*
X93909888Y-116690000D02*
X94195603Y-116690000D01*
X94195603Y-116690000D02*
X94338460Y-116761429D01*
X93695603Y-117618572D02*
X93838460Y-117690000D01*
X93838460Y-117690000D02*
X94195603Y-117690000D01*
X94195603Y-117690000D02*
X94338460Y-117618572D01*
X94338460Y-117618572D02*
X94409888Y-117475714D01*
X94409888Y-117475714D02*
X94409888Y-117332857D01*
X94409888Y-117332857D02*
X94338460Y-117190000D01*
X94338460Y-117190000D02*
X94195603Y-117118572D01*
X94195603Y-117118572D02*
X93838460Y-117118572D01*
X93838460Y-117118572D02*
X93695603Y-117047143D01*
X92981317Y-116690000D02*
X92981317Y-117690000D01*
X92981317Y-116832857D02*
X92909888Y-116761429D01*
X92909888Y-116761429D02*
X92767031Y-116690000D01*
X92767031Y-116690000D02*
X92552745Y-116690000D01*
X92552745Y-116690000D02*
X92409888Y-116761429D01*
X92409888Y-116761429D02*
X92338460Y-116904286D01*
X92338460Y-116904286D02*
X92338460Y-117690000D01*
X90481317Y-117690000D02*
X90481317Y-116190000D01*
X90338460Y-117118572D02*
X89909888Y-117690000D01*
X89909888Y-116690000D02*
X90481317Y-117261429D01*
X88695602Y-117618572D02*
X88838459Y-117690000D01*
X88838459Y-117690000D02*
X89124174Y-117690000D01*
X89124174Y-117690000D02*
X89267031Y-117618572D01*
X89267031Y-117618572D02*
X89338459Y-117475714D01*
X89338459Y-117475714D02*
X89338459Y-116904286D01*
X89338459Y-116904286D02*
X89267031Y-116761429D01*
X89267031Y-116761429D02*
X89124174Y-116690000D01*
X89124174Y-116690000D02*
X88838459Y-116690000D01*
X88838459Y-116690000D02*
X88695602Y-116761429D01*
X88695602Y-116761429D02*
X88624174Y-116904286D01*
X88624174Y-116904286D02*
X88624174Y-117047143D01*
X88624174Y-117047143D02*
X89338459Y-117190000D01*
X88124174Y-116690000D02*
X87767031Y-117690000D01*
X87409888Y-116690000D02*
X87767031Y-117690000D01*
X87767031Y-117690000D02*
X87909888Y-118047143D01*
X87909888Y-118047143D02*
X87981317Y-118118572D01*
X87981317Y-118118572D02*
X88124174Y-118190000D01*
X86909888Y-116190000D02*
X86909888Y-116475714D01*
X86338460Y-116190000D02*
X86338460Y-116475714D01*
X84552746Y-117118572D02*
X83409889Y-117118572D01*
X81552746Y-117690000D02*
X81552746Y-116190000D01*
X80838460Y-116690000D02*
X80838460Y-117690000D01*
X80838460Y-116832857D02*
X80767031Y-116761429D01*
X80767031Y-116761429D02*
X80624174Y-116690000D01*
X80624174Y-116690000D02*
X80409888Y-116690000D01*
X80409888Y-116690000D02*
X80267031Y-116761429D01*
X80267031Y-116761429D02*
X80195603Y-116904286D01*
X80195603Y-116904286D02*
X80195603Y-117690000D01*
X79552745Y-117618572D02*
X79409888Y-117690000D01*
X79409888Y-117690000D02*
X79124174Y-117690000D01*
X79124174Y-117690000D02*
X78981317Y-117618572D01*
X78981317Y-117618572D02*
X78909888Y-117475714D01*
X78909888Y-117475714D02*
X78909888Y-117404286D01*
X78909888Y-117404286D02*
X78981317Y-117261429D01*
X78981317Y-117261429D02*
X79124174Y-117190000D01*
X79124174Y-117190000D02*
X79338460Y-117190000D01*
X79338460Y-117190000D02*
X79481317Y-117118572D01*
X79481317Y-117118572D02*
X79552745Y-116975714D01*
X79552745Y-116975714D02*
X79552745Y-116904286D01*
X79552745Y-116904286D02*
X79481317Y-116761429D01*
X79481317Y-116761429D02*
X79338460Y-116690000D01*
X79338460Y-116690000D02*
X79124174Y-116690000D01*
X79124174Y-116690000D02*
X78981317Y-116761429D01*
X78481316Y-116690000D02*
X77909888Y-116690000D01*
X78267031Y-116190000D02*
X78267031Y-117475714D01*
X78267031Y-117475714D02*
X78195602Y-117618572D01*
X78195602Y-117618572D02*
X78052745Y-117690000D01*
X78052745Y-117690000D02*
X77909888Y-117690000D01*
X76767031Y-117690000D02*
X76767031Y-116904286D01*
X76767031Y-116904286D02*
X76838459Y-116761429D01*
X76838459Y-116761429D02*
X76981316Y-116690000D01*
X76981316Y-116690000D02*
X77267031Y-116690000D01*
X77267031Y-116690000D02*
X77409888Y-116761429D01*
X76767031Y-117618572D02*
X76909888Y-117690000D01*
X76909888Y-117690000D02*
X77267031Y-117690000D01*
X77267031Y-117690000D02*
X77409888Y-117618572D01*
X77409888Y-117618572D02*
X77481316Y-117475714D01*
X77481316Y-117475714D02*
X77481316Y-117332857D01*
X77481316Y-117332857D02*
X77409888Y-117190000D01*
X77409888Y-117190000D02*
X77267031Y-117118572D01*
X77267031Y-117118572D02*
X76909888Y-117118572D01*
X76909888Y-117118572D02*
X76767031Y-117047143D01*
X75409888Y-116690000D02*
X75409888Y-117904286D01*
X75409888Y-117904286D02*
X75481316Y-118047143D01*
X75481316Y-118047143D02*
X75552745Y-118118572D01*
X75552745Y-118118572D02*
X75695602Y-118190000D01*
X75695602Y-118190000D02*
X75909888Y-118190000D01*
X75909888Y-118190000D02*
X76052745Y-118118572D01*
X75409888Y-117618572D02*
X75552745Y-117690000D01*
X75552745Y-117690000D02*
X75838459Y-117690000D01*
X75838459Y-117690000D02*
X75981316Y-117618572D01*
X75981316Y-117618572D02*
X76052745Y-117547143D01*
X76052745Y-117547143D02*
X76124173Y-117404286D01*
X76124173Y-117404286D02*
X76124173Y-116975714D01*
X76124173Y-116975714D02*
X76052745Y-116832857D01*
X76052745Y-116832857D02*
X75981316Y-116761429D01*
X75981316Y-116761429D02*
X75838459Y-116690000D01*
X75838459Y-116690000D02*
X75552745Y-116690000D01*
X75552745Y-116690000D02*
X75409888Y-116761429D01*
X74695602Y-117690000D02*
X74695602Y-116690000D01*
X74695602Y-116975714D02*
X74624173Y-116832857D01*
X74624173Y-116832857D02*
X74552745Y-116761429D01*
X74552745Y-116761429D02*
X74409887Y-116690000D01*
X74409887Y-116690000D02*
X74267030Y-116690000D01*
X73124174Y-117690000D02*
X73124174Y-116904286D01*
X73124174Y-116904286D02*
X73195602Y-116761429D01*
X73195602Y-116761429D02*
X73338459Y-116690000D01*
X73338459Y-116690000D02*
X73624174Y-116690000D01*
X73624174Y-116690000D02*
X73767031Y-116761429D01*
X73124174Y-117618572D02*
X73267031Y-117690000D01*
X73267031Y-117690000D02*
X73624174Y-117690000D01*
X73624174Y-117690000D02*
X73767031Y-117618572D01*
X73767031Y-117618572D02*
X73838459Y-117475714D01*
X73838459Y-117475714D02*
X73838459Y-117332857D01*
X73838459Y-117332857D02*
X73767031Y-117190000D01*
X73767031Y-117190000D02*
X73624174Y-117118572D01*
X73624174Y-117118572D02*
X73267031Y-117118572D01*
X73267031Y-117118572D02*
X73124174Y-117047143D01*
X72409888Y-117690000D02*
X72409888Y-116690000D01*
X72409888Y-116832857D02*
X72338459Y-116761429D01*
X72338459Y-116761429D02*
X72195602Y-116690000D01*
X72195602Y-116690000D02*
X71981316Y-116690000D01*
X71981316Y-116690000D02*
X71838459Y-116761429D01*
X71838459Y-116761429D02*
X71767031Y-116904286D01*
X71767031Y-116904286D02*
X71767031Y-117690000D01*
X71767031Y-116904286D02*
X71695602Y-116761429D01*
X71695602Y-116761429D02*
X71552745Y-116690000D01*
X71552745Y-116690000D02*
X71338459Y-116690000D01*
X71338459Y-116690000D02*
X71195602Y-116761429D01*
X71195602Y-116761429D02*
X71124173Y-116904286D01*
X71124173Y-116904286D02*
X71124173Y-117690000D01*
X69267031Y-117690000D02*
X69267031Y-116190000D01*
X69267031Y-116190000D02*
X68909888Y-116190000D01*
X68909888Y-116190000D02*
X68695602Y-116261429D01*
X68695602Y-116261429D02*
X68552745Y-116404286D01*
X68552745Y-116404286D02*
X68481316Y-116547143D01*
X68481316Y-116547143D02*
X68409888Y-116832857D01*
X68409888Y-116832857D02*
X68409888Y-117047143D01*
X68409888Y-117047143D02*
X68481316Y-117332857D01*
X68481316Y-117332857D02*
X68552745Y-117475714D01*
X68552745Y-117475714D02*
X68695602Y-117618572D01*
X68695602Y-117618572D02*
X68909888Y-117690000D01*
X68909888Y-117690000D02*
X69267031Y-117690000D01*
X67124174Y-116690000D02*
X67124174Y-117690000D01*
X67767031Y-116690000D02*
X67767031Y-117475714D01*
X67767031Y-117475714D02*
X67695602Y-117618572D01*
X67695602Y-117618572D02*
X67552745Y-117690000D01*
X67552745Y-117690000D02*
X67338459Y-117690000D01*
X67338459Y-117690000D02*
X67195602Y-117618572D01*
X67195602Y-117618572D02*
X67124174Y-117547143D01*
X65767031Y-117690000D02*
X65767031Y-116190000D01*
X65767031Y-117618572D02*
X65909888Y-117690000D01*
X65909888Y-117690000D02*
X66195602Y-117690000D01*
X66195602Y-117690000D02*
X66338459Y-117618572D01*
X66338459Y-117618572D02*
X66409888Y-117547143D01*
X66409888Y-117547143D02*
X66481316Y-117404286D01*
X66481316Y-117404286D02*
X66481316Y-116975714D01*
X66481316Y-116975714D02*
X66409888Y-116832857D01*
X66409888Y-116832857D02*
X66338459Y-116761429D01*
X66338459Y-116761429D02*
X66195602Y-116690000D01*
X66195602Y-116690000D02*
X65909888Y-116690000D01*
X65909888Y-116690000D02*
X65767031Y-116761429D01*
X64481316Y-117618572D02*
X64624173Y-117690000D01*
X64624173Y-117690000D02*
X64909888Y-117690000D01*
X64909888Y-117690000D02*
X65052745Y-117618572D01*
X65052745Y-117618572D02*
X65124173Y-117475714D01*
X65124173Y-117475714D02*
X65124173Y-116904286D01*
X65124173Y-116904286D02*
X65052745Y-116761429D01*
X65052745Y-116761429D02*
X64909888Y-116690000D01*
X64909888Y-116690000D02*
X64624173Y-116690000D01*
X64624173Y-116690000D02*
X64481316Y-116761429D01*
X64481316Y-116761429D02*
X64409888Y-116904286D01*
X64409888Y-116904286D02*
X64409888Y-117047143D01*
X64409888Y-117047143D02*
X65124173Y-117190000D01*
X107012174Y-94248493D02*
X106797889Y-94319921D01*
X106797889Y-94319921D02*
X106440746Y-94319921D01*
X106440746Y-94319921D02*
X106297889Y-94248493D01*
X106297889Y-94248493D02*
X106226460Y-94177064D01*
X106226460Y-94177064D02*
X106155031Y-94034207D01*
X106155031Y-94034207D02*
X106155031Y-93891350D01*
X106155031Y-93891350D02*
X106226460Y-93748493D01*
X106226460Y-93748493D02*
X106297889Y-93677064D01*
X106297889Y-93677064D02*
X106440746Y-93605635D01*
X106440746Y-93605635D02*
X106726460Y-93534207D01*
X106726460Y-93534207D02*
X106869317Y-93462778D01*
X106869317Y-93462778D02*
X106940746Y-93391350D01*
X106940746Y-93391350D02*
X107012174Y-93248493D01*
X107012174Y-93248493D02*
X107012174Y-93105635D01*
X107012174Y-93105635D02*
X106940746Y-92962778D01*
X106940746Y-92962778D02*
X106869317Y-92891350D01*
X106869317Y-92891350D02*
X106726460Y-92819921D01*
X106726460Y-92819921D02*
X106369317Y-92819921D01*
X106369317Y-92819921D02*
X106155031Y-92891350D01*
X106583603Y-92605635D02*
X106583603Y-94534207D01*
X104726460Y-94319921D02*
X105583603Y-94319921D01*
X105155032Y-94319921D02*
X105155032Y-92819921D01*
X105155032Y-92819921D02*
X105297889Y-93034207D01*
X105297889Y-93034207D02*
X105440746Y-93177064D01*
X105440746Y-93177064D02*
X105583603Y-93248493D01*
X103369318Y-92819921D02*
X104083604Y-92819921D01*
X104083604Y-92819921D02*
X104155032Y-93534207D01*
X104155032Y-93534207D02*
X104083604Y-93462778D01*
X104083604Y-93462778D02*
X103940747Y-93391350D01*
X103940747Y-93391350D02*
X103583604Y-93391350D01*
X103583604Y-93391350D02*
X103440747Y-93462778D01*
X103440747Y-93462778D02*
X103369318Y-93534207D01*
X103369318Y-93534207D02*
X103297889Y-93677064D01*
X103297889Y-93677064D02*
X103297889Y-94034207D01*
X103297889Y-94034207D02*
X103369318Y-94177064D01*
X103369318Y-94177064D02*
X103440747Y-94248493D01*
X103440747Y-94248493D02*
X103583604Y-94319921D01*
X103583604Y-94319921D02*
X103940747Y-94319921D01*
X103940747Y-94319921D02*
X104083604Y-94248493D01*
X104083604Y-94248493D02*
X104155032Y-94177064D01*
X102583604Y-94248493D02*
X102583604Y-94319921D01*
X102583604Y-94319921D02*
X102655033Y-94462778D01*
X102655033Y-94462778D02*
X102726461Y-94534207D01*
X100869318Y-92962778D02*
X100797890Y-92891350D01*
X100797890Y-92891350D02*
X100655033Y-92819921D01*
X100655033Y-92819921D02*
X100297890Y-92819921D01*
X100297890Y-92819921D02*
X100155033Y-92891350D01*
X100155033Y-92891350D02*
X100083604Y-92962778D01*
X100083604Y-92962778D02*
X100012175Y-93105635D01*
X100012175Y-93105635D02*
X100012175Y-93248493D01*
X100012175Y-93248493D02*
X100083604Y-93462778D01*
X100083604Y-93462778D02*
X100940747Y-94319921D01*
X100940747Y-94319921D02*
X100012175Y-94319921D01*
X99512176Y-92819921D02*
X98583604Y-92819921D01*
X98583604Y-92819921D02*
X99083604Y-93391350D01*
X99083604Y-93391350D02*
X98869319Y-93391350D01*
X98869319Y-93391350D02*
X98726462Y-93462778D01*
X98726462Y-93462778D02*
X98655033Y-93534207D01*
X98655033Y-93534207D02*
X98583604Y-93677064D01*
X98583604Y-93677064D02*
X98583604Y-94034207D01*
X98583604Y-94034207D02*
X98655033Y-94177064D01*
X98655033Y-94177064D02*
X98726462Y-94248493D01*
X98726462Y-94248493D02*
X98869319Y-94319921D01*
X98869319Y-94319921D02*
X99297890Y-94319921D01*
X99297890Y-94319921D02*
X99440747Y-94248493D01*
X99440747Y-94248493D02*
X99512176Y-94177064D01*
X98083605Y-92819921D02*
X97155033Y-92819921D01*
X97155033Y-92819921D02*
X97655033Y-93391350D01*
X97655033Y-93391350D02*
X97440748Y-93391350D01*
X97440748Y-93391350D02*
X97297891Y-93462778D01*
X97297891Y-93462778D02*
X97226462Y-93534207D01*
X97226462Y-93534207D02*
X97155033Y-93677064D01*
X97155033Y-93677064D02*
X97155033Y-94034207D01*
X97155033Y-94034207D02*
X97226462Y-94177064D01*
X97226462Y-94177064D02*
X97297891Y-94248493D01*
X97297891Y-94248493D02*
X97440748Y-94319921D01*
X97440748Y-94319921D02*
X97869319Y-94319921D01*
X97869319Y-94319921D02*
X98012176Y-94248493D01*
X98012176Y-94248493D02*
X98083605Y-94177064D01*
X96512177Y-94177064D02*
X96440748Y-94248493D01*
X96440748Y-94248493D02*
X96512177Y-94319921D01*
X96512177Y-94319921D02*
X96583605Y-94248493D01*
X96583605Y-94248493D02*
X96512177Y-94177064D01*
X96512177Y-94177064D02*
X96512177Y-94319921D01*
X95155034Y-93319921D02*
X95155034Y-94319921D01*
X95512176Y-92748493D02*
X95869319Y-93819921D01*
X95869319Y-93819921D02*
X94940748Y-93819921D01*
X94083605Y-92819921D02*
X93940748Y-92819921D01*
X93940748Y-92819921D02*
X93797891Y-92891350D01*
X93797891Y-92891350D02*
X93726463Y-92962778D01*
X93726463Y-92962778D02*
X93655034Y-93105635D01*
X93655034Y-93105635D02*
X93583605Y-93391350D01*
X93583605Y-93391350D02*
X93583605Y-93748493D01*
X93583605Y-93748493D02*
X93655034Y-94034207D01*
X93655034Y-94034207D02*
X93726463Y-94177064D01*
X93726463Y-94177064D02*
X93797891Y-94248493D01*
X93797891Y-94248493D02*
X93940748Y-94319921D01*
X93940748Y-94319921D02*
X94083605Y-94319921D01*
X94083605Y-94319921D02*
X94226463Y-94248493D01*
X94226463Y-94248493D02*
X94297891Y-94177064D01*
X94297891Y-94177064D02*
X94369320Y-94034207D01*
X94369320Y-94034207D02*
X94440748Y-93748493D01*
X94440748Y-93748493D02*
X94440748Y-93391350D01*
X94440748Y-93391350D02*
X94369320Y-93105635D01*
X94369320Y-93105635D02*
X94297891Y-92962778D01*
X94297891Y-92962778D02*
X94226463Y-92891350D01*
X94226463Y-92891350D02*
X94083605Y-92819921D01*
D13*
X112248892Y-84146993D02*
X111296511Y-84146993D01*
X112439368Y-84718422D02*
X111772702Y-82718422D01*
X111772702Y-82718422D02*
X111106035Y-84718422D01*
X110629844Y-82718422D02*
X110153654Y-84718422D01*
X110153654Y-84718422D02*
X109772701Y-83289850D01*
X109772701Y-83289850D02*
X109391749Y-84718422D01*
X109391749Y-84718422D02*
X108915559Y-82718422D01*
X108153654Y-84718422D02*
X108153654Y-82718422D01*
X108153654Y-82718422D02*
X107391749Y-82718422D01*
X107391749Y-82718422D02*
X107201273Y-82813660D01*
X107201273Y-82813660D02*
X107106035Y-82908898D01*
X107106035Y-82908898D02*
X107010797Y-83099374D01*
X107010797Y-83099374D02*
X107010797Y-83385088D01*
X107010797Y-83385088D02*
X107106035Y-83575564D01*
X107106035Y-83575564D02*
X107201273Y-83670803D01*
X107201273Y-83670803D02*
X107391749Y-83766041D01*
X107391749Y-83766041D02*
X108153654Y-83766041D01*
X104153654Y-85385088D02*
X104153654Y-82527945D01*
X101201272Y-84718422D02*
X101201272Y-82718422D01*
X101201272Y-82718422D02*
X100725082Y-82718422D01*
X100725082Y-82718422D02*
X100439367Y-82813660D01*
X100439367Y-82813660D02*
X100248891Y-83004136D01*
X100248891Y-83004136D02*
X100153653Y-83194612D01*
X100153653Y-83194612D02*
X100058415Y-83575564D01*
X100058415Y-83575564D02*
X100058415Y-83861279D01*
X100058415Y-83861279D02*
X100153653Y-84242231D01*
X100153653Y-84242231D02*
X100248891Y-84432707D01*
X100248891Y-84432707D02*
X100439367Y-84623184D01*
X100439367Y-84623184D02*
X100725082Y-84718422D01*
X100725082Y-84718422D02*
X101201272Y-84718422D01*
X99201272Y-84718422D02*
X99201272Y-83385088D01*
X99201272Y-83766041D02*
X99106034Y-83575564D01*
X99106034Y-83575564D02*
X99010796Y-83480326D01*
X99010796Y-83480326D02*
X98820320Y-83385088D01*
X98820320Y-83385088D02*
X98629843Y-83385088D01*
X97106034Y-84718422D02*
X97106034Y-83670803D01*
X97106034Y-83670803D02*
X97201272Y-83480326D01*
X97201272Y-83480326D02*
X97391748Y-83385088D01*
X97391748Y-83385088D02*
X97772701Y-83385088D01*
X97772701Y-83385088D02*
X97963177Y-83480326D01*
X97106034Y-84623184D02*
X97296510Y-84718422D01*
X97296510Y-84718422D02*
X97772701Y-84718422D01*
X97772701Y-84718422D02*
X97963177Y-84623184D01*
X97963177Y-84623184D02*
X98058415Y-84432707D01*
X98058415Y-84432707D02*
X98058415Y-84242231D01*
X98058415Y-84242231D02*
X97963177Y-84051755D01*
X97963177Y-84051755D02*
X97772701Y-83956517D01*
X97772701Y-83956517D02*
X97296510Y-83956517D01*
X97296510Y-83956517D02*
X97106034Y-83861279D01*
X95296510Y-83385088D02*
X95296510Y-85004136D01*
X95296510Y-85004136D02*
X95391748Y-85194612D01*
X95391748Y-85194612D02*
X95486986Y-85289850D01*
X95486986Y-85289850D02*
X95677463Y-85385088D01*
X95677463Y-85385088D02*
X95963177Y-85385088D01*
X95963177Y-85385088D02*
X96153653Y-85289850D01*
X95296510Y-84623184D02*
X95486986Y-84718422D01*
X95486986Y-84718422D02*
X95867939Y-84718422D01*
X95867939Y-84718422D02*
X96058415Y-84623184D01*
X96058415Y-84623184D02*
X96153653Y-84527945D01*
X96153653Y-84527945D02*
X96248891Y-84337469D01*
X96248891Y-84337469D02*
X96248891Y-83766041D01*
X96248891Y-83766041D02*
X96153653Y-83575564D01*
X96153653Y-83575564D02*
X96058415Y-83480326D01*
X96058415Y-83480326D02*
X95867939Y-83385088D01*
X95867939Y-83385088D02*
X95486986Y-83385088D01*
X95486986Y-83385088D02*
X95296510Y-83480326D01*
X94058415Y-84718422D02*
X94248891Y-84623184D01*
X94248891Y-84623184D02*
X94344129Y-84527945D01*
X94344129Y-84527945D02*
X94439367Y-84337469D01*
X94439367Y-84337469D02*
X94439367Y-83766041D01*
X94439367Y-83766041D02*
X94344129Y-83575564D01*
X94344129Y-83575564D02*
X94248891Y-83480326D01*
X94248891Y-83480326D02*
X94058415Y-83385088D01*
X94058415Y-83385088D02*
X93772700Y-83385088D01*
X93772700Y-83385088D02*
X93582224Y-83480326D01*
X93582224Y-83480326D02*
X93486986Y-83575564D01*
X93486986Y-83575564D02*
X93391748Y-83766041D01*
X93391748Y-83766041D02*
X93391748Y-84337469D01*
X93391748Y-84337469D02*
X93486986Y-84527945D01*
X93486986Y-84527945D02*
X93582224Y-84623184D01*
X93582224Y-84623184D02*
X93772700Y-84718422D01*
X93772700Y-84718422D02*
X94058415Y-84718422D01*
X92534605Y-83385088D02*
X92534605Y-84718422D01*
X92534605Y-83575564D02*
X92439367Y-83480326D01*
X92439367Y-83480326D02*
X92248891Y-83385088D01*
X92248891Y-83385088D02*
X91963176Y-83385088D01*
X91963176Y-83385088D02*
X91772700Y-83480326D01*
X91772700Y-83480326D02*
X91677462Y-83670803D01*
X91677462Y-83670803D02*
X91677462Y-84718422D01*
X88248890Y-84718422D02*
X89201271Y-84718422D01*
X89201271Y-84718422D02*
X89201271Y-82718422D01*
X87296509Y-84718422D02*
X87486985Y-84623184D01*
X87486985Y-84623184D02*
X87582223Y-84527945D01*
X87582223Y-84527945D02*
X87677461Y-84337469D01*
X87677461Y-84337469D02*
X87677461Y-83766041D01*
X87677461Y-83766041D02*
X87582223Y-83575564D01*
X87582223Y-83575564D02*
X87486985Y-83480326D01*
X87486985Y-83480326D02*
X87296509Y-83385088D01*
X87296509Y-83385088D02*
X87010794Y-83385088D01*
X87010794Y-83385088D02*
X86820318Y-83480326D01*
X86820318Y-83480326D02*
X86725080Y-83575564D01*
X86725080Y-83575564D02*
X86629842Y-83766041D01*
X86629842Y-83766041D02*
X86629842Y-84337469D01*
X86629842Y-84337469D02*
X86725080Y-84527945D01*
X86725080Y-84527945D02*
X86820318Y-84623184D01*
X86820318Y-84623184D02*
X87010794Y-84718422D01*
X87010794Y-84718422D02*
X87296509Y-84718422D01*
X85772699Y-84718422D02*
X85772699Y-83385088D01*
X85772699Y-83766041D02*
X85677461Y-83575564D01*
X85677461Y-83575564D02*
X85582223Y-83480326D01*
X85582223Y-83480326D02*
X85391747Y-83385088D01*
X85391747Y-83385088D02*
X85201270Y-83385088D01*
X83772699Y-84623184D02*
X83963175Y-84718422D01*
X83963175Y-84718422D02*
X84344128Y-84718422D01*
X84344128Y-84718422D02*
X84534604Y-84623184D01*
X84534604Y-84623184D02*
X84629842Y-84432707D01*
X84629842Y-84432707D02*
X84629842Y-83670803D01*
X84629842Y-83670803D02*
X84534604Y-83480326D01*
X84534604Y-83480326D02*
X84344128Y-83385088D01*
X84344128Y-83385088D02*
X83963175Y-83385088D01*
X83963175Y-83385088D02*
X83772699Y-83480326D01*
X83772699Y-83480326D02*
X83677461Y-83670803D01*
X83677461Y-83670803D02*
X83677461Y-83861279D01*
X83677461Y-83861279D02*
X84629842Y-84051755D01*
D14*
%TO.C,G\u002A\u002A\u002A*%
G36*
X108151276Y-86776165D02*
G01*
X108154220Y-86981655D01*
X108156608Y-87298153D01*
X107502434Y-87298153D01*
X107480942Y-87298133D01*
X107195811Y-87294798D01*
X106899467Y-87286564D01*
X106625721Y-87274608D01*
X106408384Y-87260106D01*
X105968509Y-87222059D01*
X105968509Y-87451846D01*
X105970965Y-87537189D01*
X105974785Y-87568845D01*
X105983234Y-87638872D01*
X106002345Y-87676291D01*
X106044491Y-87677131D01*
X106058740Y-87677415D01*
X106059349Y-87677570D01*
X106115776Y-87683115D01*
X106236159Y-87691233D01*
X106395408Y-87700224D01*
X106403687Y-87700670D01*
X106560383Y-87715616D01*
X106675769Y-87738367D01*
X106725392Y-87764186D01*
X106737996Y-87781858D01*
X106820420Y-87824879D01*
X106951342Y-87861027D01*
X107100836Y-87884906D01*
X107238974Y-87891119D01*
X107335831Y-87874269D01*
X107388470Y-87854203D01*
X107428493Y-87864341D01*
X107455560Y-87928577D01*
X107455803Y-87929769D01*
X107478787Y-88042558D01*
X107483242Y-88064417D01*
X107526748Y-88301909D01*
X107360729Y-88243334D01*
X107258907Y-88215227D01*
X107097013Y-88187756D01*
X106916633Y-88170077D01*
X106735780Y-88162354D01*
X106572466Y-88164751D01*
X106444701Y-88177431D01*
X106370498Y-88200559D01*
X106367869Y-88234298D01*
X106368106Y-88234533D01*
X106450366Y-88265768D01*
X106621050Y-88284470D01*
X106880631Y-88290693D01*
X107021726Y-88291946D01*
X107205800Y-88300737D01*
X107314154Y-88318851D01*
X107355852Y-88347368D01*
X107368188Y-88368706D01*
X107420345Y-88375891D01*
X107426993Y-88373136D01*
X107497830Y-88387020D01*
X107595127Y-88443283D01*
X107598412Y-88445659D01*
X107606547Y-88451542D01*
X107711635Y-88513455D01*
X107791195Y-88538828D01*
X107820890Y-88542094D01*
X107880390Y-88575003D01*
X107876398Y-88582227D01*
X107810914Y-88594010D01*
X107682760Y-88598972D01*
X107510850Y-88596034D01*
X107448436Y-88594001D01*
X107260151Y-88592276D01*
X107104472Y-88597054D01*
X107010139Y-88607667D01*
X106901325Y-88634444D01*
X107031159Y-88701803D01*
X107151980Y-88746157D01*
X107275319Y-88762003D01*
X107367957Y-88757315D01*
X107528318Y-88759240D01*
X107547268Y-88764405D01*
X107605198Y-88780194D01*
X107602058Y-88820799D01*
X107591074Y-88853663D01*
X107639752Y-88877020D01*
X107641327Y-88877194D01*
X107765717Y-88890934D01*
X107883554Y-88888810D01*
X107932789Y-88865369D01*
X107896556Y-88831171D01*
X108008343Y-88831171D01*
X108013743Y-88884713D01*
X108027312Y-88891771D01*
X108033792Y-88877194D01*
X108224281Y-88877194D01*
X108246839Y-88899751D01*
X108269397Y-88877194D01*
X108246839Y-88854636D01*
X108224281Y-88877194D01*
X108033792Y-88877194D01*
X108043820Y-88854636D01*
X108040564Y-88830752D01*
X108013743Y-88824559D01*
X108008343Y-88831171D01*
X107896556Y-88831171D01*
X107896282Y-88830912D01*
X107773127Y-88796927D01*
X107725447Y-88786963D01*
X108269397Y-88786963D01*
X108291954Y-88809520D01*
X108314512Y-88786963D01*
X108291954Y-88764405D01*
X108269397Y-88786963D01*
X107725447Y-88786963D01*
X107717111Y-88785221D01*
X107719319Y-88776359D01*
X107806963Y-88770549D01*
X107816876Y-88770031D01*
X107915539Y-88751794D01*
X107959228Y-88719289D01*
X107960775Y-88706568D01*
X107966798Y-88651616D01*
X108269397Y-88651616D01*
X108291954Y-88674174D01*
X108314512Y-88651616D01*
X108291954Y-88629059D01*
X108269397Y-88651616D01*
X107966798Y-88651616D01*
X107970507Y-88617780D01*
X107978766Y-88605479D01*
X108049134Y-88578637D01*
X108168563Y-88558025D01*
X108309468Y-88545534D01*
X108444266Y-88543053D01*
X108545373Y-88552471D01*
X108585205Y-88575678D01*
X108559058Y-88599424D01*
X108476832Y-88604754D01*
X108417865Y-88604550D01*
X108372270Y-88642340D01*
X108370332Y-88651616D01*
X108350545Y-88746305D01*
X108348668Y-88764568D01*
X108348807Y-88786963D01*
X108349266Y-88860611D01*
X108357494Y-88877194D01*
X108368687Y-88899751D01*
X108385761Y-88877194D01*
X108540089Y-88877194D01*
X108562647Y-88899751D01*
X108585205Y-88877194D01*
X108562647Y-88854636D01*
X108540089Y-88877194D01*
X108385761Y-88877194D01*
X108394377Y-88865811D01*
X108399590Y-88832078D01*
X108449859Y-88832078D01*
X108472416Y-88854636D01*
X108494974Y-88832078D01*
X108472416Y-88809520D01*
X108449859Y-88832078D01*
X108399590Y-88832078D01*
X108408305Y-88775684D01*
X108408372Y-88773488D01*
X108417660Y-88704234D01*
X108434622Y-88708011D01*
X108458847Y-88737526D01*
X108540089Y-88764405D01*
X108586767Y-88756008D01*
X108645557Y-88708011D01*
X108654286Y-88695646D01*
X108671950Y-88720297D01*
X108682629Y-88790924D01*
X108681434Y-88832078D01*
X108680125Y-88877194D01*
X108694117Y-88884535D01*
X108742456Y-88834734D01*
X108770389Y-88800217D01*
X108803526Y-88776439D01*
X108810782Y-88823172D01*
X108829067Y-88873426D01*
X108909490Y-88884121D01*
X108944533Y-88875549D01*
X109040710Y-88812873D01*
X109046875Y-88801931D01*
X109126622Y-88801931D01*
X109158175Y-88824097D01*
X109246327Y-88839015D01*
X109274814Y-88840236D01*
X109328421Y-88832601D01*
X109311493Y-88812458D01*
X109408344Y-88812458D01*
X109419841Y-88854636D01*
X109429110Y-88867991D01*
X109470281Y-88899751D01*
X109476453Y-88896814D01*
X109471105Y-88877194D01*
X110480054Y-88877194D01*
X110499675Y-88896814D01*
X110502612Y-88899751D01*
X110525169Y-88877194D01*
X110502612Y-88854636D01*
X110480054Y-88877194D01*
X109471105Y-88877194D01*
X109464956Y-88854636D01*
X109455687Y-88841281D01*
X109451601Y-88838129D01*
X109630841Y-88838129D01*
X109667976Y-88854636D01*
X109691860Y-88851380D01*
X109698053Y-88824559D01*
X109691440Y-88819159D01*
X109637899Y-88824559D01*
X109630841Y-88838129D01*
X109451601Y-88838129D01*
X109414516Y-88809520D01*
X109408344Y-88812458D01*
X109311493Y-88812458D01*
X109302689Y-88801982D01*
X109286897Y-88789251D01*
X109296356Y-88770976D01*
X109387991Y-88776244D01*
X109398452Y-88777428D01*
X109503722Y-88777606D01*
X109559836Y-88756883D01*
X109561818Y-88737778D01*
X109512734Y-88719289D01*
X109479036Y-88713058D01*
X109469549Y-88701559D01*
X109622860Y-88701559D01*
X109632081Y-88737778D01*
X109632782Y-88740533D01*
X109690534Y-88748090D01*
X109725332Y-88741690D01*
X109758207Y-88770648D01*
X109767904Y-88791879D01*
X109825880Y-88793205D01*
X109860184Y-88785068D01*
X109893553Y-88803417D01*
X109901123Y-88819994D01*
X109915119Y-88824559D01*
X109961226Y-88839597D01*
X109992626Y-88832685D01*
X110028899Y-88779443D01*
X110017326Y-88764405D01*
X110074015Y-88764405D01*
X110074532Y-88774615D01*
X110077212Y-88779443D01*
X110093910Y-88809520D01*
X110101147Y-88807444D01*
X110141688Y-88764405D01*
X110148737Y-88746929D01*
X110121793Y-88719289D01*
X110108697Y-88721023D01*
X110074015Y-88764405D01*
X110017326Y-88764405D01*
X109996658Y-88737549D01*
X109896216Y-88719289D01*
X109796638Y-88706678D01*
X109748667Y-88681112D01*
X110615400Y-88681112D01*
X110621610Y-88710589D01*
X110670151Y-88734365D01*
X110684974Y-88725807D01*
X111408949Y-88725807D01*
X111427117Y-88740521D01*
X111496834Y-88760853D01*
X111572479Y-88764694D01*
X111607940Y-88747107D01*
X111580399Y-88730487D01*
X111496517Y-88708508D01*
X111427449Y-88704337D01*
X111408949Y-88725807D01*
X110684974Y-88725807D01*
X110738564Y-88694868D01*
X110745641Y-88687037D01*
X110750454Y-88676760D01*
X111654375Y-88676760D01*
X111674532Y-88692822D01*
X111733787Y-88647066D01*
X111759517Y-88609860D01*
X111747728Y-88583943D01*
X111732353Y-88586380D01*
X111673758Y-88632060D01*
X111667418Y-88646681D01*
X111654375Y-88676760D01*
X110750454Y-88676760D01*
X110764542Y-88646681D01*
X110704727Y-88641531D01*
X110653361Y-88651416D01*
X110653105Y-88651616D01*
X110615400Y-88681112D01*
X109748667Y-88681112D01*
X109735649Y-88674174D01*
X109715482Y-88651616D01*
X110480054Y-88651616D01*
X110502612Y-88674174D01*
X110525169Y-88651616D01*
X110502612Y-88629059D01*
X110480054Y-88651616D01*
X109715482Y-88651616D01*
X109707122Y-88642265D01*
X109650024Y-88636990D01*
X109647034Y-88644097D01*
X109622860Y-88701559D01*
X109469549Y-88701559D01*
X109442399Y-88668650D01*
X109437229Y-88657667D01*
X109495494Y-88657667D01*
X109532629Y-88674174D01*
X109556513Y-88670918D01*
X109562706Y-88644097D01*
X109556094Y-88638698D01*
X109502552Y-88644097D01*
X109495494Y-88657667D01*
X109437229Y-88657667D01*
X109430784Y-88643976D01*
X109374725Y-88674174D01*
X109328871Y-88703539D01*
X109307052Y-88679698D01*
X109305723Y-88666573D01*
X109266968Y-88631050D01*
X109203357Y-88644097D01*
X109153975Y-88700422D01*
X109141040Y-88737739D01*
X109126622Y-88801931D01*
X109046875Y-88801931D01*
X109092752Y-88720508D01*
X109080356Y-88628793D01*
X109075568Y-88621298D01*
X109044517Y-88588255D01*
X109038667Y-88629059D01*
X109037050Y-88640337D01*
X109033466Y-88667012D01*
X108988495Y-88707882D01*
X108875793Y-88719289D01*
X108854081Y-88718957D01*
X108762169Y-88704873D01*
X108743109Y-88674174D01*
X108743888Y-88657667D01*
X108818763Y-88657667D01*
X108855898Y-88674174D01*
X108879782Y-88670918D01*
X108885975Y-88644097D01*
X108879362Y-88638698D01*
X108825821Y-88644097D01*
X108818763Y-88657667D01*
X108743888Y-88657667D01*
X108744330Y-88648308D01*
X108689377Y-88628368D01*
X108644092Y-88621517D01*
X108654035Y-88605594D01*
X108955768Y-88605594D01*
X108959651Y-88644097D01*
X108961167Y-88659136D01*
X108974737Y-88666194D01*
X108991244Y-88629059D01*
X108987988Y-88605175D01*
X108961167Y-88598982D01*
X108955768Y-88605594D01*
X108654035Y-88605594D01*
X108661631Y-88593429D01*
X108671972Y-88590034D01*
X108758104Y-88581134D01*
X108915722Y-88574544D01*
X109130750Y-88570566D01*
X109389111Y-88569503D01*
X109676729Y-88571655D01*
X109775424Y-88572925D01*
X110053909Y-88576393D01*
X110297832Y-88579262D01*
X110493277Y-88581378D01*
X110626329Y-88582588D01*
X110683073Y-88582739D01*
X110944041Y-88575138D01*
X111279539Y-88566781D01*
X111571324Y-88561189D01*
X111810103Y-88558457D01*
X111986585Y-88558676D01*
X112091477Y-88561941D01*
X112115489Y-88568345D01*
X112088411Y-88588550D01*
X112057723Y-88666655D01*
X112056977Y-88689975D01*
X112046288Y-88715809D01*
X112010366Y-88662895D01*
X111976810Y-88618332D01*
X111921124Y-88583943D01*
X111906518Y-88605654D01*
X111908208Y-88609860D01*
X111933763Y-88673445D01*
X111942734Y-88688342D01*
X111958717Y-88747107D01*
X111963746Y-88765597D01*
X111912992Y-88839612D01*
X111867389Y-88880749D01*
X111816326Y-88888438D01*
X111744691Y-88833349D01*
X111680455Y-88789343D01*
X111653056Y-88799379D01*
X111652521Y-88805586D01*
X111613797Y-88826054D01*
X111506431Y-88802719D01*
X111502868Y-88801611D01*
X111334837Y-88751042D01*
X111242494Y-88728261D01*
X111216376Y-88731702D01*
X111247017Y-88759800D01*
X111266232Y-88774328D01*
X111278828Y-88801739D01*
X111210214Y-88808830D01*
X111136735Y-88801069D01*
X111016769Y-88761906D01*
X110930333Y-88737430D01*
X110881419Y-88746929D01*
X110827520Y-88757396D01*
X110751801Y-88817568D01*
X110723823Y-88899670D01*
X110764236Y-88985426D01*
X110783374Y-89010772D01*
X110785106Y-89060892D01*
X110782609Y-89062714D01*
X110742756Y-89039698D01*
X110688410Y-88960134D01*
X110644882Y-88884741D01*
X110622886Y-88872058D01*
X110622386Y-88877194D01*
X110617992Y-88922309D01*
X110617207Y-88930365D01*
X110627670Y-88996402D01*
X110666014Y-89065558D01*
X110683073Y-89096326D01*
X110725693Y-89182850D01*
X110730188Y-89210760D01*
X110747669Y-89319308D01*
X110744050Y-89461465D01*
X110712237Y-89567340D01*
X110711039Y-89569208D01*
X110669716Y-89599104D01*
X110614319Y-89552622D01*
X110605996Y-89542395D01*
X110576897Y-89482497D01*
X110618301Y-89438389D01*
X110628501Y-89431689D01*
X110647082Y-89404485D01*
X110582980Y-89396712D01*
X110513368Y-89411074D01*
X110509959Y-89466571D01*
X110509561Y-89523004D01*
X110445005Y-89601580D01*
X110388586Y-89659601D01*
X110378507Y-89763661D01*
X110385885Y-89823480D01*
X110357201Y-89832340D01*
X110322421Y-89788042D01*
X110288939Y-89691304D01*
X110283318Y-89621010D01*
X110300997Y-89599909D01*
X110329561Y-89599835D01*
X110390235Y-89553429D01*
X110393698Y-89549223D01*
X110421417Y-89498631D01*
X110377144Y-89486252D01*
X110346779Y-89476372D01*
X110311883Y-89409164D01*
X110292668Y-89266357D01*
X110289459Y-89199657D01*
X110296676Y-89092982D01*
X110323254Y-89064260D01*
X110334481Y-89074775D01*
X110355715Y-89151499D01*
X110359371Y-89272876D01*
X110349268Y-89463694D01*
X110380528Y-89318782D01*
X110457551Y-89318782D01*
X110495005Y-89350906D01*
X110549120Y-89335205D01*
X110625267Y-89277069D01*
X110660516Y-89210760D01*
X110641956Y-89190891D01*
X110579607Y-89200316D01*
X110507539Y-89237265D01*
X110462033Y-89287678D01*
X110457551Y-89318782D01*
X110380528Y-89318782D01*
X110388196Y-89283233D01*
X110403234Y-89198585D01*
X110398883Y-89098777D01*
X110352080Y-89025775D01*
X110343164Y-89017845D01*
X110454602Y-89017845D01*
X110487267Y-89072484D01*
X110522217Y-89119045D01*
X110551945Y-89161111D01*
X110558576Y-89159310D01*
X110584147Y-89109162D01*
X110584316Y-89065558D01*
X110519469Y-89020535D01*
X110492789Y-89014051D01*
X110454602Y-89017845D01*
X110343164Y-89017845D01*
X110313800Y-88991729D01*
X110269316Y-88984784D01*
X110239837Y-89005992D01*
X110209722Y-89027657D01*
X110113333Y-89129795D01*
X109949631Y-89310811D01*
X110068217Y-89297022D01*
X110113569Y-89293360D01*
X110164325Y-89308014D01*
X110188464Y-89368713D01*
X110192438Y-89411060D01*
X110200554Y-89497531D01*
X110200991Y-89508810D01*
X110202909Y-89558338D01*
X110199718Y-89599041D01*
X110194122Y-89670432D01*
X110166718Y-89711829D01*
X110164767Y-89711843D01*
X110120130Y-89733688D01*
X110141823Y-89782621D01*
X110220640Y-89837228D01*
X110274761Y-89871585D01*
X110265756Y-89889238D01*
X110262672Y-89890393D01*
X110238813Y-89899330D01*
X110209361Y-89962880D01*
X110190412Y-90053369D01*
X110141185Y-90192602D01*
X110105840Y-90275773D01*
X110075160Y-90347967D01*
X110055027Y-90388561D01*
X110020847Y-90457476D01*
X110005824Y-90487766D01*
X109946664Y-90580302D01*
X109938506Y-90592768D01*
X109913015Y-90631721D01*
X109914283Y-90636696D01*
X109920397Y-90660689D01*
X109922775Y-90674292D01*
X109923918Y-90680833D01*
X109872401Y-90732009D01*
X109870995Y-90733406D01*
X109847694Y-90752115D01*
X109818185Y-90783814D01*
X109816979Y-90785109D01*
X109850820Y-90790329D01*
X109961226Y-90773050D01*
X110008379Y-90764567D01*
X110088760Y-90745301D01*
X110158708Y-90713940D01*
X110237241Y-90658030D01*
X110343378Y-90565117D01*
X110460202Y-90456234D01*
X110480054Y-90456234D01*
X110502612Y-90478792D01*
X110525169Y-90456234D01*
X110502612Y-90433677D01*
X110480054Y-90456234D01*
X110460202Y-90456234D01*
X110496134Y-90422745D01*
X110554451Y-90367788D01*
X110645310Y-90277992D01*
X110679203Y-90230304D01*
X110662709Y-90211436D01*
X110602407Y-90208099D01*
X110587709Y-90207897D01*
X110503353Y-90185941D01*
X110480054Y-90116281D01*
X110480563Y-90094622D01*
X110500560Y-90048699D01*
X110567319Y-90071166D01*
X110582044Y-90078005D01*
X110695324Y-90106365D01*
X110835208Y-90117868D01*
X110944087Y-90112366D01*
X110999588Y-90086269D01*
X111009035Y-90027638D01*
X111008453Y-90021243D01*
X110984130Y-89952910D01*
X110949038Y-89939835D01*
X110930518Y-89993801D01*
X110922573Y-90019229D01*
X110886093Y-89982522D01*
X110884624Y-89980255D01*
X110850323Y-89939997D01*
X110841668Y-89978763D01*
X110837108Y-90005375D01*
X110807141Y-90008839D01*
X110801226Y-90002172D01*
X110773304Y-89926128D01*
X110767075Y-89903014D01*
X110709721Y-89856058D01*
X110674764Y-89853060D01*
X110670852Y-89899269D01*
X110658783Y-89944270D01*
X110594883Y-89972492D01*
X110514956Y-89972197D01*
X110457070Y-89936716D01*
X110452459Y-89914541D01*
X110497287Y-89892291D01*
X110527807Y-89888546D01*
X110590242Y-89851383D01*
X110586290Y-89831116D01*
X110525232Y-89834087D01*
X110486666Y-89837946D01*
X110472167Y-89827281D01*
X110750747Y-89827281D01*
X110751920Y-89831783D01*
X110795862Y-89847176D01*
X110808228Y-89845340D01*
X110840978Y-89799398D01*
X110837435Y-89783080D01*
X110795862Y-89779503D01*
X110782361Y-89788762D01*
X110750747Y-89827281D01*
X110472167Y-89827281D01*
X110438504Y-89802519D01*
X110442719Y-89727478D01*
X110502266Y-89638057D01*
X110574805Y-89595162D01*
X110636473Y-89623776D01*
X110661207Y-89725771D01*
X110661505Y-89742951D01*
X110671875Y-89791744D01*
X110703345Y-89759099D01*
X110721417Y-89722251D01*
X110723648Y-89689272D01*
X110795862Y-89689272D01*
X110818420Y-89711829D01*
X110840978Y-89689272D01*
X110818420Y-89666714D01*
X110795862Y-89689272D01*
X110723648Y-89689272D01*
X110725471Y-89662317D01*
X110722202Y-89654455D01*
X110731094Y-89643249D01*
X110895732Y-89643249D01*
X110900374Y-89689272D01*
X110901132Y-89696791D01*
X110914701Y-89703849D01*
X110918491Y-89695322D01*
X110984304Y-89695322D01*
X111021439Y-89711829D01*
X111045323Y-89708574D01*
X111051516Y-89681752D01*
X111044904Y-89676353D01*
X110991362Y-89681752D01*
X110984304Y-89695322D01*
X110918491Y-89695322D01*
X110931208Y-89666714D01*
X110927953Y-89642830D01*
X110901132Y-89636637D01*
X110895732Y-89643249D01*
X110731094Y-89643249D01*
X110752726Y-89615988D01*
X110847362Y-89587572D01*
X110984177Y-89576483D01*
X111108368Y-89551901D01*
X111234706Y-89486252D01*
X111312027Y-89433506D01*
X111422309Y-89398023D01*
X111492551Y-89436929D01*
X111491339Y-89456931D01*
X111435099Y-89456202D01*
X111357814Y-89465398D01*
X111256404Y-89537639D01*
X111162494Y-89655429D01*
X111156955Y-89666714D01*
X111149574Y-89681752D01*
X111093430Y-89796136D01*
X111092808Y-89799398D01*
X111066555Y-89937127D01*
X111066555Y-90114169D01*
X111678996Y-90112254D01*
X111742225Y-90111994D01*
X111973127Y-90109152D01*
X112128805Y-90102546D01*
X112221501Y-90090804D01*
X112263456Y-90072555D01*
X112266912Y-90046430D01*
X112266001Y-90005561D01*
X112329788Y-89982522D01*
X112378526Y-89992574D01*
X112395308Y-90039536D01*
X112394782Y-90041066D01*
X112422681Y-90076143D01*
X112514032Y-90100071D01*
X112643581Y-90111841D01*
X112786069Y-90110441D01*
X112916240Y-90094861D01*
X113008838Y-90064089D01*
X113026938Y-90053668D01*
X113096704Y-90028606D01*
X113128962Y-90061474D01*
X113142478Y-90084008D01*
X113213298Y-90117868D01*
X113233925Y-90110078D01*
X113255192Y-90065903D01*
X113268461Y-89971013D01*
X113275283Y-89812257D01*
X113277212Y-89576483D01*
X113277212Y-89035098D01*
X112985549Y-89035098D01*
X112902170Y-89034261D01*
X112767817Y-89024218D01*
X112690865Y-88998278D01*
X112648770Y-88950799D01*
X112627630Y-88895336D01*
X112632145Y-88838010D01*
X112638936Y-88826317D01*
X112605337Y-88809520D01*
X112585039Y-88806210D01*
X112573895Y-88770922D01*
X112555108Y-88750255D01*
X112475047Y-88754532D01*
X112398230Y-88759687D01*
X112385790Y-88740887D01*
X112394802Y-88708118D01*
X112363233Y-88636041D01*
X112355159Y-88625965D01*
X112331459Y-88583957D01*
X112374903Y-88591863D01*
X112397651Y-88600181D01*
X112532323Y-88645633D01*
X112606201Y-88654726D01*
X112639812Y-88624535D01*
X112653682Y-88552134D01*
X112667974Y-88481893D01*
X112705425Y-88440736D01*
X112788278Y-88417341D01*
X112938846Y-88399787D01*
X112962773Y-88394493D01*
X112915403Y-88388226D01*
X112792636Y-88382266D01*
X112602564Y-88376835D01*
X112353281Y-88372157D01*
X112052878Y-88368455D01*
X111709450Y-88365950D01*
X111550715Y-88364959D01*
X111173583Y-88360911D01*
X110847409Y-88354908D01*
X110580045Y-88347210D01*
X110379346Y-88338073D01*
X110253166Y-88327759D01*
X110209361Y-88316525D01*
X110210057Y-88311540D01*
X110250299Y-88252972D01*
X110333429Y-88176004D01*
X110457496Y-88077324D01*
X112324385Y-88101909D01*
X112510773Y-88104564D01*
X112901721Y-88111484D01*
X113260431Y-88119640D01*
X113577239Y-88128702D01*
X113842480Y-88138338D01*
X114046489Y-88148216D01*
X114179601Y-88158004D01*
X114232149Y-88167371D01*
X114238003Y-88180439D01*
X114254735Y-88269493D01*
X114274296Y-88428296D01*
X114295616Y-88642442D01*
X114317624Y-88897527D01*
X114339249Y-89179145D01*
X114359419Y-89472891D01*
X114377066Y-89764359D01*
X114391116Y-90039145D01*
X114400500Y-90282843D01*
X114404147Y-90481048D01*
X114403623Y-90547051D01*
X114395387Y-90719356D01*
X114379202Y-90849801D01*
X114357662Y-90914222D01*
X114312219Y-90931651D01*
X114196977Y-90922892D01*
X114008993Y-90878129D01*
X113832815Y-90839467D01*
X113592109Y-90805655D01*
X113368419Y-90791429D01*
X113283411Y-90789413D01*
X113128588Y-90779331D01*
X113003501Y-90763736D01*
X112920143Y-90745693D01*
X112890505Y-90728268D01*
X112926579Y-90714528D01*
X113040356Y-90707540D01*
X113232097Y-90704369D01*
X113232097Y-90456234D01*
X113230299Y-90334178D01*
X113217774Y-90249428D01*
X113184601Y-90214755D01*
X113120895Y-90208099D01*
X113045122Y-90224542D01*
X112962303Y-90296650D01*
X112961235Y-90298330D01*
X112950972Y-90314473D01*
X112881491Y-90358599D01*
X112812324Y-90342319D01*
X112782666Y-90274866D01*
X112880812Y-90274866D01*
X112886211Y-90328407D01*
X112899781Y-90335465D01*
X112916288Y-90298330D01*
X112913033Y-90274446D01*
X112886211Y-90268253D01*
X112880812Y-90274866D01*
X112782666Y-90274866D01*
X112780942Y-90270946D01*
X112779221Y-90261733D01*
X112725816Y-90226655D01*
X112619234Y-90210030D01*
X112488771Y-90211861D01*
X112363725Y-90232151D01*
X112273393Y-90270902D01*
X112228202Y-90340680D01*
X112199401Y-90459863D01*
X112192561Y-90592398D01*
X112209201Y-90705084D01*
X112250835Y-90764721D01*
X112255446Y-90766832D01*
X112247625Y-90782633D01*
X112169628Y-90791039D01*
X112095003Y-90787873D01*
X111992853Y-90745946D01*
X111939272Y-90645340D01*
X111923748Y-90472432D01*
X111921299Y-90404382D01*
X111903661Y-90287805D01*
X111874597Y-90228163D01*
X111824255Y-90219509D01*
X111699699Y-90216070D01*
X111523088Y-90219486D01*
X111314659Y-90229700D01*
X110803872Y-90261616D01*
X110646605Y-90456234D01*
X110634096Y-90471714D01*
X110612602Y-90498269D01*
X110476841Y-90659526D01*
X110363029Y-90769723D01*
X110287119Y-90815706D01*
X110248730Y-90838960D01*
X110111510Y-90877340D01*
X109928932Y-90894963D01*
X109678561Y-90901932D01*
X109630894Y-90902795D01*
X109407626Y-90909461D01*
X109245481Y-90922253D01*
X109119725Y-90945440D01*
X109005627Y-90983293D01*
X108878455Y-91040083D01*
X108742969Y-91098437D01*
X108557569Y-91163406D01*
X108404743Y-91201422D01*
X108245507Y-91223567D01*
X108037470Y-91238415D01*
X107900623Y-91226959D01*
X107842576Y-91189360D01*
X107842341Y-91188604D01*
X107827323Y-91121882D01*
X107800427Y-90986264D01*
X107765391Y-90801102D01*
X107725955Y-90585751D01*
X107724639Y-90578467D01*
X107684136Y-90364245D01*
X107660757Y-90251360D01*
X107878944Y-90251360D01*
X107886968Y-90348335D01*
X107930740Y-90510498D01*
X107962137Y-90626014D01*
X107996551Y-90802262D01*
X108008540Y-90941226D01*
X108008659Y-90970120D01*
X108023213Y-91070422D01*
X108054573Y-91110408D01*
X108070307Y-91108525D01*
X108075484Y-91081919D01*
X108067815Y-91046851D01*
X108078219Y-91014394D01*
X108134050Y-91014394D01*
X108148497Y-91056821D01*
X108226554Y-91092748D01*
X108357773Y-91088860D01*
X108525620Y-91046507D01*
X108713559Y-90967040D01*
X108820415Y-90917306D01*
X108977171Y-90857550D01*
X109097041Y-90826917D01*
X109098628Y-90826717D01*
X109159027Y-90815706D01*
X109134993Y-90807737D01*
X109023632Y-90801820D01*
X108970369Y-90801929D01*
X108795680Y-90821194D01*
X108648364Y-90861252D01*
X108645866Y-90862273D01*
X108620804Y-90872518D01*
X108516076Y-90910458D01*
X108458073Y-90923582D01*
X108380744Y-90920533D01*
X108305606Y-90937968D01*
X108290028Y-90971945D01*
X108296159Y-90988212D01*
X108270133Y-91042280D01*
X108246478Y-91046749D01*
X108224281Y-91000282D01*
X108218760Y-90966669D01*
X108179166Y-90929947D01*
X108154095Y-90944283D01*
X108134050Y-91014394D01*
X108078219Y-91014394D01*
X108093653Y-90966246D01*
X108116278Y-90902279D01*
X108103045Y-90862273D01*
X108269397Y-90862273D01*
X108291954Y-90884831D01*
X108314512Y-90862273D01*
X108291954Y-90839716D01*
X108269397Y-90862273D01*
X108103045Y-90862273D01*
X108087585Y-90815532D01*
X108060742Y-90751433D01*
X108062001Y-90749485D01*
X108359628Y-90749485D01*
X108360145Y-90759695D01*
X108379523Y-90794600D01*
X108386760Y-90792524D01*
X108410479Y-90767343D01*
X109319271Y-90767343D01*
X109319970Y-90782744D01*
X109378485Y-90791039D01*
X109422831Y-90783814D01*
X109405742Y-90763781D01*
X109379653Y-90756573D01*
X109319271Y-90767343D01*
X108410479Y-90767343D01*
X108427301Y-90749485D01*
X108434350Y-90732009D01*
X108407406Y-90704369D01*
X108394310Y-90706103D01*
X108359628Y-90749485D01*
X108062001Y-90749485D01*
X108101831Y-90687862D01*
X109315033Y-90687862D01*
X109352168Y-90704369D01*
X109376052Y-90701113D01*
X109382245Y-90674292D01*
X109375632Y-90668893D01*
X109322091Y-90674292D01*
X109315033Y-90687862D01*
X108101831Y-90687862D01*
X108107012Y-90679847D01*
X108130346Y-90655578D01*
X108144190Y-90636696D01*
X109216821Y-90636696D01*
X109239379Y-90659254D01*
X109261937Y-90636696D01*
X109239379Y-90614138D01*
X109216821Y-90636696D01*
X108144190Y-90636696D01*
X108176398Y-90592768D01*
X108158407Y-90584751D01*
X108082370Y-90640983D01*
X108018869Y-90695696D01*
X108003980Y-90696012D01*
X108035143Y-90632329D01*
X108061605Y-90553680D01*
X108030429Y-90479085D01*
X108028792Y-90477312D01*
X108000889Y-90438844D01*
X108043820Y-90453531D01*
X108053413Y-90457638D01*
X108053642Y-90456234D01*
X108540089Y-90456234D01*
X108562647Y-90478792D01*
X108585205Y-90456234D01*
X108562647Y-90433677D01*
X108540089Y-90456234D01*
X108053642Y-90456234D01*
X108055602Y-90444223D01*
X107998704Y-90388561D01*
X107980951Y-90372799D01*
X107936804Y-90326409D01*
X107953589Y-90325633D01*
X107965438Y-90331656D01*
X107997936Y-90339614D01*
X107965259Y-90291561D01*
X107937419Y-90247089D01*
X107931046Y-90192294D01*
X107934933Y-90183086D01*
X107901204Y-90205593D01*
X107878944Y-90251360D01*
X107660757Y-90251360D01*
X107646268Y-90181404D01*
X107633410Y-90126617D01*
X108233772Y-90126617D01*
X108269397Y-90162984D01*
X108300413Y-90188114D01*
X108294610Y-90207409D01*
X108289084Y-90226664D01*
X108339726Y-90279118D01*
X108382678Y-90319182D01*
X108363936Y-90317263D01*
X108333537Y-90305951D01*
X108326669Y-90326617D01*
X108328343Y-90328974D01*
X108392108Y-90360753D01*
X108501743Y-90380197D01*
X108633176Y-90406792D01*
X108747234Y-90456234D01*
X108753751Y-90459059D01*
X108828606Y-90496842D01*
X108845062Y-90471960D01*
X108844513Y-90467600D01*
X108883612Y-90426972D01*
X108991244Y-90403437D01*
X109021252Y-90401218D01*
X109096421Y-90404822D01*
X109088940Y-90427899D01*
X109085241Y-90430303D01*
X109062313Y-90464131D01*
X109122839Y-90490883D01*
X109176736Y-90497152D01*
X109191663Y-90474585D01*
X109189891Y-90466796D01*
X109232196Y-90443183D01*
X109332471Y-90433677D01*
X109423693Y-90430204D01*
X109466086Y-90411829D01*
X109445732Y-90370020D01*
X109419947Y-90327906D01*
X109422747Y-90320888D01*
X109487514Y-90320888D01*
X109510072Y-90343446D01*
X109531743Y-90321774D01*
X109589392Y-90321774D01*
X109590542Y-90399840D01*
X109598011Y-90484888D01*
X109607480Y-90523908D01*
X109623613Y-90517271D01*
X109639707Y-90457476D01*
X109620172Y-90366003D01*
X109619775Y-90365097D01*
X109903192Y-90365097D01*
X109908592Y-90418638D01*
X109922161Y-90425696D01*
X109938669Y-90388561D01*
X109935413Y-90364677D01*
X109908592Y-90358484D01*
X109903192Y-90365097D01*
X109619775Y-90365097D01*
X109603157Y-90327127D01*
X109594152Y-90323625D01*
X109721744Y-90323625D01*
X109731335Y-90338908D01*
X109803322Y-90298330D01*
X109830019Y-90275773D01*
X109893553Y-90275773D01*
X109916111Y-90298330D01*
X109938669Y-90275773D01*
X109916111Y-90253215D01*
X109897807Y-90271519D01*
X109893553Y-90275773D01*
X109830019Y-90275773D01*
X109835054Y-90271519D01*
X109817264Y-90253906D01*
X109801536Y-90255436D01*
X109735649Y-90298330D01*
X109723249Y-90320888D01*
X109721744Y-90323625D01*
X109594152Y-90323625D01*
X109589392Y-90321774D01*
X109531743Y-90321774D01*
X109532629Y-90320888D01*
X109510072Y-90298330D01*
X109487514Y-90320888D01*
X109422747Y-90320888D01*
X109440208Y-90277127D01*
X109454142Y-90266092D01*
X109486823Y-90194158D01*
X109480582Y-90168434D01*
X109448308Y-90200083D01*
X109362647Y-90268547D01*
X109208451Y-90304335D01*
X109009264Y-90298155D01*
X108783987Y-90248625D01*
X108641580Y-90200135D01*
X108526082Y-90151727D01*
X108471810Y-90116887D01*
X108435822Y-90079875D01*
X108350274Y-90022632D01*
X108318576Y-90006394D01*
X108274643Y-89997001D01*
X108275666Y-90002417D01*
X108283698Y-90044947D01*
X108284631Y-90050195D01*
X108290889Y-90085413D01*
X108256702Y-90118559D01*
X108233772Y-90126617D01*
X107633410Y-90126617D01*
X107615225Y-90049131D01*
X107595193Y-89986612D01*
X107589739Y-89979001D01*
X107534834Y-89962625D01*
X107431258Y-90003443D01*
X107412770Y-90012239D01*
X107288059Y-90046576D01*
X107099681Y-90066157D01*
X106834741Y-90072475D01*
X106676227Y-90070204D01*
X106427281Y-90050863D01*
X106251800Y-90009320D01*
X106139848Y-89942613D01*
X106108882Y-89892291D01*
X106855089Y-89892291D01*
X107089498Y-89892291D01*
X107154485Y-89891639D01*
X107269324Y-89880447D01*
X107333577Y-89846636D01*
X107375523Y-89779005D01*
X107404345Y-89648923D01*
X107385835Y-89451918D01*
X107379466Y-89419949D01*
X107346720Y-89302363D01*
X107301438Y-89245361D01*
X107226435Y-89224418D01*
X107174256Y-89220987D01*
X107127397Y-89239669D01*
X107102709Y-89305602D01*
X107086291Y-89440189D01*
X107066202Y-89539174D01*
X107047573Y-89630965D01*
X106959666Y-89780975D01*
X106855089Y-89892291D01*
X106108882Y-89892291D01*
X106081488Y-89847775D01*
X106077441Y-89837023D01*
X106002882Y-89759245D01*
X105885422Y-89717822D01*
X105765590Y-89728106D01*
X105744234Y-89741814D01*
X105708867Y-89822385D01*
X105697816Y-89978444D01*
X105695174Y-90056729D01*
X105679402Y-90172540D01*
X105654138Y-90229769D01*
X105626289Y-90235254D01*
X105521349Y-90235901D01*
X105361737Y-90226919D01*
X105169147Y-90209225D01*
X105075819Y-90199286D01*
X104852053Y-90176240D01*
X104648133Y-90156203D01*
X104498975Y-90142644D01*
X104426236Y-90135667D01*
X104265974Y-90114876D01*
X104145700Y-90092376D01*
X104089279Y-90075497D01*
X104044884Y-90039969D01*
X104030826Y-89966880D01*
X104036194Y-89830095D01*
X104049843Y-89618558D01*
X105246661Y-89618558D01*
X105248934Y-89624814D01*
X105312205Y-89647617D01*
X105457556Y-89661821D01*
X105678603Y-89666714D01*
X106110545Y-89666714D01*
X106103932Y-89542123D01*
X106239997Y-89542123D01*
X106251288Y-89689855D01*
X106285904Y-89805026D01*
X106314308Y-89844561D01*
X106411754Y-89886322D01*
X106555498Y-89856418D01*
X106749264Y-89754440D01*
X106867435Y-89676547D01*
X106933077Y-89612497D01*
X106955475Y-89539174D01*
X106952283Y-89428210D01*
X106938491Y-89238117D01*
X106652580Y-89224583D01*
X106538464Y-89222679D01*
X106387718Y-89234899D01*
X106302936Y-89263944D01*
X106282964Y-89289692D01*
X106250925Y-89397008D01*
X106239997Y-89542123D01*
X106103932Y-89542123D01*
X106099044Y-89450025D01*
X106097132Y-89381202D01*
X106103368Y-89253975D01*
X106120919Y-89179333D01*
X106132222Y-89159335D01*
X107666488Y-89159335D01*
X107676598Y-89287106D01*
X107695092Y-89448318D01*
X107719167Y-89620066D01*
X107724029Y-89648923D01*
X107746020Y-89779451D01*
X107772848Y-89903570D01*
X107777448Y-89920703D01*
X107823093Y-90050530D01*
X107865336Y-90111207D01*
X107896391Y-90097061D01*
X107902374Y-90050195D01*
X108179166Y-90050195D01*
X108201724Y-90072753D01*
X108224281Y-90050195D01*
X108201724Y-90027638D01*
X108179166Y-90050195D01*
X107902374Y-90050195D01*
X107908473Y-90002417D01*
X107899138Y-89930049D01*
X107873308Y-89908699D01*
X107860063Y-89889202D01*
X107859033Y-89869733D01*
X107953589Y-89869733D01*
X107976146Y-89892291D01*
X107998704Y-89869733D01*
X107976146Y-89847176D01*
X107953589Y-89869733D01*
X107859033Y-89869733D01*
X107855439Y-89801766D01*
X107863469Y-89665547D01*
X107872057Y-89556458D01*
X108284778Y-89556458D01*
X108344550Y-89745530D01*
X108430527Y-89869733D01*
X108476026Y-89935461D01*
X108538316Y-89999613D01*
X108755550Y-90160042D01*
X108983757Y-90241992D01*
X109211112Y-90242676D01*
X109425789Y-90159308D01*
X109489897Y-90121857D01*
X109549076Y-90100681D01*
X109552106Y-90132186D01*
X109545753Y-90167332D01*
X109558382Y-90194158D01*
X109574669Y-90228756D01*
X109594549Y-90237195D01*
X109622860Y-90215589D01*
X109624357Y-90203287D01*
X109671478Y-90154423D01*
X109750609Y-90140786D01*
X109815250Y-90172735D01*
X109841087Y-90199362D01*
X109831552Y-90151705D01*
X109824257Y-90107446D01*
X109846269Y-90072753D01*
X109856903Y-90070956D01*
X109897579Y-90014052D01*
X109917813Y-89890393D01*
X109916168Y-89717860D01*
X109901594Y-89599041D01*
X109983784Y-89599041D01*
X110006342Y-89621599D01*
X110028899Y-89599041D01*
X110006342Y-89576483D01*
X109983784Y-89599041D01*
X109901594Y-89599041D01*
X109891205Y-89514336D01*
X109890068Y-89508810D01*
X109983784Y-89508810D01*
X110006342Y-89531368D01*
X110028899Y-89508810D01*
X110006342Y-89486252D01*
X109983784Y-89508810D01*
X109890068Y-89508810D01*
X109872743Y-89424630D01*
X109991764Y-89424630D01*
X110028899Y-89441137D01*
X110052783Y-89437881D01*
X110058976Y-89411060D01*
X110052364Y-89405660D01*
X109998822Y-89411060D01*
X109991764Y-89424630D01*
X109872743Y-89424630D01*
X109859863Y-89362045D01*
X109826375Y-89244304D01*
X109798652Y-89190115D01*
X109783978Y-89184501D01*
X109758207Y-89215559D01*
X109755358Y-89232168D01*
X109716945Y-89240499D01*
X109678714Y-89232069D01*
X109658360Y-89280667D01*
X109673860Y-89383606D01*
X109724768Y-89524699D01*
X109772313Y-89669553D01*
X109781752Y-89884679D01*
X109714306Y-90072376D01*
X109671860Y-90114366D01*
X109615716Y-90083655D01*
X109583295Y-90034565D01*
X109613837Y-89973499D01*
X109619650Y-89966736D01*
X109653964Y-89878920D01*
X109667976Y-89754594D01*
X109650686Y-89621392D01*
X109561328Y-89432821D01*
X109410298Y-89276469D01*
X109213915Y-89160959D01*
X108988492Y-89094913D01*
X108750347Y-89086954D01*
X108515796Y-89145704D01*
X108512573Y-89147886D01*
X108377401Y-89239403D01*
X108295974Y-89382873D01*
X108284778Y-89556458D01*
X107872057Y-89556458D01*
X107872789Y-89547154D01*
X107875490Y-89450219D01*
X107868757Y-89420699D01*
X107859534Y-89418788D01*
X107820533Y-89364704D01*
X107768013Y-89260475D01*
X107745070Y-89210565D01*
X107713372Y-89147886D01*
X108088935Y-89147886D01*
X108111493Y-89170444D01*
X108134050Y-89147886D01*
X108111493Y-89125329D01*
X108088935Y-89147886D01*
X107713372Y-89147886D01*
X107697873Y-89117238D01*
X107672077Y-89080213D01*
X107667564Y-89087904D01*
X107666656Y-89148179D01*
X107666488Y-89159335D01*
X106132222Y-89159335D01*
X106138527Y-89148179D01*
X106137129Y-89127669D01*
X106095180Y-89161828D01*
X106085157Y-89169990D01*
X106028321Y-89229364D01*
X105988228Y-89271248D01*
X105977384Y-89283233D01*
X105967333Y-89294342D01*
X105908219Y-89362757D01*
X105909210Y-89372144D01*
X105968509Y-89327643D01*
X106081297Y-89238117D01*
X105993913Y-89341218D01*
X105914918Y-89406656D01*
X105844945Y-89420687D01*
X105817546Y-89414584D01*
X105809525Y-89439390D01*
X105807771Y-89460329D01*
X105806450Y-89476095D01*
X105747161Y-89529104D01*
X105718891Y-89543644D01*
X105640389Y-89573980D01*
X105622844Y-89562967D01*
X105677056Y-89513074D01*
X105725893Y-89474282D01*
X105716983Y-89461161D01*
X105629285Y-89474539D01*
X105527503Y-89508810D01*
X105525932Y-89509339D01*
X105457611Y-89562484D01*
X105456982Y-89563071D01*
X105424362Y-89593505D01*
X105333544Y-89597978D01*
X105281604Y-89590791D01*
X105246661Y-89618558D01*
X104049843Y-89618558D01*
X104051102Y-89599041D01*
X103893198Y-89571143D01*
X103885408Y-89569764D01*
X103847371Y-89562270D01*
X104235190Y-89562270D01*
X104299237Y-89569360D01*
X104361299Y-89563071D01*
X104355631Y-89546604D01*
X104335210Y-89540645D01*
X104242843Y-89546604D01*
X104235190Y-89562270D01*
X103847371Y-89562270D01*
X103794848Y-89551922D01*
X103788661Y-89542755D01*
X103862327Y-89537307D01*
X103887201Y-89535549D01*
X104021831Y-89506023D01*
X104123604Y-89453354D01*
X104163891Y-89391394D01*
X104153327Y-89378354D01*
X104209006Y-89378354D01*
X104213283Y-89404960D01*
X104254121Y-89441137D01*
X104264752Y-89440012D01*
X104299237Y-89401283D01*
X104320816Y-89370932D01*
X104398776Y-89335399D01*
X104456333Y-89312528D01*
X104471773Y-89282826D01*
X104423827Y-89268313D01*
X104332690Y-89285076D01*
X104246979Y-89326884D01*
X104209006Y-89378354D01*
X104153327Y-89378354D01*
X104145613Y-89368831D01*
X104073944Y-89373373D01*
X104061798Y-89377067D01*
X104005531Y-89378298D01*
X104009677Y-89320019D01*
X104019632Y-89287490D01*
X104019757Y-89285895D01*
X104073660Y-89285895D01*
X104074099Y-89292202D01*
X104100215Y-89302138D01*
X104145641Y-89253704D01*
X104153886Y-89234767D01*
X104257100Y-89234767D01*
X104301899Y-89260675D01*
X104318044Y-89257276D01*
X104322114Y-89216076D01*
X104319474Y-89194235D01*
X104372399Y-89201351D01*
X104427259Y-89209061D01*
X104421274Y-89155719D01*
X104406504Y-89110901D01*
X104409753Y-89081407D01*
X104444293Y-89116889D01*
X104499299Y-89209840D01*
X104503007Y-89217151D01*
X104527092Y-89282826D01*
X104538286Y-89313350D01*
X104535669Y-89370128D01*
X104536300Y-89381934D01*
X104593863Y-89367401D01*
X104618599Y-89358483D01*
X104657515Y-89354957D01*
X104626715Y-89403004D01*
X104600091Y-89447744D01*
X104600398Y-89501682D01*
X104671140Y-89536884D01*
X104736911Y-89509921D01*
X104737165Y-89508810D01*
X105201546Y-89508810D01*
X105224104Y-89531368D01*
X105246661Y-89508810D01*
X105224104Y-89486252D01*
X105201546Y-89508810D01*
X104737165Y-89508810D01*
X104752511Y-89441653D01*
X105043961Y-89441653D01*
X105052800Y-89453486D01*
X105113978Y-89486252D01*
X105139279Y-89483870D01*
X105149917Y-89460329D01*
X105086414Y-89423923D01*
X105051223Y-89416016D01*
X105047170Y-89430323D01*
X105043961Y-89441653D01*
X104752511Y-89441653D01*
X104755421Y-89428920D01*
X104787159Y-89412388D01*
X104874146Y-89421290D01*
X104915154Y-89429555D01*
X104960759Y-89430323D01*
X104930853Y-89400361D01*
X104890098Y-89377731D01*
X104786524Y-89351597D01*
X104765223Y-89347115D01*
X104682218Y-89292854D01*
X104592418Y-89196921D01*
X104589016Y-89193002D01*
X105021084Y-89193002D01*
X105043642Y-89215559D01*
X105066200Y-89193002D01*
X105111315Y-89193002D01*
X105133873Y-89215559D01*
X105156431Y-89193002D01*
X105133873Y-89170444D01*
X105111315Y-89193002D01*
X105066200Y-89193002D01*
X105043642Y-89170444D01*
X105021084Y-89193002D01*
X104589016Y-89193002D01*
X104529724Y-89124691D01*
X104453545Y-89053475D01*
X104388541Y-89005291D01*
X104352715Y-88993261D01*
X104364070Y-89030502D01*
X104365516Y-89053402D01*
X104366086Y-89062425D01*
X104321298Y-89125741D01*
X104276274Y-89173244D01*
X104259056Y-89228492D01*
X104257100Y-89234767D01*
X104153886Y-89234767D01*
X104156618Y-89228492D01*
X104125746Y-89233809D01*
X104105704Y-89247736D01*
X104073660Y-89285895D01*
X104019757Y-89285895D01*
X104021522Y-89263426D01*
X103984593Y-89317069D01*
X103942627Y-89360885D01*
X103857119Y-89392459D01*
X103819117Y-89386094D01*
X103837085Y-89366048D01*
X103858828Y-89352614D01*
X103869476Y-89303907D01*
X103850282Y-89288459D01*
X103778964Y-89290030D01*
X103745653Y-89296709D01*
X103712736Y-89270764D01*
X103729813Y-89240228D01*
X103803029Y-89202471D01*
X103853604Y-89196711D01*
X103868040Y-89219767D01*
X103862313Y-89233961D01*
X103891529Y-89260675D01*
X103908167Y-89256253D01*
X103973638Y-89196834D01*
X104038151Y-89105508D01*
X104172543Y-89105508D01*
X104182134Y-89120790D01*
X104254121Y-89080213D01*
X104285853Y-89053402D01*
X104268063Y-89035788D01*
X104252336Y-89037319D01*
X104186448Y-89080213D01*
X104172543Y-89105508D01*
X104038151Y-89105508D01*
X104049189Y-89089883D01*
X104118844Y-88963303D01*
X104166626Y-88844997D01*
X104176560Y-88762867D01*
X104158891Y-88711409D01*
X104130809Y-88674174D01*
X104122046Y-88692202D01*
X104131890Y-88764570D01*
X104131551Y-88834605D01*
X104080758Y-88934707D01*
X104039025Y-88977144D01*
X104039823Y-88970635D01*
X104043118Y-88965607D01*
X104064794Y-88885748D01*
X104073660Y-88766080D01*
X104072789Y-88729168D01*
X104047052Y-88620525D01*
X103975069Y-88560805D01*
X103917446Y-88530381D01*
X103862833Y-88475594D01*
X103888889Y-88441128D01*
X103993493Y-88440806D01*
X104014634Y-88444271D01*
X104084860Y-88464267D01*
X104083055Y-88482674D01*
X104048727Y-88508480D01*
X104077301Y-88565773D01*
X104077461Y-88565965D01*
X104154097Y-88620786D01*
X104223738Y-88618992D01*
X104254121Y-88561385D01*
X104248715Y-88530211D01*
X104206343Y-88493712D01*
X104190025Y-88490170D01*
X104186448Y-88448597D01*
X104183538Y-88426039D01*
X104344352Y-88426039D01*
X104366910Y-88448597D01*
X104389468Y-88426039D01*
X104366910Y-88403481D01*
X104344352Y-88426039D01*
X104183538Y-88426039D01*
X104182816Y-88420438D01*
X104118775Y-88403481D01*
X104064092Y-88393636D01*
X104053003Y-88355290D01*
X104080140Y-88334574D01*
X104157175Y-88338554D01*
X104206058Y-88355883D01*
X104321795Y-88382985D01*
X104375868Y-88391000D01*
X104428829Y-88399722D01*
X104427430Y-88415583D01*
X104420220Y-88426039D01*
X104387355Y-88473700D01*
X104380243Y-88482359D01*
X104351751Y-88528903D01*
X104387470Y-88530094D01*
X104412108Y-88529228D01*
X104466540Y-88572664D01*
X104462279Y-88607216D01*
X104395890Y-88629059D01*
X104380017Y-88629705D01*
X104303892Y-88652673D01*
X104267854Y-88692391D01*
X104294823Y-88726715D01*
X104320860Y-88751167D01*
X104351498Y-88832078D01*
X104360867Y-88862781D01*
X104422743Y-88952562D01*
X104519092Y-89038790D01*
X104626200Y-89105594D01*
X104720350Y-89137100D01*
X104777828Y-89117434D01*
X104784256Y-89102771D01*
X104975969Y-89102771D01*
X104998526Y-89125329D01*
X105021084Y-89102771D01*
X104998526Y-89080213D01*
X104975969Y-89102771D01*
X104784256Y-89102771D01*
X104788221Y-89093725D01*
X104758685Y-89097645D01*
X104755537Y-89099494D01*
X104722744Y-89100220D01*
X104696150Y-89051794D01*
X104677248Y-88967552D01*
X104801219Y-88967552D01*
X104833023Y-89045544D01*
X104835149Y-89047638D01*
X104862997Y-89056011D01*
X104862707Y-89054043D01*
X105539050Y-89054043D01*
X105539391Y-89056011D01*
X105547505Y-89102771D01*
X105548950Y-89111100D01*
X105570911Y-89157720D01*
X105595836Y-89193002D01*
X105635675Y-89249396D01*
X105668780Y-89276738D01*
X105739709Y-89305790D01*
X105769915Y-89293238D01*
X105772357Y-89283233D01*
X105833162Y-89283233D01*
X105855720Y-89305790D01*
X105878278Y-89283233D01*
X105855720Y-89260675D01*
X105833162Y-89283233D01*
X105772357Y-89283233D01*
X105785506Y-89229364D01*
X105753519Y-89142688D01*
X105713017Y-89105982D01*
X105630542Y-89066272D01*
X105788738Y-89066272D01*
X105794861Y-89093297D01*
X105833162Y-89170444D01*
X105839097Y-89179523D01*
X105870286Y-89212318D01*
X105877587Y-89161828D01*
X105872417Y-89122040D01*
X105833162Y-89057655D01*
X105816355Y-89049895D01*
X105788738Y-89066272D01*
X105630542Y-89066272D01*
X105619148Y-89060786D01*
X105587960Y-89051833D01*
X105539050Y-89054043D01*
X104862707Y-89054043D01*
X104856600Y-89012540D01*
X104930853Y-89012540D01*
X104953411Y-89035098D01*
X104975969Y-89012540D01*
X104953411Y-88989982D01*
X104930853Y-89012540D01*
X104856600Y-89012540D01*
X104852749Y-88986366D01*
X104828327Y-88928226D01*
X104805082Y-88938699D01*
X104801219Y-88967552D01*
X104677248Y-88967552D01*
X104671206Y-88940627D01*
X104643362Y-88753126D01*
X104636815Y-88691437D01*
X104644180Y-88607805D01*
X104685555Y-88583943D01*
X104733433Y-88618223D01*
X104756535Y-88730568D01*
X104759527Y-88782662D01*
X104768334Y-88822062D01*
X104782231Y-88775684D01*
X104804209Y-88712421D01*
X104846423Y-88674174D01*
X104861718Y-88677955D01*
X104862489Y-88720407D01*
X104854297Y-88738166D01*
X104873445Y-88754244D01*
X104897136Y-88760901D01*
X104969691Y-88816687D01*
X105062770Y-88911982D01*
X105098864Y-88951369D01*
X105171690Y-89012540D01*
X105199972Y-89036296D01*
X105263450Y-89041459D01*
X105284093Y-89030861D01*
X105382739Y-89010736D01*
X105517354Y-89004449D01*
X105619827Y-89002585D01*
X105647425Y-88995647D01*
X106394593Y-88995647D01*
X106425900Y-89024252D01*
X106527127Y-89035098D01*
X106543314Y-89034865D01*
X106653028Y-89020280D01*
X106658786Y-89017367D01*
X107096395Y-89017367D01*
X107108899Y-89034174D01*
X107160610Y-89027898D01*
X107208864Y-88990499D01*
X107212983Y-88969615D01*
X107166411Y-88972768D01*
X107140815Y-88984317D01*
X107131784Y-88988392D01*
X107096395Y-89017367D01*
X106658786Y-89017367D01*
X106712914Y-88989982D01*
X106715426Y-88984317D01*
X106696937Y-88967424D01*
X107276857Y-88967424D01*
X107279048Y-88969615D01*
X107299415Y-88989982D01*
X107367088Y-88989982D01*
X107396488Y-89019979D01*
X107482539Y-89035098D01*
X107554135Y-89023436D01*
X107570107Y-88989982D01*
X107544294Y-88968327D01*
X109510072Y-88968327D01*
X109532725Y-88976404D01*
X109579839Y-88989982D01*
X109723251Y-89031312D01*
X109852253Y-89042127D01*
X109911592Y-89008047D01*
X109912351Y-89005992D01*
X109905282Y-88969236D01*
X109839844Y-88951520D01*
X109700396Y-88948428D01*
X109608829Y-88951284D01*
X109524374Y-88958743D01*
X109510072Y-88968327D01*
X107544294Y-88968327D01*
X107541023Y-88965583D01*
X107454656Y-88944867D01*
X107404755Y-88952963D01*
X107390041Y-88967424D01*
X107367088Y-88989982D01*
X107299415Y-88989982D01*
X107321972Y-88967424D01*
X107299415Y-88944867D01*
X107276857Y-88967424D01*
X106696937Y-88967424D01*
X106684119Y-88955712D01*
X106582892Y-88944867D01*
X106566706Y-88945100D01*
X106456991Y-88959684D01*
X106397105Y-88989982D01*
X106394593Y-88995647D01*
X105647425Y-88995647D01*
X105692986Y-88984193D01*
X105705335Y-88942645D01*
X105702373Y-88913973D01*
X105723742Y-88910639D01*
X105750164Y-88920658D01*
X105817732Y-88893836D01*
X105853209Y-88871102D01*
X105878278Y-88889400D01*
X105890757Y-88918794D01*
X105957230Y-88965270D01*
X105965184Y-88968258D01*
X106009569Y-88977438D01*
X106001475Y-88966860D01*
X106081419Y-88966860D01*
X106104995Y-88992061D01*
X106164009Y-88959905D01*
X106174460Y-88945191D01*
X106179419Y-88922309D01*
X108134050Y-88922309D01*
X108156608Y-88944867D01*
X108179166Y-88922309D01*
X108156608Y-88899751D01*
X108134050Y-88922309D01*
X106179419Y-88922309D01*
X106192876Y-88860220D01*
X106185080Y-88761369D01*
X106153178Y-88699332D01*
X106132906Y-88703376D01*
X106135945Y-88764583D01*
X106139686Y-88825494D01*
X106103656Y-88922549D01*
X106081419Y-88966860D01*
X106001475Y-88966860D01*
X105979788Y-88938517D01*
X105959167Y-88914421D01*
X105921648Y-88811228D01*
X105947006Y-88716994D01*
X106029325Y-88664443D01*
X106045270Y-88662103D01*
X106148576Y-88675250D01*
X106236628Y-88723598D01*
X106285256Y-88788432D01*
X106270288Y-88851035D01*
X106268011Y-88853343D01*
X106263330Y-88860220D01*
X106244642Y-88887678D01*
X106286911Y-88877194D01*
X106419663Y-88877194D01*
X106442221Y-88899751D01*
X106464779Y-88877194D01*
X107412203Y-88877194D01*
X107434761Y-88899751D01*
X107457319Y-88877194D01*
X107434761Y-88854636D01*
X107412203Y-88877194D01*
X106464779Y-88877194D01*
X106442221Y-88854636D01*
X106419663Y-88877194D01*
X106286911Y-88877194D01*
X106295596Y-88875040D01*
X106339539Y-88844967D01*
X106373779Y-88759257D01*
X106369866Y-88740940D01*
X106429302Y-88740940D01*
X106434702Y-88794482D01*
X106448272Y-88801540D01*
X106454752Y-88786963D01*
X106555010Y-88786963D01*
X106577567Y-88809520D01*
X106600125Y-88786963D01*
X106577567Y-88764405D01*
X106555010Y-88786963D01*
X106454752Y-88786963D01*
X106464779Y-88764405D01*
X106461704Y-88741847D01*
X106825702Y-88741847D01*
X106848260Y-88764405D01*
X106983606Y-88764405D01*
X106992866Y-88777906D01*
X107003901Y-88786963D01*
X107031384Y-88809520D01*
X107035887Y-88808347D01*
X107051280Y-88764405D01*
X107049444Y-88752039D01*
X107003502Y-88719289D01*
X106987183Y-88722832D01*
X106985547Y-88741847D01*
X106983606Y-88764405D01*
X106848260Y-88764405D01*
X106870818Y-88741847D01*
X106848260Y-88719289D01*
X106825702Y-88741847D01*
X106461704Y-88741847D01*
X106461523Y-88740521D01*
X106434702Y-88734328D01*
X106429302Y-88740940D01*
X106369866Y-88740940D01*
X106353905Y-88666220D01*
X106281942Y-88605747D01*
X106280548Y-88605302D01*
X106219477Y-88569590D01*
X106239064Y-88516435D01*
X106241328Y-88513588D01*
X106251975Y-88461608D01*
X106208650Y-88386379D01*
X106185363Y-88361303D01*
X107062341Y-88361303D01*
X107073837Y-88403481D01*
X107083106Y-88416836D01*
X107124278Y-88448597D01*
X107130449Y-88445659D01*
X107118953Y-88403481D01*
X107109684Y-88390126D01*
X107068512Y-88358366D01*
X107062341Y-88361303D01*
X106185363Y-88361303D01*
X106102520Y-88272094D01*
X105996014Y-88180985D01*
X105820307Y-88094283D01*
X105655253Y-88092934D01*
X105506961Y-88177904D01*
X105497876Y-88186142D01*
X105452716Y-88218133D01*
X105392129Y-88240574D01*
X105301155Y-88255129D01*
X105164837Y-88263465D01*
X104968214Y-88267245D01*
X104696327Y-88268135D01*
X104607416Y-88268081D01*
X104360509Y-88266635D01*
X104184962Y-88261970D01*
X104066222Y-88252424D01*
X103989733Y-88236338D01*
X103940940Y-88212052D01*
X103905287Y-88177904D01*
X103894253Y-88165622D01*
X103864291Y-88140976D01*
X103820381Y-88122256D01*
X103751626Y-88108719D01*
X103647128Y-88099628D01*
X103495992Y-88094241D01*
X103287319Y-88091819D01*
X103010212Y-88091620D01*
X102653775Y-88092907D01*
X102352281Y-88094969D01*
X102077860Y-88098297D01*
X101850468Y-88102597D01*
X101680906Y-88107613D01*
X101579974Y-88113090D01*
X101558473Y-88118772D01*
X101600433Y-88134430D01*
X101637516Y-88169933D01*
X101656892Y-88190702D01*
X101737308Y-88208098D01*
X101849096Y-88210446D01*
X101958173Y-88197741D01*
X102030455Y-88169980D01*
X102070741Y-88146148D01*
X102125855Y-88158247D01*
X102144223Y-88179909D01*
X102175931Y-88195723D01*
X102238405Y-88205179D01*
X102351459Y-88211085D01*
X102354193Y-88211162D01*
X102534907Y-88216252D01*
X102707147Y-88234509D01*
X102817734Y-88280317D01*
X102848520Y-88349525D01*
X102794977Y-88438266D01*
X102767970Y-88463417D01*
X102743638Y-88464798D01*
X102752521Y-88390070D01*
X102773946Y-88277992D01*
X100873127Y-88284342D01*
X100496347Y-88285887D01*
X100080510Y-88288621D01*
X99742148Y-88292402D01*
X99474048Y-88297479D01*
X99268998Y-88304099D01*
X99119786Y-88312511D01*
X99019200Y-88322963D01*
X98960028Y-88335701D01*
X98935058Y-88350975D01*
X98902182Y-88381596D01*
X98812644Y-88402174D01*
X98759470Y-88397153D01*
X98669198Y-88401312D01*
X98655789Y-88426039D01*
X98646071Y-88443961D01*
X98674381Y-88540857D01*
X98689374Y-88583335D01*
X98702525Y-88668178D01*
X98668081Y-88714175D01*
X98644170Y-88736153D01*
X98642076Y-88744038D01*
X98623587Y-88813655D01*
X98609735Y-88851661D01*
X98536880Y-88871504D01*
X98389669Y-88877194D01*
X98242269Y-88866224D01*
X98139234Y-88825210D01*
X98129519Y-88791789D01*
X98343997Y-88791789D01*
X98356501Y-88808597D01*
X98408212Y-88802321D01*
X98456466Y-88764922D01*
X98460585Y-88744038D01*
X98414013Y-88747191D01*
X98379386Y-88762814D01*
X98343997Y-88791789D01*
X98129519Y-88791789D01*
X98119074Y-88755854D01*
X98183840Y-88660315D01*
X98231309Y-88607126D01*
X98246910Y-88554747D01*
X98186093Y-88538828D01*
X98146629Y-88522080D01*
X98118420Y-88448597D01*
X98118271Y-88441635D01*
X98115100Y-88427874D01*
X98113397Y-88426039D01*
X98163535Y-88426039D01*
X98186093Y-88448597D01*
X98208651Y-88426039D01*
X98186093Y-88403481D01*
X98163535Y-88426039D01*
X98113397Y-88426039D01*
X98103822Y-88415720D01*
X98079304Y-88405072D01*
X98036414Y-88395830D01*
X97970018Y-88387896D01*
X97874984Y-88381170D01*
X97746179Y-88375551D01*
X97578470Y-88370940D01*
X97366725Y-88367238D01*
X97105811Y-88364345D01*
X96790595Y-88362161D01*
X96415944Y-88360586D01*
X95976727Y-88359521D01*
X95467809Y-88358866D01*
X94884058Y-88358522D01*
X94220342Y-88358388D01*
X93471528Y-88358366D01*
X92963363Y-88358592D01*
X92344263Y-88359500D01*
X91755879Y-88361056D01*
X91204162Y-88363212D01*
X90695064Y-88365920D01*
X90234537Y-88369130D01*
X89828532Y-88372795D01*
X89483000Y-88376866D01*
X89203893Y-88381295D01*
X88997163Y-88386032D01*
X88868760Y-88391030D01*
X88824637Y-88396240D01*
X88817245Y-88424154D01*
X88748743Y-88474584D01*
X88629400Y-88501313D01*
X88485069Y-88503043D01*
X88341602Y-88478479D01*
X88224851Y-88426323D01*
X88160091Y-88396373D01*
X88044545Y-88374145D01*
X87868842Y-88362032D01*
X87618071Y-88358366D01*
X87464723Y-88358091D01*
X87293551Y-88355087D01*
X87184401Y-88346004D01*
X87120210Y-88327504D01*
X87083912Y-88296250D01*
X87058441Y-88248904D01*
X87032649Y-88173572D01*
X87030801Y-88040349D01*
X87061874Y-87986163D01*
X87880383Y-87986163D01*
X87889531Y-88022859D01*
X87922327Y-88110231D01*
X87942792Y-88153809D01*
X87958789Y-88156643D01*
X87960658Y-88129288D01*
X98098026Y-88129288D01*
X98098800Y-88160654D01*
X98165700Y-88177904D01*
X98230748Y-88191282D01*
X98237451Y-88245577D01*
X98227448Y-88277451D01*
X98234526Y-88312100D01*
X98276324Y-88268135D01*
X98279972Y-88263551D01*
X98348800Y-88234780D01*
X98462111Y-88223019D01*
X98475470Y-88222919D01*
X98574753Y-88209256D01*
X98589350Y-88173403D01*
X98584566Y-88146062D01*
X98643082Y-88167592D01*
X98688511Y-88183942D01*
X98827835Y-88200453D01*
X98985866Y-88192069D01*
X99116382Y-88159573D01*
X99137393Y-88154049D01*
X99242331Y-88146039D01*
X99401679Y-88146555D01*
X99590094Y-88155801D01*
X99642480Y-88159377D01*
X99845383Y-88171618D01*
X100058366Y-88182423D01*
X100267117Y-88191345D01*
X100457320Y-88197934D01*
X100614664Y-88201742D01*
X100724833Y-88202323D01*
X100773515Y-88199226D01*
X100746395Y-88192005D01*
X100735147Y-88190388D01*
X100639168Y-88167018D01*
X100599770Y-88139362D01*
X100571390Y-88129363D01*
X100465768Y-88118580D01*
X100295251Y-88109569D01*
X100247631Y-88108024D01*
X101112287Y-88108024D01*
X101161057Y-88152170D01*
X101164018Y-88154503D01*
X101242483Y-88194053D01*
X101263287Y-88199226D01*
X101338908Y-88218030D01*
X101427036Y-88224408D01*
X101480610Y-88211162D01*
X101473372Y-88176266D01*
X101462934Y-88168020D01*
X101375498Y-88132192D01*
X101250050Y-88105416D01*
X101209765Y-88100033D01*
X101124416Y-88092803D01*
X101112287Y-88108024D01*
X100247631Y-88108024D01*
X100073827Y-88102385D01*
X99815483Y-88097086D01*
X99534205Y-88093728D01*
X99243980Y-88092367D01*
X98958796Y-88093058D01*
X98692640Y-88095860D01*
X98459497Y-88100827D01*
X98273356Y-88108017D01*
X98148203Y-88117485D01*
X98098026Y-88129288D01*
X87960658Y-88129288D01*
X87964272Y-88076394D01*
X87954047Y-87991170D01*
X87922327Y-87952327D01*
X87911500Y-87953336D01*
X87880383Y-87986163D01*
X87061874Y-87986163D01*
X87086085Y-87943944D01*
X87190061Y-87906326D01*
X87467213Y-87902742D01*
X87770536Y-87893102D01*
X87990975Y-87877689D01*
X88132683Y-87856182D01*
X88199811Y-87828259D01*
X88229908Y-87810479D01*
X88334994Y-87785808D01*
X88476154Y-87773839D01*
X88622110Y-87775052D01*
X88741585Y-87789931D01*
X88803300Y-87818957D01*
X88809960Y-87856473D01*
X88776294Y-87933657D01*
X88750732Y-87976305D01*
X88762969Y-88044051D01*
X88766493Y-88047134D01*
X88829424Y-88051792D01*
X88909088Y-88014725D01*
X88970990Y-87958111D01*
X88980633Y-87904124D01*
X88999352Y-87874712D01*
X89081388Y-87862787D01*
X89120341Y-87863755D01*
X89169787Y-87875752D01*
X89140664Y-87906121D01*
X89118363Y-87921692D01*
X89103745Y-87960074D01*
X89162391Y-88013974D01*
X89212526Y-88045452D01*
X89282678Y-88053358D01*
X89383040Y-88011200D01*
X89431652Y-87984175D01*
X89477825Y-87940021D01*
X89451544Y-87903346D01*
X89438532Y-87893567D01*
X89449314Y-87871707D01*
X89546484Y-87866348D01*
X89574625Y-87867268D01*
X89647168Y-87876707D01*
X89647994Y-87891975D01*
X89606471Y-87918773D01*
X89602919Y-87977612D01*
X89681370Y-88042312D01*
X89754858Y-88057046D01*
X89827815Y-88042558D01*
X106915933Y-88042558D01*
X106917769Y-88054923D01*
X106947889Y-88076394D01*
X106963711Y-88087673D01*
X106980029Y-88084131D01*
X106983606Y-88042558D01*
X106974347Y-88029056D01*
X106935828Y-87997442D01*
X106931326Y-87998615D01*
X106915933Y-88042558D01*
X89827815Y-88042558D01*
X89846658Y-88038816D01*
X89925564Y-87997682D01*
X89966386Y-87947206D01*
X89943936Y-87900950D01*
X89934812Y-87894090D01*
X89947217Y-87872221D01*
X90042754Y-87865958D01*
X90115314Y-87868829D01*
X90152465Y-87880135D01*
X90111433Y-87903297D01*
X90060963Y-87925617D01*
X90056559Y-87951736D01*
X90128419Y-87994999D01*
X90157587Y-88007337D01*
X90258054Y-88019426D01*
X90355693Y-88001004D01*
X90421412Y-87960669D01*
X90426117Y-87907019D01*
X90424125Y-87903059D01*
X90450926Y-87874499D01*
X90547640Y-87865658D01*
X90569059Y-87866432D01*
X90640757Y-87876194D01*
X90640534Y-87891975D01*
X90607155Y-87909083D01*
X90582850Y-87951627D01*
X90628674Y-87983243D01*
X90730764Y-87989022D01*
X90736416Y-87988443D01*
X90834722Y-87962563D01*
X90859142Y-87929769D01*
X91125525Y-87929769D01*
X91148082Y-87952327D01*
X91170640Y-87929769D01*
X91148082Y-87907211D01*
X91125525Y-87929769D01*
X90859142Y-87929769D01*
X90866553Y-87919816D01*
X90880058Y-87912213D01*
X90931325Y-87904749D01*
X91024336Y-87898104D01*
X91162821Y-87892246D01*
X91350509Y-87887144D01*
X91591131Y-87882768D01*
X91888416Y-87879087D01*
X92246093Y-87876069D01*
X92667893Y-87873684D01*
X93157544Y-87871900D01*
X93718777Y-87870687D01*
X94355322Y-87870013D01*
X95070907Y-87869848D01*
X95869263Y-87870161D01*
X96754119Y-87870921D01*
X97230345Y-87871378D01*
X98084290Y-87871929D01*
X98854410Y-87871988D01*
X99544928Y-87871487D01*
X100160064Y-87870358D01*
X100704039Y-87868534D01*
X101181076Y-87865948D01*
X101595394Y-87862534D01*
X101951216Y-87858222D01*
X102252763Y-87852948D01*
X102504256Y-87846642D01*
X102709917Y-87839239D01*
X102873966Y-87830670D01*
X103000625Y-87820869D01*
X103094115Y-87809768D01*
X103158658Y-87797301D01*
X103198475Y-87783399D01*
X103217787Y-87767996D01*
X103273674Y-87743756D01*
X103396155Y-87719241D01*
X103561646Y-87698197D01*
X103746573Y-87684352D01*
X103760131Y-87679818D01*
X103792224Y-87607941D01*
X103794874Y-87568845D01*
X103983429Y-87568845D01*
X104005986Y-87591403D01*
X104028544Y-87568845D01*
X104005986Y-87546288D01*
X103983429Y-87568845D01*
X103794874Y-87568845D01*
X103802967Y-87449437D01*
X103802967Y-87251211D01*
X104209006Y-87251211D01*
X104209006Y-87445281D01*
X104209033Y-87453071D01*
X104222720Y-87568845D01*
X104226388Y-87599873D01*
X104276440Y-87665227D01*
X104309554Y-87673246D01*
X104431505Y-87686285D01*
X104609785Y-87695129D01*
X104821928Y-87699194D01*
X105045468Y-87697899D01*
X105257940Y-87690661D01*
X105517354Y-87677131D01*
X105517341Y-87568845D01*
X105742931Y-87568845D01*
X105765489Y-87591403D01*
X105788047Y-87568845D01*
X105765489Y-87546288D01*
X105742931Y-87568845D01*
X105517341Y-87568845D01*
X105517328Y-87465084D01*
X105517302Y-87253037D01*
X104863154Y-87252124D01*
X104209006Y-87251211D01*
X103802967Y-87251211D01*
X103802967Y-87217239D01*
X103475880Y-87246407D01*
X103283151Y-87270529D01*
X103035029Y-87314082D01*
X102810427Y-87364981D01*
X102603154Y-87411057D01*
X102345753Y-87453731D01*
X102111137Y-87479564D01*
X102089264Y-87481107D01*
X101891271Y-87496390D01*
X101709566Y-87512449D01*
X101581031Y-87526048D01*
X101411848Y-87547354D01*
X101411848Y-86915204D01*
X101412002Y-86814397D01*
X101414493Y-86588654D01*
X101421107Y-86435570D01*
X101433228Y-86342224D01*
X101452238Y-86295694D01*
X101479521Y-86283055D01*
X101497721Y-86286265D01*
X101527767Y-86324543D01*
X101543241Y-86419425D01*
X101547885Y-86587584D01*
X101553787Y-86744401D01*
X101569814Y-86881870D01*
X101592310Y-86959787D01*
X101600195Y-86969033D01*
X101620553Y-86947495D01*
X101632559Y-86843214D01*
X101636734Y-86652595D01*
X101636830Y-86629553D01*
X101643161Y-86442496D01*
X101658685Y-86332347D01*
X101682541Y-86305613D01*
X101691137Y-86317926D01*
X101710722Y-86402508D01*
X101725322Y-86545888D01*
X101732274Y-86725593D01*
X101733310Y-86800110D01*
X101737661Y-86950103D01*
X101745424Y-87021170D01*
X101758212Y-87021626D01*
X101777634Y-86959787D01*
X101788524Y-86902598D01*
X101799895Y-86739161D01*
X101792652Y-86567619D01*
X101766927Y-86333356D01*
X101916474Y-86306016D01*
X101965800Y-86302055D01*
X102126759Y-86314087D01*
X102358924Y-86352218D01*
X102652523Y-86415000D01*
X102904355Y-86473358D01*
X103118037Y-86523842D01*
X103266365Y-86562572D01*
X103361178Y-86594751D01*
X103414314Y-86625583D01*
X103437611Y-86660271D01*
X103442908Y-86704019D01*
X103442043Y-86762029D01*
X103446305Y-86826053D01*
X103472458Y-86901517D01*
X103510461Y-86908044D01*
X103546290Y-86835719D01*
X103549101Y-86825423D01*
X103564169Y-86800524D01*
X103572156Y-86863104D01*
X103591889Y-86938565D01*
X103648753Y-86942056D01*
X103685842Y-86929691D01*
X103764998Y-86914671D01*
X103768824Y-86914124D01*
X103793861Y-86867094D01*
X103797192Y-86767396D01*
X103796986Y-86764943D01*
X103798471Y-86645897D01*
X103818955Y-86564377D01*
X103823821Y-86557967D01*
X103898270Y-86522979D01*
X104011345Y-86509809D01*
X104121316Y-86519662D01*
X104186448Y-86553748D01*
X104188065Y-86556052D01*
X104252695Y-86586365D01*
X104362580Y-86598863D01*
X104403013Y-86597064D01*
X104546562Y-86549374D01*
X104626821Y-86445370D01*
X104633526Y-86296508D01*
X104622600Y-86218500D01*
X104646661Y-86162643D01*
X104734694Y-86134998D01*
X104844853Y-86124961D01*
X104991067Y-86135297D01*
X105065012Y-86155546D01*
X105101843Y-86201893D01*
X105092468Y-86301698D01*
X105091137Y-86308907D01*
X105085115Y-86402637D01*
X105123668Y-86465064D01*
X105226171Y-86529148D01*
X105321202Y-86574408D01*
X105420458Y-86590789D01*
X105534012Y-86562024D01*
X105719724Y-86516317D01*
X105873636Y-86521834D01*
X105976286Y-86577129D01*
X106013624Y-86678782D01*
X106023411Y-86721517D01*
X106076915Y-86803946D01*
X106087257Y-86814088D01*
X106136192Y-86843231D01*
X106166828Y-86797864D01*
X106187145Y-86766100D01*
X106238883Y-86756570D01*
X106266503Y-86754801D01*
X106284317Y-86693801D01*
X106285528Y-86674634D01*
X106325606Y-86611306D01*
X106436311Y-86574437D01*
X106492439Y-86564481D01*
X106651655Y-86550675D01*
X106748858Y-86581729D01*
X106802149Y-86669150D01*
X106829627Y-86824440D01*
X106856110Y-87072575D01*
X106868659Y-86869556D01*
X106871469Y-86817824D01*
X106875438Y-86680266D01*
X106873177Y-86587584D01*
X106880844Y-86541852D01*
X106945582Y-86509337D01*
X107063459Y-86533450D01*
X107102043Y-86571778D01*
X107108732Y-86680075D01*
X107104051Y-86712519D01*
X107105447Y-86763636D01*
X107134737Y-86736792D01*
X107155394Y-86714035D01*
X107181115Y-86730478D01*
X107199980Y-86827023D01*
X107207967Y-86871813D01*
X107212682Y-86848950D01*
X107211093Y-86749153D01*
X107207817Y-86661609D01*
X107509522Y-86661609D01*
X107520292Y-86721991D01*
X107535693Y-86721292D01*
X107543988Y-86662777D01*
X107536763Y-86618431D01*
X107516731Y-86635519D01*
X107509522Y-86661609D01*
X107207817Y-86661609D01*
X107202368Y-86515962D01*
X107647095Y-86512369D01*
X107856350Y-86511742D01*
X108003912Y-86523235D01*
X108091801Y-86561464D01*
X108135696Y-86640937D01*
X108138212Y-86662777D01*
X108151276Y-86776165D01*
G37*
G36*
X112826058Y-90726927D02*
G01*
X112803500Y-90749485D01*
X112780942Y-90726927D01*
X112803500Y-90704369D01*
X112826058Y-90726927D01*
G37*
G36*
X112735827Y-90501350D02*
G01*
X112713269Y-90523908D01*
X112690711Y-90501350D01*
X112713269Y-90478792D01*
X112735827Y-90501350D01*
G37*
G36*
X112760991Y-90390591D02*
G01*
X112803500Y-90433677D01*
X112811903Y-90449650D01*
X112808825Y-90478792D01*
X112800893Y-90476762D01*
X112758384Y-90433677D01*
X112749981Y-90417703D01*
X112753059Y-90388561D01*
X112760991Y-90390591D01*
G37*
G36*
X112897258Y-89819808D02*
G01*
X112952501Y-89896030D01*
X112945089Y-90005080D01*
X112907855Y-90053948D01*
X112825823Y-90067062D01*
X112740572Y-90010798D01*
X112709622Y-89919520D01*
X112745520Y-89837567D01*
X112832300Y-89802060D01*
X112897258Y-89819808D01*
G37*
G36*
X111833518Y-90050195D02*
G01*
X111810960Y-90072753D01*
X111788402Y-90050195D01*
X111810960Y-90027638D01*
X111833518Y-90050195D01*
G37*
G36*
X112645596Y-90005080D02*
G01*
X112623038Y-90027638D01*
X112600480Y-90005080D01*
X112623038Y-89982522D01*
X112645596Y-90005080D01*
G37*
G36*
X112555365Y-90005080D02*
G01*
X112532807Y-90027638D01*
X112510249Y-90005080D01*
X112532807Y-89982522D01*
X112555365Y-90005080D01*
G37*
G36*
X112104210Y-90005080D02*
G01*
X112081653Y-90027638D01*
X112059095Y-90005080D01*
X112081653Y-89982522D01*
X112104210Y-90005080D01*
G37*
G36*
X111998941Y-89997561D02*
G01*
X112005999Y-90011131D01*
X111968864Y-90027638D01*
X111944980Y-90024382D01*
X111938787Y-89997561D01*
X111945399Y-89992161D01*
X111998941Y-89997561D01*
G37*
G36*
X111446624Y-89781415D02*
G01*
X111481562Y-89801977D01*
X111670905Y-89853630D01*
X111878279Y-89825925D01*
X111931359Y-89809815D01*
X111963848Y-89812456D01*
X111931375Y-89860544D01*
X111885527Y-89897104D01*
X111807661Y-89907340D01*
X111767434Y-89905700D01*
X111738053Y-89966416D01*
X111737261Y-89978335D01*
X111729399Y-90020469D01*
X111713017Y-89975550D01*
X111692270Y-89938157D01*
X111625124Y-89914087D01*
X111492673Y-89916198D01*
X111435976Y-89918795D01*
X111332449Y-89910967D01*
X111292132Y-89886671D01*
X111297784Y-89869944D01*
X111344354Y-89874126D01*
X111376566Y-89877501D01*
X111371681Y-89811200D01*
X111360403Y-89759757D01*
X111376105Y-89740657D01*
X111446624Y-89781415D01*
G37*
G36*
X111562825Y-90005080D02*
G01*
X111540267Y-90027638D01*
X111517709Y-90005080D01*
X111540267Y-89982522D01*
X111562825Y-90005080D01*
G37*
G36*
X111390822Y-89996819D02*
G01*
X111411705Y-90013058D01*
X111363565Y-90024076D01*
X111317806Y-90020886D01*
X111304351Y-90000380D01*
X111320312Y-89991440D01*
X111390822Y-89996819D01*
G37*
G36*
X113051635Y-89937407D02*
G01*
X113048379Y-89961291D01*
X113021558Y-89967484D01*
X113016158Y-89960871D01*
X113021558Y-89907330D01*
X113035128Y-89900272D01*
X113051635Y-89937407D01*
G37*
G36*
X111755343Y-89403018D02*
G01*
X111838119Y-89452583D01*
X111940010Y-89537955D01*
X111993734Y-89592620D01*
X112061260Y-89694744D01*
X112067919Y-89791103D01*
X112060879Y-89836133D01*
X112074426Y-89882367D01*
X112143108Y-89871707D01*
X112204178Y-89861823D01*
X112239557Y-89889968D01*
X112205189Y-89921029D01*
X112115489Y-89929391D01*
X112063073Y-89922518D01*
X112004957Y-89883766D01*
X111991422Y-89786840D01*
X111990749Y-89760083D01*
X111967793Y-89677932D01*
X111896703Y-89633593D01*
X111756550Y-89611435D01*
X111737152Y-89606526D01*
X111725376Y-89568964D01*
X111717902Y-89545290D01*
X111650194Y-89531368D01*
X111646485Y-89531380D01*
X111583250Y-89544201D01*
X111598580Y-89587762D01*
X111610459Y-89604639D01*
X111599724Y-89635534D01*
X111511600Y-89644156D01*
X111377818Y-89644156D01*
X111475319Y-89565204D01*
X111568946Y-89505378D01*
X111680352Y-89495374D01*
X111812547Y-89559114D01*
X111892530Y-89597813D01*
X111923748Y-89583113D01*
X111923733Y-89582324D01*
X111886647Y-89528218D01*
X111799681Y-89466942D01*
X111787192Y-89459990D01*
X111726846Y-89416551D01*
X111733227Y-89397828D01*
X111755343Y-89403018D01*
G37*
G36*
X112600480Y-89869733D02*
G01*
X112577923Y-89892291D01*
X112555365Y-89869733D01*
X112577923Y-89847176D01*
X112600480Y-89869733D01*
G37*
G36*
X111968864Y-89734387D02*
G01*
X111946306Y-89756945D01*
X111923748Y-89734387D01*
X111946306Y-89711829D01*
X111968864Y-89734387D01*
G37*
G36*
X113186290Y-89305790D02*
G01*
X113214455Y-89375218D01*
X113231406Y-89492261D01*
X113228347Y-89547724D01*
X113194336Y-89597923D01*
X113099903Y-89605657D01*
X113097701Y-89605564D01*
X113011507Y-89596122D01*
X112986723Y-89581241D01*
X112990233Y-89565434D01*
X112960169Y-89507321D01*
X112951635Y-89495862D01*
X112956419Y-89462340D01*
X113039512Y-89453306D01*
X113042368Y-89453332D01*
X113111678Y-89459905D01*
X113108029Y-89473984D01*
X113070422Y-89494313D01*
X113057526Y-89538883D01*
X113119308Y-89561445D01*
X113148076Y-89554775D01*
X113183521Y-89502037D01*
X113174426Y-89432110D01*
X113120496Y-89388050D01*
X113081619Y-89366709D01*
X113097938Y-89305790D01*
X113103908Y-89296735D01*
X113143901Y-89260802D01*
X113186290Y-89305790D01*
G37*
G36*
X112883967Y-89517136D02*
G01*
X112916288Y-89579146D01*
X112915567Y-89587418D01*
X112878692Y-89621599D01*
X112861993Y-89614720D01*
X112841096Y-89555910D01*
X112845737Y-89527259D01*
X112878692Y-89513457D01*
X112883967Y-89517136D01*
G37*
G36*
X112214592Y-89129224D02*
G01*
X112202930Y-89153957D01*
X112223461Y-89157834D01*
X112254749Y-89150826D01*
X112331942Y-89177677D01*
X112339471Y-89183051D01*
X112368990Y-89210533D01*
X112318509Y-89198673D01*
X112263001Y-89195824D01*
X112239557Y-89256567D01*
X112240539Y-89273003D01*
X112277764Y-89361728D01*
X112346970Y-89419840D01*
X112418042Y-89419800D01*
X112419201Y-89419092D01*
X112460154Y-89414032D01*
X112455930Y-89459308D01*
X112408740Y-89528963D01*
X112405347Y-89532630D01*
X112375408Y-89571253D01*
X112411901Y-89555927D01*
X112455909Y-89516639D01*
X112514684Y-89425241D01*
X112538738Y-89372223D01*
X112550677Y-89358629D01*
X112538276Y-89429964D01*
X112537964Y-89495674D01*
X112593397Y-89575217D01*
X112621156Y-89597777D01*
X112594189Y-89614673D01*
X112486302Y-89620227D01*
X112482974Y-89620251D01*
X112379015Y-89616905D01*
X112318116Y-89590719D01*
X112277538Y-89520421D01*
X112234538Y-89384742D01*
X112202678Y-89289230D01*
X112157026Y-89187413D01*
X112121678Y-89147886D01*
X112101100Y-89144207D01*
X112011343Y-89113595D01*
X111985521Y-89102771D01*
X112149326Y-89102771D01*
X112171883Y-89125329D01*
X112194441Y-89102771D01*
X112171883Y-89080213D01*
X112149326Y-89102771D01*
X111985521Y-89102771D01*
X111888450Y-89062082D01*
X111869355Y-89053293D01*
X111758600Y-88992743D01*
X111702986Y-88945480D01*
X111710378Y-88921764D01*
X111788642Y-88931857D01*
X111848947Y-88936391D01*
X111940467Y-88904597D01*
X111943378Y-88902236D01*
X112016554Y-88878622D01*
X112122252Y-88916160D01*
X112191448Y-88954779D01*
X112207518Y-88981691D01*
X112153053Y-89002080D01*
X112096882Y-89007925D01*
X112042084Y-88984065D01*
X112033614Y-88971447D01*
X112033114Y-89000133D01*
X112075106Y-89037081D01*
X112183528Y-89044040D01*
X112183616Y-89044032D01*
X112289580Y-89048219D01*
X112350582Y-89077360D01*
X112356824Y-89099728D01*
X112314136Y-89099178D01*
X112279899Y-89093860D01*
X112263443Y-89102771D01*
X112214592Y-89129224D01*
G37*
G36*
X112235995Y-89550166D02*
G01*
X112232805Y-89595925D01*
X112212299Y-89609380D01*
X112203359Y-89593418D01*
X112208738Y-89522908D01*
X112224977Y-89502026D01*
X112235995Y-89550166D01*
G37*
G36*
X99434122Y-89234769D02*
G01*
X99430254Y-89244838D01*
X99362117Y-89353568D01*
X99347796Y-89376421D01*
X99233318Y-89482144D01*
X99170400Y-89521108D01*
X99067662Y-89566499D01*
X98975973Y-89561434D01*
X98853861Y-89508829D01*
X98831882Y-89499098D01*
X98769155Y-89481077D01*
X98678803Y-89467745D01*
X98550396Y-89458725D01*
X98373507Y-89453643D01*
X98137705Y-89452124D01*
X97832564Y-89453793D01*
X97447652Y-89458276D01*
X97403994Y-89458840D01*
X97074855Y-89461564D01*
X96778674Y-89461390D01*
X96526900Y-89458516D01*
X96330986Y-89453143D01*
X96202381Y-89445471D01*
X96152537Y-89435698D01*
X96148623Y-89432585D01*
X96080451Y-89419508D01*
X95943464Y-89409390D01*
X95755327Y-89402237D01*
X95533708Y-89398051D01*
X95296272Y-89396835D01*
X95060686Y-89398591D01*
X94844616Y-89403324D01*
X94665728Y-89411036D01*
X94541689Y-89421730D01*
X94490165Y-89435410D01*
X94489632Y-89436179D01*
X94432742Y-89456586D01*
X94311883Y-89472753D01*
X94152404Y-89481241D01*
X94146749Y-89481356D01*
X93981780Y-89481740D01*
X93884858Y-89471015D01*
X93834552Y-89443764D01*
X93809434Y-89394572D01*
X93809215Y-89392824D01*
X98862825Y-89392824D01*
X99009450Y-89394423D01*
X99020606Y-89394422D01*
X99116647Y-89382028D01*
X99156075Y-89353568D01*
X99147405Y-89314077D01*
X99086842Y-89289401D01*
X98975047Y-89330708D01*
X98862825Y-89392824D01*
X93809215Y-89392824D01*
X93799588Y-89315868D01*
X97218948Y-89315868D01*
X97261226Y-89350906D01*
X97323859Y-89384136D01*
X97377655Y-89390759D01*
X97374015Y-89350906D01*
X97351416Y-89329470D01*
X97344216Y-89327441D01*
X97451327Y-89327441D01*
X97456727Y-89380983D01*
X97470296Y-89388041D01*
X97486804Y-89350906D01*
X97483605Y-89327441D01*
X97541558Y-89327441D01*
X97543924Y-89350906D01*
X97546957Y-89380983D01*
X97560527Y-89388041D01*
X97577034Y-89350906D01*
X97573779Y-89327022D01*
X97546957Y-89320829D01*
X97541558Y-89327441D01*
X97483605Y-89327441D01*
X97483548Y-89327022D01*
X97456727Y-89320829D01*
X97451327Y-89327441D01*
X97344216Y-89327441D01*
X97269843Y-89306481D01*
X97259583Y-89306634D01*
X97218948Y-89315868D01*
X93799588Y-89315868D01*
X93797209Y-89296856D01*
X93845320Y-89228660D01*
X93964681Y-89200296D01*
X94161632Y-89208415D01*
X94172695Y-89209523D01*
X94324900Y-89218710D01*
X94545817Y-89225209D01*
X94815985Y-89229085D01*
X95115943Y-89230406D01*
X95426231Y-89229235D01*
X95727389Y-89225638D01*
X95999956Y-89219682D01*
X96224471Y-89211430D01*
X96381475Y-89200949D01*
X96460211Y-89196009D01*
X96587079Y-89201198D01*
X96660319Y-89222560D01*
X96694026Y-89242529D01*
X96816224Y-89267896D01*
X96953702Y-89258630D01*
X97058182Y-89215580D01*
X97072449Y-89204378D01*
X97142986Y-89179715D01*
X97236536Y-89214418D01*
X97345822Y-89247898D01*
X97483133Y-89251590D01*
X97546327Y-89244940D01*
X97608415Y-89260997D01*
X97625321Y-89324883D01*
X97626460Y-89350906D01*
X97627336Y-89370934D01*
X97636642Y-89390759D01*
X97637136Y-89391812D01*
X97667265Y-89328348D01*
X97696371Y-89277805D01*
X97709901Y-89305790D01*
X97710609Y-89316850D01*
X97721767Y-89350712D01*
X97757496Y-89305790D01*
X97764811Y-89294588D01*
X97795360Y-89260874D01*
X97802612Y-89305790D01*
X97808418Y-89338856D01*
X97837139Y-89325022D01*
X97891625Y-89294514D01*
X97994352Y-89284218D01*
X98079922Y-89275827D01*
X98119111Y-89242429D01*
X98123411Y-89218844D01*
X98152947Y-89240608D01*
X98173889Y-89255334D01*
X98267168Y-89278426D01*
X98400391Y-89286977D01*
X98444491Y-89286160D01*
X98572061Y-89271761D01*
X98614378Y-89240363D01*
X98612253Y-89238117D01*
X98661187Y-89238117D01*
X98667350Y-89252665D01*
X98700150Y-89221733D01*
X98735648Y-89182825D01*
X98763571Y-89221733D01*
X98776565Y-89246063D01*
X98791590Y-89233095D01*
X98819374Y-89205295D01*
X98902885Y-89203551D01*
X98986005Y-89205462D01*
X99108788Y-89171606D01*
X99198056Y-89141997D01*
X99275186Y-89175691D01*
X99337308Y-89208515D01*
X99383622Y-89167543D01*
X99390913Y-89135353D01*
X99353096Y-89112966D01*
X99254169Y-89098915D01*
X99079572Y-89089462D01*
X99044498Y-89088231D01*
X98854885Y-89089607D01*
X98737535Y-89111586D01*
X98677839Y-89159359D01*
X98661187Y-89238117D01*
X98612253Y-89238117D01*
X98569574Y-89193002D01*
X98552555Y-89185461D01*
X98524459Y-89205200D01*
X98524457Y-89205593D01*
X98490438Y-89241822D01*
X98408321Y-89237196D01*
X98306493Y-89198386D01*
X98213337Y-89132066D01*
X98173439Y-89090506D01*
X98137616Y-89028562D01*
X98165791Y-88988588D01*
X98210882Y-88975042D01*
X98304395Y-88992933D01*
X98352222Y-89001355D01*
X98483992Y-89010226D01*
X98688137Y-89017740D01*
X98954994Y-89023691D01*
X99274898Y-89027870D01*
X99638187Y-89030071D01*
X100035196Y-89030085D01*
X100042805Y-89030064D01*
X100419815Y-89029763D01*
X100767800Y-89030877D01*
X101076559Y-89033268D01*
X101335891Y-89036798D01*
X101535596Y-89041329D01*
X101665473Y-89046722D01*
X101715322Y-89052840D01*
X101692349Y-89059021D01*
X101591596Y-89065873D01*
X101421920Y-89071710D01*
X101195021Y-89076240D01*
X100922598Y-89079171D01*
X100616352Y-89080213D01*
X99490010Y-89080213D01*
X99470071Y-89135353D01*
X99434122Y-89234769D01*
G37*
G36*
X102487548Y-89022062D02*
G01*
X102539734Y-89033436D01*
X102589895Y-89065372D01*
X102715598Y-89122897D01*
X102905076Y-89200417D01*
X103147181Y-89293382D01*
X103430764Y-89397239D01*
X103571771Y-89450026D01*
X103673795Y-89492545D01*
X103712736Y-89514855D01*
X103710926Y-89522164D01*
X103665713Y-89531197D01*
X103555561Y-89506507D01*
X103374895Y-89446546D01*
X103118138Y-89349766D01*
X103062146Y-89328043D01*
X102817162Y-89237900D01*
X102611703Y-89175173D01*
X102413332Y-89132600D01*
X102189616Y-89102921D01*
X101908118Y-89078874D01*
X101881156Y-89075004D01*
X101895330Y-89063904D01*
X101983057Y-89049446D01*
X102133695Y-89033760D01*
X102202765Y-89028297D01*
X102367832Y-89020355D01*
X102487548Y-89022062D01*
G37*
G36*
X112898039Y-89389051D02*
G01*
X112884112Y-89409092D01*
X112845953Y-89441137D01*
X112839646Y-89440698D01*
X112829710Y-89414582D01*
X112878144Y-89369155D01*
X112903356Y-89358178D01*
X112898039Y-89389051D01*
G37*
G36*
X112194441Y-89418579D02*
G01*
X112171883Y-89441137D01*
X112149326Y-89418579D01*
X112171883Y-89396021D01*
X112194441Y-89418579D01*
G37*
G36*
X113002958Y-89324588D02*
G01*
X112999768Y-89370347D01*
X112979262Y-89383802D01*
X112970322Y-89367841D01*
X112975700Y-89297331D01*
X112991939Y-89276449D01*
X113002958Y-89324588D01*
G37*
G36*
X111638017Y-89365944D02*
G01*
X111645075Y-89379514D01*
X111607940Y-89396021D01*
X111584056Y-89392765D01*
X111577863Y-89365944D01*
X111584476Y-89360545D01*
X111638017Y-89365944D01*
G37*
G36*
X111435192Y-89234774D02*
G01*
X111456335Y-89264205D01*
X111482407Y-89320854D01*
X111448455Y-89335867D01*
X111422682Y-89332214D01*
X111407186Y-89302124D01*
X111411180Y-89288320D01*
X111375877Y-89250994D01*
X111358271Y-89241331D01*
X111341759Y-89183643D01*
X111376251Y-89177583D01*
X111435192Y-89234774D01*
G37*
G36*
X112510249Y-89283233D02*
G01*
X112487692Y-89305790D01*
X112465134Y-89283233D01*
X112487692Y-89260675D01*
X112510249Y-89283233D01*
G37*
G36*
X112025258Y-89209805D02*
G01*
X112073380Y-89251097D01*
X112104210Y-89288757D01*
X112103470Y-89296673D01*
X112074075Y-89296978D01*
X112008225Y-89226838D01*
X111983022Y-89194149D01*
X111971819Y-89170787D01*
X112025258Y-89209805D01*
G37*
G36*
X98253766Y-89238117D02*
G01*
X98231208Y-89260675D01*
X98208651Y-89238117D01*
X98231208Y-89215559D01*
X98253766Y-89238117D01*
G37*
G36*
X113096750Y-89193002D02*
G01*
X113074193Y-89215559D01*
X113051635Y-89193002D01*
X113074193Y-89170444D01*
X113096750Y-89193002D01*
G37*
G36*
X112555365Y-89193002D02*
G01*
X112532807Y-89215559D01*
X112510249Y-89193002D01*
X112532807Y-89170444D01*
X112555365Y-89193002D01*
G37*
G36*
X112465134Y-89193002D02*
G01*
X112442576Y-89215559D01*
X112420018Y-89193002D01*
X112442576Y-89170444D01*
X112465134Y-89193002D01*
G37*
G36*
X113033385Y-89118358D02*
G01*
X113019458Y-89138399D01*
X112981299Y-89170444D01*
X112974992Y-89170005D01*
X112965057Y-89143889D01*
X113013490Y-89098463D01*
X113038703Y-89087486D01*
X113033385Y-89118358D01*
G37*
G36*
X111923748Y-89147886D02*
G01*
X111901191Y-89170444D01*
X111878633Y-89147886D01*
X111901191Y-89125329D01*
X111923748Y-89147886D01*
G37*
G36*
X103787928Y-89140367D02*
G01*
X103794987Y-89153937D01*
X103757851Y-89170444D01*
X103733967Y-89167188D01*
X103727775Y-89140367D01*
X103734387Y-89134968D01*
X103787928Y-89140367D01*
G37*
G36*
X111833518Y-89102771D02*
G01*
X111810960Y-89125329D01*
X111788402Y-89102771D01*
X111810960Y-89080213D01*
X111833518Y-89102771D01*
G37*
G36*
X103955769Y-89071958D02*
G01*
X103959018Y-89090381D01*
X103913771Y-89110290D01*
X103897101Y-89110022D01*
X103850681Y-89096615D01*
X103890080Y-89059582D01*
X103903457Y-89053658D01*
X103955769Y-89071958D01*
G37*
G36*
X111743287Y-89057655D02*
G01*
X111720729Y-89080213D01*
X111698171Y-89057655D01*
X111720729Y-89035098D01*
X111743287Y-89057655D01*
G37*
G36*
X103829833Y-89028127D02*
G01*
X103823839Y-89037311D01*
X103779262Y-89078861D01*
X103757851Y-89060318D01*
X103761884Y-89050170D01*
X103809938Y-89008232D01*
X103835150Y-88997255D01*
X103829833Y-89028127D01*
G37*
G36*
X111653056Y-88989982D02*
G01*
X111649800Y-89013866D01*
X111622979Y-89020059D01*
X111617579Y-89013447D01*
X111622979Y-88959905D01*
X111636549Y-88952847D01*
X111653056Y-88989982D01*
G37*
G36*
X105338019Y-88627787D02*
G01*
X105321508Y-88696732D01*
X105312347Y-88734984D01*
X105311039Y-88777742D01*
X105327339Y-88785819D01*
X105379496Y-88722619D01*
X105426033Y-88663425D01*
X105449317Y-88655403D01*
X105452903Y-88717411D01*
X105452849Y-88722666D01*
X105432585Y-88787083D01*
X105362697Y-88814640D01*
X105224104Y-88813333D01*
X105172767Y-88810804D01*
X105161123Y-88824742D01*
X105221448Y-88875811D01*
X105265732Y-88922309D01*
X105266315Y-88922921D01*
X105252622Y-88944867D01*
X105229458Y-88951652D01*
X105225949Y-89001261D01*
X105223206Y-89007985D01*
X105177150Y-88965798D01*
X105136809Y-88922309D01*
X105156431Y-88922309D01*
X105178988Y-88944867D01*
X105201546Y-88922309D01*
X105178988Y-88899751D01*
X105156431Y-88922309D01*
X105136809Y-88922309D01*
X105094959Y-88877194D01*
X105033087Y-88805257D01*
X104961240Y-88712995D01*
X104932547Y-88662895D01*
X104921390Y-88645851D01*
X104855661Y-88629059D01*
X104815387Y-88615742D01*
X104820406Y-88600363D01*
X104972376Y-88600363D01*
X104972592Y-88613725D01*
X104991581Y-88686581D01*
X105007956Y-88717720D01*
X105014178Y-88696732D01*
X105201546Y-88696732D01*
X105224104Y-88719289D01*
X105246661Y-88696732D01*
X105224104Y-88674174D01*
X105201546Y-88696732D01*
X105014178Y-88696732D01*
X105017522Y-88685453D01*
X105059298Y-88645380D01*
X105159093Y-88629059D01*
X105166455Y-88629010D01*
X105252462Y-88618508D01*
X105276185Y-88595214D01*
X105269099Y-88588256D01*
X105202114Y-88570023D01*
X105103433Y-88566419D01*
X105013404Y-88576761D01*
X104972376Y-88600363D01*
X104820406Y-88600363D01*
X104826563Y-88581499D01*
X104889497Y-88555746D01*
X104894590Y-88554996D01*
X104942132Y-88540995D01*
X104948572Y-88537322D01*
X105020117Y-88525752D01*
X105126338Y-88524962D01*
X105225693Y-88533730D01*
X105276640Y-88550834D01*
X105288362Y-88561643D01*
X105346980Y-88555151D01*
X105371886Y-88546145D01*
X105357278Y-88587458D01*
X105353574Y-88595214D01*
X105338019Y-88627787D01*
G37*
G36*
X112329788Y-88967424D02*
G01*
X112307230Y-88989982D01*
X112284672Y-88967424D01*
X112307230Y-88944867D01*
X112329788Y-88967424D01*
G37*
G36*
X105382008Y-88944867D02*
G01*
X105378752Y-88968751D01*
X105351931Y-88974944D01*
X105346531Y-88968331D01*
X105351931Y-88914790D01*
X105365501Y-88907732D01*
X105382008Y-88944867D01*
G37*
G36*
X104713552Y-88497657D02*
G01*
X104736350Y-88508976D01*
X104676602Y-88538324D01*
X104657892Y-88546493D01*
X104609703Y-88586235D01*
X104593233Y-88659857D01*
X104600299Y-88794878D01*
X104602046Y-88814297D01*
X104608336Y-88927722D01*
X104598361Y-88963682D01*
X104569806Y-88932639D01*
X104531090Y-88890063D01*
X104476926Y-88878907D01*
X104463144Y-88884691D01*
X104437295Y-88861671D01*
X104442509Y-88800957D01*
X104478408Y-88738627D01*
X104503644Y-88701884D01*
X104535855Y-88605536D01*
X104547734Y-88552812D01*
X104592430Y-88504484D01*
X104693997Y-88496572D01*
X104713552Y-88497657D01*
G37*
G36*
X110879258Y-88837702D02*
G01*
X110865390Y-88896750D01*
X110844172Y-88926480D01*
X110813865Y-88938818D01*
X110825409Y-88875248D01*
X110842352Y-88842354D01*
X110873626Y-88827131D01*
X110879258Y-88837702D01*
G37*
G36*
X112239115Y-88645266D02*
G01*
X112307009Y-88704853D01*
X112323736Y-88789056D01*
X112277832Y-88859818D01*
X112246494Y-88878390D01*
X112174479Y-88893367D01*
X112108956Y-88837796D01*
X112098718Y-88823976D01*
X112077991Y-88732796D01*
X112121148Y-88659568D01*
X112211001Y-88637952D01*
X112239115Y-88645266D01*
G37*
G36*
X101613512Y-88718164D02*
G01*
X101656698Y-88772576D01*
X101632457Y-88838064D01*
X101598476Y-88872502D01*
X101525727Y-88894081D01*
X101472115Y-88829046D01*
X101467690Y-88815856D01*
X101474404Y-88730920D01*
X101532614Y-88690826D01*
X101613512Y-88718164D01*
G37*
G36*
X112495211Y-88824559D02*
G01*
X112502269Y-88838129D01*
X112465134Y-88854636D01*
X112441250Y-88851380D01*
X112435057Y-88824559D01*
X112441669Y-88819159D01*
X112495211Y-88824559D01*
G37*
G36*
X109004298Y-88769310D02*
G01*
X109018449Y-88802001D01*
X109002414Y-88817778D01*
X108927540Y-88839597D01*
X108897253Y-88834692D01*
X108883103Y-88802001D01*
X108899138Y-88786224D01*
X108974011Y-88764405D01*
X109004298Y-88769310D01*
G37*
G36*
X105562470Y-88832078D02*
G01*
X105539912Y-88854636D01*
X105517354Y-88832078D01*
X105539912Y-88809520D01*
X105562470Y-88832078D01*
G37*
G36*
X99477552Y-88661796D02*
G01*
X99498729Y-88694831D01*
X99501848Y-88783930D01*
X99463150Y-88833304D01*
X99381913Y-88851749D01*
X99311304Y-88805191D01*
X99304238Y-88754349D01*
X99345136Y-88687692D01*
X99413685Y-88647545D01*
X99477552Y-88661796D01*
G37*
G36*
X98991126Y-88510521D02*
G01*
X99017350Y-88571541D01*
X99019132Y-88672432D01*
X98993344Y-88783273D01*
X98944809Y-88831201D01*
X98832778Y-88854636D01*
X98744136Y-88841985D01*
X98728613Y-88807685D01*
X98762831Y-88785605D01*
X98847503Y-88789259D01*
X98898412Y-88799367D01*
X98925787Y-88769301D01*
X98922659Y-88671499D01*
X98926830Y-88562438D01*
X98964335Y-88505703D01*
X98991126Y-88510521D01*
G37*
G36*
X105878278Y-88719289D02*
G01*
X105875022Y-88743173D01*
X105848201Y-88749366D01*
X105842801Y-88742754D01*
X105848201Y-88689212D01*
X105861771Y-88682154D01*
X105878278Y-88719289D01*
G37*
G36*
X105652700Y-88741847D02*
G01*
X105630143Y-88764405D01*
X105607585Y-88741847D01*
X105630143Y-88719289D01*
X105652700Y-88741847D01*
G37*
G36*
X104434583Y-88696732D02*
G01*
X104412026Y-88719289D01*
X104389468Y-88696732D01*
X104412026Y-88674174D01*
X104434583Y-88696732D01*
G37*
G36*
X99832807Y-88516270D02*
G01*
X99810249Y-88538828D01*
X99787692Y-88516270D01*
X99810249Y-88493712D01*
X99832807Y-88516270D01*
G37*
G36*
X105156431Y-88403481D02*
G01*
X105153175Y-88427365D01*
X105126354Y-88433558D01*
X105120954Y-88426946D01*
X105126354Y-88373404D01*
X105139923Y-88366346D01*
X105156431Y-88403481D01*
G37*
G36*
X107261818Y-87832019D02*
G01*
X107268876Y-87845589D01*
X107231741Y-87862096D01*
X107207857Y-87858840D01*
X107201664Y-87832019D01*
X107208277Y-87826619D01*
X107261818Y-87832019D01*
G37*
G36*
X108494974Y-90997620D02*
G01*
X108472416Y-91020178D01*
X108449859Y-90997620D01*
X108472416Y-90975062D01*
X108494974Y-90997620D01*
G37*
G36*
X108088935Y-90907389D02*
G01*
X108066377Y-90929947D01*
X108043820Y-90907389D01*
X108066377Y-90884831D01*
X108088935Y-90907389D01*
G37*
G36*
X109622860Y-90140426D02*
G01*
X109600303Y-90162984D01*
X109577745Y-90140426D01*
X109600303Y-90117868D01*
X109622860Y-90140426D01*
G37*
G36*
X104389468Y-89147886D02*
G01*
X104366910Y-89170444D01*
X104344352Y-89147886D01*
X104366910Y-89125329D01*
X104389468Y-89147886D01*
G37*
%TD*%
M02*
