%TF.GenerationSoftware,KiCad,Pcbnew,9.0.2*%
%TF.CreationDate,2025-06-28T18:10:06-07:00*%
%TF.ProjectId,pcb,7063622e-6b69-4636-9164-5f7063625858,rev?*%
%TF.SameCoordinates,Original*%
%TF.FileFunction,Soldermask,Top*%
%TF.FilePolarity,Negative*%
%FSLAX46Y46*%
G04 Gerber Fmt 4.6, Leading zero omitted, Abs format (unit mm)*
G04 Created by KiCad (PCBNEW 9.0.2) date 2025-06-28 18:10:06*
%MOMM*%
%LPD*%
G01*
G04 APERTURE LIST*
G04 Aperture macros list*
%AMRoundRect*
0 Rectangle with rounded corners*
0 $1 Rounding radius*
0 $2 $3 $4 $5 $6 $7 $8 $9 X,Y pos of 4 corners*
0 Add a 4 corners polygon primitive as box body*
4,1,4,$2,$3,$4,$5,$6,$7,$8,$9,$2,$3,0*
0 Add four circle primitives for the rounded corners*
1,1,$1+$1,$2,$3*
1,1,$1+$1,$4,$5*
1,1,$1+$1,$6,$7*
1,1,$1+$1,$8,$9*
0 Add four rect primitives between the rounded corners*
20,1,$1+$1,$2,$3,$4,$5,0*
20,1,$1+$1,$4,$5,$6,$7,0*
20,1,$1+$1,$6,$7,$8,$9,0*
20,1,$1+$1,$8,$9,$2,$3,0*%
G04 Aperture macros list end*
%ADD10C,2.200000*%
%ADD11C,1.700000*%
%ADD12C,4.000000*%
%ADD13RoundRect,0.152400X1.063600X0.609600X-1.063600X0.609600X-1.063600X-0.609600X1.063600X-0.609600X0*%
%ADD14C,1.524000*%
%ADD15RoundRect,0.152400X-1.063600X-0.609600X1.063600X-0.609600X1.063600X0.609600X-1.063600X0.609600X0*%
%ADD16O,3.200000X2.000000*%
%ADD17R,2.000000X2.000000*%
%ADD18C,2.000000*%
%ADD19C,1.400000*%
%ADD20RoundRect,0.102000X-0.907500X-0.907500X0.907500X-0.907500X0.907500X0.907500X-0.907500X0.907500X0*%
%ADD21C,2.019000*%
G04 APERTURE END LIST*
D10*
%TO.C,SW3*%
X110540000Y-92710000D03*
X116890000Y-90170000D03*
D11*
X119430000Y-95250000D03*
D12*
X114350000Y-95250000D03*
D11*
X109270000Y-95250000D03*
%TD*%
D13*
%TO.C,U1*%
X66415000Y-65980000D03*
D14*
X67250000Y-65980000D03*
D13*
X66415000Y-68520000D03*
D14*
X67250000Y-68520000D03*
D13*
X66415000Y-71060000D03*
D14*
X67250000Y-71060000D03*
D13*
X66415000Y-73600000D03*
D14*
X67250000Y-73600000D03*
D13*
X66415000Y-76140000D03*
D14*
X67250000Y-76140000D03*
D13*
X66415000Y-78680000D03*
D14*
X67250000Y-78680000D03*
D13*
X66415000Y-81220000D03*
D14*
X67250000Y-81220000D03*
X82490000Y-81220000D03*
D15*
X83325000Y-81220000D03*
D14*
X82490000Y-78680000D03*
D15*
X83325000Y-78680000D03*
D14*
X82490000Y-76140000D03*
D15*
X83325000Y-76140000D03*
D14*
X82490000Y-73600000D03*
D15*
X83325000Y-73600000D03*
D14*
X82490000Y-71060000D03*
D15*
X83325000Y-71060000D03*
D14*
X82490000Y-68520000D03*
D15*
X83325000Y-68520000D03*
D14*
X82490000Y-65980000D03*
D15*
X83325000Y-65980000D03*
%TD*%
D16*
%TO.C,SW5*%
X142570000Y-78650000D03*
X142570000Y-67450000D03*
D17*
X135070000Y-70550000D03*
D18*
X135070000Y-75550000D03*
X135070000Y-73050000D03*
X149570000Y-75550000D03*
X149570000Y-70550000D03*
%TD*%
D11*
%TO.C,SW4*%
X128270000Y-95250000D03*
D12*
X133350000Y-95250000D03*
D11*
X138430000Y-95250000D03*
D10*
X135890000Y-90170000D03*
X129540000Y-92710000D03*
%TD*%
D11*
%TO.C,SW2*%
X90180000Y-95240000D03*
D12*
X95260000Y-95240000D03*
D11*
X100340000Y-95240000D03*
D10*
X97800000Y-90160000D03*
X91450000Y-92700000D03*
%TD*%
D11*
%TO.C,SW1*%
X71120000Y-95250000D03*
D12*
X76200000Y-95250000D03*
D11*
X81280000Y-95250000D03*
D10*
X78740000Y-90170000D03*
X72390000Y-92710000D03*
%TD*%
D19*
%TO.C,R4*%
X121830000Y-78040000D03*
X121830000Y-70420000D03*
%TD*%
%TO.C,R3*%
X110990000Y-78130000D03*
X110990000Y-70510000D03*
%TD*%
%TO.C,R2*%
X100600000Y-78130000D03*
X100600000Y-70510000D03*
%TD*%
%TO.C,R1*%
X88380000Y-78170000D03*
X88380000Y-70550000D03*
%TD*%
D20*
%TO.C,D4*%
X126360000Y-73910000D03*
D21*
X128900000Y-73910000D03*
%TD*%
D20*
%TO.C,D3*%
X115060000Y-73810000D03*
D21*
X117600000Y-73810000D03*
%TD*%
D20*
%TO.C,D2*%
X104310000Y-74090000D03*
D21*
X106850000Y-74090000D03*
%TD*%
D20*
%TO.C,D1*%
X92920000Y-73810000D03*
D21*
X95460000Y-73810000D03*
%TD*%
M02*
