%TF.GenerationSoftware,KiCad,Pcbnew,9.0.2*%
%TF.CreationDate,2025-06-28T18:10:06-07:00*%
%TF.ProjectId,pcb,7063622e-6b69-4636-9164-5f7063625858,rev?*%
%TF.SameCoordinates,Original*%
%TF.FileFunction,Copper,L2,Bot*%
%TF.FilePolarity,Positive*%
%FSLAX46Y46*%
G04 Gerber Fmt 4.6, Leading zero omitted, Abs format (unit mm)*
G04 Created by KiCad (PCBNEW 9.0.2) date 2025-06-28 18:10:06*
%MOMM*%
%LPD*%
G01*
G04 APERTURE LIST*
%TA.AperFunction,ComponentPad*%
%ADD10C,2.200000*%
%TD*%
%TA.AperFunction,ComponentPad*%
%ADD11C,1.524000*%
%TD*%
%TA.AperFunction,WasherPad*%
%ADD12O,3.200000X2.000000*%
%TD*%
%TA.AperFunction,ComponentPad*%
%ADD13R,2.000000X2.000000*%
%TD*%
%TA.AperFunction,ComponentPad*%
%ADD14C,2.000000*%
%TD*%
%TA.AperFunction,ComponentPad*%
%ADD15C,1.400000*%
%TD*%
%TA.AperFunction,ComponentPad*%
%ADD16R,1.815000X1.815000*%
%TD*%
%TA.AperFunction,ComponentPad*%
%ADD17C,1.815000*%
%TD*%
%TA.AperFunction,ViaPad*%
%ADD18C,0.600000*%
%TD*%
%TA.AperFunction,Conductor*%
%ADD19C,0.200000*%
%TD*%
G04 APERTURE END LIST*
D10*
%TO.P,SW3,2,2*%
%TO.N,Net-(U1-GPIO28{slash}ADC2{slash}A2)*%
X110540000Y-92710000D03*
%TO.P,SW3,1,1*%
%TO.N,GND*%
X116890000Y-90170000D03*
%TD*%
D11*
%TO.P,U1,1,GPIO26/ADC0/A0*%
%TO.N,Net-(U1-GPIO26{slash}ADC0{slash}A0)*%
X67250000Y-65980000D03*
%TO.P,U1,2,GPIO27/ADC1/A1*%
%TO.N,Net-(U1-GPIO27{slash}ADC1{slash}A1)*%
X67250000Y-68520000D03*
%TO.P,U1,3,GPIO28/ADC2/A2*%
%TO.N,Net-(U1-GPIO28{slash}ADC2{slash}A2)*%
X67250000Y-71060000D03*
%TO.P,U1,4,GPIO29/ADC3/A3*%
%TO.N,Net-(U1-GPIO29{slash}ADC3{slash}A3)*%
X67250000Y-73600000D03*
%TO.P,U1,5,GPIO6/SDA*%
%TO.N,Net-(U1-GPIO6{slash}SDA)*%
X67250000Y-76140000D03*
%TO.P,U1,6,GPIO7/SCL*%
%TO.N,Net-(U1-GPIO7{slash}SCL)*%
X67250000Y-78680000D03*
%TO.P,U1,7,GPIO0/TX*%
%TO.N,Net-(U1-GPIO0{slash}TX)*%
X67250000Y-81220000D03*
%TO.P,U1,8,GPIO1/RX*%
%TO.N,Net-(U1-GPIO1{slash}RX)*%
X82490000Y-81220000D03*
%TO.P,U1,9,GPIO2/SCK*%
%TO.N,Net-(U1-GPIO2{slash}SCK)*%
X82490000Y-78680000D03*
%TO.P,U1,10,GPIO4/MISO*%
%TO.N,Net-(U1-GPIO4{slash}MISO)*%
X82490000Y-76140000D03*
%TO.P,U1,11,GPIO3/MOSI*%
%TO.N,Net-(U1-GPIO3{slash}MOSI)*%
X82490000Y-73600000D03*
%TO.P,U1,12,3V3*%
%TO.N,unconnected-(U1-3V3-Pad12)_1*%
X82490000Y-71060000D03*
%TO.P,U1,13,GND*%
%TO.N,GND*%
X82490000Y-68520000D03*
%TO.P,U1,14,VBUS*%
%TO.N,unconnected-(U1-VBUS-Pad14)*%
X82490000Y-65980000D03*
%TD*%
D12*
%TO.P,SW5,*%
%TO.N,*%
X142570000Y-78650000D03*
X142570000Y-67450000D03*
D13*
%TO.P,SW5,A,A*%
%TO.N,Net-(U1-GPIO2{slash}SCK)*%
X135070000Y-70550000D03*
D14*
%TO.P,SW5,B,B*%
%TO.N,Net-(U1-GPIO4{slash}MISO)*%
X135070000Y-75550000D03*
%TO.P,SW5,C,C*%
%TO.N,GND*%
X135070000Y-73050000D03*
%TO.P,SW5,S1,S1*%
%TO.N,Net-(U1-GPIO3{slash}MOSI)*%
X149570000Y-75550000D03*
%TO.P,SW5,S2,S2*%
%TO.N,GND*%
X149570000Y-70550000D03*
%TD*%
D10*
%TO.P,SW4,1,1*%
%TO.N,GND*%
X135890000Y-90170000D03*
%TO.P,SW4,2,2*%
%TO.N,Net-(U1-GPIO29{slash}ADC3{slash}A3)*%
X129540000Y-92710000D03*
%TD*%
%TO.P,SW2,1,1*%
%TO.N,GND*%
X97800000Y-90160000D03*
%TO.P,SW2,2,2*%
%TO.N,Net-(U1-GPIO27{slash}ADC1{slash}A1)*%
X91450000Y-92700000D03*
%TD*%
%TO.P,SW1,1,1*%
%TO.N,GND*%
X78740000Y-90170000D03*
%TO.P,SW1,2,2*%
%TO.N,Net-(U1-GPIO26{slash}ADC0{slash}A0)*%
X72390000Y-92710000D03*
%TD*%
D15*
%TO.P,R4,1*%
%TO.N,Net-(U1-GPIO1{slash}RX)*%
X121830000Y-78040000D03*
%TO.P,R4,2*%
%TO.N,Net-(D4-PadA)*%
X121830000Y-70420000D03*
%TD*%
%TO.P,R3,1*%
%TO.N,Net-(U1-GPIO6{slash}SDA)*%
X110990000Y-78130000D03*
%TO.P,R3,2*%
%TO.N,Net-(D3-PadA)*%
X110990000Y-70510000D03*
%TD*%
%TO.P,R2,1*%
%TO.N,Net-(U1-GPIO7{slash}SCL)*%
X100600000Y-78130000D03*
%TO.P,R2,2*%
%TO.N,Net-(D2-PadA)*%
X100600000Y-70510000D03*
%TD*%
%TO.P,R1,1*%
%TO.N,Net-(U1-GPIO0{slash}TX)*%
X88380000Y-78170000D03*
%TO.P,R1,2*%
%TO.N,Net-(D1-PadA)*%
X88380000Y-70550000D03*
%TD*%
D16*
%TO.P,D4,C*%
%TO.N,GND*%
X126360000Y-73910000D03*
D17*
%TO.P,D4,A*%
%TO.N,Net-(D4-PadA)*%
X128900000Y-73910000D03*
%TD*%
D16*
%TO.P,D3,C*%
%TO.N,GND*%
X115060000Y-73810000D03*
D17*
%TO.P,D3,A*%
%TO.N,Net-(D3-PadA)*%
X117600000Y-73810000D03*
%TD*%
D16*
%TO.P,D2,C*%
%TO.N,GND*%
X104310000Y-74090000D03*
D17*
%TO.P,D2,A*%
%TO.N,Net-(D2-PadA)*%
X106850000Y-74090000D03*
%TD*%
D16*
%TO.P,D1,C*%
%TO.N,GND*%
X92920000Y-73810000D03*
D17*
%TO.P,D1,A*%
%TO.N,Net-(D1-PadA)*%
X95460000Y-73810000D03*
%TD*%
D18*
%TO.N,Net-(U1-GPIO1{slash}RX)*%
X120590000Y-86260000D03*
%TO.N,Net-(U1-GPIO0{slash}TX)*%
X78000000Y-76920000D03*
%TO.N,Net-(U1-GPIO29{slash}ADC3{slash}A3)*%
X74350000Y-79280000D03*
X80310000Y-83820000D03*
%TO.N,Net-(U1-GPIO28{slash}ADC2{slash}A2)*%
X74420000Y-74530000D03*
%TO.N,Net-(U1-GPIO27{slash}ADC1{slash}A1)*%
X73820000Y-73460000D03*
%TD*%
D19*
%TO.N,Net-(U1-GPIO1{slash}RX)*%
X119800000Y-87050000D02*
X120590000Y-86260000D01*
X82690057Y-87050000D02*
X119310000Y-87050000D01*
X79709000Y-84068943D02*
X82690057Y-87050000D01*
X81412370Y-81220000D02*
X79709000Y-82923370D01*
X119310000Y-87050000D02*
X119800000Y-87050000D01*
X82490000Y-81220000D02*
X81412370Y-81220000D01*
X79709000Y-82923370D02*
X79709000Y-84068943D01*
%TO.N,Net-(U1-GPIO4{slash}MISO)*%
X134480000Y-76140000D02*
X135070000Y-75550000D01*
X82490000Y-76140000D02*
X134480000Y-76140000D01*
%TO.N,Net-(U1-GPIO2{slash}SCK)*%
X136371000Y-71851000D02*
X135070000Y-70550000D01*
X135608892Y-76851000D02*
X136371000Y-76088892D01*
X84319000Y-76851000D02*
X135608892Y-76851000D01*
X82490000Y-78680000D02*
X84319000Y-76851000D01*
X136371000Y-76088892D02*
X136371000Y-71851000D01*
%TO.N,Net-(U1-GPIO6{slash}SDA)*%
X111901000Y-79041000D02*
X110990000Y-78130000D01*
X127876514Y-79041000D02*
X111901000Y-79041000D01*
X139631000Y-90795486D02*
X127876514Y-79041000D01*
X139631000Y-95747470D02*
X139631000Y-90795486D01*
X137376470Y-98002000D02*
X139631000Y-95747470D01*
X82333530Y-98002000D02*
X137376470Y-98002000D01*
X76303530Y-91972000D02*
X82333530Y-98002000D01*
X75931590Y-91972000D02*
X76303530Y-91972000D01*
X65786000Y-81826410D02*
X75931590Y-91972000D01*
X65786000Y-77604000D02*
X65786000Y-81826410D01*
X67250000Y-76140000D02*
X65786000Y-77604000D01*
%TO.N,Net-(U1-GPIO7{slash}SCL)*%
X107229000Y-84759000D02*
X100600000Y-78130000D01*
X133027414Y-84759000D02*
X107229000Y-84759000D01*
X137692000Y-89423586D02*
X133027414Y-84759000D01*
X137692000Y-94232816D02*
X137692000Y-89423586D01*
X134323816Y-97601000D02*
X137692000Y-94232816D01*
X85350314Y-97601000D02*
X134323816Y-97601000D01*
X79320314Y-91571000D02*
X85350314Y-97601000D01*
X76097690Y-91571000D02*
X79320314Y-91571000D01*
X66187000Y-81660310D02*
X76097690Y-91571000D01*
X66187000Y-79743000D02*
X66187000Y-81660310D01*
X67250000Y-78680000D02*
X66187000Y-79743000D01*
%TO.N,Net-(U1-GPIO0{slash}TX)*%
X73700000Y-81220000D02*
X78000000Y-76920000D01*
X67250000Y-81220000D02*
X73700000Y-81220000D01*
%TO.N,Net-(U1-GPIO29{slash}ADC3{slash}A3)*%
X74350000Y-79280000D02*
X68670000Y-73600000D01*
X68670000Y-73600000D02*
X67250000Y-73600000D01*
X137291000Y-89589686D02*
X132861314Y-85160000D01*
X137291000Y-90750314D02*
X137291000Y-89589686D01*
X80310000Y-84050000D02*
X80310000Y-83820000D01*
X132861314Y-85160000D02*
X81420000Y-85160000D01*
X135331314Y-92710000D02*
X137291000Y-90750314D01*
X81420000Y-85160000D02*
X80310000Y-84050000D01*
X129540000Y-92710000D02*
X135331314Y-92710000D01*
%TO.N,Net-(U1-GPIO28{slash}ADC2{slash}A2)*%
X74420000Y-74530000D02*
X70720000Y-74530000D01*
X70720000Y-74530000D02*
X67250000Y-71060000D01*
%TO.N,Net-(U1-GPIO27{slash}ADC1{slash}A1)*%
X73820000Y-73460000D02*
X68880000Y-68520000D01*
X68880000Y-68520000D02*
X67250000Y-68520000D01*
%TO.N,GND*%
X135890000Y-90170000D02*
X116890000Y-90170000D01*
X97810000Y-90170000D02*
X97800000Y-90160000D01*
X116890000Y-90170000D02*
X97810000Y-90170000D01*
X82610000Y-90160000D02*
X78740000Y-86290000D01*
X97800000Y-90160000D02*
X82610000Y-90160000D01*
X78740000Y-86290000D02*
X78740000Y-72270000D01*
X145119000Y-66099000D02*
X132811000Y-66099000D01*
X149570000Y-70550000D02*
X145119000Y-66099000D01*
X130390000Y-68520000D02*
X82490000Y-68520000D01*
X132811000Y-66099000D02*
X130390000Y-68520000D01*
X130540000Y-68520000D02*
X130390000Y-68520000D01*
X135070000Y-73050000D02*
X130540000Y-68520000D01*
X87780000Y-73810000D02*
X82490000Y-68520000D01*
X92920000Y-73810000D02*
X87780000Y-73810000D01*
X94128500Y-72601500D02*
X92920000Y-73810000D01*
X125051500Y-72601500D02*
X94128500Y-72601500D01*
X126360000Y-73910000D02*
X125051500Y-72601500D01*
X113851500Y-72601500D02*
X94128500Y-72601500D01*
X115060000Y-73810000D02*
X113851500Y-72601500D01*
X102821500Y-72601500D02*
X94128500Y-72601500D01*
X104310000Y-74090000D02*
X102821500Y-72601500D01*
X78740000Y-72270000D02*
X82490000Y-68520000D01*
X78740000Y-90170000D02*
X78740000Y-86290000D01*
%TD*%
%TA.AperFunction,Conductor*%
%TO.N,GND*%
G36*
X151872539Y-63510185D02*
G01*
X151918294Y-63562989D01*
X151929500Y-63614500D01*
X151929500Y-107495500D01*
X151909815Y-107562539D01*
X151857011Y-107608294D01*
X151805500Y-107619500D01*
X64214500Y-107619500D01*
X64147461Y-107599815D01*
X64101706Y-107547011D01*
X64090500Y-107495500D01*
X64090500Y-95163389D01*
X70019500Y-95163389D01*
X70019500Y-95336610D01*
X70045013Y-95497697D01*
X70046598Y-95507701D01*
X70100127Y-95672445D01*
X70178768Y-95826788D01*
X70280586Y-95966928D01*
X70403072Y-96089414D01*
X70543212Y-96191232D01*
X70697555Y-96269873D01*
X70862299Y-96323402D01*
X71033389Y-96350500D01*
X71033390Y-96350500D01*
X71206610Y-96350500D01*
X71206611Y-96350500D01*
X71377701Y-96323402D01*
X71542445Y-96269873D01*
X71696788Y-96191232D01*
X71836928Y-96089414D01*
X71959414Y-95966928D01*
X72061232Y-95826788D01*
X72139873Y-95672445D01*
X72193402Y-95507701D01*
X72220500Y-95336611D01*
X72220500Y-95163389D01*
X72193402Y-94992299D01*
X72139873Y-94827555D01*
X72061232Y-94673212D01*
X71959414Y-94533072D01*
X71907482Y-94481140D01*
X71873997Y-94419817D01*
X71878981Y-94350125D01*
X71920853Y-94294192D01*
X71986317Y-94269775D01*
X72014561Y-94270986D01*
X72015212Y-94271089D01*
X72015215Y-94271090D01*
X72264038Y-94310500D01*
X72264039Y-94310500D01*
X72515961Y-94310500D01*
X72515962Y-94310500D01*
X72764785Y-94271090D01*
X73004379Y-94193241D01*
X73228845Y-94078870D01*
X73432656Y-93930793D01*
X73610793Y-93752656D01*
X73758870Y-93548845D01*
X73873241Y-93324379D01*
X73951090Y-93084785D01*
X73990500Y-92835962D01*
X73990500Y-92584038D01*
X73951090Y-92335215D01*
X73873241Y-92095621D01*
X73873239Y-92095618D01*
X73873239Y-92095616D01*
X73812925Y-91977244D01*
X73758870Y-91871155D01*
X73685377Y-91770000D01*
X73610798Y-91667350D01*
X73610794Y-91667345D01*
X73432654Y-91489205D01*
X73432649Y-91489201D01*
X73228848Y-91341132D01*
X73228847Y-91341131D01*
X73228845Y-91341130D01*
X73158747Y-91305413D01*
X73004383Y-91226760D01*
X72764785Y-91148910D01*
X72701648Y-91138910D01*
X72515962Y-91109500D01*
X72264038Y-91109500D01*
X72139626Y-91129205D01*
X72015214Y-91148910D01*
X71775616Y-91226760D01*
X71551151Y-91341132D01*
X71347350Y-91489201D01*
X71347345Y-91489205D01*
X71169205Y-91667345D01*
X71169201Y-91667350D01*
X71021132Y-91871151D01*
X70906760Y-92095616D01*
X70828910Y-92335214D01*
X70789500Y-92584038D01*
X70789500Y-92835961D01*
X70828910Y-93084785D01*
X70906760Y-93324383D01*
X70971860Y-93452147D01*
X71016036Y-93538848D01*
X71021132Y-93548848D01*
X71169201Y-93752649D01*
X71169205Y-93752654D01*
X71169207Y-93752656D01*
X71347344Y-93930793D01*
X71347345Y-93930794D01*
X71347344Y-93930794D01*
X71353661Y-93935383D01*
X71396327Y-93990714D01*
X71402305Y-94060327D01*
X71369699Y-94122122D01*
X71308860Y-94156479D01*
X71261378Y-94158174D01*
X71206611Y-94149500D01*
X71033389Y-94149500D01*
X70993728Y-94155781D01*
X70862302Y-94176597D01*
X70697552Y-94230128D01*
X70543211Y-94308768D01*
X70486289Y-94350125D01*
X70403072Y-94410586D01*
X70403070Y-94410588D01*
X70403069Y-94410588D01*
X70280588Y-94533069D01*
X70280588Y-94533070D01*
X70280586Y-94533072D01*
X70236859Y-94593256D01*
X70178768Y-94673211D01*
X70100128Y-94827552D01*
X70046597Y-94992302D01*
X70019500Y-95163389D01*
X64090500Y-95163389D01*
X64090500Y-81905464D01*
X65185498Y-81905464D01*
X65226423Y-82058195D01*
X65255358Y-82108310D01*
X65255359Y-82108314D01*
X65255360Y-82108314D01*
X65298466Y-82182978D01*
X65305479Y-82195124D01*
X65305481Y-82195127D01*
X65424349Y-82313995D01*
X65424355Y-82314000D01*
X75446729Y-92336374D01*
X75446739Y-92336385D01*
X75451069Y-92340715D01*
X75451070Y-92340716D01*
X75562874Y-92452520D01*
X75649685Y-92502639D01*
X75649687Y-92502641D01*
X75687741Y-92524611D01*
X75699805Y-92531577D01*
X75852533Y-92572501D01*
X75852536Y-92572501D01*
X76003434Y-92572501D01*
X76070473Y-92592186D01*
X76091115Y-92608820D01*
X76270114Y-92787819D01*
X76303599Y-92849142D01*
X76298615Y-92918834D01*
X76256743Y-92974767D01*
X76191279Y-92999184D01*
X76182433Y-92999500D01*
X76052486Y-92999500D01*
X75774085Y-93036153D01*
X75760007Y-93038007D01*
X75646201Y-93068501D01*
X75475048Y-93114361D01*
X75475038Y-93114364D01*
X75202499Y-93227254D01*
X75202495Y-93227256D01*
X74947006Y-93374761D01*
X74712959Y-93554352D01*
X74712952Y-93554358D01*
X74504358Y-93762952D01*
X74504352Y-93762959D01*
X74324761Y-93997006D01*
X74177258Y-94252489D01*
X74177254Y-94252499D01*
X74064364Y-94525038D01*
X74064361Y-94525048D01*
X73990685Y-94800015D01*
X73988008Y-94810004D01*
X73988006Y-94810015D01*
X73949500Y-95102486D01*
X73949500Y-95397513D01*
X73980376Y-95632028D01*
X73988007Y-95689993D01*
X74062212Y-95966930D01*
X74064361Y-95974951D01*
X74064364Y-95974961D01*
X74177254Y-96247500D01*
X74177258Y-96247510D01*
X74324761Y-96502993D01*
X74504352Y-96737040D01*
X74504358Y-96737047D01*
X74712952Y-96945641D01*
X74712959Y-96945647D01*
X74947006Y-97125238D01*
X75202489Y-97272741D01*
X75202490Y-97272741D01*
X75202493Y-97272743D01*
X75475048Y-97385639D01*
X75760007Y-97461993D01*
X76052494Y-97500500D01*
X76052501Y-97500500D01*
X76347499Y-97500500D01*
X76347506Y-97500500D01*
X76639993Y-97461993D01*
X76924952Y-97385639D01*
X77197507Y-97272743D01*
X77452994Y-97125238D01*
X77687042Y-96945646D01*
X77895646Y-96737042D01*
X78075238Y-96502994D01*
X78222743Y-96247507D01*
X78335639Y-95974952D01*
X78411993Y-95689993D01*
X78450500Y-95397506D01*
X78450500Y-95267568D01*
X78470185Y-95200529D01*
X78522989Y-95154774D01*
X78592147Y-95144830D01*
X78655703Y-95173855D01*
X78662181Y-95179887D01*
X81964814Y-98482520D01*
X81964816Y-98482521D01*
X81964820Y-98482524D01*
X82101739Y-98561573D01*
X82101746Y-98561577D01*
X82254473Y-98602501D01*
X82254475Y-98602501D01*
X82420184Y-98602501D01*
X82420200Y-98602500D01*
X137289801Y-98602500D01*
X137289817Y-98602501D01*
X137297413Y-98602501D01*
X137455524Y-98602501D01*
X137455527Y-98602501D01*
X137608255Y-98561577D01*
X137658374Y-98532639D01*
X137745186Y-98482520D01*
X137856990Y-98370716D01*
X137856990Y-98370714D01*
X137867198Y-98360507D01*
X137867200Y-98360504D01*
X139999713Y-96227991D01*
X139999716Y-96227990D01*
X140111520Y-96116186D01*
X140161639Y-96029374D01*
X140190577Y-95979255D01*
X140231501Y-95826527D01*
X140231501Y-95668413D01*
X140231501Y-95660818D01*
X140231500Y-95660800D01*
X140231500Y-90884546D01*
X140231501Y-90884533D01*
X140231501Y-90716430D01*
X140213191Y-90648097D01*
X140190577Y-90563702D01*
X140190573Y-90563695D01*
X140111524Y-90426776D01*
X140111518Y-90426768D01*
X128364104Y-78679355D01*
X128357035Y-78672286D01*
X128357034Y-78672284D01*
X128245230Y-78560480D01*
X128245228Y-78560479D01*
X128245223Y-78560475D01*
X128195733Y-78531902D01*
X140469500Y-78531902D01*
X140469500Y-78768097D01*
X140506446Y-79001368D01*
X140579433Y-79225996D01*
X140646769Y-79358149D01*
X140686657Y-79436433D01*
X140825483Y-79627510D01*
X140992490Y-79794517D01*
X141183567Y-79933343D01*
X141226682Y-79955311D01*
X141394003Y-80040566D01*
X141394005Y-80040566D01*
X141394008Y-80040568D01*
X141492795Y-80072666D01*
X141618631Y-80113553D01*
X141851903Y-80150500D01*
X141851908Y-80150500D01*
X143288097Y-80150500D01*
X143521368Y-80113553D01*
X143745992Y-80040568D01*
X143956433Y-79933343D01*
X144147510Y-79794517D01*
X144314517Y-79627510D01*
X144453343Y-79436433D01*
X144560568Y-79225992D01*
X144633553Y-79001368D01*
X144641360Y-78952075D01*
X144670500Y-78768097D01*
X144670500Y-78531902D01*
X144633553Y-78298631D01*
X144599689Y-78194412D01*
X144560568Y-78074008D01*
X144560566Y-78074005D01*
X144560566Y-78074003D01*
X144495100Y-77945519D01*
X144453343Y-77863567D01*
X144314517Y-77672490D01*
X144147510Y-77505483D01*
X143956433Y-77366657D01*
X143887469Y-77331518D01*
X143745996Y-77259433D01*
X143521368Y-77186446D01*
X143288097Y-77149500D01*
X143288092Y-77149500D01*
X141851908Y-77149500D01*
X141851903Y-77149500D01*
X141618631Y-77186446D01*
X141394003Y-77259433D01*
X141183566Y-77366657D01*
X141095987Y-77430288D01*
X140992490Y-77505483D01*
X140992488Y-77505485D01*
X140992487Y-77505485D01*
X140825485Y-77672487D01*
X140825485Y-77672488D01*
X140825483Y-77672490D01*
X140790174Y-77721089D01*
X140686657Y-77863566D01*
X140579433Y-78074003D01*
X140506446Y-78298631D01*
X140469500Y-78531902D01*
X128195733Y-78531902D01*
X128138252Y-78498716D01*
X128138251Y-78498715D01*
X128138251Y-78498716D01*
X128108299Y-78481423D01*
X128101122Y-78479500D01*
X127955571Y-78440499D01*
X127797457Y-78440499D01*
X127789861Y-78440499D01*
X127789845Y-78440500D01*
X123127217Y-78440500D01*
X123060178Y-78420815D01*
X123014423Y-78368011D01*
X123004479Y-78298853D01*
X123004744Y-78297102D01*
X123030500Y-78134486D01*
X123030500Y-77945513D01*
X123000940Y-77758881D01*
X122979551Y-77693053D01*
X122953804Y-77613816D01*
X122951810Y-77543978D01*
X122987889Y-77484145D01*
X123050590Y-77453316D01*
X123071736Y-77451500D01*
X135522223Y-77451500D01*
X135522239Y-77451501D01*
X135529835Y-77451501D01*
X135687946Y-77451501D01*
X135687949Y-77451501D01*
X135840677Y-77410577D01*
X135900051Y-77376297D01*
X135977608Y-77331520D01*
X136089412Y-77219716D01*
X136089412Y-77219714D01*
X136099616Y-77209511D01*
X136099620Y-77209506D01*
X136729506Y-76579620D01*
X136729511Y-76579616D01*
X136739714Y-76569412D01*
X136739716Y-76569412D01*
X136851520Y-76457608D01*
X136930577Y-76320676D01*
X136971500Y-76167949D01*
X136971500Y-75431902D01*
X148069500Y-75431902D01*
X148069500Y-75668097D01*
X148106446Y-75901368D01*
X148179433Y-76125996D01*
X148237196Y-76239361D01*
X148286657Y-76336433D01*
X148425483Y-76527510D01*
X148592490Y-76694517D01*
X148783567Y-76833343D01*
X148857993Y-76871265D01*
X148994003Y-76940566D01*
X148994005Y-76940566D01*
X148994008Y-76940568D01*
X149061397Y-76962464D01*
X149218631Y-77013553D01*
X149451903Y-77050500D01*
X149451908Y-77050500D01*
X149688097Y-77050500D01*
X149921368Y-77013553D01*
X149966637Y-76998844D01*
X150145992Y-76940568D01*
X150356433Y-76833343D01*
X150547510Y-76694517D01*
X150714517Y-76527510D01*
X150853343Y-76336433D01*
X150960568Y-76125992D01*
X151033553Y-75901368D01*
X151070500Y-75668097D01*
X151070500Y-75431902D01*
X151033553Y-75198631D01*
X150988374Y-75059586D01*
X150960568Y-74974008D01*
X150960566Y-74974005D01*
X150960566Y-74974003D01*
X150886149Y-74827953D01*
X150853343Y-74763567D01*
X150714517Y-74572490D01*
X150547510Y-74405483D01*
X150356433Y-74266657D01*
X150346693Y-74261694D01*
X150145996Y-74159433D01*
X149921368Y-74086446D01*
X149688097Y-74049500D01*
X149688092Y-74049500D01*
X149451908Y-74049500D01*
X149451903Y-74049500D01*
X149218631Y-74086446D01*
X148994003Y-74159433D01*
X148783566Y-74266657D01*
X148698043Y-74328794D01*
X148592490Y-74405483D01*
X148592488Y-74405485D01*
X148592487Y-74405485D01*
X148425485Y-74572487D01*
X148425485Y-74572488D01*
X148425483Y-74572490D01*
X148399072Y-74608842D01*
X148286657Y-74763566D01*
X148179433Y-74974003D01*
X148106446Y-75198631D01*
X148069500Y-75431902D01*
X136971500Y-75431902D01*
X136971500Y-71930060D01*
X136971501Y-71930057D01*
X136971501Y-71771943D01*
X136930577Y-71619215D01*
X136880539Y-71532547D01*
X136851520Y-71482284D01*
X136739716Y-71370480D01*
X136739715Y-71370479D01*
X136735385Y-71366149D01*
X136735374Y-71366139D01*
X136606818Y-71237583D01*
X136573333Y-71176260D01*
X136570499Y-71149902D01*
X136570499Y-70431947D01*
X148070000Y-70431947D01*
X148070000Y-70668052D01*
X148106934Y-70901247D01*
X148179897Y-71125802D01*
X148287087Y-71336174D01*
X148347338Y-71419104D01*
X148347340Y-71419105D01*
X149087037Y-70679408D01*
X149104075Y-70742993D01*
X149169901Y-70857007D01*
X149262993Y-70950099D01*
X149377007Y-71015925D01*
X149440590Y-71032962D01*
X148700893Y-71772658D01*
X148783828Y-71832914D01*
X148994197Y-71940102D01*
X149218752Y-72013065D01*
X149218751Y-72013065D01*
X149451948Y-72050000D01*
X149688052Y-72050000D01*
X149921247Y-72013065D01*
X150145802Y-71940102D01*
X150356163Y-71832918D01*
X150356169Y-71832914D01*
X150439104Y-71772658D01*
X150439105Y-71772658D01*
X149699408Y-71032962D01*
X149762993Y-71015925D01*
X149877007Y-70950099D01*
X149970099Y-70857007D01*
X150035925Y-70742993D01*
X150052962Y-70679409D01*
X150792658Y-71419105D01*
X150792658Y-71419104D01*
X150852914Y-71336169D01*
X150852918Y-71336163D01*
X150960102Y-71125802D01*
X151033065Y-70901247D01*
X151070000Y-70668052D01*
X151070000Y-70431947D01*
X151033065Y-70198752D01*
X150960102Y-69974197D01*
X150852914Y-69763828D01*
X150792658Y-69680894D01*
X150792658Y-69680893D01*
X150052962Y-70420590D01*
X150035925Y-70357007D01*
X149970099Y-70242993D01*
X149877007Y-70149901D01*
X149762993Y-70084075D01*
X149699409Y-70067037D01*
X150439105Y-69327340D01*
X150439104Y-69327338D01*
X150356174Y-69267087D01*
X150145802Y-69159897D01*
X149921247Y-69086934D01*
X149921248Y-69086934D01*
X149688052Y-69050000D01*
X149451948Y-69050000D01*
X149218752Y-69086934D01*
X148994197Y-69159897D01*
X148783830Y-69267084D01*
X148700894Y-69327340D01*
X149440591Y-70067037D01*
X149377007Y-70084075D01*
X149262993Y-70149901D01*
X149169901Y-70242993D01*
X149104075Y-70357007D01*
X149087037Y-70420591D01*
X148347340Y-69680894D01*
X148287084Y-69763830D01*
X148179897Y-69974197D01*
X148106934Y-70198752D01*
X148070000Y-70431947D01*
X136570499Y-70431947D01*
X136570499Y-69502129D01*
X136570498Y-69502123D01*
X136564091Y-69442517D01*
X136562203Y-69437454D01*
X136554922Y-69417931D01*
X136513797Y-69307671D01*
X136513793Y-69307664D01*
X136427547Y-69192455D01*
X136427544Y-69192452D01*
X136312335Y-69106206D01*
X136312328Y-69106202D01*
X136177482Y-69055908D01*
X136177483Y-69055908D01*
X136117883Y-69049501D01*
X136117881Y-69049500D01*
X136117873Y-69049500D01*
X136117864Y-69049500D01*
X134022129Y-69049500D01*
X134022123Y-69049501D01*
X133962516Y-69055908D01*
X133827671Y-69106202D01*
X133827664Y-69106206D01*
X133712455Y-69192452D01*
X133712452Y-69192455D01*
X133626206Y-69307664D01*
X133626202Y-69307671D01*
X133575908Y-69442517D01*
X133569501Y-69502116D01*
X133569501Y-69502123D01*
X133569500Y-69502135D01*
X133569500Y-71597870D01*
X133569501Y-71597876D01*
X133575908Y-71657483D01*
X133626202Y-71792328D01*
X133626206Y-71792335D01*
X133712452Y-71907544D01*
X133712453Y-71907544D01*
X133712454Y-71907546D01*
X133742525Y-71930057D01*
X133830599Y-71995990D01*
X133872469Y-72051924D01*
X133877453Y-72121615D01*
X133856605Y-72168141D01*
X133787087Y-72263824D01*
X133679897Y-72474197D01*
X133606934Y-72698752D01*
X133570000Y-72931947D01*
X133570000Y-73168052D01*
X133606934Y-73401247D01*
X133679897Y-73625802D01*
X133787087Y-73836174D01*
X133847338Y-73919104D01*
X133847340Y-73919105D01*
X134587037Y-73179408D01*
X134604075Y-73242993D01*
X134669901Y-73357007D01*
X134762993Y-73450099D01*
X134877007Y-73515925D01*
X134940589Y-73532962D01*
X134194280Y-74279271D01*
X134185105Y-74322947D01*
X134148739Y-74364615D01*
X134092490Y-74405482D01*
X133925485Y-74572487D01*
X133925485Y-74572488D01*
X133925483Y-74572490D01*
X133899072Y-74608842D01*
X133786657Y-74763566D01*
X133679433Y-74974003D01*
X133606446Y-75198631D01*
X133569026Y-75434898D01*
X133539097Y-75498033D01*
X133479785Y-75534964D01*
X133446553Y-75539500D01*
X129187888Y-75539500D01*
X129120849Y-75519815D01*
X129075094Y-75467011D01*
X129065150Y-75397853D01*
X129094175Y-75334297D01*
X129152953Y-75296523D01*
X129168490Y-75293027D01*
X129229707Y-75283331D01*
X129237318Y-75280858D01*
X129440484Y-75214845D01*
X129637953Y-75114230D01*
X129817251Y-74983962D01*
X129973962Y-74827251D01*
X130104230Y-74647953D01*
X130204845Y-74450484D01*
X130273331Y-74239707D01*
X130277086Y-74216000D01*
X130308000Y-74020817D01*
X130308000Y-73799182D01*
X130273331Y-73580292D01*
X130227266Y-73438521D01*
X130204845Y-73369516D01*
X130204843Y-73369513D01*
X130204843Y-73369511D01*
X130131980Y-73226510D01*
X130104230Y-73172047D01*
X129973962Y-72992749D01*
X129817251Y-72836038D01*
X129637953Y-72705770D01*
X129607515Y-72690261D01*
X129440488Y-72605156D01*
X129229707Y-72536668D01*
X129010817Y-72502000D01*
X129010812Y-72502000D01*
X128789188Y-72502000D01*
X128789183Y-72502000D01*
X128570292Y-72536668D01*
X128359511Y-72605156D01*
X128162046Y-72705770D01*
X128086835Y-72760415D01*
X127982749Y-72836038D01*
X127982747Y-72836040D01*
X127982745Y-72836041D01*
X127941693Y-72877093D01*
X127880370Y-72910578D01*
X127810678Y-72905592D01*
X127754745Y-72863720D01*
X127737831Y-72832743D01*
X127710855Y-72760415D01*
X127710850Y-72760406D01*
X127624690Y-72645312D01*
X127624687Y-72645309D01*
X127509593Y-72559149D01*
X127509586Y-72559145D01*
X127374879Y-72508903D01*
X127374872Y-72508901D01*
X127315344Y-72502500D01*
X126610000Y-72502500D01*
X126610000Y-73355743D01*
X126593521Y-73346229D01*
X126439650Y-73305000D01*
X126280350Y-73305000D01*
X126126479Y-73346229D01*
X126110000Y-73355743D01*
X126110000Y-72502500D01*
X125404655Y-72502500D01*
X125345127Y-72508901D01*
X125345120Y-72508903D01*
X125210413Y-72559145D01*
X125210406Y-72559149D01*
X125095312Y-72645309D01*
X125095309Y-72645312D01*
X125009149Y-72760406D01*
X125009145Y-72760413D01*
X124958903Y-72895120D01*
X124958901Y-72895127D01*
X124952500Y-72954655D01*
X124952500Y-73660000D01*
X125805743Y-73660000D01*
X125796229Y-73676479D01*
X125755000Y-73830350D01*
X125755000Y-73989650D01*
X125796229Y-74143521D01*
X125805743Y-74160000D01*
X124952500Y-74160000D01*
X124952500Y-74865344D01*
X124958901Y-74924872D01*
X124958903Y-74924879D01*
X125009145Y-75059586D01*
X125009149Y-75059593D01*
X125095309Y-75174687D01*
X125095312Y-75174690D01*
X125210406Y-75260850D01*
X125210413Y-75260854D01*
X125313540Y-75299318D01*
X125369474Y-75341189D01*
X125393891Y-75406653D01*
X125379039Y-75474926D01*
X125329634Y-75524332D01*
X125270207Y-75539500D01*
X107623081Y-75539500D01*
X107556042Y-75519815D01*
X107510287Y-75467011D01*
X107500343Y-75397853D01*
X107529368Y-75334297D01*
X107566786Y-75305015D01*
X107587953Y-75294230D01*
X107767251Y-75163962D01*
X107923962Y-75007251D01*
X108054230Y-74827953D01*
X108154845Y-74630484D01*
X108223331Y-74419707D01*
X108227383Y-74394121D01*
X108258000Y-74200817D01*
X108258000Y-73979182D01*
X108223331Y-73760292D01*
X108179632Y-73625802D01*
X108154845Y-73549516D01*
X108154843Y-73549513D01*
X108154843Y-73549511D01*
X108091849Y-73425879D01*
X108054230Y-73352047D01*
X107923962Y-73172749D01*
X107767251Y-73016038D01*
X107587953Y-72885770D01*
X107526887Y-72854655D01*
X113652500Y-72854655D01*
X113652500Y-73560000D01*
X114505743Y-73560000D01*
X114496229Y-73576479D01*
X114455000Y-73730350D01*
X114455000Y-73889650D01*
X114496229Y-74043521D01*
X114505743Y-74060000D01*
X113652500Y-74060000D01*
X113652500Y-74765344D01*
X113658901Y-74824872D01*
X113658903Y-74824879D01*
X113709145Y-74959586D01*
X113709149Y-74959593D01*
X113795309Y-75074687D01*
X113795312Y-75074690D01*
X113910406Y-75160850D01*
X113910413Y-75160854D01*
X114045120Y-75211096D01*
X114045127Y-75211098D01*
X114104655Y-75217499D01*
X114104672Y-75217500D01*
X114810000Y-75217500D01*
X114810000Y-74364256D01*
X114826479Y-74373771D01*
X114980350Y-74415000D01*
X115139650Y-74415000D01*
X115293521Y-74373771D01*
X115310000Y-74364256D01*
X115310000Y-75217500D01*
X116015328Y-75217500D01*
X116015344Y-75217499D01*
X116074872Y-75211098D01*
X116074879Y-75211096D01*
X116209586Y-75160854D01*
X116209593Y-75160850D01*
X116324687Y-75074690D01*
X116324690Y-75074687D01*
X116410850Y-74959593D01*
X116410853Y-74959588D01*
X116437830Y-74887257D01*
X116479701Y-74831322D01*
X116545165Y-74806904D01*
X116613438Y-74821755D01*
X116641694Y-74842907D01*
X116682749Y-74883962D01*
X116862047Y-75014230D01*
X116913189Y-75040288D01*
X117059511Y-75114843D01*
X117059513Y-75114843D01*
X117059516Y-75114845D01*
X117161387Y-75147945D01*
X117270292Y-75183331D01*
X117489183Y-75218000D01*
X117489188Y-75218000D01*
X117710817Y-75218000D01*
X117929707Y-75183331D01*
X117989318Y-75163962D01*
X118140484Y-75114845D01*
X118337953Y-75014230D01*
X118517251Y-74883962D01*
X118673962Y-74727251D01*
X118804230Y-74547953D01*
X118904845Y-74350484D01*
X118973331Y-74139707D01*
X118981204Y-74090000D01*
X119008000Y-73920817D01*
X119008000Y-73699182D01*
X118973331Y-73480292D01*
X118937337Y-73369516D01*
X118904845Y-73269516D01*
X118904843Y-73269513D01*
X118904843Y-73269511D01*
X118826536Y-73115826D01*
X118804230Y-73072047D01*
X118793365Y-73057093D01*
X118769496Y-73024239D01*
X118769494Y-73024237D01*
X118740386Y-72984174D01*
X118673962Y-72892749D01*
X118517251Y-72736038D01*
X118337953Y-72605770D01*
X118295374Y-72584075D01*
X118140488Y-72505156D01*
X117929707Y-72436668D01*
X117710817Y-72402000D01*
X117710812Y-72402000D01*
X117489188Y-72402000D01*
X117489183Y-72402000D01*
X117270292Y-72436668D01*
X117059511Y-72505156D01*
X116862046Y-72605770D01*
X116786835Y-72660415D01*
X116682749Y-72736038D01*
X116682747Y-72736040D01*
X116682745Y-72736041D01*
X116641693Y-72777093D01*
X116580370Y-72810578D01*
X116510678Y-72805592D01*
X116454745Y-72763720D01*
X116437831Y-72732743D01*
X116410855Y-72660415D01*
X116410850Y-72660406D01*
X116324690Y-72545312D01*
X116324687Y-72545309D01*
X116209593Y-72459149D01*
X116209586Y-72459145D01*
X116074879Y-72408903D01*
X116074872Y-72408901D01*
X116015344Y-72402500D01*
X115310000Y-72402500D01*
X115310000Y-73255743D01*
X115293521Y-73246229D01*
X115139650Y-73205000D01*
X114980350Y-73205000D01*
X114826479Y-73246229D01*
X114810000Y-73255743D01*
X114810000Y-72402500D01*
X114104655Y-72402500D01*
X114045127Y-72408901D01*
X114045120Y-72408903D01*
X113910413Y-72459145D01*
X113910406Y-72459149D01*
X113795312Y-72545309D01*
X113795309Y-72545312D01*
X113709149Y-72660406D01*
X113709145Y-72660413D01*
X113658903Y-72795120D01*
X113658901Y-72795127D01*
X113652500Y-72854655D01*
X107526887Y-72854655D01*
X107390488Y-72785156D01*
X107179707Y-72716668D01*
X106960817Y-72682000D01*
X106960812Y-72682000D01*
X106739188Y-72682000D01*
X106739183Y-72682000D01*
X106520292Y-72716668D01*
X106309511Y-72785156D01*
X106112046Y-72885770D01*
X106024040Y-72949711D01*
X105932749Y-73016038D01*
X105932747Y-73016040D01*
X105932745Y-73016041D01*
X105891693Y-73057093D01*
X105830370Y-73090578D01*
X105760678Y-73085592D01*
X105704745Y-73043720D01*
X105687831Y-73012743D01*
X105660855Y-72940415D01*
X105660850Y-72940406D01*
X105574690Y-72825312D01*
X105574687Y-72825309D01*
X105459593Y-72739149D01*
X105459586Y-72739145D01*
X105324879Y-72688903D01*
X105324872Y-72688901D01*
X105265344Y-72682500D01*
X104560000Y-72682500D01*
X104560000Y-73535743D01*
X104543521Y-73526229D01*
X104389650Y-73485000D01*
X104230350Y-73485000D01*
X104076479Y-73526229D01*
X104060000Y-73535743D01*
X104060000Y-72682500D01*
X103354655Y-72682500D01*
X103295127Y-72688901D01*
X103295120Y-72688903D01*
X103160413Y-72739145D01*
X103160406Y-72739149D01*
X103045312Y-72825309D01*
X103045309Y-72825312D01*
X102959149Y-72940406D01*
X102959145Y-72940413D01*
X102908903Y-73075120D01*
X102908901Y-73075127D01*
X102902500Y-73134655D01*
X102902500Y-73840000D01*
X103755743Y-73840000D01*
X103746229Y-73856479D01*
X103705000Y-74010350D01*
X103705000Y-74169650D01*
X103746229Y-74323521D01*
X103755743Y-74340000D01*
X102902500Y-74340000D01*
X102902500Y-75045344D01*
X102908901Y-75104872D01*
X102908903Y-75104879D01*
X102959145Y-75239586D01*
X102959146Y-75239588D01*
X103035205Y-75341189D01*
X103059622Y-75406653D01*
X103044771Y-75474926D01*
X102995366Y-75524332D01*
X102935938Y-75539500D01*
X83676730Y-75539500D01*
X83609691Y-75519815D01*
X83572808Y-75482133D01*
X83572651Y-75482248D01*
X83571872Y-75481176D01*
X83571000Y-75480285D01*
X83569789Y-75478309D01*
X83567331Y-75474926D01*
X83452981Y-75317536D01*
X83312464Y-75177019D01*
X83151694Y-75060213D01*
X82995218Y-74980484D01*
X82944423Y-74932510D01*
X82927628Y-74864689D01*
X82950165Y-74798554D01*
X82995218Y-74759515D01*
X83151694Y-74679787D01*
X83312464Y-74562981D01*
X83452981Y-74422464D01*
X83569787Y-74261694D01*
X83660005Y-74084632D01*
X83681100Y-74019707D01*
X83697147Y-73970320D01*
X83710410Y-73929500D01*
X83721413Y-73895636D01*
X83752500Y-73699361D01*
X83752500Y-73500639D01*
X83721413Y-73304364D01*
X83678649Y-73172749D01*
X83660006Y-73115370D01*
X83660005Y-73115367D01*
X83578117Y-72954655D01*
X83569787Y-72938306D01*
X83569785Y-72938303D01*
X83569784Y-72938301D01*
X83559566Y-72924237D01*
X83559565Y-72924236D01*
X83509011Y-72854655D01*
X91512500Y-72854655D01*
X91512500Y-73560000D01*
X92365743Y-73560000D01*
X92356229Y-73576479D01*
X92315000Y-73730350D01*
X92315000Y-73889650D01*
X92356229Y-74043521D01*
X92365743Y-74060000D01*
X91512500Y-74060000D01*
X91512500Y-74765344D01*
X91518901Y-74824872D01*
X91518903Y-74824879D01*
X91569145Y-74959586D01*
X91569149Y-74959593D01*
X91655309Y-75074687D01*
X91655312Y-75074690D01*
X91770406Y-75160850D01*
X91770413Y-75160854D01*
X91905120Y-75211096D01*
X91905127Y-75211098D01*
X91964655Y-75217499D01*
X91964672Y-75217500D01*
X92670000Y-75217500D01*
X92670000Y-74364256D01*
X92686479Y-74373771D01*
X92840350Y-74415000D01*
X92999650Y-74415000D01*
X93153521Y-74373771D01*
X93170000Y-74364256D01*
X93170000Y-75217500D01*
X93875328Y-75217500D01*
X93875344Y-75217499D01*
X93934872Y-75211098D01*
X93934879Y-75211096D01*
X94069586Y-75160854D01*
X94069593Y-75160850D01*
X94184687Y-75074690D01*
X94184690Y-75074687D01*
X94270850Y-74959593D01*
X94270853Y-74959588D01*
X94297830Y-74887257D01*
X94339701Y-74831322D01*
X94405165Y-74806904D01*
X94473438Y-74821755D01*
X94501694Y-74842907D01*
X94542749Y-74883962D01*
X94722047Y-75014230D01*
X94773189Y-75040288D01*
X94919511Y-75114843D01*
X94919513Y-75114843D01*
X94919516Y-75114845D01*
X95021387Y-75147945D01*
X95130292Y-75183331D01*
X95349183Y-75218000D01*
X95349188Y-75218000D01*
X95570817Y-75218000D01*
X95789707Y-75183331D01*
X95849318Y-75163962D01*
X96000484Y-75114845D01*
X96197953Y-75014230D01*
X96377251Y-74883962D01*
X96533962Y-74727251D01*
X96664230Y-74547953D01*
X96764845Y-74350484D01*
X96833331Y-74139707D01*
X96841204Y-74090000D01*
X96868000Y-73920817D01*
X96868000Y-73699182D01*
X96833331Y-73480292D01*
X96797337Y-73369516D01*
X96764845Y-73269516D01*
X96764843Y-73269513D01*
X96764843Y-73269511D01*
X96739419Y-73219615D01*
X96699362Y-73140997D01*
X96664231Y-73072048D01*
X96606616Y-72992749D01*
X96533962Y-72892749D01*
X96377251Y-72736038D01*
X96197953Y-72605770D01*
X96155374Y-72584075D01*
X96000488Y-72505156D01*
X95789707Y-72436668D01*
X95570817Y-72402000D01*
X95570812Y-72402000D01*
X95349188Y-72402000D01*
X95349183Y-72402000D01*
X95130292Y-72436668D01*
X94919511Y-72505156D01*
X94722046Y-72605770D01*
X94646835Y-72660415D01*
X94542749Y-72736038D01*
X94542747Y-72736040D01*
X94542745Y-72736041D01*
X94501693Y-72777093D01*
X94440370Y-72810578D01*
X94370678Y-72805592D01*
X94314745Y-72763720D01*
X94297831Y-72732743D01*
X94270855Y-72660415D01*
X94270850Y-72660406D01*
X94184690Y-72545312D01*
X94184687Y-72545309D01*
X94069593Y-72459149D01*
X94069586Y-72459145D01*
X93934879Y-72408903D01*
X93934872Y-72408901D01*
X93875344Y-72402500D01*
X93170000Y-72402500D01*
X93170000Y-73255743D01*
X93153521Y-73246229D01*
X92999650Y-73205000D01*
X92840350Y-73205000D01*
X92686479Y-73246229D01*
X92670000Y-73255743D01*
X92670000Y-72402500D01*
X91964655Y-72402500D01*
X91905127Y-72408901D01*
X91905120Y-72408903D01*
X91770413Y-72459145D01*
X91770406Y-72459149D01*
X91655312Y-72545309D01*
X91655309Y-72545312D01*
X91569149Y-72660406D01*
X91569145Y-72660413D01*
X91518903Y-72795120D01*
X91518901Y-72795127D01*
X91512500Y-72854655D01*
X83509011Y-72854655D01*
X83473365Y-72805592D01*
X83452981Y-72777536D01*
X83312464Y-72637019D01*
X83151694Y-72520213D01*
X82995218Y-72440484D01*
X82944423Y-72392510D01*
X82927628Y-72324689D01*
X82950165Y-72258554D01*
X82995218Y-72219515D01*
X83151694Y-72139787D01*
X83312464Y-72022981D01*
X83452981Y-71882464D01*
X83569787Y-71721694D01*
X83660005Y-71544632D01*
X83721413Y-71355636D01*
X83752500Y-71159361D01*
X83752500Y-70960639D01*
X83721413Y-70764364D01*
X83682461Y-70644481D01*
X83660006Y-70575370D01*
X83660005Y-70575367D01*
X83625140Y-70506942D01*
X83613539Y-70484174D01*
X83598935Y-70455513D01*
X87179500Y-70455513D01*
X87179500Y-70644486D01*
X87209059Y-70831118D01*
X87267454Y-71010836D01*
X87353240Y-71179199D01*
X87464310Y-71332073D01*
X87597927Y-71465690D01*
X87750801Y-71576760D01*
X87792232Y-71597870D01*
X87919163Y-71662545D01*
X87919165Y-71662545D01*
X87919168Y-71662547D01*
X88015497Y-71693846D01*
X88098881Y-71720940D01*
X88285514Y-71750500D01*
X88285519Y-71750500D01*
X88474486Y-71750500D01*
X88661118Y-71720940D01*
X88840832Y-71662547D01*
X89009199Y-71576760D01*
X89162073Y-71465690D01*
X89295690Y-71332073D01*
X89406760Y-71179199D01*
X89492547Y-71010832D01*
X89550940Y-70831118D01*
X89561513Y-70764362D01*
X89580500Y-70644486D01*
X89580500Y-70455514D01*
X89576466Y-70430046D01*
X89576466Y-70430045D01*
X89574164Y-70415513D01*
X99399500Y-70415513D01*
X99399500Y-70604486D01*
X99429059Y-70791118D01*
X99487454Y-70970836D01*
X99566414Y-71125802D01*
X99573240Y-71139199D01*
X99684310Y-71292073D01*
X99817927Y-71425690D01*
X99970801Y-71536760D01*
X99986251Y-71544632D01*
X100139163Y-71622545D01*
X100139165Y-71622545D01*
X100139168Y-71622547D01*
X100235497Y-71653846D01*
X100318881Y-71680940D01*
X100505514Y-71710500D01*
X100505519Y-71710500D01*
X100694486Y-71710500D01*
X100881118Y-71680940D01*
X100937725Y-71662547D01*
X101060832Y-71622547D01*
X101064850Y-71620500D01*
X101067375Y-71619213D01*
X101229199Y-71536760D01*
X101382073Y-71425690D01*
X101515690Y-71292073D01*
X101626760Y-71139199D01*
X101712547Y-70970832D01*
X101770940Y-70791118D01*
X101778562Y-70742993D01*
X101800500Y-70604486D01*
X101800500Y-70415513D01*
X109789500Y-70415513D01*
X109789500Y-70604486D01*
X109819059Y-70791118D01*
X109877454Y-70970836D01*
X109956414Y-71125802D01*
X109963240Y-71139199D01*
X110074310Y-71292073D01*
X110207927Y-71425690D01*
X110360801Y-71536760D01*
X110376251Y-71544632D01*
X110529163Y-71622545D01*
X110529165Y-71622545D01*
X110529168Y-71622547D01*
X110625497Y-71653846D01*
X110708881Y-71680940D01*
X110895514Y-71710500D01*
X110895519Y-71710500D01*
X111084486Y-71710500D01*
X111271118Y-71680940D01*
X111327725Y-71662547D01*
X111450832Y-71622547D01*
X111454850Y-71620500D01*
X111457375Y-71619213D01*
X111619199Y-71536760D01*
X111772073Y-71425690D01*
X111905690Y-71292073D01*
X112016760Y-71139199D01*
X112102547Y-70970832D01*
X112160940Y-70791118D01*
X112168562Y-70742993D01*
X112190500Y-70604486D01*
X112190500Y-70415513D01*
X112178547Y-70340045D01*
X112176245Y-70325513D01*
X120629500Y-70325513D01*
X120629500Y-70514486D01*
X120659059Y-70701118D01*
X120717454Y-70880836D01*
X120763310Y-70970832D01*
X120803240Y-71049199D01*
X120914310Y-71202073D01*
X121047927Y-71335690D01*
X121200801Y-71446760D01*
X121255297Y-71474527D01*
X121369163Y-71532545D01*
X121369165Y-71532545D01*
X121369168Y-71532547D01*
X121406362Y-71544632D01*
X121548881Y-71590940D01*
X121735514Y-71620500D01*
X121735519Y-71620500D01*
X121924486Y-71620500D01*
X122111118Y-71590940D01*
X122154762Y-71576759D01*
X122290832Y-71532547D01*
X122459199Y-71446760D01*
X122612073Y-71335690D01*
X122745690Y-71202073D01*
X122856760Y-71049199D01*
X122942547Y-70880832D01*
X123000940Y-70701118D01*
X123009910Y-70644486D01*
X123030500Y-70514486D01*
X123030500Y-70325513D01*
X123000940Y-70138881D01*
X122942545Y-69959163D01*
X122860173Y-69797500D01*
X122856760Y-69790801D01*
X122745690Y-69637927D01*
X122612073Y-69504310D01*
X122459199Y-69393240D01*
X122431367Y-69379059D01*
X122290836Y-69307454D01*
X122111118Y-69249059D01*
X121924486Y-69219500D01*
X121924481Y-69219500D01*
X121735519Y-69219500D01*
X121735514Y-69219500D01*
X121548881Y-69249059D01*
X121369163Y-69307454D01*
X121200800Y-69393240D01*
X121139947Y-69437453D01*
X121047927Y-69504310D01*
X121047925Y-69504312D01*
X121047924Y-69504312D01*
X120914312Y-69637924D01*
X120914312Y-69637925D01*
X120914310Y-69637927D01*
X120876473Y-69690005D01*
X120803240Y-69790800D01*
X120717454Y-69959163D01*
X120659059Y-70138881D01*
X120629500Y-70325513D01*
X112176245Y-70325513D01*
X112160940Y-70228881D01*
X112102545Y-70049163D01*
X112026646Y-69900204D01*
X112016760Y-69880801D01*
X111905690Y-69727927D01*
X111772073Y-69594310D01*
X111619199Y-69483240D01*
X111618685Y-69482978D01*
X111450836Y-69397454D01*
X111271118Y-69339059D01*
X111084486Y-69309500D01*
X111084481Y-69309500D01*
X110895519Y-69309500D01*
X110895514Y-69309500D01*
X110708881Y-69339059D01*
X110529163Y-69397454D01*
X110360800Y-69483240D01*
X110305746Y-69523240D01*
X110207927Y-69594310D01*
X110207925Y-69594312D01*
X110207924Y-69594312D01*
X110074312Y-69727924D01*
X110074312Y-69727925D01*
X110074310Y-69727927D01*
X110045250Y-69767925D01*
X109963240Y-69880800D01*
X109877454Y-70049163D01*
X109819059Y-70228881D01*
X109789500Y-70415513D01*
X101800500Y-70415513D01*
X101770940Y-70228881D01*
X101712545Y-70049163D01*
X101636646Y-69900204D01*
X101626760Y-69880801D01*
X101515690Y-69727927D01*
X101382073Y-69594310D01*
X101229199Y-69483240D01*
X101228685Y-69482978D01*
X101060836Y-69397454D01*
X100881118Y-69339059D01*
X100694486Y-69309500D01*
X100694481Y-69309500D01*
X100505519Y-69309500D01*
X100505514Y-69309500D01*
X100318881Y-69339059D01*
X100139163Y-69397454D01*
X99970800Y-69483240D01*
X99915746Y-69523240D01*
X99817927Y-69594310D01*
X99817925Y-69594312D01*
X99817924Y-69594312D01*
X99684312Y-69727924D01*
X99684312Y-69727925D01*
X99684310Y-69727927D01*
X99655250Y-69767925D01*
X99573240Y-69880800D01*
X99487454Y-70049163D01*
X99429059Y-70228881D01*
X99399500Y-70415513D01*
X89574164Y-70415513D01*
X89550940Y-70268881D01*
X89508700Y-70138881D01*
X89492547Y-70089168D01*
X89492545Y-70089165D01*
X89492545Y-70089163D01*
X89437032Y-69980213D01*
X89406760Y-69920801D01*
X89295690Y-69767927D01*
X89162073Y-69634310D01*
X89009199Y-69523240D01*
X88967778Y-69502135D01*
X88840836Y-69437454D01*
X88661118Y-69379059D01*
X88474486Y-69349500D01*
X88474481Y-69349500D01*
X88285519Y-69349500D01*
X88285514Y-69349500D01*
X88098881Y-69379059D01*
X87919163Y-69437454D01*
X87750800Y-69523240D01*
X87663579Y-69586610D01*
X87597927Y-69634310D01*
X87597925Y-69634312D01*
X87597924Y-69634312D01*
X87464312Y-69767924D01*
X87464312Y-69767925D01*
X87464310Y-69767927D01*
X87442824Y-69797500D01*
X87353240Y-69920800D01*
X87267454Y-70089163D01*
X87209059Y-70268881D01*
X87179500Y-70455513D01*
X83598935Y-70455513D01*
X83569787Y-70398306D01*
X83452981Y-70237536D01*
X83312464Y-70097019D01*
X83151694Y-69980213D01*
X82994667Y-69900203D01*
X82943872Y-69852229D01*
X82927077Y-69784408D01*
X82949614Y-69718273D01*
X82994669Y-69679234D01*
X83151422Y-69599364D01*
X83188716Y-69572268D01*
X82574095Y-68957647D01*
X82661571Y-68934208D01*
X82762930Y-68875689D01*
X82845689Y-68792930D01*
X82904208Y-68691571D01*
X82927647Y-68604094D01*
X83542268Y-69218715D01*
X83569362Y-69181425D01*
X83659542Y-69004437D01*
X83720924Y-68815523D01*
X83720924Y-68815520D01*
X83752000Y-68619321D01*
X83752000Y-68420678D01*
X83720924Y-68224479D01*
X83720924Y-68224476D01*
X83659542Y-68035562D01*
X83569358Y-67858567D01*
X83542268Y-67821283D01*
X82927647Y-68435904D01*
X82904208Y-68348429D01*
X82845689Y-68247070D01*
X82762930Y-68164311D01*
X82661571Y-68105792D01*
X82574094Y-68082352D01*
X83188716Y-67467731D01*
X83188715Y-67467730D01*
X83151432Y-67440641D01*
X83145310Y-67437522D01*
X83145308Y-67437520D01*
X82994668Y-67360764D01*
X82964108Y-67331902D01*
X140469500Y-67331902D01*
X140469500Y-67568097D01*
X140506446Y-67801368D01*
X140579433Y-68025996D01*
X140680565Y-68224476D01*
X140686657Y-68236433D01*
X140825483Y-68427510D01*
X140992490Y-68594517D01*
X141183567Y-68733343D01*
X141282991Y-68784002D01*
X141394003Y-68840566D01*
X141394005Y-68840566D01*
X141394008Y-68840568D01*
X141495525Y-68873553D01*
X141618631Y-68913553D01*
X141851903Y-68950500D01*
X141851908Y-68950500D01*
X143288097Y-68950500D01*
X143521368Y-68913553D01*
X143745992Y-68840568D01*
X143956433Y-68733343D01*
X144147510Y-68594517D01*
X144314517Y-68427510D01*
X144453343Y-68236433D01*
X144560568Y-68025992D01*
X144633553Y-67801368D01*
X144670500Y-67568097D01*
X144670500Y-67331902D01*
X144633553Y-67098631D01*
X144560566Y-66874003D01*
X144453342Y-66663566D01*
X144437451Y-66641694D01*
X144314517Y-66472490D01*
X144147510Y-66305483D01*
X143956433Y-66166657D01*
X143745996Y-66059433D01*
X143521368Y-65986446D01*
X143288097Y-65949500D01*
X143288092Y-65949500D01*
X141851908Y-65949500D01*
X141851903Y-65949500D01*
X141618631Y-65986446D01*
X141394003Y-66059433D01*
X141183566Y-66166657D01*
X141074550Y-66245862D01*
X140992490Y-66305483D01*
X140992488Y-66305485D01*
X140992487Y-66305485D01*
X140825485Y-66472487D01*
X140825485Y-66472488D01*
X140825483Y-66472490D01*
X140765862Y-66554550D01*
X140686657Y-66663566D01*
X140579433Y-66874003D01*
X140506446Y-67098631D01*
X140469500Y-67331902D01*
X82964108Y-67331902D01*
X82943872Y-67312790D01*
X82927077Y-67244969D01*
X82949615Y-67178834D01*
X82994667Y-67139796D01*
X83151694Y-67059787D01*
X83312464Y-66942981D01*
X83452981Y-66802464D01*
X83569787Y-66641694D01*
X83660005Y-66464632D01*
X83721413Y-66275636D01*
X83752500Y-66079361D01*
X83752500Y-65880639D01*
X83721413Y-65684364D01*
X83660005Y-65495368D01*
X83660005Y-65495367D01*
X83569786Y-65318305D01*
X83452981Y-65157536D01*
X83312464Y-65017019D01*
X83151694Y-64900213D01*
X82974632Y-64809994D01*
X82974629Y-64809993D01*
X82785637Y-64748587D01*
X82687498Y-64733043D01*
X82589361Y-64717500D01*
X82390639Y-64717500D01*
X82325214Y-64727862D01*
X82194362Y-64748587D01*
X82005370Y-64809993D01*
X82005367Y-64809994D01*
X81828305Y-64900213D01*
X81667533Y-65017021D01*
X81527021Y-65157533D01*
X81410213Y-65318305D01*
X81319994Y-65495367D01*
X81319993Y-65495370D01*
X81258587Y-65684362D01*
X81227500Y-65880639D01*
X81227500Y-66079360D01*
X81258587Y-66275637D01*
X81319993Y-66464629D01*
X81319994Y-66464632D01*
X81410213Y-66641694D01*
X81527019Y-66802464D01*
X81667536Y-66942981D01*
X81828306Y-67059787D01*
X81985332Y-67139796D01*
X82036127Y-67187769D01*
X82052922Y-67255590D01*
X82030385Y-67321725D01*
X81985332Y-67360764D01*
X81828566Y-67440641D01*
X81791283Y-67467729D01*
X81791282Y-67467730D01*
X82405906Y-68082352D01*
X82318429Y-68105792D01*
X82217070Y-68164311D01*
X82134311Y-68247070D01*
X82075792Y-68348429D01*
X82052352Y-68435905D01*
X81437730Y-67821282D01*
X81437729Y-67821283D01*
X81410643Y-67858564D01*
X81320457Y-68035562D01*
X81259075Y-68224476D01*
X81259075Y-68224479D01*
X81228000Y-68420678D01*
X81228000Y-68619321D01*
X81259075Y-68815520D01*
X81259075Y-68815523D01*
X81320457Y-69004437D01*
X81410641Y-69181432D01*
X81437730Y-69218715D01*
X81437731Y-69218716D01*
X82052352Y-68604094D01*
X82075792Y-68691571D01*
X82134311Y-68792930D01*
X82217070Y-68875689D01*
X82318429Y-68934208D01*
X82405905Y-68957647D01*
X81791283Y-69572268D01*
X81791283Y-69572269D01*
X81828567Y-69599358D01*
X81985331Y-69679234D01*
X82036127Y-69727209D01*
X82052922Y-69795030D01*
X82030384Y-69861165D01*
X81985331Y-69900204D01*
X81828305Y-69980213D01*
X81667533Y-70097021D01*
X81527021Y-70237533D01*
X81410213Y-70398305D01*
X81319994Y-70575367D01*
X81319993Y-70575370D01*
X81258587Y-70764362D01*
X81227500Y-70960639D01*
X81227500Y-71159360D01*
X81258587Y-71355637D01*
X81319993Y-71544629D01*
X81319994Y-71544632D01*
X81404509Y-71710500D01*
X81410213Y-71721694D01*
X81527019Y-71882464D01*
X81667536Y-72022981D01*
X81828306Y-72139787D01*
X81883954Y-72168141D01*
X81984780Y-72219515D01*
X82035576Y-72267490D01*
X82052371Y-72335311D01*
X82029833Y-72401446D01*
X81984780Y-72440485D01*
X81828305Y-72520213D01*
X81667533Y-72637021D01*
X81527021Y-72777533D01*
X81410213Y-72938305D01*
X81319994Y-73115367D01*
X81319993Y-73115370D01*
X81258587Y-73304362D01*
X81227500Y-73500639D01*
X81227500Y-73699360D01*
X81258587Y-73895637D01*
X81319993Y-74084629D01*
X81319994Y-74084632D01*
X81399010Y-74239707D01*
X81410213Y-74261694D01*
X81527019Y-74422464D01*
X81667536Y-74562981D01*
X81828306Y-74679787D01*
X81921459Y-74727251D01*
X81984780Y-74759515D01*
X82035576Y-74807490D01*
X82052371Y-74875311D01*
X82029833Y-74941446D01*
X81984780Y-74980485D01*
X81828305Y-75060213D01*
X81667533Y-75177021D01*
X81527021Y-75317533D01*
X81410213Y-75478305D01*
X81319994Y-75655367D01*
X81319993Y-75655370D01*
X81258587Y-75844362D01*
X81227500Y-76040639D01*
X81227500Y-76239360D01*
X81258587Y-76435637D01*
X81319993Y-76624629D01*
X81319994Y-76624632D01*
X81355603Y-76694517D01*
X81410213Y-76801694D01*
X81527019Y-76962464D01*
X81667536Y-77102981D01*
X81828306Y-77219787D01*
X81931708Y-77272473D01*
X81984780Y-77299515D01*
X82035576Y-77347490D01*
X82052371Y-77415311D01*
X82029833Y-77481446D01*
X81984780Y-77520485D01*
X81828305Y-77600213D01*
X81667533Y-77717021D01*
X81527021Y-77857533D01*
X81410213Y-78018305D01*
X81319994Y-78195367D01*
X81319993Y-78195370D01*
X81258587Y-78384362D01*
X81227500Y-78580639D01*
X81227500Y-78779360D01*
X81258587Y-78975637D01*
X81319993Y-79164629D01*
X81319994Y-79164632D01*
X81391656Y-79305274D01*
X81410213Y-79341694D01*
X81527019Y-79502464D01*
X81667536Y-79642981D01*
X81828306Y-79759787D01*
X81946832Y-79820179D01*
X81984780Y-79839515D01*
X82035576Y-79887490D01*
X82052371Y-79955311D01*
X82029833Y-80021446D01*
X81984780Y-80060485D01*
X81828305Y-80140213D01*
X81667533Y-80257021D01*
X81527021Y-80397533D01*
X81410208Y-80558312D01*
X81407668Y-80562458D01*
X81406201Y-80561559D01*
X81391289Y-80577337D01*
X81373433Y-80600355D01*
X81366356Y-80603717D01*
X81363313Y-80606938D01*
X81342170Y-80616735D01*
X81334351Y-80619499D01*
X81333313Y-80619499D01*
X81180585Y-80660423D01*
X81130465Y-80689360D01*
X81120568Y-80695074D01*
X81043655Y-80739479D01*
X81043652Y-80739481D01*
X79228481Y-82554652D01*
X79228479Y-82554655D01*
X79178361Y-82641464D01*
X79178359Y-82641466D01*
X79149425Y-82691579D01*
X79149424Y-82691580D01*
X79149423Y-82691585D01*
X79108499Y-82844313D01*
X79108499Y-82844315D01*
X79108499Y-83012416D01*
X79108500Y-83012429D01*
X79108500Y-83982273D01*
X79108499Y-83982291D01*
X79108499Y-84147997D01*
X79108498Y-84147997D01*
X79149423Y-84300728D01*
X79163596Y-84325276D01*
X79163595Y-84325276D01*
X79163596Y-84325277D01*
X79228475Y-84437652D01*
X79228481Y-84437660D01*
X79347349Y-84556528D01*
X79347355Y-84556533D01*
X82205196Y-87414374D01*
X82205206Y-87414385D01*
X82209536Y-87418715D01*
X82209537Y-87418716D01*
X82321341Y-87530520D01*
X82408152Y-87580639D01*
X82408154Y-87580641D01*
X82458270Y-87609576D01*
X82458272Y-87609577D01*
X82610999Y-87650500D01*
X82611000Y-87650500D01*
X119230943Y-87650500D01*
X119713331Y-87650500D01*
X119713347Y-87650501D01*
X119720943Y-87650501D01*
X119879054Y-87650501D01*
X119879057Y-87650501D01*
X120031785Y-87609577D01*
X120081904Y-87580639D01*
X120168716Y-87530520D01*
X120280520Y-87418716D01*
X120280520Y-87418714D01*
X120290728Y-87408507D01*
X120290729Y-87408504D01*
X120604664Y-87094570D01*
X120665984Y-87061088D01*
X120668151Y-87060637D01*
X120668840Y-87060500D01*
X120668842Y-87060500D01*
X120823497Y-87029737D01*
X120969179Y-86969394D01*
X121100289Y-86881789D01*
X121211789Y-86770289D01*
X121299394Y-86639179D01*
X121359737Y-86493497D01*
X121390500Y-86338842D01*
X121390500Y-86181158D01*
X121390500Y-86181155D01*
X121390499Y-86181153D01*
X121359738Y-86026510D01*
X121359738Y-86026508D01*
X121359737Y-86026503D01*
X121320572Y-85931951D01*
X121313104Y-85862483D01*
X121344379Y-85800004D01*
X121404468Y-85764352D01*
X121435134Y-85760500D01*
X132561217Y-85760500D01*
X132628256Y-85780185D01*
X132648898Y-85796819D01*
X135331600Y-88479521D01*
X135365085Y-88540844D01*
X135360101Y-88610536D01*
X135318229Y-88666469D01*
X135282247Y-88685130D01*
X135275811Y-88687221D01*
X135051413Y-88801559D01*
X134949301Y-88875747D01*
X134949300Y-88875748D01*
X135565974Y-89492421D01*
X135534742Y-89505359D01*
X135411903Y-89587437D01*
X135307437Y-89691903D01*
X135225359Y-89814742D01*
X135212421Y-89845974D01*
X134595748Y-89229300D01*
X134595747Y-89229301D01*
X134521559Y-89331413D01*
X134407219Y-89555815D01*
X134329397Y-89795330D01*
X134290000Y-90044071D01*
X134290000Y-90295928D01*
X134329397Y-90544669D01*
X134407219Y-90784184D01*
X134521557Y-91008583D01*
X134595748Y-91110697D01*
X134595748Y-91110698D01*
X135212421Y-90494024D01*
X135225359Y-90525258D01*
X135307437Y-90648097D01*
X135411903Y-90752563D01*
X135534742Y-90834641D01*
X135565973Y-90847577D01*
X134949300Y-91464250D01*
X135051416Y-91538442D01*
X135275813Y-91652779D01*
X135282233Y-91654865D01*
X135339910Y-91694301D01*
X135367109Y-91758659D01*
X135355197Y-91827506D01*
X135331600Y-91860478D01*
X135235354Y-91956724D01*
X135118896Y-92073182D01*
X135057576Y-92106666D01*
X135031217Y-92109500D01*
X131106300Y-92109500D01*
X131039261Y-92089815D01*
X130995815Y-92041795D01*
X130965464Y-91982228D01*
X130908870Y-91871155D01*
X130835377Y-91770000D01*
X130760798Y-91667350D01*
X130760794Y-91667345D01*
X130582654Y-91489205D01*
X130582649Y-91489201D01*
X130378848Y-91341132D01*
X130378847Y-91341131D01*
X130378845Y-91341130D01*
X130308747Y-91305413D01*
X130154383Y-91226760D01*
X129914785Y-91148910D01*
X129851648Y-91138910D01*
X129665962Y-91109500D01*
X129414038Y-91109500D01*
X129289626Y-91129205D01*
X129165214Y-91148910D01*
X128925616Y-91226760D01*
X128701151Y-91341132D01*
X128497350Y-91489201D01*
X128497345Y-91489205D01*
X128319205Y-91667345D01*
X128319201Y-91667350D01*
X128171132Y-91871151D01*
X128056760Y-92095616D01*
X127978910Y-92335214D01*
X127939500Y-92584038D01*
X127939500Y-92835961D01*
X127978910Y-93084785D01*
X128056760Y-93324383D01*
X128121860Y-93452147D01*
X128166036Y-93538848D01*
X128171132Y-93548848D01*
X128319201Y-93752649D01*
X128319205Y-93752654D01*
X128319207Y-93752656D01*
X128497344Y-93930793D01*
X128497345Y-93930794D01*
X128497344Y-93930794D01*
X128503661Y-93935383D01*
X128546327Y-93990714D01*
X128552305Y-94060327D01*
X128519699Y-94122122D01*
X128458860Y-94156479D01*
X128411378Y-94158174D01*
X128356611Y-94149500D01*
X128183389Y-94149500D01*
X128143728Y-94155781D01*
X128012302Y-94176597D01*
X127847552Y-94230128D01*
X127693211Y-94308768D01*
X127636289Y-94350125D01*
X127553072Y-94410586D01*
X127553070Y-94410588D01*
X127553069Y-94410588D01*
X127430588Y-94533069D01*
X127430588Y-94533070D01*
X127430586Y-94533072D01*
X127386859Y-94593256D01*
X127328768Y-94673211D01*
X127250128Y-94827552D01*
X127196597Y-94992302D01*
X127169500Y-95163389D01*
X127169500Y-95336610D01*
X127195013Y-95497697D01*
X127196598Y-95507701D01*
X127250127Y-95672445D01*
X127328768Y-95826788D01*
X127430586Y-95966928D01*
X127553072Y-96089414D01*
X127693212Y-96191232D01*
X127847555Y-96269873D01*
X128012299Y-96323402D01*
X128183389Y-96350500D01*
X128183390Y-96350500D01*
X128356610Y-96350500D01*
X128356611Y-96350500D01*
X128527701Y-96323402D01*
X128692445Y-96269873D01*
X128846788Y-96191232D01*
X128986928Y-96089414D01*
X129109414Y-95966928D01*
X129211232Y-95826788D01*
X129289873Y-95672445D01*
X129343402Y-95507701D01*
X129370500Y-95336611D01*
X129370500Y-95163389D01*
X129343402Y-94992299D01*
X129289873Y-94827555D01*
X129211232Y-94673212D01*
X129109414Y-94533072D01*
X129057482Y-94481140D01*
X129023997Y-94419817D01*
X129028981Y-94350125D01*
X129070853Y-94294192D01*
X129136317Y-94269775D01*
X129164561Y-94270986D01*
X129165212Y-94271089D01*
X129165215Y-94271090D01*
X129414038Y-94310500D01*
X129414039Y-94310500D01*
X129665961Y-94310500D01*
X129665962Y-94310500D01*
X129914785Y-94271090D01*
X130154379Y-94193241D01*
X130378845Y-94078870D01*
X130582656Y-93930793D01*
X130760793Y-93752656D01*
X130908870Y-93548845D01*
X130995815Y-93378204D01*
X131043789Y-93327409D01*
X131106300Y-93310500D01*
X131815462Y-93310500D01*
X131882501Y-93330185D01*
X131928256Y-93382989D01*
X131938200Y-93452147D01*
X131909175Y-93515703D01*
X131890948Y-93532876D01*
X131862959Y-93554352D01*
X131862952Y-93554358D01*
X131654358Y-93762952D01*
X131654352Y-93762959D01*
X131474761Y-93997006D01*
X131327258Y-94252489D01*
X131327254Y-94252499D01*
X131214364Y-94525038D01*
X131214361Y-94525048D01*
X131140685Y-94800015D01*
X131138008Y-94810004D01*
X131138006Y-94810015D01*
X131099500Y-95102486D01*
X131099500Y-95397513D01*
X131130376Y-95632028D01*
X131138007Y-95689993D01*
X131212212Y-95966930D01*
X131214361Y-95974951D01*
X131214364Y-95974961D01*
X131327254Y-96247500D01*
X131327258Y-96247510D01*
X131474761Y-96502993D01*
X131654352Y-96737040D01*
X131654358Y-96737047D01*
X131706130Y-96788819D01*
X131739615Y-96850142D01*
X131734631Y-96919834D01*
X131692759Y-96975767D01*
X131627295Y-97000184D01*
X131618449Y-97000500D01*
X116081551Y-97000500D01*
X116014512Y-96980815D01*
X115968757Y-96928011D01*
X115958813Y-96858853D01*
X115987838Y-96795297D01*
X115993870Y-96788819D01*
X116045641Y-96737047D01*
X116045646Y-96737042D01*
X116225238Y-96502994D01*
X116372743Y-96247507D01*
X116485639Y-95974952D01*
X116561993Y-95689993D01*
X116600500Y-95397506D01*
X116600500Y-95163389D01*
X118329500Y-95163389D01*
X118329500Y-95336610D01*
X118355013Y-95497697D01*
X118356598Y-95507701D01*
X118410127Y-95672445D01*
X118488768Y-95826788D01*
X118590586Y-95966928D01*
X118713072Y-96089414D01*
X118853212Y-96191232D01*
X119007555Y-96269873D01*
X119172299Y-96323402D01*
X119343389Y-96350500D01*
X119343390Y-96350500D01*
X119516610Y-96350500D01*
X119516611Y-96350500D01*
X119687701Y-96323402D01*
X119852445Y-96269873D01*
X120006788Y-96191232D01*
X120146928Y-96089414D01*
X120269414Y-95966928D01*
X120371232Y-95826788D01*
X120449873Y-95672445D01*
X120503402Y-95507701D01*
X120530500Y-95336611D01*
X120530500Y-95163389D01*
X120503402Y-94992299D01*
X120449873Y-94827555D01*
X120371232Y-94673212D01*
X120269414Y-94533072D01*
X120146928Y-94410586D01*
X120006788Y-94308768D01*
X119852445Y-94230127D01*
X119687701Y-94176598D01*
X119687699Y-94176597D01*
X119687698Y-94176597D01*
X119556271Y-94155781D01*
X119516611Y-94149500D01*
X119343389Y-94149500D01*
X119303728Y-94155781D01*
X119172302Y-94176597D01*
X119007552Y-94230128D01*
X118853211Y-94308768D01*
X118796289Y-94350125D01*
X118713072Y-94410586D01*
X118713070Y-94410588D01*
X118713069Y-94410588D01*
X118590588Y-94533069D01*
X118590588Y-94533070D01*
X118590586Y-94533072D01*
X118546859Y-94593256D01*
X118488768Y-94673211D01*
X118410128Y-94827552D01*
X118356597Y-94992302D01*
X118329500Y-95163389D01*
X116600500Y-95163389D01*
X116600500Y-95102494D01*
X116561993Y-94810007D01*
X116485639Y-94525048D01*
X116372743Y-94252493D01*
X116366967Y-94242489D01*
X116225238Y-93997006D01*
X116045647Y-93762959D01*
X116045641Y-93762952D01*
X115837047Y-93554358D01*
X115837040Y-93554352D01*
X115602993Y-93374761D01*
X115347505Y-93227256D01*
X115347500Y-93227254D01*
X115074961Y-93114364D01*
X115074954Y-93114362D01*
X115074952Y-93114361D01*
X114789993Y-93038007D01*
X114741113Y-93031571D01*
X114497513Y-92999500D01*
X114497506Y-92999500D01*
X114202494Y-92999500D01*
X114202486Y-92999500D01*
X113924085Y-93036153D01*
X113910007Y-93038007D01*
X113796201Y-93068501D01*
X113625048Y-93114361D01*
X113625038Y-93114364D01*
X113352499Y-93227254D01*
X113352495Y-93227256D01*
X113097006Y-93374761D01*
X112862959Y-93554352D01*
X112862952Y-93554358D01*
X112654358Y-93762952D01*
X112654352Y-93762959D01*
X112474761Y-93997006D01*
X112327258Y-94252489D01*
X112327254Y-94252499D01*
X112214364Y-94525038D01*
X112214361Y-94525048D01*
X112140685Y-94800015D01*
X112138008Y-94810004D01*
X112138006Y-94810015D01*
X112099500Y-95102486D01*
X112099500Y-95397513D01*
X112130376Y-95632028D01*
X112138007Y-95689993D01*
X112212212Y-95966930D01*
X112214361Y-95974951D01*
X112214364Y-95974961D01*
X112327254Y-96247500D01*
X112327258Y-96247510D01*
X112474761Y-96502993D01*
X112654352Y-96737040D01*
X112654358Y-96737047D01*
X112706130Y-96788819D01*
X112739615Y-96850142D01*
X112734631Y-96919834D01*
X112692759Y-96975767D01*
X112627295Y-97000184D01*
X112618449Y-97000500D01*
X96981551Y-97000500D01*
X96914512Y-96980815D01*
X96868757Y-96928011D01*
X96858813Y-96858853D01*
X96887838Y-96795297D01*
X96893870Y-96788819D01*
X96955641Y-96727047D01*
X96955646Y-96727042D01*
X97135238Y-96492994D01*
X97282743Y-96237507D01*
X97395639Y-95964952D01*
X97471993Y-95679993D01*
X97510500Y-95387506D01*
X97510500Y-95153389D01*
X99239500Y-95153389D01*
X99239500Y-95326610D01*
X99250727Y-95397499D01*
X99266598Y-95497701D01*
X99320127Y-95662445D01*
X99398768Y-95816788D01*
X99500586Y-95956928D01*
X99623072Y-96079414D01*
X99763212Y-96181232D01*
X99917555Y-96259873D01*
X100082299Y-96313402D01*
X100253389Y-96340500D01*
X100253390Y-96340500D01*
X100426610Y-96340500D01*
X100426611Y-96340500D01*
X100597701Y-96313402D01*
X100762445Y-96259873D01*
X100916788Y-96181232D01*
X101056928Y-96079414D01*
X101179414Y-95956928D01*
X101281232Y-95816788D01*
X101359873Y-95662445D01*
X101413402Y-95497701D01*
X101440500Y-95326611D01*
X101440500Y-95163389D01*
X108169500Y-95163389D01*
X108169500Y-95336610D01*
X108195013Y-95497697D01*
X108196598Y-95507701D01*
X108250127Y-95672445D01*
X108328768Y-95826788D01*
X108430586Y-95966928D01*
X108553072Y-96089414D01*
X108693212Y-96191232D01*
X108847555Y-96269873D01*
X109012299Y-96323402D01*
X109183389Y-96350500D01*
X109183390Y-96350500D01*
X109356610Y-96350500D01*
X109356611Y-96350500D01*
X109527701Y-96323402D01*
X109692445Y-96269873D01*
X109846788Y-96191232D01*
X109986928Y-96089414D01*
X110109414Y-95966928D01*
X110211232Y-95826788D01*
X110289873Y-95672445D01*
X110343402Y-95507701D01*
X110370500Y-95336611D01*
X110370500Y-95163389D01*
X110343402Y-94992299D01*
X110289873Y-94827555D01*
X110211232Y-94673212D01*
X110109414Y-94533072D01*
X110057482Y-94481140D01*
X110023997Y-94419817D01*
X110028981Y-94350125D01*
X110070853Y-94294192D01*
X110136317Y-94269775D01*
X110164561Y-94270986D01*
X110165212Y-94271089D01*
X110165215Y-94271090D01*
X110414038Y-94310500D01*
X110414039Y-94310500D01*
X110665961Y-94310500D01*
X110665962Y-94310500D01*
X110914785Y-94271090D01*
X111154379Y-94193241D01*
X111378845Y-94078870D01*
X111582656Y-93930793D01*
X111760793Y-93752656D01*
X111908870Y-93548845D01*
X112023241Y-93324379D01*
X112101090Y-93084785D01*
X112140500Y-92835962D01*
X112140500Y-92584038D01*
X112101090Y-92335215D01*
X112023241Y-92095621D01*
X112023239Y-92095618D01*
X112023239Y-92095616D01*
X111962925Y-91977244D01*
X111908870Y-91871155D01*
X111835377Y-91770000D01*
X111760798Y-91667350D01*
X111760794Y-91667345D01*
X111582654Y-91489205D01*
X111582649Y-91489201D01*
X111378848Y-91341132D01*
X111378847Y-91341131D01*
X111378845Y-91341130D01*
X111308747Y-91305413D01*
X111154383Y-91226760D01*
X110914785Y-91148910D01*
X110851648Y-91138910D01*
X110665962Y-91109500D01*
X110414038Y-91109500D01*
X110289626Y-91129205D01*
X110165214Y-91148910D01*
X109925616Y-91226760D01*
X109701151Y-91341132D01*
X109497350Y-91489201D01*
X109497345Y-91489205D01*
X109319205Y-91667345D01*
X109319201Y-91667350D01*
X109171132Y-91871151D01*
X109056760Y-92095616D01*
X108978910Y-92335214D01*
X108939500Y-92584038D01*
X108939500Y-92835961D01*
X108978910Y-93084785D01*
X109056760Y-93324383D01*
X109121860Y-93452147D01*
X109166036Y-93538848D01*
X109171132Y-93548848D01*
X109319201Y-93752649D01*
X109319205Y-93752654D01*
X109319207Y-93752656D01*
X109497344Y-93930793D01*
X109497345Y-93930794D01*
X109497344Y-93930794D01*
X109503661Y-93935383D01*
X109546327Y-93990714D01*
X109552305Y-94060327D01*
X109519699Y-94122122D01*
X109458860Y-94156479D01*
X109411378Y-94158174D01*
X109356611Y-94149500D01*
X109183389Y-94149500D01*
X109143728Y-94155781D01*
X109012302Y-94176597D01*
X108847552Y-94230128D01*
X108693211Y-94308768D01*
X108636289Y-94350125D01*
X108553072Y-94410586D01*
X108553070Y-94410588D01*
X108553069Y-94410588D01*
X108430588Y-94533069D01*
X108430588Y-94533070D01*
X108430586Y-94533072D01*
X108386859Y-94593256D01*
X108328768Y-94673211D01*
X108250128Y-94827552D01*
X108196597Y-94992302D01*
X108169500Y-95163389D01*
X101440500Y-95163389D01*
X101440500Y-95153389D01*
X101413402Y-94982299D01*
X101359873Y-94817555D01*
X101281232Y-94663212D01*
X101179414Y-94523072D01*
X101056928Y-94400586D01*
X100916788Y-94298768D01*
X100762445Y-94220127D01*
X100597701Y-94166598D01*
X100597699Y-94166597D01*
X100597698Y-94166597D01*
X100466271Y-94145781D01*
X100426611Y-94139500D01*
X100253389Y-94139500D01*
X100213728Y-94145781D01*
X100082302Y-94166597D01*
X100024005Y-94185539D01*
X99957562Y-94207128D01*
X99917552Y-94220128D01*
X99763211Y-94298768D01*
X99747064Y-94310500D01*
X99623072Y-94400586D01*
X99623070Y-94400588D01*
X99623069Y-94400588D01*
X99500588Y-94523069D01*
X99500588Y-94523070D01*
X99500586Y-94523072D01*
X99493323Y-94533069D01*
X99398768Y-94663211D01*
X99320128Y-94817552D01*
X99266597Y-94982302D01*
X99239500Y-95153389D01*
X97510500Y-95153389D01*
X97510500Y-95092494D01*
X97471993Y-94800007D01*
X97395639Y-94515048D01*
X97282743Y-94242493D01*
X97282018Y-94241238D01*
X97135238Y-93987006D01*
X96955647Y-93752959D01*
X96955641Y-93752952D01*
X96747047Y-93544358D01*
X96747040Y-93544352D01*
X96512993Y-93364761D01*
X96257510Y-93217258D01*
X96257500Y-93217254D01*
X95984961Y-93104364D01*
X95984954Y-93104362D01*
X95984952Y-93104361D01*
X95699993Y-93028007D01*
X95638111Y-93019860D01*
X95407513Y-92989500D01*
X95407506Y-92989500D01*
X95112494Y-92989500D01*
X95112486Y-92989500D01*
X94834085Y-93026153D01*
X94820007Y-93028007D01*
X94630757Y-93078716D01*
X94535048Y-93104361D01*
X94535038Y-93104364D01*
X94262499Y-93217254D01*
X94262489Y-93217258D01*
X94007006Y-93364761D01*
X93772959Y-93544352D01*
X93772952Y-93544358D01*
X93564358Y-93752952D01*
X93564352Y-93752959D01*
X93384761Y-93987006D01*
X93237258Y-94242489D01*
X93237254Y-94242499D01*
X93124364Y-94515038D01*
X93124361Y-94515048D01*
X93048008Y-94800004D01*
X93048006Y-94800015D01*
X93009500Y-95092486D01*
X93009500Y-95387513D01*
X93035651Y-95586143D01*
X93048007Y-95679993D01*
X93122212Y-95956930D01*
X93124361Y-95964951D01*
X93124364Y-95964961D01*
X93237254Y-96237500D01*
X93237258Y-96237510D01*
X93384761Y-96492993D01*
X93564352Y-96727040D01*
X93564358Y-96727047D01*
X93626130Y-96788819D01*
X93659615Y-96850142D01*
X93654631Y-96919834D01*
X93612759Y-96975767D01*
X93547295Y-97000184D01*
X93538449Y-97000500D01*
X85650412Y-97000500D01*
X85583373Y-96980815D01*
X85562731Y-96964181D01*
X83834748Y-95236198D01*
X83751939Y-95153389D01*
X89079500Y-95153389D01*
X89079500Y-95326610D01*
X89090727Y-95397499D01*
X89106598Y-95497701D01*
X89160127Y-95662445D01*
X89238768Y-95816788D01*
X89340586Y-95956928D01*
X89463072Y-96079414D01*
X89603212Y-96181232D01*
X89757555Y-96259873D01*
X89922299Y-96313402D01*
X90093389Y-96340500D01*
X90093390Y-96340500D01*
X90266610Y-96340500D01*
X90266611Y-96340500D01*
X90437701Y-96313402D01*
X90602445Y-96259873D01*
X90756788Y-96181232D01*
X90896928Y-96079414D01*
X91019414Y-95956928D01*
X91121232Y-95816788D01*
X91199873Y-95662445D01*
X91253402Y-95497701D01*
X91280500Y-95326611D01*
X91280500Y-95153389D01*
X91253402Y-94982299D01*
X91199873Y-94817555D01*
X91121232Y-94663212D01*
X91019414Y-94523072D01*
X90967482Y-94471140D01*
X90933997Y-94409817D01*
X90938981Y-94340125D01*
X90980853Y-94284192D01*
X91046317Y-94259775D01*
X91074561Y-94260986D01*
X91075212Y-94261089D01*
X91075215Y-94261090D01*
X91324038Y-94300500D01*
X91324039Y-94300500D01*
X91575961Y-94300500D01*
X91575962Y-94300500D01*
X91824785Y-94261090D01*
X92064379Y-94183241D01*
X92288845Y-94068870D01*
X92492656Y-93920793D01*
X92670793Y-93742656D01*
X92818870Y-93538845D01*
X92933241Y-93314379D01*
X93011090Y-93074785D01*
X93050500Y-92825962D01*
X93050500Y-92574038D01*
X93011090Y-92325215D01*
X92933241Y-92085621D01*
X92933239Y-92085618D01*
X92933239Y-92085616D01*
X92878020Y-91977244D01*
X92818870Y-91861155D01*
X92794423Y-91827506D01*
X92670798Y-91657350D01*
X92670794Y-91657345D01*
X92492654Y-91479205D01*
X92492649Y-91479201D01*
X92288848Y-91331132D01*
X92288847Y-91331131D01*
X92288845Y-91331130D01*
X92218747Y-91295413D01*
X92064383Y-91216760D01*
X91824785Y-91138910D01*
X91575962Y-91099500D01*
X91324038Y-91099500D01*
X91199626Y-91119205D01*
X91075214Y-91138910D01*
X90835616Y-91216760D01*
X90611151Y-91331132D01*
X90407350Y-91479201D01*
X90407345Y-91479205D01*
X90229205Y-91657345D01*
X90229201Y-91657350D01*
X90081132Y-91861151D01*
X89966760Y-92085616D01*
X89888910Y-92325214D01*
X89887141Y-92336385D01*
X89849500Y-92574038D01*
X89849500Y-92825962D01*
X89864210Y-92918834D01*
X89888910Y-93074785D01*
X89966760Y-93314383D01*
X90081132Y-93538848D01*
X90229201Y-93742649D01*
X90229205Y-93742654D01*
X90229207Y-93742656D01*
X90407344Y-93920793D01*
X90407345Y-93920794D01*
X90407344Y-93920794D01*
X90413661Y-93925383D01*
X90456327Y-93980714D01*
X90462305Y-94050327D01*
X90429699Y-94112122D01*
X90368860Y-94146479D01*
X90321378Y-94148174D01*
X90266611Y-94139500D01*
X90093389Y-94139500D01*
X90053728Y-94145781D01*
X89922302Y-94166597D01*
X89864005Y-94185539D01*
X89797562Y-94207128D01*
X89757552Y-94220128D01*
X89603211Y-94298768D01*
X89587064Y-94310500D01*
X89463072Y-94400586D01*
X89463070Y-94400588D01*
X89463069Y-94400588D01*
X89340588Y-94523069D01*
X89340588Y-94523070D01*
X89340586Y-94523072D01*
X89333323Y-94533069D01*
X89238768Y-94663211D01*
X89160128Y-94817552D01*
X89106597Y-94982302D01*
X89079500Y-95153389D01*
X83751939Y-95153389D01*
X79972374Y-91373825D01*
X79938889Y-91312502D01*
X79943873Y-91242810D01*
X79959737Y-91213258D01*
X80108442Y-91008583D01*
X80222780Y-90784184D01*
X80300602Y-90544669D01*
X80340000Y-90295928D01*
X80340000Y-90044070D01*
X80339999Y-90044069D01*
X80338415Y-90034071D01*
X96200000Y-90034071D01*
X96200000Y-90285928D01*
X96239397Y-90534669D01*
X96317219Y-90774184D01*
X96431557Y-90998583D01*
X96505748Y-91100697D01*
X96505748Y-91100698D01*
X97122421Y-90484024D01*
X97135359Y-90515258D01*
X97217437Y-90638097D01*
X97321903Y-90742563D01*
X97444742Y-90824641D01*
X97475974Y-90837577D01*
X96859300Y-91454250D01*
X96961416Y-91528442D01*
X97185815Y-91642780D01*
X97425330Y-91720602D01*
X97674072Y-91760000D01*
X97925928Y-91760000D01*
X98174669Y-91720602D01*
X98414184Y-91642780D01*
X98638575Y-91528446D01*
X98638581Y-91528442D01*
X98740697Y-91454250D01*
X98740698Y-91454250D01*
X98124025Y-90837578D01*
X98155258Y-90824641D01*
X98278097Y-90742563D01*
X98382563Y-90638097D01*
X98464641Y-90515258D01*
X98477577Y-90484025D01*
X99094250Y-91100698D01*
X99094250Y-91100697D01*
X99168442Y-90998581D01*
X99168446Y-90998575D01*
X99282780Y-90774184D01*
X99360602Y-90534669D01*
X99400000Y-90285928D01*
X99400000Y-90044071D01*
X115290000Y-90044071D01*
X115290000Y-90295928D01*
X115329397Y-90544669D01*
X115407219Y-90784184D01*
X115521557Y-91008583D01*
X115595748Y-91110697D01*
X115595748Y-91110698D01*
X116212421Y-90494024D01*
X116225359Y-90525258D01*
X116307437Y-90648097D01*
X116411903Y-90752563D01*
X116534742Y-90834641D01*
X116565974Y-90847577D01*
X115949300Y-91464250D01*
X116051416Y-91538442D01*
X116275815Y-91652780D01*
X116515330Y-91730602D01*
X116764072Y-91770000D01*
X117015928Y-91770000D01*
X117264669Y-91730602D01*
X117504184Y-91652780D01*
X117728575Y-91538446D01*
X117728581Y-91538442D01*
X117830697Y-91464250D01*
X117830698Y-91464250D01*
X117214025Y-90847578D01*
X117245258Y-90834641D01*
X117368097Y-90752563D01*
X117472563Y-90648097D01*
X117554641Y-90525258D01*
X117567577Y-90494025D01*
X118184250Y-91110698D01*
X118184250Y-91110697D01*
X118258442Y-91008581D01*
X118258446Y-91008575D01*
X118372780Y-90784184D01*
X118450602Y-90544669D01*
X118490000Y-90295928D01*
X118490000Y-90044071D01*
X118450602Y-89795330D01*
X118372780Y-89555815D01*
X118258442Y-89331416D01*
X118184250Y-89229301D01*
X118184250Y-89229300D01*
X117567577Y-89845973D01*
X117554641Y-89814742D01*
X117472563Y-89691903D01*
X117368097Y-89587437D01*
X117245258Y-89505359D01*
X117214024Y-89492421D01*
X117830698Y-88875748D01*
X117728583Y-88801557D01*
X117504184Y-88687219D01*
X117264669Y-88609397D01*
X117015928Y-88570000D01*
X116764072Y-88570000D01*
X116515330Y-88609397D01*
X116275815Y-88687219D01*
X116051413Y-88801559D01*
X115949301Y-88875747D01*
X115949300Y-88875748D01*
X116565974Y-89492421D01*
X116534742Y-89505359D01*
X116411903Y-89587437D01*
X116307437Y-89691903D01*
X116225359Y-89814742D01*
X116212421Y-89845974D01*
X115595748Y-89229300D01*
X115595747Y-89229301D01*
X115521559Y-89331413D01*
X115407219Y-89555815D01*
X115329397Y-89795330D01*
X115290000Y-90044071D01*
X99400000Y-90044071D01*
X99400000Y-90034071D01*
X99360602Y-89785330D01*
X99282780Y-89545815D01*
X99168442Y-89321416D01*
X99094250Y-89219301D01*
X99094250Y-89219300D01*
X98477577Y-89835973D01*
X98464641Y-89804742D01*
X98382563Y-89681903D01*
X98278097Y-89577437D01*
X98155258Y-89495359D01*
X98124024Y-89482421D01*
X98740698Y-88865748D01*
X98638583Y-88791557D01*
X98414184Y-88677219D01*
X98174669Y-88599397D01*
X97925928Y-88560000D01*
X97674072Y-88560000D01*
X97425330Y-88599397D01*
X97185815Y-88677219D01*
X96961413Y-88791559D01*
X96859301Y-88865747D01*
X96859300Y-88865748D01*
X97475974Y-89482421D01*
X97444742Y-89495359D01*
X97321903Y-89577437D01*
X97217437Y-89681903D01*
X97135359Y-89804742D01*
X97122421Y-89835974D01*
X96505748Y-89219300D01*
X96505747Y-89219301D01*
X96431559Y-89321413D01*
X96317219Y-89545815D01*
X96239397Y-89785330D01*
X96200000Y-90034071D01*
X80338415Y-90034071D01*
X80300602Y-89795330D01*
X80222780Y-89555815D01*
X80108442Y-89331416D01*
X80034250Y-89229301D01*
X80034250Y-89229300D01*
X79417577Y-89845973D01*
X79404641Y-89814742D01*
X79322563Y-89691903D01*
X79218097Y-89587437D01*
X79095258Y-89505359D01*
X79064024Y-89492421D01*
X79680698Y-88875748D01*
X79578583Y-88801557D01*
X79354184Y-88687219D01*
X79114669Y-88609397D01*
X78865928Y-88570000D01*
X78614072Y-88570000D01*
X78365330Y-88609397D01*
X78125815Y-88687219D01*
X77901413Y-88801559D01*
X77799301Y-88875747D01*
X77799300Y-88875748D01*
X78415974Y-89492421D01*
X78384742Y-89505359D01*
X78261903Y-89587437D01*
X78157437Y-89691903D01*
X78075359Y-89814742D01*
X78062421Y-89845974D01*
X77445748Y-89229300D01*
X77445747Y-89229301D01*
X77371559Y-89331413D01*
X77257219Y-89555815D01*
X77179397Y-89795330D01*
X77140000Y-90044071D01*
X77140000Y-90295928D01*
X77179397Y-90544669D01*
X77257219Y-90784184D01*
X77260288Y-90790207D01*
X77273183Y-90858876D01*
X77246906Y-90923616D01*
X77189799Y-90963872D01*
X77149802Y-90970500D01*
X76397787Y-90970500D01*
X76330748Y-90950815D01*
X76310106Y-90934181D01*
X67876048Y-82500123D01*
X67842563Y-82438800D01*
X67847547Y-82369108D01*
X67889419Y-82313175D01*
X67907439Y-82301955D01*
X67911694Y-82299787D01*
X68072464Y-82182981D01*
X68212981Y-82042464D01*
X68329787Y-81881694D01*
X68329789Y-81881689D01*
X68331000Y-81879715D01*
X68331656Y-81879121D01*
X68332651Y-81877752D01*
X68332938Y-81877960D01*
X68382810Y-81832837D01*
X68436730Y-81820500D01*
X73613331Y-81820500D01*
X73613347Y-81820501D01*
X73620943Y-81820501D01*
X73779054Y-81820501D01*
X73779057Y-81820501D01*
X73931785Y-81779577D01*
X74001430Y-81739367D01*
X74068716Y-81700520D01*
X74180520Y-81588716D01*
X74180520Y-81588714D01*
X74190724Y-81578511D01*
X74190727Y-81578506D01*
X78014662Y-77754572D01*
X78075983Y-77721089D01*
X78078150Y-77720638D01*
X78136085Y-77709113D01*
X78233497Y-77689737D01*
X78379179Y-77629394D01*
X78510289Y-77541789D01*
X78621789Y-77430289D01*
X78709394Y-77299179D01*
X78769737Y-77153497D01*
X78800500Y-76998842D01*
X78800500Y-76841158D01*
X78800500Y-76841155D01*
X78800499Y-76841153D01*
X78769738Y-76686510D01*
X78769738Y-76686508D01*
X78769737Y-76686503D01*
X78769735Y-76686498D01*
X78709397Y-76540827D01*
X78709390Y-76540814D01*
X78621789Y-76409711D01*
X78621786Y-76409707D01*
X78510292Y-76298213D01*
X78510288Y-76298210D01*
X78379185Y-76210609D01*
X78379172Y-76210602D01*
X78233501Y-76150264D01*
X78233489Y-76150261D01*
X78078845Y-76119500D01*
X78078842Y-76119500D01*
X77921158Y-76119500D01*
X77921155Y-76119500D01*
X77766510Y-76150261D01*
X77766498Y-76150264D01*
X77620827Y-76210602D01*
X77620814Y-76210609D01*
X77489711Y-76298210D01*
X77489707Y-76298213D01*
X77378213Y-76409707D01*
X77378210Y-76409711D01*
X77290609Y-76540814D01*
X77290602Y-76540827D01*
X77230264Y-76686498D01*
X77230261Y-76686508D01*
X77199361Y-76841850D01*
X77166976Y-76903761D01*
X77165425Y-76905339D01*
X75210513Y-78860250D01*
X75149190Y-78893735D01*
X75079498Y-78888751D01*
X75023565Y-78846879D01*
X75019738Y-78841472D01*
X74971789Y-78769711D01*
X74971787Y-78769708D01*
X74860292Y-78658213D01*
X74860288Y-78658210D01*
X74729185Y-78570609D01*
X74729172Y-78570602D01*
X74583501Y-78510264D01*
X74583491Y-78510261D01*
X74428149Y-78479361D01*
X74366238Y-78446976D01*
X74364660Y-78445425D01*
X71261416Y-75342181D01*
X71227931Y-75280858D01*
X71232915Y-75211166D01*
X71274787Y-75155233D01*
X71340251Y-75130816D01*
X71349097Y-75130500D01*
X73840234Y-75130500D01*
X73907273Y-75150185D01*
X73909125Y-75151398D01*
X74040814Y-75239390D01*
X74040827Y-75239397D01*
X74185491Y-75299318D01*
X74186503Y-75299737D01*
X74341153Y-75330499D01*
X74341156Y-75330500D01*
X74341158Y-75330500D01*
X74498844Y-75330500D01*
X74498845Y-75330499D01*
X74653497Y-75299737D01*
X74798711Y-75239588D01*
X74799172Y-75239397D01*
X74799172Y-75239396D01*
X74799179Y-75239394D01*
X74930289Y-75151789D01*
X75041789Y-75040289D01*
X75129394Y-74909179D01*
X75189737Y-74763497D01*
X75220500Y-74608842D01*
X75220500Y-74451158D01*
X75220500Y-74451155D01*
X75220499Y-74451153D01*
X75214792Y-74422464D01*
X75189737Y-74296503D01*
X75180700Y-74274686D01*
X75129397Y-74150827D01*
X75129390Y-74150814D01*
X75041789Y-74019711D01*
X75041786Y-74019707D01*
X74930292Y-73908213D01*
X74930288Y-73908210D01*
X74799185Y-73820609D01*
X74799172Y-73820602D01*
X74676339Y-73769724D01*
X74621935Y-73725883D01*
X74599870Y-73659589D01*
X74602174Y-73630971D01*
X74620500Y-73538844D01*
X74620500Y-73381155D01*
X74620499Y-73381153D01*
X74605351Y-73305000D01*
X74589737Y-73226503D01*
X74567471Y-73172747D01*
X74529397Y-73080827D01*
X74529390Y-73080814D01*
X74441789Y-72949711D01*
X74441786Y-72949707D01*
X74330292Y-72838213D01*
X74330288Y-72838210D01*
X74199185Y-72750609D01*
X74199172Y-72750602D01*
X74053501Y-72690264D01*
X74053491Y-72690261D01*
X73898149Y-72659361D01*
X73836238Y-72626976D01*
X73834660Y-72625425D01*
X69367590Y-68158355D01*
X69367588Y-68158352D01*
X69248717Y-68039481D01*
X69248716Y-68039480D01*
X69161904Y-67989360D01*
X69161904Y-67989359D01*
X69161900Y-67989358D01*
X69111785Y-67960423D01*
X68959057Y-67919499D01*
X68800943Y-67919499D01*
X68793347Y-67919499D01*
X68793331Y-67919500D01*
X68436730Y-67919500D01*
X68369691Y-67899815D01*
X68332808Y-67862133D01*
X68332651Y-67862248D01*
X68331872Y-67861176D01*
X68331000Y-67860285D01*
X68329789Y-67858309D01*
X68302888Y-67821283D01*
X68212981Y-67697536D01*
X68072464Y-67557019D01*
X67911694Y-67440213D01*
X67755218Y-67360484D01*
X67704423Y-67312510D01*
X67687628Y-67244689D01*
X67710165Y-67178554D01*
X67755218Y-67139515D01*
X67911694Y-67059787D01*
X68072464Y-66942981D01*
X68212981Y-66802464D01*
X68329787Y-66641694D01*
X68420005Y-66464632D01*
X68481413Y-66275636D01*
X68512500Y-66079361D01*
X68512500Y-65880639D01*
X68481413Y-65684364D01*
X68420005Y-65495368D01*
X68420005Y-65495367D01*
X68329786Y-65318305D01*
X68212981Y-65157536D01*
X68072464Y-65017019D01*
X67911694Y-64900213D01*
X67734632Y-64809994D01*
X67734629Y-64809993D01*
X67545637Y-64748587D01*
X67447498Y-64733043D01*
X67349361Y-64717500D01*
X67150639Y-64717500D01*
X67085214Y-64727862D01*
X66954362Y-64748587D01*
X66765370Y-64809993D01*
X66765367Y-64809994D01*
X66588305Y-64900213D01*
X66427533Y-65017021D01*
X66287021Y-65157533D01*
X66170213Y-65318305D01*
X66079994Y-65495367D01*
X66079993Y-65495370D01*
X66018587Y-65684362D01*
X65987500Y-65880639D01*
X65987500Y-66079360D01*
X66018587Y-66275637D01*
X66079993Y-66464629D01*
X66079994Y-66464632D01*
X66170213Y-66641694D01*
X66287019Y-66802464D01*
X66427536Y-66942981D01*
X66588306Y-67059787D01*
X66706832Y-67120179D01*
X66744780Y-67139515D01*
X66795576Y-67187490D01*
X66812371Y-67255311D01*
X66789833Y-67321446D01*
X66744780Y-67360485D01*
X66588305Y-67440213D01*
X66427533Y-67557021D01*
X66287021Y-67697533D01*
X66170213Y-67858305D01*
X66079994Y-68035367D01*
X66079993Y-68035370D01*
X66018587Y-68224362D01*
X65987500Y-68420639D01*
X65987500Y-68619360D01*
X66018587Y-68815637D01*
X66079993Y-69004629D01*
X66079994Y-69004632D01*
X66139033Y-69120500D01*
X66170213Y-69181694D01*
X66287019Y-69342464D01*
X66427536Y-69482981D01*
X66588306Y-69599787D01*
X66656061Y-69634310D01*
X66744780Y-69679515D01*
X66795576Y-69727490D01*
X66812371Y-69795311D01*
X66789833Y-69861446D01*
X66744780Y-69900485D01*
X66588305Y-69980213D01*
X66427533Y-70097021D01*
X66287021Y-70237533D01*
X66170213Y-70398305D01*
X66079994Y-70575367D01*
X66079993Y-70575370D01*
X66018587Y-70764362D01*
X65987500Y-70960639D01*
X65987500Y-71159360D01*
X66018587Y-71355637D01*
X66079993Y-71544629D01*
X66079994Y-71544632D01*
X66164509Y-71710500D01*
X66170213Y-71721694D01*
X66287019Y-71882464D01*
X66427536Y-72022981D01*
X66588306Y-72139787D01*
X66643954Y-72168141D01*
X66744780Y-72219515D01*
X66795576Y-72267490D01*
X66812371Y-72335311D01*
X66789833Y-72401446D01*
X66744780Y-72440485D01*
X66588305Y-72520213D01*
X66427533Y-72637021D01*
X66287021Y-72777533D01*
X66170213Y-72938305D01*
X66079994Y-73115367D01*
X66079993Y-73115370D01*
X66018587Y-73304362D01*
X65987500Y-73500639D01*
X65987500Y-73699360D01*
X66018587Y-73895637D01*
X66079993Y-74084629D01*
X66079994Y-74084632D01*
X66159010Y-74239707D01*
X66170213Y-74261694D01*
X66287019Y-74422464D01*
X66427536Y-74562981D01*
X66588306Y-74679787D01*
X66681459Y-74727251D01*
X66744780Y-74759515D01*
X66795576Y-74807490D01*
X66812371Y-74875311D01*
X66789833Y-74941446D01*
X66744780Y-74980485D01*
X66588305Y-75060213D01*
X66427533Y-75177021D01*
X66287021Y-75317533D01*
X66170213Y-75478305D01*
X66079994Y-75655367D01*
X66079993Y-75655370D01*
X66018587Y-75844362D01*
X65987500Y-76040639D01*
X65987500Y-76239360D01*
X66018586Y-76435636D01*
X66019131Y-76437903D01*
X66019086Y-76438790D01*
X66019349Y-76440448D01*
X66019000Y-76440503D01*
X66015638Y-76507685D01*
X65986237Y-76554526D01*
X65417286Y-77123478D01*
X65305481Y-77235282D01*
X65305479Y-77235285D01*
X65268592Y-77299177D01*
X65268591Y-77299179D01*
X65226423Y-77372214D01*
X65226423Y-77372215D01*
X65185499Y-77524943D01*
X65185499Y-77683057D01*
X65185499Y-77683059D01*
X65185500Y-77693053D01*
X65185500Y-81739740D01*
X65185499Y-81739758D01*
X65185499Y-81905464D01*
X65185498Y-81905464D01*
X64090500Y-81905464D01*
X64090500Y-63614500D01*
X64110185Y-63547461D01*
X64162989Y-63501706D01*
X64214500Y-63490500D01*
X151805500Y-63490500D01*
X151872539Y-63510185D01*
G37*
%TD.AperFunction*%
%TD*%
M02*
