%TF.GenerationSoftware,KiCad,Pcbnew,9.0.2*%
%TF.CreationDate,2025-06-29T18:35:55-07:00*%
%TF.ProjectId,pcb,7063622e-6b69-4636-9164-5f7063625858,rev?*%
%TF.SameCoordinates,Original*%
%TF.FileFunction,Copper,L1,Top*%
%TF.FilePolarity,Positive*%
%FSLAX46Y46*%
G04 Gerber Fmt 4.6, Leading zero omitted, Abs format (unit mm)*
G04 Created by KiCad (PCBNEW 9.0.2) date 2025-06-29 18:35:55*
%MOMM*%
%LPD*%
G01*
G04 APERTURE LIST*
G04 Aperture macros list*
%AMRoundRect*
0 Rectangle with rounded corners*
0 $1 Rounding radius*
0 $2 $3 $4 $5 $6 $7 $8 $9 X,Y pos of 4 corners*
0 Add a 4 corners polygon primitive as box body*
4,1,4,$2,$3,$4,$5,$6,$7,$8,$9,$2,$3,0*
0 Add four circle primitives for the rounded corners*
1,1,$1+$1,$2,$3*
1,1,$1+$1,$4,$5*
1,1,$1+$1,$6,$7*
1,1,$1+$1,$8,$9*
0 Add four rect primitives between the rounded corners*
20,1,$1+$1,$2,$3,$4,$5,0*
20,1,$1+$1,$4,$5,$6,$7,0*
20,1,$1+$1,$6,$7,$8,$9,0*
20,1,$1+$1,$8,$9,$2,$3,0*%
G04 Aperture macros list end*
%TA.AperFunction,ComponentPad*%
%ADD10C,2.200000*%
%TD*%
%TA.AperFunction,WasherPad*%
%ADD11O,3.200000X2.000000*%
%TD*%
%TA.AperFunction,ComponentPad*%
%ADD12R,2.000000X2.000000*%
%TD*%
%TA.AperFunction,ComponentPad*%
%ADD13C,2.000000*%
%TD*%
%TA.AperFunction,ComponentPad*%
%ADD14C,1.400000*%
%TD*%
%TA.AperFunction,ComponentPad*%
%ADD15C,1.815000*%
%TD*%
%TA.AperFunction,ComponentPad*%
%ADD16R,1.815000X1.815000*%
%TD*%
%TA.AperFunction,SMDPad,CuDef*%
%ADD17RoundRect,0.152400X1.063600X0.609600X-1.063600X0.609600X-1.063600X-0.609600X1.063600X-0.609600X0*%
%TD*%
%TA.AperFunction,ComponentPad*%
%ADD18C,1.524000*%
%TD*%
%TA.AperFunction,SMDPad,CuDef*%
%ADD19RoundRect,0.152400X-1.063600X-0.609600X1.063600X-0.609600X1.063600X0.609600X-1.063600X0.609600X0*%
%TD*%
%TA.AperFunction,Conductor*%
%ADD20C,0.200000*%
%TD*%
G04 APERTURE END LIST*
D10*
%TO.P,SW2,1,1*%
%TO.N,GND*%
X87550000Y-102160000D03*
%TO.P,SW2,2,2*%
%TO.N,Net-(U1-GPIO27{slash}ADC1{slash}A1)*%
X81200000Y-104700000D03*
%TD*%
D11*
%TO.P,SW5,*%
%TO.N,*%
X127000000Y-76950000D03*
X127000000Y-88150000D03*
D12*
%TO.P,SW5,A,A*%
%TO.N,Net-(U1-GPIO2{slash}SCK)*%
X119500000Y-80050000D03*
D13*
%TO.P,SW5,B,B*%
%TO.N,Net-(U1-GPIO4{slash}MISO)*%
X119500000Y-85050000D03*
%TO.P,SW5,C,C*%
%TO.N,GND*%
X119500000Y-82550000D03*
%TO.P,SW5,S1,S1*%
%TO.N,Net-(U1-GPIO3{slash}MOSI)*%
X134000000Y-85050000D03*
%TO.P,SW5,S2,S2*%
%TO.N,GND*%
X134000000Y-80050000D03*
%TD*%
D10*
%TO.P,SW1,1,1*%
%TO.N,GND*%
X68450000Y-102110000D03*
%TO.P,SW1,2,2*%
%TO.N,Net-(U1-GPIO26{slash}ADC0{slash}A0)*%
X62100000Y-104650000D03*
%TD*%
D14*
%TO.P,R3,1*%
%TO.N,Net-(U1-GPIO6{slash}SDA)*%
X136050000Y-99380000D03*
%TO.P,R3,2*%
%TO.N,Net-(D3-PadA)*%
X136050000Y-107000000D03*
%TD*%
D10*
%TO.P,SW4,1,1*%
%TO.N,GND*%
X125700000Y-102135000D03*
%TO.P,SW4,2,2*%
%TO.N,Net-(U1-GPIO29{slash}ADC3{slash}A3)*%
X119350000Y-104675000D03*
%TD*%
D15*
%TO.P,D3,A*%
%TO.N,Net-(D3-PadA)*%
X143270000Y-103000000D03*
D16*
%TO.P,D3,C*%
%TO.N,GND*%
X140730000Y-103000000D03*
%TD*%
D15*
%TO.P,D2,A*%
%TO.N,Net-(D2-PadA)*%
X143540000Y-93000000D03*
D16*
%TO.P,D2,C*%
%TO.N,GND*%
X141000000Y-93000000D03*
%TD*%
D14*
%TO.P,R1,1*%
%TO.N,Net-(U1-GPIO0{slash}TX)*%
X148970000Y-77870000D03*
%TO.P,R1,2*%
%TO.N,Net-(D1-PadA)*%
X148970000Y-85490000D03*
%TD*%
D17*
%TO.P,U1,1,GPIO26/ADC0/A0*%
%TO.N,Net-(U1-GPIO26{slash}ADC0{slash}A0)*%
X57455000Y-73048500D03*
D18*
X58290000Y-73048500D03*
D17*
%TO.P,U1,2,GPIO27/ADC1/A1*%
%TO.N,Net-(U1-GPIO27{slash}ADC1{slash}A1)*%
X57455000Y-75588500D03*
D18*
X58290000Y-75588500D03*
D17*
%TO.P,U1,3,GPIO28/ADC2/A2*%
%TO.N,Net-(U1-GPIO28{slash}ADC2{slash}A2)*%
X57455000Y-78128500D03*
D18*
X58290000Y-78128500D03*
D17*
%TO.P,U1,4,GPIO29/ADC3/A3*%
%TO.N,Net-(U1-GPIO29{slash}ADC3{slash}A3)*%
X57455000Y-80668500D03*
D18*
X58290000Y-80668500D03*
D17*
%TO.P,U1,5,GPIO6/SDA*%
%TO.N,Net-(U1-GPIO6{slash}SDA)*%
X57455000Y-83208500D03*
D18*
X58290000Y-83208500D03*
D17*
%TO.P,U1,6,GPIO7/SCL*%
%TO.N,Net-(U1-GPIO7{slash}SCL)*%
X57455000Y-85748500D03*
D18*
X58290000Y-85748500D03*
D17*
%TO.P,U1,7,GPIO0/TX*%
%TO.N,Net-(U1-GPIO0{slash}TX)*%
X57455000Y-88288500D03*
D18*
X58290000Y-88288500D03*
%TO.P,U1,8,GPIO1/RX*%
%TO.N,Net-(U1-GPIO1{slash}RX)*%
X73530000Y-88288500D03*
D19*
X74365000Y-88288500D03*
D18*
%TO.P,U1,9,GPIO2/SCK*%
%TO.N,Net-(U1-GPIO2{slash}SCK)*%
X73530000Y-85748500D03*
D19*
X74365000Y-85748500D03*
D18*
%TO.P,U1,10,GPIO4/MISO*%
%TO.N,Net-(U1-GPIO4{slash}MISO)*%
X73530000Y-83208500D03*
D19*
X74365000Y-83208500D03*
D18*
%TO.P,U1,11,GPIO3/MOSI*%
%TO.N,Net-(U1-GPIO3{slash}MOSI)*%
X73530000Y-80668500D03*
D19*
X74365000Y-80668500D03*
D18*
%TO.P,U1,12,3V3*%
%TO.N,unconnected-(U1-3V3-Pad12)*%
X73530000Y-78128500D03*
D19*
%TO.N,unconnected-(U1-3V3-Pad12)_1*%
X74365000Y-78128500D03*
D18*
%TO.P,U1,13,GND*%
%TO.N,GND*%
X73530000Y-75588500D03*
D19*
X74365000Y-75588500D03*
D18*
%TO.P,U1,14,VBUS*%
%TO.N,unconnected-(U1-VBUS-Pad14)*%
X73530000Y-73048500D03*
D19*
%TO.N,unconnected-(U1-VBUS-Pad14)_1*%
X74365000Y-73048500D03*
%TD*%
D14*
%TO.P,R4,1*%
%TO.N,Net-(U1-GPIO1{slash}RX)*%
X135990000Y-109790000D03*
%TO.P,R4,2*%
%TO.N,Net-(D4-PadA)*%
X135990000Y-117410000D03*
%TD*%
%TO.P,R2,1*%
%TO.N,Net-(U1-GPIO7{slash}SCL)*%
X148790000Y-89330000D03*
%TO.P,R2,2*%
%TO.N,Net-(D2-PadA)*%
X148790000Y-96950000D03*
%TD*%
D15*
%TO.P,D1,A*%
%TO.N,Net-(D1-PadA)*%
X143540000Y-82000000D03*
D16*
%TO.P,D1,C*%
%TO.N,GND*%
X141000000Y-82000000D03*
%TD*%
D10*
%TO.P,SW3,1,1*%
%TO.N,GND*%
X106650000Y-102150000D03*
%TO.P,SW3,2,2*%
%TO.N,Net-(U1-GPIO28{slash}ADC2{slash}A2)*%
X100300000Y-104690000D03*
%TD*%
D15*
%TO.P,D4,A*%
%TO.N,Net-(D4-PadA)*%
X143270000Y-112000000D03*
D16*
%TO.P,D4,C*%
%TO.N,GND*%
X140730000Y-112000000D03*
%TD*%
D20*
%TO.N,GND*%
X68450000Y-80668500D02*
X73530000Y-75588500D01*
X68450000Y-102110000D02*
X125675000Y-102110000D01*
X68450000Y-102110000D02*
X87500000Y-102110000D01*
X140730000Y-112000000D02*
X140730000Y-82270000D01*
X122000000Y-80050000D02*
X134000000Y-80050000D01*
X119500000Y-82550000D02*
X122000000Y-80050000D01*
X140730000Y-112000000D02*
X140730000Y-103000000D01*
X106610000Y-102110000D02*
X106650000Y-102150000D01*
X140730000Y-93270000D02*
X141000000Y-93000000D01*
X135950000Y-82000000D02*
X141000000Y-82000000D01*
X68450000Y-102110000D02*
X106610000Y-102110000D01*
X134000000Y-80050000D02*
X135950000Y-82000000D01*
X87500000Y-102110000D02*
X87550000Y-102160000D01*
X125675000Y-102110000D02*
X125700000Y-102135000D01*
X68450000Y-102110000D02*
X68450000Y-80668500D01*
X140730000Y-82270000D02*
X141000000Y-82000000D01*
X140730000Y-112000000D02*
X140730000Y-93270000D01*
%TO.N,Net-(U1-GPIO1{slash}RX)*%
X135990000Y-109790000D02*
X114488500Y-88288500D01*
X114488500Y-88288500D02*
X73530000Y-88288500D01*
%TD*%
%TA.AperFunction,Conductor*%
%TO.N,GND*%
G36*
X151962539Y-70520185D02*
G01*
X152008294Y-70572989D01*
X152019500Y-70624500D01*
X152019500Y-119375500D01*
X151999815Y-119442539D01*
X151947011Y-119488294D01*
X151895500Y-119499500D01*
X53624500Y-119499500D01*
X53557461Y-119479815D01*
X53511706Y-119427011D01*
X53500500Y-119375500D01*
X53500500Y-117315513D01*
X134789500Y-117315513D01*
X134789500Y-117504486D01*
X134819059Y-117691118D01*
X134877454Y-117870836D01*
X134963240Y-118039199D01*
X135074310Y-118192073D01*
X135207927Y-118325690D01*
X135360801Y-118436760D01*
X135440347Y-118477290D01*
X135529163Y-118522545D01*
X135529165Y-118522545D01*
X135529168Y-118522547D01*
X135625497Y-118553846D01*
X135708881Y-118580940D01*
X135895514Y-118610500D01*
X135895519Y-118610500D01*
X136084486Y-118610500D01*
X136271118Y-118580940D01*
X136450832Y-118522547D01*
X136619199Y-118436760D01*
X136772073Y-118325690D01*
X136905690Y-118192073D01*
X137016760Y-118039199D01*
X137102547Y-117870832D01*
X137160940Y-117691118D01*
X137190500Y-117504486D01*
X137190500Y-117315513D01*
X137160940Y-117128881D01*
X137102545Y-116949163D01*
X137016759Y-116780800D01*
X136905690Y-116627927D01*
X136772073Y-116494310D01*
X136619199Y-116383240D01*
X136450836Y-116297454D01*
X136271118Y-116239059D01*
X136084486Y-116209500D01*
X136084481Y-116209500D01*
X135895519Y-116209500D01*
X135895514Y-116209500D01*
X135708881Y-116239059D01*
X135529163Y-116297454D01*
X135360800Y-116383240D01*
X135273579Y-116446610D01*
X135207927Y-116494310D01*
X135207925Y-116494312D01*
X135207924Y-116494312D01*
X135074312Y-116627924D01*
X135074312Y-116627925D01*
X135074310Y-116627927D01*
X135026610Y-116693579D01*
X134963240Y-116780800D01*
X134877454Y-116949163D01*
X134819059Y-117128881D01*
X134789500Y-117315513D01*
X53500500Y-117315513D01*
X53500500Y-111044655D01*
X139322500Y-111044655D01*
X139322500Y-111750000D01*
X140175743Y-111750000D01*
X140166229Y-111766479D01*
X140125000Y-111920350D01*
X140125000Y-112079650D01*
X140166229Y-112233521D01*
X140175743Y-112250000D01*
X139322500Y-112250000D01*
X139322500Y-112955344D01*
X139328901Y-113014872D01*
X139328903Y-113014879D01*
X139379145Y-113149586D01*
X139379149Y-113149593D01*
X139465309Y-113264687D01*
X139465312Y-113264690D01*
X139580406Y-113350850D01*
X139580413Y-113350854D01*
X139715120Y-113401096D01*
X139715127Y-113401098D01*
X139774655Y-113407499D01*
X139774672Y-113407500D01*
X140480000Y-113407500D01*
X140480000Y-112554256D01*
X140496479Y-112563771D01*
X140650350Y-112605000D01*
X140809650Y-112605000D01*
X140963521Y-112563771D01*
X140980000Y-112554256D01*
X140980000Y-113407500D01*
X141685328Y-113407500D01*
X141685344Y-113407499D01*
X141744872Y-113401098D01*
X141744879Y-113401096D01*
X141879586Y-113350854D01*
X141879593Y-113350850D01*
X141994687Y-113264690D01*
X141994690Y-113264687D01*
X142080850Y-113149593D01*
X142080853Y-113149588D01*
X142107830Y-113077257D01*
X142149701Y-113021322D01*
X142215165Y-112996904D01*
X142283438Y-113011755D01*
X142311694Y-113032907D01*
X142352749Y-113073962D01*
X142532047Y-113204230D01*
X142625344Y-113251767D01*
X142729511Y-113304843D01*
X142729513Y-113304843D01*
X142729516Y-113304845D01*
X142842496Y-113341554D01*
X142940292Y-113373331D01*
X143159183Y-113408000D01*
X143159188Y-113408000D01*
X143380817Y-113408000D01*
X143599707Y-113373331D01*
X143810484Y-113304845D01*
X144007953Y-113204230D01*
X144187251Y-113073962D01*
X144343962Y-112917251D01*
X144474230Y-112737953D01*
X144574845Y-112540484D01*
X144643331Y-112329707D01*
X144658565Y-112233521D01*
X144678000Y-112110817D01*
X144678000Y-111889182D01*
X144643331Y-111670292D01*
X144611554Y-111572496D01*
X144574845Y-111459516D01*
X144574843Y-111459513D01*
X144574843Y-111459511D01*
X144474229Y-111262046D01*
X144343962Y-111082749D01*
X144187251Y-110926038D01*
X144007953Y-110795770D01*
X143810488Y-110695156D01*
X143599707Y-110626668D01*
X143380817Y-110592000D01*
X143380812Y-110592000D01*
X143159188Y-110592000D01*
X143159183Y-110592000D01*
X142940292Y-110626668D01*
X142729511Y-110695156D01*
X142532046Y-110795770D01*
X142456835Y-110850415D01*
X142352749Y-110926038D01*
X142352747Y-110926040D01*
X142352745Y-110926041D01*
X142311693Y-110967093D01*
X142250370Y-111000578D01*
X142180678Y-110995592D01*
X142124745Y-110953720D01*
X142107831Y-110922743D01*
X142080855Y-110850415D01*
X142080850Y-110850406D01*
X141994690Y-110735312D01*
X141994687Y-110735309D01*
X141879593Y-110649149D01*
X141879586Y-110649145D01*
X141744879Y-110598903D01*
X141744872Y-110598901D01*
X141685344Y-110592500D01*
X140980000Y-110592500D01*
X140980000Y-111445743D01*
X140963521Y-111436229D01*
X140809650Y-111395000D01*
X140650350Y-111395000D01*
X140496479Y-111436229D01*
X140480000Y-111445743D01*
X140480000Y-110592500D01*
X139774655Y-110592500D01*
X139715127Y-110598901D01*
X139715120Y-110598903D01*
X139580413Y-110649145D01*
X139580406Y-110649149D01*
X139465312Y-110735309D01*
X139465309Y-110735312D01*
X139379149Y-110850406D01*
X139379145Y-110850413D01*
X139328903Y-110985120D01*
X139328901Y-110985127D01*
X139322500Y-111044655D01*
X53500500Y-111044655D01*
X53500500Y-107103389D01*
X59729500Y-107103389D01*
X59729500Y-107276611D01*
X59733460Y-107301611D01*
X59756597Y-107447697D01*
X59810128Y-107612447D01*
X59819063Y-107629984D01*
X59888768Y-107766788D01*
X59990586Y-107906928D01*
X60113072Y-108029414D01*
X60253212Y-108131232D01*
X60407555Y-108209873D01*
X60572299Y-108263402D01*
X60743389Y-108290500D01*
X60743390Y-108290500D01*
X60916610Y-108290500D01*
X60916611Y-108290500D01*
X61087701Y-108263402D01*
X61252445Y-108209873D01*
X61406788Y-108131232D01*
X61546928Y-108029414D01*
X61669414Y-107906928D01*
X61771232Y-107766788D01*
X61849873Y-107612445D01*
X61903402Y-107447701D01*
X61930500Y-107276611D01*
X61930500Y-107103389D01*
X61920854Y-107042486D01*
X63659500Y-107042486D01*
X63659500Y-107337513D01*
X63680590Y-107497701D01*
X63698007Y-107629993D01*
X63772212Y-107906930D01*
X63774361Y-107914951D01*
X63774364Y-107914961D01*
X63887254Y-108187500D01*
X63887258Y-108187510D01*
X64034761Y-108442993D01*
X64214352Y-108677040D01*
X64214358Y-108677047D01*
X64422952Y-108885641D01*
X64422959Y-108885647D01*
X64657006Y-109065238D01*
X64912489Y-109212741D01*
X64912490Y-109212741D01*
X64912493Y-109212743D01*
X65185048Y-109325639D01*
X65470007Y-109401993D01*
X65762494Y-109440500D01*
X65762501Y-109440500D01*
X66057499Y-109440500D01*
X66057506Y-109440500D01*
X66349993Y-109401993D01*
X66634952Y-109325639D01*
X66907507Y-109212743D01*
X67162994Y-109065238D01*
X67397042Y-108885646D01*
X67605646Y-108677042D01*
X67785238Y-108442994D01*
X67932743Y-108187507D01*
X68045639Y-107914952D01*
X68121993Y-107629993D01*
X68160500Y-107337506D01*
X68160500Y-107103389D01*
X69889500Y-107103389D01*
X69889500Y-107276611D01*
X69893460Y-107301611D01*
X69916597Y-107447697D01*
X69970128Y-107612447D01*
X69979063Y-107629984D01*
X70048768Y-107766788D01*
X70150586Y-107906928D01*
X70273072Y-108029414D01*
X70413212Y-108131232D01*
X70567555Y-108209873D01*
X70732299Y-108263402D01*
X70903389Y-108290500D01*
X70903390Y-108290500D01*
X71076610Y-108290500D01*
X71076611Y-108290500D01*
X71247701Y-108263402D01*
X71412445Y-108209873D01*
X71566788Y-108131232D01*
X71706928Y-108029414D01*
X71829414Y-107906928D01*
X71931232Y-107766788D01*
X72009873Y-107612445D01*
X72063402Y-107447701D01*
X72090500Y-107276611D01*
X72090500Y-107153389D01*
X78829500Y-107153389D01*
X78829500Y-107326611D01*
X78831226Y-107337506D01*
X78855013Y-107487697D01*
X78856598Y-107497701D01*
X78910127Y-107662445D01*
X78988768Y-107816788D01*
X79090586Y-107956928D01*
X79213072Y-108079414D01*
X79353212Y-108181232D01*
X79507555Y-108259873D01*
X79672299Y-108313402D01*
X79843389Y-108340500D01*
X79843390Y-108340500D01*
X80016610Y-108340500D01*
X80016611Y-108340500D01*
X80187701Y-108313402D01*
X80352445Y-108259873D01*
X80506788Y-108181232D01*
X80646928Y-108079414D01*
X80769414Y-107956928D01*
X80871232Y-107816788D01*
X80949873Y-107662445D01*
X81003402Y-107497701D01*
X81030500Y-107326611D01*
X81030500Y-107153389D01*
X81020854Y-107092486D01*
X82759500Y-107092486D01*
X82759500Y-107387513D01*
X82789114Y-107612445D01*
X82798007Y-107679993D01*
X82872212Y-107956930D01*
X82874361Y-107964951D01*
X82874364Y-107964961D01*
X82987254Y-108237500D01*
X82987258Y-108237510D01*
X83134761Y-108492993D01*
X83314352Y-108727040D01*
X83314358Y-108727047D01*
X83522952Y-108935641D01*
X83522959Y-108935647D01*
X83757006Y-109115238D01*
X84012489Y-109262741D01*
X84012490Y-109262741D01*
X84012493Y-109262743D01*
X84285048Y-109375639D01*
X84570007Y-109451993D01*
X84848415Y-109488646D01*
X84862425Y-109490491D01*
X84862494Y-109490500D01*
X84862501Y-109490500D01*
X85157499Y-109490500D01*
X85157506Y-109490500D01*
X85449993Y-109451993D01*
X85734952Y-109375639D01*
X86007507Y-109262743D01*
X86262994Y-109115238D01*
X86497042Y-108935646D01*
X86705646Y-108727042D01*
X86885238Y-108492994D01*
X87032743Y-108237507D01*
X87145639Y-107964952D01*
X87221993Y-107679993D01*
X87260500Y-107387506D01*
X87260500Y-107153389D01*
X88989500Y-107153389D01*
X88989500Y-107326611D01*
X88991226Y-107337506D01*
X89015013Y-107487697D01*
X89016598Y-107497701D01*
X89070127Y-107662445D01*
X89148768Y-107816788D01*
X89250586Y-107956928D01*
X89373072Y-108079414D01*
X89513212Y-108181232D01*
X89667555Y-108259873D01*
X89832299Y-108313402D01*
X90003389Y-108340500D01*
X90003390Y-108340500D01*
X90176610Y-108340500D01*
X90176611Y-108340500D01*
X90347701Y-108313402D01*
X90512445Y-108259873D01*
X90666788Y-108181232D01*
X90806928Y-108079414D01*
X90929414Y-107956928D01*
X91031232Y-107816788D01*
X91109873Y-107662445D01*
X91163402Y-107497701D01*
X91190500Y-107326611D01*
X91190500Y-107153389D01*
X91188916Y-107143389D01*
X97929500Y-107143389D01*
X97929500Y-107316611D01*
X97932811Y-107337513D01*
X97954221Y-107472697D01*
X97956598Y-107487701D01*
X98010127Y-107652445D01*
X98088768Y-107806788D01*
X98190586Y-107946928D01*
X98313072Y-108069414D01*
X98453212Y-108171232D01*
X98607555Y-108249873D01*
X98772299Y-108303402D01*
X98943389Y-108330500D01*
X98943390Y-108330500D01*
X99116610Y-108330500D01*
X99116611Y-108330500D01*
X99287701Y-108303402D01*
X99452445Y-108249873D01*
X99606788Y-108171232D01*
X99746928Y-108069414D01*
X99869414Y-107946928D01*
X99971232Y-107806788D01*
X100049873Y-107652445D01*
X100103402Y-107487701D01*
X100130500Y-107316611D01*
X100130500Y-107143389D01*
X100120854Y-107082486D01*
X101859500Y-107082486D01*
X101859500Y-107377513D01*
X101875324Y-107497701D01*
X101898007Y-107669993D01*
X101972212Y-107946930D01*
X101974361Y-107954951D01*
X101974364Y-107954961D01*
X102087254Y-108227500D01*
X102087258Y-108227510D01*
X102234761Y-108482993D01*
X102414352Y-108717040D01*
X102414358Y-108717047D01*
X102622952Y-108925641D01*
X102622959Y-108925647D01*
X102857006Y-109105238D01*
X103112489Y-109252741D01*
X103112490Y-109252741D01*
X103112493Y-109252743D01*
X103385048Y-109365639D01*
X103670007Y-109441993D01*
X103962494Y-109480500D01*
X103962501Y-109480500D01*
X104257499Y-109480500D01*
X104257506Y-109480500D01*
X104549993Y-109441993D01*
X104834952Y-109365639D01*
X105107507Y-109252743D01*
X105362994Y-109105238D01*
X105597042Y-108925646D01*
X105805646Y-108717042D01*
X105985238Y-108482994D01*
X106132743Y-108227507D01*
X106245639Y-107954952D01*
X106321993Y-107669993D01*
X106360500Y-107377506D01*
X106360500Y-107143389D01*
X108089500Y-107143389D01*
X108089500Y-107316611D01*
X108092811Y-107337513D01*
X108114221Y-107472697D01*
X108116598Y-107487701D01*
X108170127Y-107652445D01*
X108248768Y-107806788D01*
X108350586Y-107946928D01*
X108473072Y-108069414D01*
X108613212Y-108171232D01*
X108767555Y-108249873D01*
X108932299Y-108303402D01*
X109103389Y-108330500D01*
X109103390Y-108330500D01*
X109276610Y-108330500D01*
X109276611Y-108330500D01*
X109447701Y-108303402D01*
X109612445Y-108249873D01*
X109766788Y-108171232D01*
X109906928Y-108069414D01*
X110029414Y-107946928D01*
X110131232Y-107806788D01*
X110209873Y-107652445D01*
X110263402Y-107487701D01*
X110290500Y-107316611D01*
X110290500Y-107143389D01*
X110288124Y-107128389D01*
X116979500Y-107128389D01*
X116979500Y-107301611D01*
X116983460Y-107326611D01*
X117004718Y-107460836D01*
X117006598Y-107472701D01*
X117058858Y-107633540D01*
X117060128Y-107637447D01*
X117126030Y-107766788D01*
X117138768Y-107791788D01*
X117240586Y-107931928D01*
X117363072Y-108054414D01*
X117503212Y-108156232D01*
X117657555Y-108234873D01*
X117822299Y-108288402D01*
X117993389Y-108315500D01*
X117993390Y-108315500D01*
X118166610Y-108315500D01*
X118166611Y-108315500D01*
X118337701Y-108288402D01*
X118502445Y-108234873D01*
X118656788Y-108156232D01*
X118796928Y-108054414D01*
X118919414Y-107931928D01*
X119021232Y-107791788D01*
X119099873Y-107637445D01*
X119153402Y-107472701D01*
X119180500Y-107301611D01*
X119180500Y-107128389D01*
X119170854Y-107067486D01*
X120909500Y-107067486D01*
X120909500Y-107362513D01*
X120925982Y-107487701D01*
X120948007Y-107654993D01*
X121022212Y-107931930D01*
X121024361Y-107939951D01*
X121024364Y-107939961D01*
X121137254Y-108212500D01*
X121137258Y-108212510D01*
X121284761Y-108467993D01*
X121464352Y-108702040D01*
X121464358Y-108702047D01*
X121672952Y-108910641D01*
X121672959Y-108910647D01*
X121907006Y-109090238D01*
X122162489Y-109237741D01*
X122162490Y-109237741D01*
X122162493Y-109237743D01*
X122435048Y-109350639D01*
X122720007Y-109426993D01*
X123012494Y-109465500D01*
X123012501Y-109465500D01*
X123307499Y-109465500D01*
X123307506Y-109465500D01*
X123599993Y-109426993D01*
X123884952Y-109350639D01*
X124157507Y-109237743D01*
X124412994Y-109090238D01*
X124647042Y-108910646D01*
X124855646Y-108702042D01*
X125035238Y-108467994D01*
X125182743Y-108212507D01*
X125295639Y-107939952D01*
X125371993Y-107654993D01*
X125410500Y-107362506D01*
X125410500Y-107128389D01*
X127139500Y-107128389D01*
X127139500Y-107301611D01*
X127143460Y-107326611D01*
X127164718Y-107460836D01*
X127166598Y-107472701D01*
X127218858Y-107633540D01*
X127220128Y-107637447D01*
X127286030Y-107766788D01*
X127298768Y-107791788D01*
X127400586Y-107931928D01*
X127523072Y-108054414D01*
X127663212Y-108156232D01*
X127817555Y-108234873D01*
X127982299Y-108288402D01*
X128153389Y-108315500D01*
X128153390Y-108315500D01*
X128326610Y-108315500D01*
X128326611Y-108315500D01*
X128497701Y-108288402D01*
X128662445Y-108234873D01*
X128816788Y-108156232D01*
X128956928Y-108054414D01*
X129079414Y-107931928D01*
X129181232Y-107791788D01*
X129259873Y-107637445D01*
X129313402Y-107472701D01*
X129340500Y-107301611D01*
X129340500Y-107128389D01*
X129313402Y-106957299D01*
X129259873Y-106792555D01*
X129181232Y-106638212D01*
X129079414Y-106498072D01*
X128956928Y-106375586D01*
X128816788Y-106273768D01*
X128662445Y-106195127D01*
X128497701Y-106141598D01*
X128497699Y-106141597D01*
X128497698Y-106141597D01*
X128339857Y-106116598D01*
X128326611Y-106114500D01*
X128153389Y-106114500D01*
X128140143Y-106116598D01*
X127982302Y-106141597D01*
X127817552Y-106195128D01*
X127663211Y-106273768D01*
X127606289Y-106315125D01*
X127523072Y-106375586D01*
X127523070Y-106375588D01*
X127523069Y-106375588D01*
X127400588Y-106498069D01*
X127400588Y-106498070D01*
X127400586Y-106498072D01*
X127370732Y-106539163D01*
X127298768Y-106638211D01*
X127220128Y-106792552D01*
X127166597Y-106957302D01*
X127144870Y-107094486D01*
X127139500Y-107128389D01*
X125410500Y-107128389D01*
X125410500Y-107067494D01*
X125371993Y-106775007D01*
X125295639Y-106490048D01*
X125288606Y-106473070D01*
X125246245Y-106370800D01*
X125182743Y-106217493D01*
X125179046Y-106211090D01*
X125035238Y-105962006D01*
X124855647Y-105727959D01*
X124855641Y-105727952D01*
X124647047Y-105519358D01*
X124647040Y-105519352D01*
X124412993Y-105339761D01*
X124157510Y-105192258D01*
X124157500Y-105192254D01*
X123884961Y-105079364D01*
X123884954Y-105079362D01*
X123884952Y-105079361D01*
X123599993Y-105003007D01*
X123551113Y-104996571D01*
X123307513Y-104964500D01*
X123307506Y-104964500D01*
X123012494Y-104964500D01*
X123012486Y-104964500D01*
X122734085Y-105001153D01*
X122720007Y-105003007D01*
X122545428Y-105049785D01*
X122435048Y-105079361D01*
X122435038Y-105079364D01*
X122162499Y-105192254D01*
X122162489Y-105192258D01*
X121907006Y-105339761D01*
X121672959Y-105519352D01*
X121672952Y-105519358D01*
X121464358Y-105727952D01*
X121464352Y-105727959D01*
X121284761Y-105962006D01*
X121137258Y-106217489D01*
X121137254Y-106217499D01*
X121024364Y-106490038D01*
X121024361Y-106490048D01*
X120954707Y-106750004D01*
X120948008Y-106775004D01*
X120948006Y-106775015D01*
X120909500Y-107067486D01*
X119170854Y-107067486D01*
X119153402Y-106957299D01*
X119099873Y-106792555D01*
X119021232Y-106638212D01*
X118919414Y-106498072D01*
X118867482Y-106446140D01*
X118833997Y-106384817D01*
X118838981Y-106315125D01*
X118880853Y-106259192D01*
X118946317Y-106234775D01*
X118974561Y-106235986D01*
X118975212Y-106236089D01*
X118975215Y-106236090D01*
X119224038Y-106275500D01*
X119224039Y-106275500D01*
X119475961Y-106275500D01*
X119475962Y-106275500D01*
X119724785Y-106236090D01*
X119964379Y-106158241D01*
X120188845Y-106043870D01*
X120392656Y-105895793D01*
X120570793Y-105717656D01*
X120718870Y-105513845D01*
X120833241Y-105289379D01*
X120911090Y-105049785D01*
X120950500Y-104800962D01*
X120950500Y-104549038D01*
X120911090Y-104300215D01*
X120833241Y-104060621D01*
X120833239Y-104060618D01*
X120833239Y-104060616D01*
X120760190Y-103917251D01*
X120718870Y-103836155D01*
X120656275Y-103750000D01*
X120570798Y-103632350D01*
X120570794Y-103632345D01*
X120392654Y-103454205D01*
X120392649Y-103454201D01*
X120188848Y-103306132D01*
X120188847Y-103306131D01*
X120188845Y-103306130D01*
X120078684Y-103250000D01*
X119964383Y-103191760D01*
X119724785Y-103113910D01*
X119641362Y-103100697D01*
X119475962Y-103074500D01*
X119224038Y-103074500D01*
X119121775Y-103090697D01*
X118975214Y-103113910D01*
X118735616Y-103191760D01*
X118511151Y-103306132D01*
X118307350Y-103454201D01*
X118307345Y-103454205D01*
X118129205Y-103632345D01*
X118129201Y-103632350D01*
X117981132Y-103836151D01*
X117866760Y-104060616D01*
X117788910Y-104300214D01*
X117771918Y-104407499D01*
X117749500Y-104549038D01*
X117749500Y-104800962D01*
X117775402Y-104964500D01*
X117788910Y-105049785D01*
X117866760Y-105289383D01*
X117945413Y-105443747D01*
X117968393Y-105488848D01*
X117981132Y-105513848D01*
X118129201Y-105717649D01*
X118129205Y-105717654D01*
X118129207Y-105717656D01*
X118307344Y-105895793D01*
X118307345Y-105895794D01*
X118307344Y-105895794D01*
X118313661Y-105900383D01*
X118356327Y-105955714D01*
X118362305Y-106025327D01*
X118329699Y-106087122D01*
X118268860Y-106121479D01*
X118221378Y-106123174D01*
X118166611Y-106114500D01*
X117993389Y-106114500D01*
X117980143Y-106116598D01*
X117822302Y-106141597D01*
X117657552Y-106195128D01*
X117503211Y-106273768D01*
X117446289Y-106315125D01*
X117363072Y-106375586D01*
X117363070Y-106375588D01*
X117363069Y-106375588D01*
X117240588Y-106498069D01*
X117240588Y-106498070D01*
X117240586Y-106498072D01*
X117210732Y-106539163D01*
X117138768Y-106638211D01*
X117060128Y-106792552D01*
X117006597Y-106957302D01*
X116984870Y-107094486D01*
X116979500Y-107128389D01*
X110288124Y-107128389D01*
X110263402Y-106972299D01*
X110209873Y-106807555D01*
X110131232Y-106653212D01*
X110029414Y-106513072D01*
X109906928Y-106390586D01*
X109766788Y-106288768D01*
X109632071Y-106220127D01*
X109612447Y-106210128D01*
X109612446Y-106210127D01*
X109612445Y-106210127D01*
X109447701Y-106156598D01*
X109447699Y-106156597D01*
X109447698Y-106156597D01*
X109316271Y-106135781D01*
X109276611Y-106129500D01*
X109103389Y-106129500D01*
X109063728Y-106135781D01*
X108932302Y-106156597D01*
X108767552Y-106210128D01*
X108613211Y-106288768D01*
X108556289Y-106330125D01*
X108473072Y-106390586D01*
X108473070Y-106390588D01*
X108473069Y-106390588D01*
X108350588Y-106513069D01*
X108350588Y-106513070D01*
X108350586Y-106513072D01*
X108343323Y-106523069D01*
X108248768Y-106653211D01*
X108170128Y-106807552D01*
X108116597Y-106972302D01*
X108095132Y-107107829D01*
X108089500Y-107143389D01*
X106360500Y-107143389D01*
X106360500Y-107082494D01*
X106321993Y-106790007D01*
X106245639Y-106505048D01*
X106242749Y-106498072D01*
X106190032Y-106370801D01*
X106132743Y-106232493D01*
X106124333Y-106217927D01*
X105985238Y-105977006D01*
X105805647Y-105742959D01*
X105805641Y-105742952D01*
X105597047Y-105534358D01*
X105597040Y-105534352D01*
X105362993Y-105354761D01*
X105107510Y-105207258D01*
X105107500Y-105207254D01*
X104834961Y-105094364D01*
X104834954Y-105094362D01*
X104834952Y-105094361D01*
X104549993Y-105018007D01*
X104501113Y-105011571D01*
X104257513Y-104979500D01*
X104257506Y-104979500D01*
X103962494Y-104979500D01*
X103962486Y-104979500D01*
X103684085Y-105016153D01*
X103670007Y-105018007D01*
X103551409Y-105049785D01*
X103385048Y-105094361D01*
X103385038Y-105094364D01*
X103112499Y-105207254D01*
X103112489Y-105207258D01*
X102857006Y-105354761D01*
X102622959Y-105534352D01*
X102622952Y-105534358D01*
X102414358Y-105742952D01*
X102414352Y-105742959D01*
X102234761Y-105977006D01*
X102087258Y-106232489D01*
X102087254Y-106232499D01*
X101974364Y-106505038D01*
X101974361Y-106505048D01*
X101898008Y-106790004D01*
X101898006Y-106790015D01*
X101859500Y-107082486D01*
X100120854Y-107082486D01*
X100103402Y-106972299D01*
X100049873Y-106807555D01*
X99971232Y-106653212D01*
X99869414Y-106513072D01*
X99817482Y-106461140D01*
X99783997Y-106399817D01*
X99788981Y-106330125D01*
X99830853Y-106274192D01*
X99896317Y-106249775D01*
X99924561Y-106250986D01*
X99925212Y-106251089D01*
X99925215Y-106251090D01*
X100174038Y-106290500D01*
X100174039Y-106290500D01*
X100425961Y-106290500D01*
X100425962Y-106290500D01*
X100674785Y-106251090D01*
X100914379Y-106173241D01*
X101138845Y-106058870D01*
X101342656Y-105910793D01*
X101520793Y-105732656D01*
X101668870Y-105528845D01*
X101783241Y-105304379D01*
X101861090Y-105064785D01*
X101900500Y-104815962D01*
X101900500Y-104564038D01*
X101861090Y-104315215D01*
X101783241Y-104075621D01*
X101783239Y-104075618D01*
X101783239Y-104075616D01*
X101721957Y-103955344D01*
X101668870Y-103851155D01*
X101639808Y-103811155D01*
X101520798Y-103647350D01*
X101520794Y-103647345D01*
X101342654Y-103469205D01*
X101342649Y-103469201D01*
X101138848Y-103321132D01*
X101138847Y-103321131D01*
X101138845Y-103321130D01*
X101068747Y-103285413D01*
X100914383Y-103206760D01*
X100674785Y-103128910D01*
X100560551Y-103110817D01*
X100425962Y-103089500D01*
X100174038Y-103089500D01*
X100049626Y-103109205D01*
X99925214Y-103128910D01*
X99685616Y-103206760D01*
X99461151Y-103321132D01*
X99257350Y-103469201D01*
X99257345Y-103469205D01*
X99079205Y-103647345D01*
X99079201Y-103647350D01*
X98931132Y-103851151D01*
X98816760Y-104075616D01*
X98738910Y-104315214D01*
X98724293Y-104407500D01*
X98699500Y-104564038D01*
X98699500Y-104815962D01*
X98725166Y-104978007D01*
X98738910Y-105064785D01*
X98816760Y-105304383D01*
X98895413Y-105458747D01*
X98926296Y-105519358D01*
X98931132Y-105528848D01*
X99079201Y-105732649D01*
X99079205Y-105732654D01*
X99079207Y-105732656D01*
X99257344Y-105910793D01*
X99257345Y-105910794D01*
X99257344Y-105910794D01*
X99263661Y-105915383D01*
X99306327Y-105970714D01*
X99312305Y-106040327D01*
X99279699Y-106102122D01*
X99218860Y-106136479D01*
X99171378Y-106138174D01*
X99116611Y-106129500D01*
X98943389Y-106129500D01*
X98903728Y-106135781D01*
X98772302Y-106156597D01*
X98607552Y-106210128D01*
X98453211Y-106288768D01*
X98396289Y-106330125D01*
X98313072Y-106390586D01*
X98313070Y-106390588D01*
X98313069Y-106390588D01*
X98190588Y-106513069D01*
X98190588Y-106513070D01*
X98190586Y-106513072D01*
X98183323Y-106523069D01*
X98088768Y-106653211D01*
X98010128Y-106807552D01*
X97956597Y-106972302D01*
X97935132Y-107107829D01*
X97929500Y-107143389D01*
X91188916Y-107143389D01*
X91163402Y-106982299D01*
X91109873Y-106817555D01*
X91031232Y-106663212D01*
X90929414Y-106523072D01*
X90806928Y-106400586D01*
X90666788Y-106298768D01*
X90512445Y-106220127D01*
X90347701Y-106166598D01*
X90347699Y-106166597D01*
X90347698Y-106166597D01*
X90189857Y-106141598D01*
X90176611Y-106139500D01*
X90003389Y-106139500D01*
X89990143Y-106141598D01*
X89832302Y-106166597D01*
X89667552Y-106220128D01*
X89513211Y-106298768D01*
X89456289Y-106340125D01*
X89373072Y-106400586D01*
X89373070Y-106400588D01*
X89373069Y-106400588D01*
X89250588Y-106523069D01*
X89250588Y-106523070D01*
X89250586Y-106523072D01*
X89238892Y-106539168D01*
X89148768Y-106663211D01*
X89070128Y-106817552D01*
X89016597Y-106982302D01*
X88993460Y-107128389D01*
X88989500Y-107153389D01*
X87260500Y-107153389D01*
X87260500Y-107092494D01*
X87221993Y-106800007D01*
X87145639Y-106515048D01*
X87138606Y-106498070D01*
X87094085Y-106390586D01*
X87032743Y-106242493D01*
X87029046Y-106236090D01*
X86885238Y-105987006D01*
X86705647Y-105752959D01*
X86705641Y-105752952D01*
X86497047Y-105544358D01*
X86497040Y-105544352D01*
X86262993Y-105364761D01*
X86007510Y-105217258D01*
X86007500Y-105217254D01*
X85734961Y-105104364D01*
X85734954Y-105104362D01*
X85734952Y-105104361D01*
X85449993Y-105028007D01*
X85401113Y-105021571D01*
X85157513Y-104989500D01*
X85157506Y-104989500D01*
X84862494Y-104989500D01*
X84862486Y-104989500D01*
X84594480Y-105024785D01*
X84570007Y-105028007D01*
X84488730Y-105049785D01*
X84285048Y-105104361D01*
X84285038Y-105104364D01*
X84012499Y-105217254D01*
X84012489Y-105217258D01*
X83757006Y-105364761D01*
X83522959Y-105544352D01*
X83522952Y-105544358D01*
X83314358Y-105752952D01*
X83314352Y-105752959D01*
X83134761Y-105987006D01*
X82987258Y-106242489D01*
X82987254Y-106242499D01*
X82874364Y-106515038D01*
X82874361Y-106515048D01*
X82800685Y-106790015D01*
X82798008Y-106800004D01*
X82798006Y-106800015D01*
X82759500Y-107092486D01*
X81020854Y-107092486D01*
X81003402Y-106982299D01*
X80949873Y-106817555D01*
X80871232Y-106663212D01*
X80769414Y-106523072D01*
X80717482Y-106471140D01*
X80683997Y-106409817D01*
X80688981Y-106340125D01*
X80730853Y-106284192D01*
X80796317Y-106259775D01*
X80824561Y-106260986D01*
X80825212Y-106261089D01*
X80825215Y-106261090D01*
X81074038Y-106300500D01*
X81074039Y-106300500D01*
X81325961Y-106300500D01*
X81325962Y-106300500D01*
X81574785Y-106261090D01*
X81814379Y-106183241D01*
X82038845Y-106068870D01*
X82242656Y-105920793D01*
X82420793Y-105742656D01*
X82568870Y-105538845D01*
X82683241Y-105314379D01*
X82761090Y-105074785D01*
X82800500Y-104825962D01*
X82800500Y-104574038D01*
X82761090Y-104325215D01*
X82683241Y-104085621D01*
X82683239Y-104085618D01*
X82683239Y-104085616D01*
X82638037Y-103996904D01*
X82568870Y-103861155D01*
X82495377Y-103760000D01*
X82420798Y-103657350D01*
X82420794Y-103657345D01*
X82242654Y-103479205D01*
X82242649Y-103479201D01*
X82038848Y-103331132D01*
X82038847Y-103331131D01*
X82038845Y-103331130D01*
X81968747Y-103295413D01*
X81814383Y-103216760D01*
X81574785Y-103138910D01*
X81416942Y-103113910D01*
X81325962Y-103099500D01*
X81074038Y-103099500D01*
X81002586Y-103110817D01*
X80825214Y-103138910D01*
X80585616Y-103216760D01*
X80361151Y-103331132D01*
X80157350Y-103479201D01*
X80157345Y-103479205D01*
X79979205Y-103657345D01*
X79979201Y-103657350D01*
X79831132Y-103861151D01*
X79716760Y-104085616D01*
X79638910Y-104325214D01*
X79626891Y-104401098D01*
X79599500Y-104574038D01*
X79599500Y-104825962D01*
X79623582Y-104978006D01*
X79638910Y-105074785D01*
X79716760Y-105314383D01*
X79742430Y-105364762D01*
X79826036Y-105528848D01*
X79831132Y-105538848D01*
X79979201Y-105742649D01*
X79979205Y-105742654D01*
X79979207Y-105742656D01*
X80157344Y-105920793D01*
X80157345Y-105920794D01*
X80157344Y-105920794D01*
X80163661Y-105925383D01*
X80206327Y-105980714D01*
X80212305Y-106050327D01*
X80179699Y-106112122D01*
X80118860Y-106146479D01*
X80071378Y-106148174D01*
X80016611Y-106139500D01*
X79843389Y-106139500D01*
X79830143Y-106141598D01*
X79672302Y-106166597D01*
X79507552Y-106220128D01*
X79353211Y-106298768D01*
X79296289Y-106340125D01*
X79213072Y-106400586D01*
X79213070Y-106400588D01*
X79213069Y-106400588D01*
X79090588Y-106523069D01*
X79090588Y-106523070D01*
X79090586Y-106523072D01*
X79078892Y-106539168D01*
X78988768Y-106663211D01*
X78910128Y-106817552D01*
X78856597Y-106982302D01*
X78833460Y-107128389D01*
X78829500Y-107153389D01*
X72090500Y-107153389D01*
X72090500Y-107103389D01*
X72063402Y-106932299D01*
X72009873Y-106767555D01*
X71931232Y-106613212D01*
X71829414Y-106473072D01*
X71706928Y-106350586D01*
X71566788Y-106248768D01*
X71412445Y-106170127D01*
X71247701Y-106116598D01*
X71247699Y-106116597D01*
X71247698Y-106116597D01*
X71116271Y-106095781D01*
X71076611Y-106089500D01*
X70903389Y-106089500D01*
X70863728Y-106095781D01*
X70732302Y-106116597D01*
X70567552Y-106170128D01*
X70413211Y-106248768D01*
X70364455Y-106284192D01*
X70273072Y-106350586D01*
X70273070Y-106350588D01*
X70273069Y-106350588D01*
X70150588Y-106473069D01*
X70150588Y-106473070D01*
X70150586Y-106473072D01*
X70121526Y-106513070D01*
X70048768Y-106613211D01*
X69970128Y-106767552D01*
X69916597Y-106932302D01*
X69895186Y-107067486D01*
X69889500Y-107103389D01*
X68160500Y-107103389D01*
X68160500Y-107042494D01*
X68121993Y-106750007D01*
X68045639Y-106465048D01*
X67932743Y-106192493D01*
X67927401Y-106183241D01*
X67785238Y-105937006D01*
X67605647Y-105702959D01*
X67605641Y-105702952D01*
X67397047Y-105494358D01*
X67397040Y-105494352D01*
X67162993Y-105314761D01*
X66907510Y-105167258D01*
X66907500Y-105167254D01*
X66634961Y-105054364D01*
X66634954Y-105054362D01*
X66634952Y-105054361D01*
X66349993Y-104978007D01*
X66301113Y-104971571D01*
X66057513Y-104939500D01*
X66057506Y-104939500D01*
X65762494Y-104939500D01*
X65762486Y-104939500D01*
X65484085Y-104976153D01*
X65470007Y-104978007D01*
X65202126Y-105049785D01*
X65185048Y-105054361D01*
X65185038Y-105054364D01*
X64912499Y-105167254D01*
X64912489Y-105167258D01*
X64657006Y-105314761D01*
X64422959Y-105494352D01*
X64422952Y-105494358D01*
X64214358Y-105702952D01*
X64214352Y-105702959D01*
X64034761Y-105937006D01*
X63887258Y-106192489D01*
X63887254Y-106192499D01*
X63774364Y-106465038D01*
X63774361Y-106465048D01*
X63721264Y-106663212D01*
X63698008Y-106750004D01*
X63698006Y-106750015D01*
X63659500Y-107042486D01*
X61920854Y-107042486D01*
X61903402Y-106932299D01*
X61849873Y-106767555D01*
X61771232Y-106613212D01*
X61669414Y-106473072D01*
X61617482Y-106421140D01*
X61583997Y-106359817D01*
X61588981Y-106290125D01*
X61630853Y-106234192D01*
X61696317Y-106209775D01*
X61724561Y-106210986D01*
X61725212Y-106211089D01*
X61725215Y-106211090D01*
X61974038Y-106250500D01*
X61974039Y-106250500D01*
X62225961Y-106250500D01*
X62225962Y-106250500D01*
X62474785Y-106211090D01*
X62714379Y-106133241D01*
X62938845Y-106018870D01*
X63142656Y-105870793D01*
X63320793Y-105692656D01*
X63468870Y-105488845D01*
X63583241Y-105264379D01*
X63661090Y-105024785D01*
X63700500Y-104775962D01*
X63700500Y-104524038D01*
X63661090Y-104275215D01*
X63583241Y-104035621D01*
X63583239Y-104035618D01*
X63583239Y-104035616D01*
X63541747Y-103954184D01*
X63468870Y-103811155D01*
X63431704Y-103760000D01*
X63320798Y-103607350D01*
X63320794Y-103607345D01*
X63142654Y-103429205D01*
X63142649Y-103429201D01*
X62938848Y-103281132D01*
X62938847Y-103281131D01*
X62938845Y-103281130D01*
X62812510Y-103216759D01*
X62714383Y-103166760D01*
X62474785Y-103088910D01*
X62391362Y-103075697D01*
X62225962Y-103049500D01*
X61974038Y-103049500D01*
X61849626Y-103069205D01*
X61725214Y-103088910D01*
X61485616Y-103166760D01*
X61261151Y-103281132D01*
X61057350Y-103429201D01*
X61057345Y-103429205D01*
X60879205Y-103607345D01*
X60879201Y-103607350D01*
X60731132Y-103811151D01*
X60616760Y-104035616D01*
X60538910Y-104275214D01*
X60530991Y-104325214D01*
X60499500Y-104524038D01*
X60499500Y-104775962D01*
X60507419Y-104825961D01*
X60538910Y-105024785D01*
X60616760Y-105264383D01*
X60731132Y-105488848D01*
X60879201Y-105692649D01*
X60879205Y-105692654D01*
X60879207Y-105692656D01*
X61057344Y-105870793D01*
X61057345Y-105870794D01*
X61057344Y-105870794D01*
X61063661Y-105875383D01*
X61106327Y-105930714D01*
X61112305Y-106000327D01*
X61079699Y-106062122D01*
X61018860Y-106096479D01*
X60971378Y-106098174D01*
X60916611Y-106089500D01*
X60743389Y-106089500D01*
X60703728Y-106095781D01*
X60572302Y-106116597D01*
X60407552Y-106170128D01*
X60253211Y-106248768D01*
X60204455Y-106284192D01*
X60113072Y-106350586D01*
X60113070Y-106350588D01*
X60113069Y-106350588D01*
X59990588Y-106473069D01*
X59990588Y-106473070D01*
X59990586Y-106473072D01*
X59961526Y-106513070D01*
X59888768Y-106613211D01*
X59810128Y-106767552D01*
X59756597Y-106932302D01*
X59735186Y-107067486D01*
X59729500Y-107103389D01*
X53500500Y-107103389D01*
X53500500Y-101984071D01*
X66850000Y-101984071D01*
X66850000Y-102235928D01*
X66889397Y-102484669D01*
X66967219Y-102724184D01*
X67081557Y-102948583D01*
X67155748Y-103050697D01*
X67155748Y-103050698D01*
X67772421Y-102434024D01*
X67785359Y-102465258D01*
X67867437Y-102588097D01*
X67971903Y-102692563D01*
X68094742Y-102774641D01*
X68125974Y-102787577D01*
X67509300Y-103404250D01*
X67611416Y-103478442D01*
X67835815Y-103592780D01*
X68075330Y-103670602D01*
X68324072Y-103710000D01*
X68575928Y-103710000D01*
X68824669Y-103670602D01*
X69064184Y-103592780D01*
X69288575Y-103478446D01*
X69288581Y-103478442D01*
X69390697Y-103404250D01*
X69390698Y-103404250D01*
X68774025Y-102787578D01*
X68805258Y-102774641D01*
X68928097Y-102692563D01*
X69032563Y-102588097D01*
X69114641Y-102465258D01*
X69127577Y-102434025D01*
X69744250Y-103050698D01*
X69744250Y-103050697D01*
X69818442Y-102948581D01*
X69818446Y-102948575D01*
X69932780Y-102724184D01*
X70010602Y-102484669D01*
X70050000Y-102235928D01*
X70050000Y-102034071D01*
X85950000Y-102034071D01*
X85950000Y-102285928D01*
X85989397Y-102534669D01*
X86067219Y-102774184D01*
X86181557Y-102998583D01*
X86255748Y-103100697D01*
X86255748Y-103100698D01*
X86872421Y-102484024D01*
X86885359Y-102515258D01*
X86967437Y-102638097D01*
X87071903Y-102742563D01*
X87194742Y-102824641D01*
X87225974Y-102837577D01*
X86609300Y-103454250D01*
X86711416Y-103528442D01*
X86935815Y-103642780D01*
X87175330Y-103720602D01*
X87424072Y-103760000D01*
X87675928Y-103760000D01*
X87924669Y-103720602D01*
X88164184Y-103642780D01*
X88388575Y-103528446D01*
X88388581Y-103528442D01*
X88490697Y-103454250D01*
X88490698Y-103454250D01*
X87874025Y-102837578D01*
X87905258Y-102824641D01*
X88028097Y-102742563D01*
X88132563Y-102638097D01*
X88214641Y-102515258D01*
X88227578Y-102484025D01*
X88844250Y-103100698D01*
X88844250Y-103100697D01*
X88918442Y-102998581D01*
X88918446Y-102998575D01*
X89032780Y-102774184D01*
X89110602Y-102534669D01*
X89150000Y-102285928D01*
X89150000Y-102034070D01*
X89149999Y-102034069D01*
X89148415Y-102024071D01*
X105050000Y-102024071D01*
X105050000Y-102275928D01*
X105089397Y-102524669D01*
X105167219Y-102764184D01*
X105281557Y-102988583D01*
X105355748Y-103090697D01*
X105355748Y-103090698D01*
X105972421Y-102474024D01*
X105985359Y-102505258D01*
X106067437Y-102628097D01*
X106171903Y-102732563D01*
X106294742Y-102814641D01*
X106325974Y-102827577D01*
X105709300Y-103444250D01*
X105811416Y-103518442D01*
X106035815Y-103632780D01*
X106275330Y-103710602D01*
X106524072Y-103750000D01*
X106775928Y-103750000D01*
X107024669Y-103710602D01*
X107264184Y-103632780D01*
X107488575Y-103518446D01*
X107488581Y-103518442D01*
X107590697Y-103444250D01*
X107590698Y-103444250D01*
X106974025Y-102827578D01*
X107005258Y-102814641D01*
X107128097Y-102732563D01*
X107232563Y-102628097D01*
X107314641Y-102505258D01*
X107327577Y-102474025D01*
X107944250Y-103090698D01*
X107944250Y-103090697D01*
X108018442Y-102988581D01*
X108018446Y-102988575D01*
X108132780Y-102764184D01*
X108210602Y-102524669D01*
X108250000Y-102275928D01*
X108250000Y-102024071D01*
X108249925Y-102023598D01*
X108249925Y-102023597D01*
X108210602Y-101775330D01*
X108132780Y-101535815D01*
X108018442Y-101311416D01*
X107944250Y-101209301D01*
X107944250Y-101209300D01*
X107327577Y-101825973D01*
X107314641Y-101794742D01*
X107232563Y-101671903D01*
X107128097Y-101567437D01*
X107005258Y-101485359D01*
X106974024Y-101472421D01*
X107590698Y-100855748D01*
X107488583Y-100781557D01*
X107264184Y-100667219D01*
X107024669Y-100589397D01*
X106775928Y-100550000D01*
X106524072Y-100550000D01*
X106275330Y-100589397D01*
X106035815Y-100667219D01*
X105811413Y-100781559D01*
X105709301Y-100855747D01*
X105709300Y-100855748D01*
X106325974Y-101472421D01*
X106294742Y-101485359D01*
X106171903Y-101567437D01*
X106067437Y-101671903D01*
X105985359Y-101794742D01*
X105972421Y-101825974D01*
X105355748Y-101209300D01*
X105355747Y-101209301D01*
X105281559Y-101311413D01*
X105167219Y-101535815D01*
X105089397Y-101775330D01*
X105050000Y-102024071D01*
X89148415Y-102024071D01*
X89110602Y-101785330D01*
X89032780Y-101545815D01*
X88918442Y-101321416D01*
X88844250Y-101219301D01*
X88844250Y-101219300D01*
X88227577Y-101835973D01*
X88214641Y-101804742D01*
X88132563Y-101681903D01*
X88028097Y-101577437D01*
X87905258Y-101495359D01*
X87874024Y-101482421D01*
X88490698Y-100865748D01*
X88388583Y-100791557D01*
X88164184Y-100677219D01*
X87924669Y-100599397D01*
X87675928Y-100560000D01*
X87424072Y-100560000D01*
X87175330Y-100599397D01*
X86935815Y-100677219D01*
X86711413Y-100791559D01*
X86609301Y-100865747D01*
X86609300Y-100865748D01*
X87225974Y-101482421D01*
X87194742Y-101495359D01*
X87071903Y-101577437D01*
X86967437Y-101681903D01*
X86885359Y-101804742D01*
X86872421Y-101835974D01*
X86255748Y-101219300D01*
X86255747Y-101219301D01*
X86181559Y-101321413D01*
X86067219Y-101545815D01*
X85989397Y-101785330D01*
X85950000Y-102034071D01*
X70050000Y-102034071D01*
X70050000Y-101984071D01*
X70010602Y-101735330D01*
X69932780Y-101495815D01*
X69818442Y-101271416D01*
X69744250Y-101169301D01*
X69744250Y-101169300D01*
X69127577Y-101785973D01*
X69114641Y-101754742D01*
X69032563Y-101631903D01*
X68928097Y-101527437D01*
X68805258Y-101445359D01*
X68774024Y-101432421D01*
X69381120Y-100825327D01*
X69390698Y-100815748D01*
X69288583Y-100741557D01*
X69064184Y-100627219D01*
X68824669Y-100549397D01*
X68575928Y-100510000D01*
X68324072Y-100510000D01*
X68075330Y-100549397D01*
X67835815Y-100627219D01*
X67611413Y-100741559D01*
X67509301Y-100815747D01*
X67509300Y-100815748D01*
X68125974Y-101432421D01*
X68094742Y-101445359D01*
X67971903Y-101527437D01*
X67867437Y-101631903D01*
X67785359Y-101754742D01*
X67772421Y-101785974D01*
X67155748Y-101169300D01*
X67155747Y-101169301D01*
X67081559Y-101271413D01*
X66967219Y-101495815D01*
X66889397Y-101735330D01*
X66850000Y-101984071D01*
X53500500Y-101984071D01*
X53500500Y-72372958D01*
X55738500Y-72372958D01*
X55738500Y-73724041D01*
X55741412Y-73761046D01*
X55741413Y-73761052D01*
X55787434Y-73919454D01*
X55787435Y-73919457D01*
X55871405Y-74061443D01*
X55871412Y-74061452D01*
X55988047Y-74178087D01*
X55988050Y-74178089D01*
X55988053Y-74178092D01*
X56044996Y-74211768D01*
X56092679Y-74262838D01*
X56105182Y-74331579D01*
X56078536Y-74396169D01*
X56044996Y-74425231D01*
X55988053Y-74458908D01*
X55988047Y-74458912D01*
X55871412Y-74575547D01*
X55871405Y-74575556D01*
X55787435Y-74717542D01*
X55787434Y-74717545D01*
X55741413Y-74875947D01*
X55741412Y-74875953D01*
X55738500Y-74912958D01*
X55738500Y-76264041D01*
X55741412Y-76301046D01*
X55741413Y-76301052D01*
X55787434Y-76459454D01*
X55787435Y-76459457D01*
X55871405Y-76601443D01*
X55871412Y-76601452D01*
X55988047Y-76718087D01*
X55988050Y-76718089D01*
X55988053Y-76718092D01*
X56044502Y-76751476D01*
X56044996Y-76751768D01*
X56092679Y-76802838D01*
X56105182Y-76871579D01*
X56078536Y-76936169D01*
X56044996Y-76965232D01*
X55988053Y-76998908D01*
X55988047Y-76998912D01*
X55871412Y-77115547D01*
X55871405Y-77115556D01*
X55787435Y-77257542D01*
X55787434Y-77257545D01*
X55741413Y-77415947D01*
X55741412Y-77415953D01*
X55738500Y-77452958D01*
X55738500Y-78804041D01*
X55741412Y-78841046D01*
X55741413Y-78841052D01*
X55787434Y-78999454D01*
X55787435Y-78999457D01*
X55787436Y-78999459D01*
X55789015Y-79002129D01*
X55871405Y-79141443D01*
X55871412Y-79141452D01*
X55988047Y-79258087D01*
X55988050Y-79258089D01*
X55988053Y-79258092D01*
X56044996Y-79291768D01*
X56092679Y-79342838D01*
X56105182Y-79411579D01*
X56078536Y-79476169D01*
X56044996Y-79505232D01*
X55988053Y-79538908D01*
X55988047Y-79538912D01*
X55871412Y-79655547D01*
X55871405Y-79655556D01*
X55787435Y-79797542D01*
X55787434Y-79797545D01*
X55741413Y-79955947D01*
X55741412Y-79955953D01*
X55738500Y-79992958D01*
X55738500Y-81344041D01*
X55741412Y-81381046D01*
X55741413Y-81381052D01*
X55787434Y-81539454D01*
X55787435Y-81539457D01*
X55787436Y-81539459D01*
X55793670Y-81550000D01*
X55871405Y-81681443D01*
X55871412Y-81681452D01*
X55988047Y-81798087D01*
X55988050Y-81798089D01*
X55988053Y-81798092D01*
X56044996Y-81831768D01*
X56092679Y-81882838D01*
X56105182Y-81951579D01*
X56078536Y-82016169D01*
X56044996Y-82045231D01*
X55988056Y-82078906D01*
X55988053Y-82078908D01*
X55988047Y-82078912D01*
X55871412Y-82195547D01*
X55871405Y-82195556D01*
X55787435Y-82337542D01*
X55787434Y-82337545D01*
X55741413Y-82495947D01*
X55741412Y-82495953D01*
X55738500Y-82532958D01*
X55738500Y-83884041D01*
X55741412Y-83921046D01*
X55741413Y-83921052D01*
X55787434Y-84079454D01*
X55787435Y-84079457D01*
X55871405Y-84221443D01*
X55871412Y-84221452D01*
X55988047Y-84338087D01*
X55988050Y-84338089D01*
X55988053Y-84338092D01*
X56044996Y-84371768D01*
X56092679Y-84422838D01*
X56105182Y-84491579D01*
X56078536Y-84556169D01*
X56044996Y-84585232D01*
X55988053Y-84618908D01*
X55988047Y-84618912D01*
X55871412Y-84735547D01*
X55871405Y-84735556D01*
X55787435Y-84877542D01*
X55787434Y-84877545D01*
X55741413Y-85035947D01*
X55741412Y-85035953D01*
X55738500Y-85072958D01*
X55738500Y-86424041D01*
X55741412Y-86461046D01*
X55741413Y-86461052D01*
X55787434Y-86619454D01*
X55787435Y-86619457D01*
X55871405Y-86761443D01*
X55871412Y-86761452D01*
X55988047Y-86878087D01*
X55988050Y-86878089D01*
X55988053Y-86878092D01*
X56044996Y-86911768D01*
X56092679Y-86962838D01*
X56105182Y-87031579D01*
X56078536Y-87096169D01*
X56044996Y-87125232D01*
X55988053Y-87158908D01*
X55988047Y-87158912D01*
X55871412Y-87275547D01*
X55871405Y-87275556D01*
X55787435Y-87417542D01*
X55787434Y-87417545D01*
X55741413Y-87575947D01*
X55741412Y-87575953D01*
X55738500Y-87612958D01*
X55738500Y-88964041D01*
X55741412Y-89001046D01*
X55741413Y-89001052D01*
X55787434Y-89159454D01*
X55787435Y-89159457D01*
X55871405Y-89301443D01*
X55871412Y-89301452D01*
X55988047Y-89418087D01*
X55988056Y-89418094D01*
X56013839Y-89433342D01*
X56130041Y-89502064D01*
X56171816Y-89514201D01*
X56288447Y-89548086D01*
X56288450Y-89548086D01*
X56288452Y-89548087D01*
X56325466Y-89551000D01*
X56325474Y-89551000D01*
X58584526Y-89551000D01*
X58584534Y-89551000D01*
X58621548Y-89548087D01*
X58621550Y-89548086D01*
X58621552Y-89548086D01*
X58663323Y-89535949D01*
X58779959Y-89502064D01*
X58921947Y-89418092D01*
X59018148Y-89321889D01*
X59032939Y-89309258D01*
X59112464Y-89251481D01*
X59252981Y-89110964D01*
X59369787Y-88950194D01*
X59460005Y-88773132D01*
X59521413Y-88584136D01*
X59552500Y-88387861D01*
X59552500Y-88189139D01*
X59521413Y-87992864D01*
X59490709Y-87898366D01*
X59460006Y-87803870D01*
X59460005Y-87803867D01*
X59400967Y-87688000D01*
X59369787Y-87626806D01*
X59252981Y-87466036D01*
X59112464Y-87325519D01*
X59032937Y-87267739D01*
X59026175Y-87262460D01*
X59022000Y-87258961D01*
X58921947Y-87158908D01*
X58856259Y-87120060D01*
X58848477Y-87113538D01*
X58834510Y-87092573D01*
X58817321Y-87074163D01*
X58815471Y-87063992D01*
X58809740Y-87055390D01*
X58809324Y-87030202D01*
X58804817Y-87005421D01*
X58808758Y-86995866D01*
X58808588Y-86985530D01*
X58821856Y-86964116D01*
X58831462Y-86940832D01*
X58841874Y-86931809D01*
X58845389Y-86926138D01*
X58852127Y-86922925D01*
X58865004Y-86911768D01*
X58921947Y-86878092D01*
X59018148Y-86781889D01*
X59032939Y-86769258D01*
X59112464Y-86711481D01*
X59252981Y-86570964D01*
X59369787Y-86410194D01*
X59460005Y-86233132D01*
X59521413Y-86044136D01*
X59552500Y-85847861D01*
X59552500Y-85649139D01*
X59521413Y-85452864D01*
X59460005Y-85263868D01*
X59460005Y-85263867D01*
X59369786Y-85086805D01*
X59252981Y-84926036D01*
X59112464Y-84785519D01*
X59032937Y-84727739D01*
X59026175Y-84722460D01*
X59022000Y-84718961D01*
X58921947Y-84618908D01*
X58856259Y-84580060D01*
X58848477Y-84573538D01*
X58834510Y-84552573D01*
X58817321Y-84534163D01*
X58815471Y-84523992D01*
X58809740Y-84515390D01*
X58809324Y-84490202D01*
X58804817Y-84465421D01*
X58808758Y-84455866D01*
X58808588Y-84445530D01*
X58821856Y-84424116D01*
X58831462Y-84400832D01*
X58841874Y-84391809D01*
X58845389Y-84386138D01*
X58852127Y-84382925D01*
X58865004Y-84371768D01*
X58921947Y-84338092D01*
X59018148Y-84241889D01*
X59032939Y-84229258D01*
X59112464Y-84171481D01*
X59252981Y-84030964D01*
X59369787Y-83870194D01*
X59460005Y-83693132D01*
X59521413Y-83504136D01*
X59552500Y-83307861D01*
X59552500Y-83109139D01*
X59521413Y-82912864D01*
X59466219Y-82742993D01*
X59460006Y-82723870D01*
X59460005Y-82723867D01*
X59378431Y-82563771D01*
X59369787Y-82546806D01*
X59252981Y-82386036D01*
X59112464Y-82245519D01*
X59032937Y-82187739D01*
X59026175Y-82182460D01*
X59022000Y-82178961D01*
X58921947Y-82078908D01*
X58856259Y-82040060D01*
X58848477Y-82033538D01*
X58834510Y-82012573D01*
X58817321Y-81994163D01*
X58815471Y-81983992D01*
X58809740Y-81975390D01*
X58809324Y-81950202D01*
X58804817Y-81925421D01*
X58808758Y-81915866D01*
X58808588Y-81905530D01*
X58821856Y-81884116D01*
X58831462Y-81860832D01*
X58841874Y-81851809D01*
X58845389Y-81846138D01*
X58852127Y-81842925D01*
X58865004Y-81831768D01*
X58921947Y-81798092D01*
X59018148Y-81701889D01*
X59032939Y-81689258D01*
X59112464Y-81631481D01*
X59252981Y-81490964D01*
X59369787Y-81330194D01*
X59460005Y-81153132D01*
X59521413Y-80964136D01*
X59552500Y-80767861D01*
X59552500Y-80569139D01*
X59521413Y-80372864D01*
X59460005Y-80183868D01*
X59460005Y-80183867D01*
X59391796Y-80050001D01*
X59369787Y-80006806D01*
X59252981Y-79846036D01*
X59112464Y-79705519D01*
X59032937Y-79647739D01*
X59026175Y-79642460D01*
X59022000Y-79638961D01*
X58921947Y-79538908D01*
X58856259Y-79500060D01*
X58848477Y-79493538D01*
X58834510Y-79472573D01*
X58817321Y-79454163D01*
X58815471Y-79443992D01*
X58809740Y-79435390D01*
X58809324Y-79410202D01*
X58804817Y-79385421D01*
X58808758Y-79375866D01*
X58808588Y-79365530D01*
X58821856Y-79344116D01*
X58831462Y-79320832D01*
X58841874Y-79311809D01*
X58845389Y-79306138D01*
X58852127Y-79302925D01*
X58865004Y-79291768D01*
X58921947Y-79258092D01*
X59018148Y-79161889D01*
X59032939Y-79149258D01*
X59112464Y-79091481D01*
X59252981Y-78950964D01*
X59369787Y-78790194D01*
X59460005Y-78613132D01*
X59521413Y-78424136D01*
X59552500Y-78227861D01*
X59552500Y-78029139D01*
X59521413Y-77832864D01*
X59460005Y-77643868D01*
X59460005Y-77643867D01*
X59369786Y-77466805D01*
X59252981Y-77306036D01*
X59112464Y-77165519D01*
X59032937Y-77107739D01*
X59026175Y-77102460D01*
X59022000Y-77098961D01*
X58921947Y-76998908D01*
X58856259Y-76960060D01*
X58848477Y-76953538D01*
X58834510Y-76932573D01*
X58817321Y-76914163D01*
X58815471Y-76903992D01*
X58809740Y-76895390D01*
X58809324Y-76870202D01*
X58804817Y-76845421D01*
X58808758Y-76835866D01*
X58808588Y-76825530D01*
X58821856Y-76804116D01*
X58831462Y-76780832D01*
X58841874Y-76771809D01*
X58845389Y-76766138D01*
X58852127Y-76762925D01*
X58865004Y-76751768D01*
X58918208Y-76720303D01*
X58921947Y-76718092D01*
X59018148Y-76621889D01*
X59032939Y-76609258D01*
X59112464Y-76551481D01*
X59252981Y-76410964D01*
X59369787Y-76250194D01*
X59460005Y-76073132D01*
X59521413Y-75884136D01*
X59552500Y-75687861D01*
X59552500Y-75489139D01*
X59521413Y-75292864D01*
X59460005Y-75103868D01*
X59460005Y-75103867D01*
X59369786Y-74926805D01*
X59359762Y-74913008D01*
X59252981Y-74766036D01*
X59112464Y-74625519D01*
X59032938Y-74567740D01*
X59026175Y-74562460D01*
X59022000Y-74558961D01*
X58921947Y-74458908D01*
X58856259Y-74420060D01*
X58848477Y-74413538D01*
X58834510Y-74392573D01*
X58817321Y-74374163D01*
X58815471Y-74363992D01*
X58809740Y-74355390D01*
X58809324Y-74330202D01*
X58804817Y-74305421D01*
X58808758Y-74295866D01*
X58808588Y-74285530D01*
X58821856Y-74264116D01*
X58831462Y-74240832D01*
X58841874Y-74231809D01*
X58845389Y-74226138D01*
X58852127Y-74222925D01*
X58865004Y-74211768D01*
X58921947Y-74178092D01*
X59018148Y-74081889D01*
X59032939Y-74069258D01*
X59112464Y-74011481D01*
X59252981Y-73870964D01*
X59369787Y-73710194D01*
X59460005Y-73533132D01*
X59521413Y-73344136D01*
X59552500Y-73147861D01*
X59552500Y-72949139D01*
X72267500Y-72949139D01*
X72267500Y-73147860D01*
X72298587Y-73344137D01*
X72359993Y-73533129D01*
X72359994Y-73533132D01*
X72450213Y-73710194D01*
X72567019Y-73870964D01*
X72567021Y-73870966D01*
X72707539Y-74011484D01*
X72787060Y-74069258D01*
X72793786Y-74074507D01*
X72797979Y-74078018D01*
X72898053Y-74178092D01*
X72964208Y-74217216D01*
X72971975Y-74223720D01*
X72985962Y-74244697D01*
X73003170Y-74263127D01*
X73005015Y-74273273D01*
X73010736Y-74281853D01*
X73011161Y-74307064D01*
X73015673Y-74331869D01*
X73011740Y-74341400D01*
X73011915Y-74351712D01*
X72998643Y-74373149D01*
X72989028Y-74396458D01*
X72978643Y-74405456D01*
X72975137Y-74411120D01*
X72968391Y-74414338D01*
X72955487Y-74425521D01*
X72898370Y-74459300D01*
X72898357Y-74459310D01*
X72826360Y-74531306D01*
X72826360Y-74531307D01*
X73445905Y-75150852D01*
X73358429Y-75174292D01*
X73257070Y-75232811D01*
X73174311Y-75315570D01*
X73115792Y-75416929D01*
X73092352Y-75504405D01*
X72477730Y-74889782D01*
X72477729Y-74889783D01*
X72450643Y-74927064D01*
X72360457Y-75104062D01*
X72299075Y-75292976D01*
X72299075Y-75292979D01*
X72268000Y-75489178D01*
X72268000Y-75687821D01*
X72299075Y-75884020D01*
X72299075Y-75884023D01*
X72360457Y-76072937D01*
X72450641Y-76249932D01*
X72477730Y-76287215D01*
X73092352Y-75672593D01*
X73115792Y-75760071D01*
X73174311Y-75861430D01*
X73257070Y-75944189D01*
X73358429Y-76002708D01*
X73445904Y-76026147D01*
X72826360Y-76645691D01*
X72898360Y-76717692D01*
X72898364Y-76717695D01*
X72955486Y-76751477D01*
X73003169Y-76802546D01*
X73015673Y-76871288D01*
X72989028Y-76935877D01*
X72971975Y-76953279D01*
X72964204Y-76959785D01*
X72898053Y-76998908D01*
X72797990Y-77098969D01*
X72793784Y-77102492D01*
X72792598Y-77103009D01*
X72787061Y-77107739D01*
X72707536Y-77165518D01*
X72567021Y-77306033D01*
X72450213Y-77466805D01*
X72359994Y-77643867D01*
X72359993Y-77643870D01*
X72298587Y-77832862D01*
X72267500Y-78029139D01*
X72267500Y-78227860D01*
X72298587Y-78424137D01*
X72359993Y-78613129D01*
X72359994Y-78613132D01*
X72400412Y-78692455D01*
X72450213Y-78790194D01*
X72567019Y-78950964D01*
X72567021Y-78950966D01*
X72707539Y-79091484D01*
X72787060Y-79149258D01*
X72793824Y-79154539D01*
X72797998Y-79158037D01*
X72898053Y-79258092D01*
X72963737Y-79296937D01*
X72971522Y-79303462D01*
X72985488Y-79324426D01*
X73002679Y-79342838D01*
X73004528Y-79353006D01*
X73010260Y-79361610D01*
X73010674Y-79386797D01*
X73015182Y-79411579D01*
X73011239Y-79421134D01*
X73011410Y-79431470D01*
X72998143Y-79452881D01*
X72988536Y-79476169D01*
X72978122Y-79485192D01*
X72974609Y-79490863D01*
X72967871Y-79494075D01*
X72954996Y-79505232D01*
X72898053Y-79538908D01*
X72898046Y-79538913D01*
X72801854Y-79635104D01*
X72787061Y-79647739D01*
X72707536Y-79705518D01*
X72567021Y-79846033D01*
X72450213Y-80006805D01*
X72359994Y-80183867D01*
X72359993Y-80183870D01*
X72298587Y-80372862D01*
X72267500Y-80569139D01*
X72267500Y-80767860D01*
X72298587Y-80964137D01*
X72359993Y-81153129D01*
X72359994Y-81153132D01*
X72430919Y-81292328D01*
X72450213Y-81330194D01*
X72567019Y-81490964D01*
X72567021Y-81490966D01*
X72707539Y-81631484D01*
X72787060Y-81689258D01*
X72793824Y-81694539D01*
X72797998Y-81698037D01*
X72898053Y-81798092D01*
X72963737Y-81836937D01*
X72971522Y-81843462D01*
X72985488Y-81864426D01*
X73002679Y-81882838D01*
X73004528Y-81893006D01*
X73010260Y-81901610D01*
X73010674Y-81926797D01*
X73015182Y-81951579D01*
X73011239Y-81961134D01*
X73011410Y-81971470D01*
X72998143Y-81992881D01*
X72988536Y-82016169D01*
X72978122Y-82025192D01*
X72974609Y-82030863D01*
X72967871Y-82034075D01*
X72954996Y-82045231D01*
X72898056Y-82078906D01*
X72898053Y-82078908D01*
X72898046Y-82078913D01*
X72801854Y-82175104D01*
X72787061Y-82187739D01*
X72707536Y-82245518D01*
X72567021Y-82386033D01*
X72450213Y-82546805D01*
X72359994Y-82723867D01*
X72359993Y-82723870D01*
X72298587Y-82912862D01*
X72272550Y-83077257D01*
X72267500Y-83109139D01*
X72267500Y-83307861D01*
X72282267Y-83401096D01*
X72298587Y-83504137D01*
X72359993Y-83693129D01*
X72359994Y-83693132D01*
X72426139Y-83822947D01*
X72450213Y-83870194D01*
X72567019Y-84030964D01*
X72567021Y-84030966D01*
X72707539Y-84171484D01*
X72787060Y-84229258D01*
X72793824Y-84234539D01*
X72797998Y-84238037D01*
X72898053Y-84338092D01*
X72963737Y-84376937D01*
X72971522Y-84383462D01*
X72985488Y-84404426D01*
X73002679Y-84422838D01*
X73004528Y-84433006D01*
X73010260Y-84441610D01*
X73010674Y-84466797D01*
X73015182Y-84491579D01*
X73011239Y-84501134D01*
X73011410Y-84511470D01*
X72998143Y-84532881D01*
X72988536Y-84556169D01*
X72978122Y-84565192D01*
X72974609Y-84570863D01*
X72967871Y-84574075D01*
X72954996Y-84585232D01*
X72898053Y-84618908D01*
X72898046Y-84618913D01*
X72801854Y-84715104D01*
X72787061Y-84727739D01*
X72707536Y-84785518D01*
X72567021Y-84926033D01*
X72450213Y-85086805D01*
X72359994Y-85263867D01*
X72359993Y-85263870D01*
X72298587Y-85452862D01*
X72267500Y-85649139D01*
X72267500Y-85847860D01*
X72298587Y-86044137D01*
X72359993Y-86233129D01*
X72359994Y-86233132D01*
X72411055Y-86333343D01*
X72450213Y-86410194D01*
X72567019Y-86570964D01*
X72567021Y-86570966D01*
X72707539Y-86711484D01*
X72787060Y-86769258D01*
X72793824Y-86774539D01*
X72797998Y-86778037D01*
X72898053Y-86878092D01*
X72963737Y-86916937D01*
X72971522Y-86923462D01*
X72985488Y-86944426D01*
X73002679Y-86962838D01*
X73004528Y-86973006D01*
X73010260Y-86981610D01*
X73010674Y-87006797D01*
X73015182Y-87031579D01*
X73011239Y-87041134D01*
X73011410Y-87051470D01*
X72998143Y-87072881D01*
X72988536Y-87096169D01*
X72978122Y-87105192D01*
X72974609Y-87110863D01*
X72967871Y-87114075D01*
X72954996Y-87125232D01*
X72898053Y-87158908D01*
X72898046Y-87158913D01*
X72801854Y-87255104D01*
X72787061Y-87267739D01*
X72707536Y-87325518D01*
X72567021Y-87466033D01*
X72450213Y-87626805D01*
X72359994Y-87803867D01*
X72359993Y-87803870D01*
X72298587Y-87992862D01*
X72298587Y-87992864D01*
X72267500Y-88189139D01*
X72267500Y-88387861D01*
X72283043Y-88485998D01*
X72298587Y-88584137D01*
X72359993Y-88773129D01*
X72359994Y-88773132D01*
X72408925Y-88869163D01*
X72450213Y-88950194D01*
X72567019Y-89110964D01*
X72567021Y-89110966D01*
X72707539Y-89251484D01*
X72787060Y-89309258D01*
X72801851Y-89321890D01*
X72898053Y-89418092D01*
X72898054Y-89418093D01*
X72898056Y-89418094D01*
X72923839Y-89433342D01*
X73040041Y-89502064D01*
X73081816Y-89514201D01*
X73198447Y-89548086D01*
X73198450Y-89548086D01*
X73198452Y-89548087D01*
X73235466Y-89551000D01*
X73235474Y-89551000D01*
X75494526Y-89551000D01*
X75494534Y-89551000D01*
X75531548Y-89548087D01*
X75531550Y-89548086D01*
X75531552Y-89548086D01*
X75573323Y-89535949D01*
X75689959Y-89502064D01*
X75831947Y-89418092D01*
X75948592Y-89301447D01*
X76032564Y-89159459D01*
X76078587Y-89001048D01*
X76078587Y-89001045D01*
X76079726Y-88994812D01*
X76081512Y-88995138D01*
X76103294Y-88937986D01*
X76159524Y-88896513D01*
X76202030Y-88889000D01*
X114188403Y-88889000D01*
X114255442Y-88908685D01*
X114276084Y-88925319D01*
X125674084Y-100323319D01*
X125707569Y-100384642D01*
X125702585Y-100454334D01*
X125660713Y-100510267D01*
X125595249Y-100534684D01*
X125586403Y-100535000D01*
X125574072Y-100535000D01*
X125325330Y-100574397D01*
X125085815Y-100652219D01*
X124861413Y-100766559D01*
X124759301Y-100840747D01*
X124759300Y-100840748D01*
X125375974Y-101457421D01*
X125344742Y-101470359D01*
X125221903Y-101552437D01*
X125117437Y-101656903D01*
X125035359Y-101779742D01*
X125022421Y-101810974D01*
X124405748Y-101194300D01*
X124405747Y-101194301D01*
X124331559Y-101296413D01*
X124217219Y-101520815D01*
X124139397Y-101760330D01*
X124100000Y-102009071D01*
X124100000Y-102260928D01*
X124139397Y-102509669D01*
X124217219Y-102749184D01*
X124331557Y-102973583D01*
X124405748Y-103075697D01*
X124405748Y-103075698D01*
X125022421Y-102459024D01*
X125035359Y-102490258D01*
X125117437Y-102613097D01*
X125221903Y-102717563D01*
X125344742Y-102799641D01*
X125375974Y-102812577D01*
X124759300Y-103429250D01*
X124861416Y-103503442D01*
X125085815Y-103617780D01*
X125325330Y-103695602D01*
X125574072Y-103735000D01*
X125825928Y-103735000D01*
X126074669Y-103695602D01*
X126314184Y-103617780D01*
X126538575Y-103503446D01*
X126538581Y-103503442D01*
X126640697Y-103429250D01*
X126640698Y-103429250D01*
X126024025Y-102812578D01*
X126055258Y-102799641D01*
X126178097Y-102717563D01*
X126282563Y-102613097D01*
X126364641Y-102490258D01*
X126377578Y-102459025D01*
X126994250Y-103075698D01*
X126994250Y-103075697D01*
X127068442Y-102973581D01*
X127068446Y-102973575D01*
X127182780Y-102749184D01*
X127260602Y-102509669D01*
X127300000Y-102260928D01*
X127300000Y-102248597D01*
X127319685Y-102181558D01*
X127372489Y-102135803D01*
X127441647Y-102125859D01*
X127505203Y-102154884D01*
X127511681Y-102160916D01*
X134779933Y-109429168D01*
X134813418Y-109490491D01*
X134814725Y-109536247D01*
X134789500Y-109695513D01*
X134789500Y-109884486D01*
X134819059Y-110071118D01*
X134877454Y-110250836D01*
X134963240Y-110419199D01*
X135074310Y-110572073D01*
X135207927Y-110705690D01*
X135360801Y-110816760D01*
X135426835Y-110850406D01*
X135529163Y-110902545D01*
X135529165Y-110902545D01*
X135529168Y-110902547D01*
X135601472Y-110926040D01*
X135708881Y-110960940D01*
X135895514Y-110990500D01*
X135895519Y-110990500D01*
X136084486Y-110990500D01*
X136271118Y-110960940D01*
X136378528Y-110926040D01*
X136450832Y-110902547D01*
X136619199Y-110816760D01*
X136772073Y-110705690D01*
X136905690Y-110572073D01*
X137016760Y-110419199D01*
X137102547Y-110250832D01*
X137160940Y-110071118D01*
X137190500Y-109884486D01*
X137190500Y-109695513D01*
X137160940Y-109508881D01*
X137102545Y-109329163D01*
X137043226Y-109212743D01*
X137016760Y-109160801D01*
X136905690Y-109007927D01*
X136772073Y-108874310D01*
X136619199Y-108763240D01*
X136450836Y-108677454D01*
X136271118Y-108619059D01*
X136084486Y-108589500D01*
X136084481Y-108589500D01*
X135895519Y-108589500D01*
X135895514Y-108589500D01*
X135736247Y-108614725D01*
X135666953Y-108605770D01*
X135629168Y-108579933D01*
X135271102Y-108221867D01*
X135237617Y-108160544D01*
X135242601Y-108090852D01*
X135284473Y-108034919D01*
X135349937Y-108010502D01*
X135416264Y-108024930D01*
X135416460Y-108024548D01*
X135417916Y-108025290D01*
X135418210Y-108025354D01*
X135419445Y-108026069D01*
X135589163Y-108112545D01*
X135589165Y-108112545D01*
X135589168Y-108112547D01*
X135685497Y-108143846D01*
X135768881Y-108170940D01*
X135955514Y-108200500D01*
X135955519Y-108200500D01*
X136144486Y-108200500D01*
X136331118Y-108170940D01*
X136376387Y-108156231D01*
X136510832Y-108112547D01*
X136679199Y-108026760D01*
X136832073Y-107915690D01*
X136965690Y-107782073D01*
X137076760Y-107629199D01*
X137162547Y-107460832D01*
X137220940Y-107281118D01*
X137221654Y-107276610D01*
X137250500Y-107094486D01*
X137250500Y-106905513D01*
X137220940Y-106718881D01*
X137193846Y-106635497D01*
X137162547Y-106539168D01*
X137162545Y-106539165D01*
X137162545Y-106539163D01*
X137102409Y-106421140D01*
X137076760Y-106370801D01*
X136965690Y-106217927D01*
X136832073Y-106084310D01*
X136679199Y-105973240D01*
X136657151Y-105962006D01*
X136510836Y-105887454D01*
X136331118Y-105829059D01*
X136144486Y-105799500D01*
X136144481Y-105799500D01*
X135955519Y-105799500D01*
X135955514Y-105799500D01*
X135768881Y-105829059D01*
X135589163Y-105887454D01*
X135420800Y-105973240D01*
X135383519Y-106000327D01*
X135267927Y-106084310D01*
X135267925Y-106084312D01*
X135267924Y-106084312D01*
X135134312Y-106217924D01*
X135134312Y-106217925D01*
X135134310Y-106217927D01*
X135110216Y-106251090D01*
X135023240Y-106370800D01*
X134937454Y-106539163D01*
X134879059Y-106718881D01*
X134849500Y-106905513D01*
X134849500Y-107094486D01*
X134879059Y-107281118D01*
X134937454Y-107460836D01*
X135025452Y-107633540D01*
X135023708Y-107634428D01*
X135039784Y-107693890D01*
X135018659Y-107760489D01*
X134964880Y-107805095D01*
X134895523Y-107813545D01*
X134832608Y-107783156D01*
X134828132Y-107778897D01*
X129093890Y-102044655D01*
X139322500Y-102044655D01*
X139322500Y-102750000D01*
X140175743Y-102750000D01*
X140166229Y-102766479D01*
X140125000Y-102920350D01*
X140125000Y-103079650D01*
X140166229Y-103233521D01*
X140175743Y-103250000D01*
X139322500Y-103250000D01*
X139322500Y-103955344D01*
X139328901Y-104014872D01*
X139328903Y-104014879D01*
X139379145Y-104149586D01*
X139379149Y-104149593D01*
X139465309Y-104264687D01*
X139465312Y-104264690D01*
X139580406Y-104350850D01*
X139580413Y-104350854D01*
X139715120Y-104401096D01*
X139715127Y-104401098D01*
X139774655Y-104407499D01*
X139774672Y-104407500D01*
X140480000Y-104407500D01*
X140480000Y-103554256D01*
X140496479Y-103563771D01*
X140650350Y-103605000D01*
X140809650Y-103605000D01*
X140963521Y-103563771D01*
X140980000Y-103554256D01*
X140980000Y-104407500D01*
X141685328Y-104407500D01*
X141685344Y-104407499D01*
X141744872Y-104401098D01*
X141744879Y-104401096D01*
X141879586Y-104350854D01*
X141879593Y-104350850D01*
X141994687Y-104264690D01*
X141994690Y-104264687D01*
X142080850Y-104149593D01*
X142080853Y-104149588D01*
X142107830Y-104077257D01*
X142149701Y-104021322D01*
X142215165Y-103996904D01*
X142283438Y-104011755D01*
X142311694Y-104032907D01*
X142352749Y-104073962D01*
X142532047Y-104204230D01*
X142625344Y-104251767D01*
X142729511Y-104304843D01*
X142729513Y-104304843D01*
X142729516Y-104304845D01*
X142842496Y-104341554D01*
X142940292Y-104373331D01*
X143159183Y-104408000D01*
X143159188Y-104408000D01*
X143380817Y-104408000D01*
X143599707Y-104373331D01*
X143810484Y-104304845D01*
X144007953Y-104204230D01*
X144187251Y-104073962D01*
X144343962Y-103917251D01*
X144474230Y-103737953D01*
X144574845Y-103540484D01*
X144643331Y-103329707D01*
X144647065Y-103306130D01*
X144678000Y-103110817D01*
X144678000Y-102889182D01*
X144643331Y-102670292D01*
X144599264Y-102534669D01*
X144574845Y-102459516D01*
X144574843Y-102459513D01*
X144574843Y-102459511D01*
X144486398Y-102285928D01*
X144474230Y-102262047D01*
X144343962Y-102082749D01*
X144187251Y-101926038D01*
X144007953Y-101795770D01*
X143938398Y-101760330D01*
X143810488Y-101695156D01*
X143599707Y-101626668D01*
X143380817Y-101592000D01*
X143380812Y-101592000D01*
X143159188Y-101592000D01*
X143159183Y-101592000D01*
X142940292Y-101626668D01*
X142729511Y-101695156D01*
X142532046Y-101795770D01*
X142456835Y-101850415D01*
X142352749Y-101926038D01*
X142352747Y-101926040D01*
X142352745Y-101926041D01*
X142311693Y-101967093D01*
X142250370Y-102000578D01*
X142180678Y-101995592D01*
X142124745Y-101953720D01*
X142107831Y-101922743D01*
X142080855Y-101850415D01*
X142080850Y-101850406D01*
X141994690Y-101735312D01*
X141994687Y-101735309D01*
X141879593Y-101649149D01*
X141879586Y-101649145D01*
X141744879Y-101598903D01*
X141744872Y-101598901D01*
X141685344Y-101592500D01*
X140980000Y-101592500D01*
X140980000Y-102445743D01*
X140963521Y-102436229D01*
X140809650Y-102395000D01*
X140650350Y-102395000D01*
X140496479Y-102436229D01*
X140480000Y-102445743D01*
X140480000Y-101592500D01*
X139774655Y-101592500D01*
X139715127Y-101598901D01*
X139715120Y-101598903D01*
X139580413Y-101649145D01*
X139580406Y-101649149D01*
X139465312Y-101735309D01*
X139465309Y-101735312D01*
X139379149Y-101850406D01*
X139379145Y-101850413D01*
X139328903Y-101985120D01*
X139328901Y-101985127D01*
X139322500Y-102044655D01*
X129093890Y-102044655D01*
X126334748Y-99285513D01*
X134849500Y-99285513D01*
X134849500Y-99474486D01*
X134879059Y-99661118D01*
X134937454Y-99840836D01*
X135023240Y-100009199D01*
X135134310Y-100162073D01*
X135267927Y-100295690D01*
X135420801Y-100406760D01*
X135500347Y-100447290D01*
X135589163Y-100492545D01*
X135589165Y-100492545D01*
X135589168Y-100492547D01*
X135685497Y-100523846D01*
X135768881Y-100550940D01*
X135955514Y-100580500D01*
X135955519Y-100580500D01*
X136144486Y-100580500D01*
X136331118Y-100550940D01*
X136335867Y-100549397D01*
X136510832Y-100492547D01*
X136679199Y-100406760D01*
X136832073Y-100295690D01*
X136965690Y-100162073D01*
X137076760Y-100009199D01*
X137162547Y-99840832D01*
X137220940Y-99661118D01*
X137250500Y-99474486D01*
X137250500Y-99285513D01*
X137220940Y-99098881D01*
X137162545Y-98919163D01*
X137076759Y-98750800D01*
X136965690Y-98597927D01*
X136832073Y-98464310D01*
X136679199Y-98353240D01*
X136510836Y-98267454D01*
X136331118Y-98209059D01*
X136144486Y-98179500D01*
X136144481Y-98179500D01*
X135955519Y-98179500D01*
X135955514Y-98179500D01*
X135768881Y-98209059D01*
X135589163Y-98267454D01*
X135420800Y-98353240D01*
X135333579Y-98416610D01*
X135267927Y-98464310D01*
X135267925Y-98464312D01*
X135267924Y-98464312D01*
X135134312Y-98597924D01*
X135134312Y-98597925D01*
X135134310Y-98597927D01*
X135086610Y-98663579D01*
X135023240Y-98750800D01*
X134937454Y-98919163D01*
X134879059Y-99098881D01*
X134849500Y-99285513D01*
X126334748Y-99285513D01*
X123904748Y-96855513D01*
X147589500Y-96855513D01*
X147589500Y-97044486D01*
X147619059Y-97231118D01*
X147677454Y-97410836D01*
X147763240Y-97579199D01*
X147874310Y-97732073D01*
X148007927Y-97865690D01*
X148160801Y-97976760D01*
X148240347Y-98017290D01*
X148329163Y-98062545D01*
X148329165Y-98062545D01*
X148329168Y-98062547D01*
X148425497Y-98093846D01*
X148508881Y-98120940D01*
X148695514Y-98150500D01*
X148695519Y-98150500D01*
X148884486Y-98150500D01*
X149071118Y-98120940D01*
X149250832Y-98062547D01*
X149419199Y-97976760D01*
X149572073Y-97865690D01*
X149705690Y-97732073D01*
X149816760Y-97579199D01*
X149902547Y-97410832D01*
X149960940Y-97231118D01*
X149990500Y-97044486D01*
X149990500Y-96855513D01*
X149960940Y-96668881D01*
X149902545Y-96489163D01*
X149816759Y-96320800D01*
X149705690Y-96167927D01*
X149572073Y-96034310D01*
X149419199Y-95923240D01*
X149250836Y-95837454D01*
X149071118Y-95779059D01*
X148884486Y-95749500D01*
X148884481Y-95749500D01*
X148695519Y-95749500D01*
X148695514Y-95749500D01*
X148508881Y-95779059D01*
X148329163Y-95837454D01*
X148160800Y-95923240D01*
X148073579Y-95986610D01*
X148007927Y-96034310D01*
X148007925Y-96034312D01*
X148007924Y-96034312D01*
X147874312Y-96167924D01*
X147874312Y-96167925D01*
X147874310Y-96167927D01*
X147826610Y-96233579D01*
X147763240Y-96320800D01*
X147677454Y-96489163D01*
X147619059Y-96668881D01*
X147589500Y-96855513D01*
X123904748Y-96855513D01*
X119093890Y-92044655D01*
X139592500Y-92044655D01*
X139592500Y-92750000D01*
X140445743Y-92750000D01*
X140436229Y-92766479D01*
X140395000Y-92920350D01*
X140395000Y-93079650D01*
X140436229Y-93233521D01*
X140445743Y-93250000D01*
X139592500Y-93250000D01*
X139592500Y-93955344D01*
X139598901Y-94014872D01*
X139598903Y-94014879D01*
X139649145Y-94149586D01*
X139649149Y-94149593D01*
X139735309Y-94264687D01*
X139735312Y-94264690D01*
X139850406Y-94350850D01*
X139850413Y-94350854D01*
X139985120Y-94401096D01*
X139985127Y-94401098D01*
X140044655Y-94407499D01*
X140044672Y-94407500D01*
X140750000Y-94407500D01*
X140750000Y-93554256D01*
X140766479Y-93563771D01*
X140920350Y-93605000D01*
X141079650Y-93605000D01*
X141233521Y-93563771D01*
X141250000Y-93554256D01*
X141250000Y-94407500D01*
X141955328Y-94407500D01*
X141955344Y-94407499D01*
X142014872Y-94401098D01*
X142014879Y-94401096D01*
X142149586Y-94350854D01*
X142149593Y-94350850D01*
X142264687Y-94264690D01*
X142264690Y-94264687D01*
X142350850Y-94149593D01*
X142350853Y-94149588D01*
X142377830Y-94077257D01*
X142419701Y-94021322D01*
X142485165Y-93996904D01*
X142553438Y-94011755D01*
X142581694Y-94032907D01*
X142622749Y-94073962D01*
X142802047Y-94204230D01*
X142895344Y-94251767D01*
X142999511Y-94304843D01*
X142999513Y-94304843D01*
X142999516Y-94304845D01*
X143112496Y-94341554D01*
X143210292Y-94373331D01*
X143429183Y-94408000D01*
X143429188Y-94408000D01*
X143650817Y-94408000D01*
X143869707Y-94373331D01*
X144080484Y-94304845D01*
X144277953Y-94204230D01*
X144457251Y-94073962D01*
X144613962Y-93917251D01*
X144744230Y-93737953D01*
X144844845Y-93540484D01*
X144913331Y-93329707D01*
X144928565Y-93233521D01*
X144948000Y-93110817D01*
X144948000Y-92889182D01*
X144913331Y-92670292D01*
X144881554Y-92572496D01*
X144844845Y-92459516D01*
X144844843Y-92459513D01*
X144844843Y-92459511D01*
X144744229Y-92262046D01*
X144613962Y-92082749D01*
X144457251Y-91926038D01*
X144277953Y-91795770D01*
X144080488Y-91695156D01*
X143869707Y-91626668D01*
X143650817Y-91592000D01*
X143650812Y-91592000D01*
X143429188Y-91592000D01*
X143429183Y-91592000D01*
X143210292Y-91626668D01*
X142999511Y-91695156D01*
X142802046Y-91795770D01*
X142726835Y-91850415D01*
X142622749Y-91926038D01*
X142622747Y-91926040D01*
X142622745Y-91926041D01*
X142581693Y-91967093D01*
X142520370Y-92000578D01*
X142450678Y-91995592D01*
X142394745Y-91953720D01*
X142377831Y-91922743D01*
X142350855Y-91850415D01*
X142350850Y-91850406D01*
X142264690Y-91735312D01*
X142264687Y-91735309D01*
X142149593Y-91649149D01*
X142149586Y-91649145D01*
X142014879Y-91598903D01*
X142014872Y-91598901D01*
X141955344Y-91592500D01*
X141250000Y-91592500D01*
X141250000Y-92445743D01*
X141233521Y-92436229D01*
X141079650Y-92395000D01*
X140920350Y-92395000D01*
X140766479Y-92436229D01*
X140750000Y-92445743D01*
X140750000Y-91592500D01*
X140044655Y-91592500D01*
X139985127Y-91598901D01*
X139985120Y-91598903D01*
X139850413Y-91649145D01*
X139850406Y-91649149D01*
X139735312Y-91735309D01*
X139735309Y-91735312D01*
X139649149Y-91850406D01*
X139649145Y-91850413D01*
X139598903Y-91985120D01*
X139598901Y-91985127D01*
X139592500Y-92044655D01*
X119093890Y-92044655D01*
X115081137Y-88031902D01*
X124899500Y-88031902D01*
X124899500Y-88268097D01*
X124936446Y-88501368D01*
X125009433Y-88725996D01*
X125096317Y-88896513D01*
X125116657Y-88936433D01*
X125255483Y-89127510D01*
X125422490Y-89294517D01*
X125613567Y-89433343D01*
X125712991Y-89484002D01*
X125824003Y-89540566D01*
X125824005Y-89540566D01*
X125824008Y-89540568D01*
X125944412Y-89579689D01*
X126048631Y-89613553D01*
X126281903Y-89650500D01*
X126281908Y-89650500D01*
X127718097Y-89650500D01*
X127951368Y-89613553D01*
X127958862Y-89611118D01*
X128175992Y-89540568D01*
X128386433Y-89433343D01*
X128577510Y-89294517D01*
X128636514Y-89235513D01*
X147589500Y-89235513D01*
X147589500Y-89424486D01*
X147619059Y-89611118D01*
X147677454Y-89790836D01*
X147763240Y-89959199D01*
X147874310Y-90112073D01*
X148007927Y-90245690D01*
X148160801Y-90356760D01*
X148240347Y-90397290D01*
X148329163Y-90442545D01*
X148329165Y-90442545D01*
X148329168Y-90442547D01*
X148425497Y-90473846D01*
X148508881Y-90500940D01*
X148695514Y-90530500D01*
X148695519Y-90530500D01*
X148884486Y-90530500D01*
X149071118Y-90500940D01*
X149250832Y-90442547D01*
X149419199Y-90356760D01*
X149572073Y-90245690D01*
X149705690Y-90112073D01*
X149816760Y-89959199D01*
X149902547Y-89790832D01*
X149960940Y-89611118D01*
X149972114Y-89540566D01*
X149990500Y-89424486D01*
X149990500Y-89235513D01*
X149960940Y-89048881D01*
X149902545Y-88869163D01*
X149816759Y-88700800D01*
X149705690Y-88547927D01*
X149572073Y-88414310D01*
X149419199Y-88303240D01*
X149250836Y-88217454D01*
X149071118Y-88159059D01*
X148884486Y-88129500D01*
X148884481Y-88129500D01*
X148695519Y-88129500D01*
X148695514Y-88129500D01*
X148508881Y-88159059D01*
X148329163Y-88217454D01*
X148160800Y-88303240D01*
X148073579Y-88366610D01*
X148007927Y-88414310D01*
X148007925Y-88414312D01*
X148007924Y-88414312D01*
X147874312Y-88547924D01*
X147874312Y-88547925D01*
X147874310Y-88547927D01*
X147848002Y-88584137D01*
X147763240Y-88700800D01*
X147677454Y-88869163D01*
X147619059Y-89048881D01*
X147589500Y-89235513D01*
X128636514Y-89235513D01*
X128744517Y-89127510D01*
X128883343Y-88936433D01*
X128990568Y-88725992D01*
X129063553Y-88501368D01*
X129100500Y-88268097D01*
X129100500Y-88031902D01*
X129063553Y-87798631D01*
X129003226Y-87612966D01*
X128990568Y-87574008D01*
X128990566Y-87574005D01*
X128990566Y-87574003D01*
X128910846Y-87417545D01*
X128883343Y-87363567D01*
X128744517Y-87172490D01*
X128577510Y-87005483D01*
X128386433Y-86866657D01*
X128175996Y-86759433D01*
X127951368Y-86686446D01*
X127718097Y-86649500D01*
X127718092Y-86649500D01*
X126281908Y-86649500D01*
X126281903Y-86649500D01*
X126048631Y-86686446D01*
X125824003Y-86759433D01*
X125613566Y-86866657D01*
X125523893Y-86931809D01*
X125422490Y-87005483D01*
X125422488Y-87005485D01*
X125422487Y-87005485D01*
X125255485Y-87172487D01*
X125255485Y-87172488D01*
X125255483Y-87172490D01*
X125195862Y-87254550D01*
X125116657Y-87363566D01*
X125009433Y-87574003D01*
X124936446Y-87798631D01*
X124899500Y-88031902D01*
X115081137Y-88031902D01*
X114976090Y-87926855D01*
X114976088Y-87926852D01*
X114857217Y-87807981D01*
X114857216Y-87807980D01*
X114770404Y-87757860D01*
X114770404Y-87757859D01*
X114770400Y-87757858D01*
X114720285Y-87728923D01*
X114567557Y-87687999D01*
X114409443Y-87687999D01*
X114401847Y-87687999D01*
X114401831Y-87688000D01*
X76202030Y-87688000D01*
X76134991Y-87668315D01*
X76089236Y-87615511D01*
X76080564Y-87582034D01*
X76079726Y-87582188D01*
X76078586Y-87575947D01*
X76032565Y-87417545D01*
X76032564Y-87417542D01*
X76032564Y-87417541D01*
X75948592Y-87275553D01*
X75948590Y-87275551D01*
X75948587Y-87275547D01*
X75831952Y-87158912D01*
X75831944Y-87158906D01*
X75775004Y-87125232D01*
X75727321Y-87074163D01*
X75714817Y-87005421D01*
X75741462Y-86940832D01*
X75775004Y-86911768D01*
X75831947Y-86878092D01*
X75948592Y-86761447D01*
X76032564Y-86619459D01*
X76078587Y-86461048D01*
X76081500Y-86424034D01*
X76081500Y-85072966D01*
X76078587Y-85035952D01*
X76048357Y-84931902D01*
X76032565Y-84877545D01*
X76032564Y-84877542D01*
X76032564Y-84877541D01*
X75948592Y-84735553D01*
X75948590Y-84735551D01*
X75948587Y-84735547D01*
X75831952Y-84618912D01*
X75831944Y-84618906D01*
X75775004Y-84585232D01*
X75727321Y-84534163D01*
X75714817Y-84465421D01*
X75741462Y-84400832D01*
X75775004Y-84371768D01*
X75831947Y-84338092D01*
X75948592Y-84221447D01*
X76032564Y-84079459D01*
X76078587Y-83921048D01*
X76081500Y-83884034D01*
X76081500Y-82532966D01*
X76078587Y-82495952D01*
X76075165Y-82484174D01*
X76032565Y-82337545D01*
X76032564Y-82337542D01*
X76032564Y-82337541D01*
X75971046Y-82233521D01*
X75948594Y-82195556D01*
X75948587Y-82195547D01*
X75831952Y-82078912D01*
X75831944Y-82078906D01*
X75802389Y-82061427D01*
X75775003Y-82045231D01*
X75727321Y-81994163D01*
X75714817Y-81925421D01*
X75741462Y-81860832D01*
X75775004Y-81831768D01*
X75831947Y-81798092D01*
X75948592Y-81681447D01*
X76032564Y-81539459D01*
X76078587Y-81381048D01*
X76081500Y-81344034D01*
X76081500Y-79992966D01*
X76078587Y-79955952D01*
X76032564Y-79797541D01*
X75948592Y-79655553D01*
X75948590Y-79655551D01*
X75948587Y-79655547D01*
X75831952Y-79538912D01*
X75831944Y-79538906D01*
X75775004Y-79505232D01*
X75727321Y-79454163D01*
X75714817Y-79385421D01*
X75741462Y-79320832D01*
X75775004Y-79291768D01*
X75831947Y-79258092D01*
X75948592Y-79141447D01*
X76030981Y-79002135D01*
X117999500Y-79002135D01*
X117999500Y-81097870D01*
X117999501Y-81097876D01*
X118005908Y-81157483D01*
X118056202Y-81292328D01*
X118056206Y-81292335D01*
X118142452Y-81407544D01*
X118142453Y-81407544D01*
X118142454Y-81407546D01*
X118185943Y-81440102D01*
X118260599Y-81495990D01*
X118302469Y-81551924D01*
X118307453Y-81621615D01*
X118286605Y-81668141D01*
X118217087Y-81763824D01*
X118109897Y-81974197D01*
X118036934Y-82198752D01*
X118000000Y-82431947D01*
X118000000Y-82668052D01*
X118036934Y-82901247D01*
X118109897Y-83125802D01*
X118217087Y-83336174D01*
X118277338Y-83419104D01*
X118277340Y-83419105D01*
X119017037Y-82679408D01*
X119034075Y-82742993D01*
X119099901Y-82857007D01*
X119192993Y-82950099D01*
X119307007Y-83015925D01*
X119370590Y-83032962D01*
X118624280Y-83779271D01*
X118615105Y-83822947D01*
X118578739Y-83864615D01*
X118522490Y-83905482D01*
X118355485Y-84072487D01*
X118355485Y-84072488D01*
X118355483Y-84072490D01*
X118350420Y-84079459D01*
X118216657Y-84263566D01*
X118109433Y-84474003D01*
X118036446Y-84698631D01*
X117999500Y-84931902D01*
X117999500Y-85168097D01*
X118036446Y-85401368D01*
X118109433Y-85625996D01*
X118183377Y-85771118D01*
X118216657Y-85836433D01*
X118355483Y-86027510D01*
X118522490Y-86194517D01*
X118713567Y-86333343D01*
X118812991Y-86384002D01*
X118924003Y-86440566D01*
X118924005Y-86440566D01*
X118924008Y-86440568D01*
X119044412Y-86479689D01*
X119148631Y-86513553D01*
X119381903Y-86550500D01*
X119381908Y-86550500D01*
X119618097Y-86550500D01*
X119851368Y-86513553D01*
X120075992Y-86440568D01*
X120286433Y-86333343D01*
X120477510Y-86194517D01*
X120644517Y-86027510D01*
X120783343Y-85836433D01*
X120890568Y-85625992D01*
X120963553Y-85401368D01*
X120968324Y-85371247D01*
X121000500Y-85168097D01*
X121000500Y-84931902D01*
X132499500Y-84931902D01*
X132499500Y-85168097D01*
X132536446Y-85401368D01*
X132609433Y-85625996D01*
X132683377Y-85771118D01*
X132716657Y-85836433D01*
X132855483Y-86027510D01*
X133022490Y-86194517D01*
X133213567Y-86333343D01*
X133312991Y-86384002D01*
X133424003Y-86440566D01*
X133424005Y-86440566D01*
X133424008Y-86440568D01*
X133544412Y-86479689D01*
X133648631Y-86513553D01*
X133881903Y-86550500D01*
X133881908Y-86550500D01*
X134118097Y-86550500D01*
X134351368Y-86513553D01*
X134575992Y-86440568D01*
X134786433Y-86333343D01*
X134977510Y-86194517D01*
X135144517Y-86027510D01*
X135283343Y-85836433D01*
X135390568Y-85625992D01*
X135463553Y-85401368D01*
X135464480Y-85395513D01*
X147769500Y-85395513D01*
X147769500Y-85584486D01*
X147799059Y-85771118D01*
X147857454Y-85950836D01*
X147904994Y-86044137D01*
X147943240Y-86119199D01*
X148054310Y-86272073D01*
X148187927Y-86405690D01*
X148340801Y-86516760D01*
X148407020Y-86550500D01*
X148509163Y-86602545D01*
X148509165Y-86602545D01*
X148509168Y-86602547D01*
X148605497Y-86633846D01*
X148688881Y-86660940D01*
X148875514Y-86690500D01*
X148875519Y-86690500D01*
X149064486Y-86690500D01*
X149251118Y-86660940D01*
X149286326Y-86649500D01*
X149430832Y-86602547D01*
X149599199Y-86516760D01*
X149752073Y-86405690D01*
X149885690Y-86272073D01*
X149996760Y-86119199D01*
X150082547Y-85950832D01*
X150140940Y-85771118D01*
X150170500Y-85584486D01*
X150170500Y-85395513D01*
X150140940Y-85208881D01*
X150101275Y-85086806D01*
X150082547Y-85029168D01*
X150082545Y-85029165D01*
X150082545Y-85029163D01*
X149996759Y-84860800D01*
X149885690Y-84707927D01*
X149752073Y-84574310D01*
X149599199Y-84463240D01*
X149556748Y-84441610D01*
X149430836Y-84377454D01*
X149251118Y-84319059D01*
X149064486Y-84289500D01*
X149064481Y-84289500D01*
X148875519Y-84289500D01*
X148875514Y-84289500D01*
X148688881Y-84319059D01*
X148509163Y-84377454D01*
X148340800Y-84463240D01*
X148274418Y-84511470D01*
X148187927Y-84574310D01*
X148187925Y-84574312D01*
X148187924Y-84574312D01*
X148054312Y-84707924D01*
X148054312Y-84707925D01*
X148054310Y-84707927D01*
X148006610Y-84773579D01*
X147943240Y-84860800D01*
X147857454Y-85029163D01*
X147799059Y-85208881D01*
X147769500Y-85395513D01*
X135464480Y-85395513D01*
X135468324Y-85371247D01*
X135500500Y-85168097D01*
X135500500Y-84931902D01*
X135463553Y-84698631D01*
X135422038Y-84570863D01*
X135390568Y-84474008D01*
X135390566Y-84474005D01*
X135390566Y-84474003D01*
X135311618Y-84319060D01*
X135283343Y-84263567D01*
X135144517Y-84072490D01*
X134977510Y-83905483D01*
X134786433Y-83766657D01*
X134575996Y-83659433D01*
X134351368Y-83586446D01*
X134118097Y-83549500D01*
X134118092Y-83549500D01*
X133881908Y-83549500D01*
X133881903Y-83549500D01*
X133648631Y-83586446D01*
X133424003Y-83659433D01*
X133213566Y-83766657D01*
X133104550Y-83845862D01*
X133022490Y-83905483D01*
X133022488Y-83905485D01*
X133022487Y-83905485D01*
X132855485Y-84072487D01*
X132855485Y-84072488D01*
X132855483Y-84072490D01*
X132850420Y-84079459D01*
X132716657Y-84263566D01*
X132609433Y-84474003D01*
X132536446Y-84698631D01*
X132499500Y-84931902D01*
X121000500Y-84931902D01*
X120963553Y-84698631D01*
X120922038Y-84570863D01*
X120890568Y-84474008D01*
X120890566Y-84474005D01*
X120890566Y-84474003D01*
X120811618Y-84319060D01*
X120783343Y-84263567D01*
X120644517Y-84072490D01*
X120477510Y-83905483D01*
X120421259Y-83864614D01*
X120378595Y-83809284D01*
X120373902Y-83777455D01*
X119629408Y-83032962D01*
X119692993Y-83015925D01*
X119807007Y-82950099D01*
X119900099Y-82857007D01*
X119965925Y-82742993D01*
X119982962Y-82679409D01*
X120722658Y-83419105D01*
X120722658Y-83419104D01*
X120782914Y-83336169D01*
X120782918Y-83336163D01*
X120890102Y-83125802D01*
X120963065Y-82901247D01*
X121000000Y-82668052D01*
X121000000Y-82431947D01*
X120966120Y-82218036D01*
X120963065Y-82198752D01*
X120890102Y-81974197D01*
X120782914Y-81763828D01*
X120713394Y-81668142D01*
X120689914Y-81602335D01*
X120705739Y-81534281D01*
X120739401Y-81495989D01*
X120742329Y-81493796D01*
X120742331Y-81493796D01*
X120857546Y-81407546D01*
X120943796Y-81292331D01*
X120994091Y-81157483D01*
X121000500Y-81097873D01*
X121000499Y-79931947D01*
X132500000Y-79931947D01*
X132500000Y-80168052D01*
X132536934Y-80401247D01*
X132609897Y-80625802D01*
X132717087Y-80836174D01*
X132777338Y-80919104D01*
X132777340Y-80919105D01*
X133517037Y-80179408D01*
X133534075Y-80242993D01*
X133599901Y-80357007D01*
X133692993Y-80450099D01*
X133807007Y-80515925D01*
X133870590Y-80532962D01*
X133130893Y-81272658D01*
X133213828Y-81332914D01*
X133424197Y-81440102D01*
X133648752Y-81513065D01*
X133648751Y-81513065D01*
X133881948Y-81550000D01*
X134118052Y-81550000D01*
X134351247Y-81513065D01*
X134575802Y-81440102D01*
X134786163Y-81332918D01*
X134786169Y-81332914D01*
X134869104Y-81272658D01*
X134869105Y-81272658D01*
X134641102Y-81044655D01*
X139592500Y-81044655D01*
X139592500Y-81750000D01*
X140445743Y-81750000D01*
X140436229Y-81766479D01*
X140395000Y-81920350D01*
X140395000Y-82079650D01*
X140436229Y-82233521D01*
X140445743Y-82250000D01*
X139592500Y-82250000D01*
X139592500Y-82955344D01*
X139598901Y-83014872D01*
X139598903Y-83014879D01*
X139649145Y-83149586D01*
X139649149Y-83149593D01*
X139735309Y-83264687D01*
X139735312Y-83264690D01*
X139850406Y-83350850D01*
X139850413Y-83350854D01*
X139985120Y-83401096D01*
X139985127Y-83401098D01*
X140044655Y-83407499D01*
X140044672Y-83407500D01*
X140750000Y-83407500D01*
X140750000Y-82554256D01*
X140766479Y-82563771D01*
X140920350Y-82605000D01*
X141079650Y-82605000D01*
X141233521Y-82563771D01*
X141250000Y-82554256D01*
X141250000Y-83407500D01*
X141955328Y-83407500D01*
X141955344Y-83407499D01*
X142014872Y-83401098D01*
X142014879Y-83401096D01*
X142149586Y-83350854D01*
X142149593Y-83350850D01*
X142264687Y-83264690D01*
X142264690Y-83264687D01*
X142350850Y-83149593D01*
X142350853Y-83149588D01*
X142377830Y-83077257D01*
X142419701Y-83021322D01*
X142485165Y-82996904D01*
X142553438Y-83011755D01*
X142581694Y-83032907D01*
X142622749Y-83073962D01*
X142802047Y-83204230D01*
X142895344Y-83251767D01*
X142999511Y-83304843D01*
X142999513Y-83304843D01*
X142999516Y-83304845D01*
X143095902Y-83336163D01*
X143210292Y-83373331D01*
X143429183Y-83408000D01*
X143429188Y-83408000D01*
X143650817Y-83408000D01*
X143869707Y-83373331D01*
X144080484Y-83304845D01*
X144277953Y-83204230D01*
X144457251Y-83073962D01*
X144613962Y-82917251D01*
X144744230Y-82737953D01*
X144844845Y-82540484D01*
X144913331Y-82329707D01*
X144926665Y-82245518D01*
X144948000Y-82110817D01*
X144948000Y-81889182D01*
X144913331Y-81670292D01*
X144870820Y-81539459D01*
X144844845Y-81459516D01*
X144844843Y-81459513D01*
X144844843Y-81459511D01*
X144759659Y-81292328D01*
X144744230Y-81262047D01*
X144613962Y-81082749D01*
X144457251Y-80926038D01*
X144277953Y-80795770D01*
X144080488Y-80695156D01*
X143869707Y-80626668D01*
X143650817Y-80592000D01*
X143650812Y-80592000D01*
X143429188Y-80592000D01*
X143429183Y-80592000D01*
X143210292Y-80626668D01*
X142999511Y-80695156D01*
X142802046Y-80795770D01*
X142726835Y-80850415D01*
X142622749Y-80926038D01*
X142622747Y-80926040D01*
X142622745Y-80926041D01*
X142581693Y-80967093D01*
X142520370Y-81000578D01*
X142450678Y-80995592D01*
X142394745Y-80953720D01*
X142377831Y-80922743D01*
X142350855Y-80850415D01*
X142350850Y-80850406D01*
X142264690Y-80735312D01*
X142264687Y-80735309D01*
X142149593Y-80649149D01*
X142149586Y-80649145D01*
X142014879Y-80598903D01*
X142014872Y-80598901D01*
X141955344Y-80592500D01*
X141250000Y-80592500D01*
X141250000Y-81445743D01*
X141233521Y-81436229D01*
X141079650Y-81395000D01*
X140920350Y-81395000D01*
X140766479Y-81436229D01*
X140750000Y-81445743D01*
X140750000Y-80592500D01*
X140044655Y-80592500D01*
X139985127Y-80598901D01*
X139985120Y-80598903D01*
X139850413Y-80649145D01*
X139850406Y-80649149D01*
X139735312Y-80735309D01*
X139735309Y-80735312D01*
X139649149Y-80850406D01*
X139649145Y-80850413D01*
X139598903Y-80985120D01*
X139598901Y-80985127D01*
X139592500Y-81044655D01*
X134641102Y-81044655D01*
X134129408Y-80532962D01*
X134192993Y-80515925D01*
X134307007Y-80450099D01*
X134400099Y-80357007D01*
X134465925Y-80242993D01*
X134482962Y-80179409D01*
X135222658Y-80919105D01*
X135282914Y-80836169D01*
X135282918Y-80836163D01*
X135390102Y-80625802D01*
X135463065Y-80401247D01*
X135500000Y-80168052D01*
X135500000Y-79931947D01*
X135463065Y-79698752D01*
X135390102Y-79474197D01*
X135282914Y-79263828D01*
X135222658Y-79180894D01*
X135222658Y-79180893D01*
X134482962Y-79920590D01*
X134465925Y-79857007D01*
X134400099Y-79742993D01*
X134307007Y-79649901D01*
X134192993Y-79584075D01*
X134129409Y-79567037D01*
X134869105Y-78827340D01*
X134869104Y-78827338D01*
X134786174Y-78767087D01*
X134575802Y-78659897D01*
X134351247Y-78586934D01*
X134351248Y-78586934D01*
X134118052Y-78550000D01*
X133881948Y-78550000D01*
X133648752Y-78586934D01*
X133424197Y-78659897D01*
X133213830Y-78767084D01*
X133130894Y-78827340D01*
X133870591Y-79567037D01*
X133807007Y-79584075D01*
X133692993Y-79649901D01*
X133599901Y-79742993D01*
X133534075Y-79857007D01*
X133517037Y-79920591D01*
X132777340Y-79180894D01*
X132717084Y-79263830D01*
X132609897Y-79474197D01*
X132536934Y-79698752D01*
X132500000Y-79931947D01*
X121000499Y-79931947D01*
X121000499Y-79002128D01*
X120994091Y-78942517D01*
X120994090Y-78942514D01*
X120984922Y-78917931D01*
X120943797Y-78807671D01*
X120943793Y-78807664D01*
X120857547Y-78692455D01*
X120857544Y-78692452D01*
X120742335Y-78606206D01*
X120742328Y-78606202D01*
X120607482Y-78555908D01*
X120607483Y-78555908D01*
X120547883Y-78549501D01*
X120547881Y-78549500D01*
X120547873Y-78549500D01*
X120547864Y-78549500D01*
X118452129Y-78549500D01*
X118452123Y-78549501D01*
X118392516Y-78555908D01*
X118257671Y-78606202D01*
X118257664Y-78606206D01*
X118142455Y-78692452D01*
X118142452Y-78692455D01*
X118056206Y-78807664D01*
X118056202Y-78807671D01*
X118005908Y-78942517D01*
X118001605Y-78982545D01*
X117999501Y-79002123D01*
X117999500Y-79002135D01*
X76030981Y-79002135D01*
X76032564Y-78999459D01*
X76078587Y-78841048D01*
X76081500Y-78804034D01*
X76081500Y-77452966D01*
X76078587Y-77415952D01*
X76032564Y-77257541D01*
X75948592Y-77115553D01*
X75948590Y-77115551D01*
X75948587Y-77115547D01*
X75831952Y-76998912D01*
X75831949Y-76998910D01*
X75831947Y-76998908D01*
X75774511Y-76964940D01*
X75771270Y-76961469D01*
X75766767Y-76959963D01*
X75747655Y-76936176D01*
X75726829Y-76913871D01*
X75725979Y-76909198D01*
X75723005Y-76905497D01*
X75719786Y-76875152D01*
X75714326Y-76845130D01*
X75716136Y-76840740D01*
X75715636Y-76836017D01*
X75717703Y-76831902D01*
X124899500Y-76831902D01*
X124899500Y-77068097D01*
X124936446Y-77301368D01*
X125009433Y-77525996D01*
X125105406Y-77714351D01*
X125116657Y-77736433D01*
X125255483Y-77927510D01*
X125422490Y-78094517D01*
X125613567Y-78233343D01*
X125712991Y-78284002D01*
X125824003Y-78340566D01*
X125824005Y-78340566D01*
X125824008Y-78340568D01*
X125944412Y-78379689D01*
X126048631Y-78413553D01*
X126281903Y-78450500D01*
X126281908Y-78450500D01*
X127718097Y-78450500D01*
X127951368Y-78413553D01*
X128175992Y-78340568D01*
X128386433Y-78233343D01*
X128577510Y-78094517D01*
X128744517Y-77927510D01*
X128854950Y-77775513D01*
X147769500Y-77775513D01*
X147769500Y-77964486D01*
X147799059Y-78151118D01*
X147857454Y-78330836D01*
X147943240Y-78499199D01*
X148054310Y-78652073D01*
X148187927Y-78785690D01*
X148340801Y-78896760D01*
X148382352Y-78917931D01*
X148509163Y-78982545D01*
X148509165Y-78982545D01*
X148509168Y-78982547D01*
X148605497Y-79013846D01*
X148688881Y-79040940D01*
X148875514Y-79070500D01*
X148875519Y-79070500D01*
X149064486Y-79070500D01*
X149251118Y-79040940D01*
X149430832Y-78982547D01*
X149599199Y-78896760D01*
X149752073Y-78785690D01*
X149885690Y-78652073D01*
X149996760Y-78499199D01*
X150082547Y-78330832D01*
X150140940Y-78151118D01*
X150149905Y-78094514D01*
X150170500Y-77964486D01*
X150170500Y-77775513D01*
X150140940Y-77588881D01*
X150101275Y-77466806D01*
X150082547Y-77409168D01*
X150082545Y-77409165D01*
X150082545Y-77409163D01*
X149996759Y-77240800D01*
X149885690Y-77087927D01*
X149752073Y-76954310D01*
X149599199Y-76843240D01*
X149430836Y-76757454D01*
X149251118Y-76699059D01*
X149064486Y-76669500D01*
X149064481Y-76669500D01*
X148875519Y-76669500D01*
X148875514Y-76669500D01*
X148688881Y-76699059D01*
X148509163Y-76757454D01*
X148340800Y-76843240D01*
X148296878Y-76875152D01*
X148187927Y-76954310D01*
X148187925Y-76954312D01*
X148187924Y-76954312D01*
X148054312Y-77087924D01*
X148054312Y-77087925D01*
X148054310Y-77087927D01*
X148006610Y-77153579D01*
X147943240Y-77240800D01*
X147857454Y-77409163D01*
X147799059Y-77588881D01*
X147769500Y-77775513D01*
X128854950Y-77775513D01*
X128883343Y-77736433D01*
X128888331Y-77726642D01*
X128894595Y-77714351D01*
X128990566Y-77525996D01*
X128990566Y-77525995D01*
X128990568Y-77525992D01*
X129063553Y-77301368D01*
X129070494Y-77257542D01*
X129100500Y-77068097D01*
X129100500Y-76831902D01*
X129063553Y-76598631D01*
X128990566Y-76374003D01*
X128883342Y-76163566D01*
X128744517Y-75972490D01*
X128577510Y-75805483D01*
X128386433Y-75666657D01*
X128175996Y-75559433D01*
X127951368Y-75486446D01*
X127718097Y-75449500D01*
X127718092Y-75449500D01*
X126281908Y-75449500D01*
X126281903Y-75449500D01*
X126048631Y-75486446D01*
X125824003Y-75559433D01*
X125613566Y-75666657D01*
X125504550Y-75745862D01*
X125422490Y-75805483D01*
X125422488Y-75805485D01*
X125422487Y-75805485D01*
X125255485Y-75972487D01*
X125255485Y-75972488D01*
X125255483Y-75972490D01*
X125211520Y-76033000D01*
X125116657Y-76163566D01*
X125009433Y-76374003D01*
X124936446Y-76598631D01*
X124899500Y-76831902D01*
X75717703Y-76831902D01*
X75729334Y-76808748D01*
X75740972Y-76780540D01*
X75745459Y-76776651D01*
X75747001Y-76773583D01*
X75774514Y-76751476D01*
X75827226Y-76720303D01*
X75827227Y-76720302D01*
X75831635Y-76717695D01*
X75831643Y-76717689D01*
X75948189Y-76601143D01*
X75948196Y-76601134D01*
X76032102Y-76459256D01*
X76032103Y-76459253D01*
X76078088Y-76300973D01*
X76078089Y-76300967D01*
X76080999Y-76263988D01*
X76080999Y-74913030D01*
X76080998Y-74913008D01*
X76078089Y-74876033D01*
X76032102Y-74717742D01*
X75948196Y-74575865D01*
X75948189Y-74575856D01*
X75831643Y-74459310D01*
X75831634Y-74459303D01*
X75774513Y-74425522D01*
X75726829Y-74374453D01*
X75714326Y-74305711D01*
X75740972Y-74241122D01*
X75774514Y-74212058D01*
X75831941Y-74178096D01*
X75831942Y-74178094D01*
X75831947Y-74178092D01*
X75948592Y-74061447D01*
X76032564Y-73919459D01*
X76078587Y-73761048D01*
X76081500Y-73724034D01*
X76081500Y-72372966D01*
X76078587Y-72335952D01*
X76032564Y-72177541D01*
X75948592Y-72035553D01*
X75948590Y-72035551D01*
X75948587Y-72035547D01*
X75831952Y-71918912D01*
X75831943Y-71918905D01*
X75689957Y-71834935D01*
X75689954Y-71834934D01*
X75531552Y-71788913D01*
X75531546Y-71788912D01*
X75494541Y-71786000D01*
X75494534Y-71786000D01*
X73235466Y-71786000D01*
X73235458Y-71786000D01*
X73198453Y-71788912D01*
X73198447Y-71788913D01*
X73040045Y-71834934D01*
X73040042Y-71834935D01*
X72898056Y-71918905D01*
X72898046Y-71918913D01*
X72801854Y-72015104D01*
X72787061Y-72027739D01*
X72707536Y-72085518D01*
X72567021Y-72226033D01*
X72450213Y-72386805D01*
X72359994Y-72563867D01*
X72359993Y-72563870D01*
X72298587Y-72752862D01*
X72267500Y-72949139D01*
X59552500Y-72949139D01*
X59521413Y-72752864D01*
X59460005Y-72563868D01*
X59460005Y-72563867D01*
X59369786Y-72386805D01*
X59252981Y-72226036D01*
X59112464Y-72085519D01*
X59032937Y-72027739D01*
X59018147Y-72015108D01*
X58921947Y-71918908D01*
X58921946Y-71918907D01*
X58921943Y-71918905D01*
X58779957Y-71834935D01*
X58779954Y-71834934D01*
X58621552Y-71788913D01*
X58621546Y-71788912D01*
X58584541Y-71786000D01*
X58584534Y-71786000D01*
X56325466Y-71786000D01*
X56325458Y-71786000D01*
X56288453Y-71788912D01*
X56288447Y-71788913D01*
X56130045Y-71834934D01*
X56130042Y-71834935D01*
X55988056Y-71918905D01*
X55988047Y-71918912D01*
X55871412Y-72035547D01*
X55871405Y-72035556D01*
X55787435Y-72177542D01*
X55787434Y-72177545D01*
X55741413Y-72335947D01*
X55741412Y-72335953D01*
X55738500Y-72372958D01*
X53500500Y-72372958D01*
X53500500Y-70624500D01*
X53520185Y-70557461D01*
X53572989Y-70511706D01*
X53624500Y-70500500D01*
X151895500Y-70500500D01*
X151962539Y-70520185D01*
G37*
%TD.AperFunction*%
%TD*%
M02*
