%TF.GenerationSoftware,KiCad,Pcbnew,9.0.2*%
%TF.CreationDate,2025-06-28T18:10:06-07:00*%
%TF.ProjectId,pcb,7063622e-6b69-4636-9164-5f7063625858,rev?*%
%TF.SameCoordinates,Original*%
%TF.FileFunction,Copper,L1,Top*%
%TF.FilePolarity,Positive*%
%FSLAX46Y46*%
G04 Gerber Fmt 4.6, Leading zero omitted, Abs format (unit mm)*
G04 Created by KiCad (PCBNEW 9.0.2) date 2025-06-28 18:10:06*
%MOMM*%
%LPD*%
G01*
G04 APERTURE LIST*
G04 Aperture macros list*
%AMRoundRect*
0 Rectangle with rounded corners*
0 $1 Rounding radius*
0 $2 $3 $4 $5 $6 $7 $8 $9 X,Y pos of 4 corners*
0 Add a 4 corners polygon primitive as box body*
4,1,4,$2,$3,$4,$5,$6,$7,$8,$9,$2,$3,0*
0 Add four circle primitives for the rounded corners*
1,1,$1+$1,$2,$3*
1,1,$1+$1,$4,$5*
1,1,$1+$1,$6,$7*
1,1,$1+$1,$8,$9*
0 Add four rect primitives between the rounded corners*
20,1,$1+$1,$2,$3,$4,$5,0*
20,1,$1+$1,$4,$5,$6,$7,0*
20,1,$1+$1,$6,$7,$8,$9,0*
20,1,$1+$1,$8,$9,$2,$3,0*%
G04 Aperture macros list end*
%TA.AperFunction,ComponentPad*%
%ADD10C,2.200000*%
%TD*%
%TA.AperFunction,SMDPad,CuDef*%
%ADD11RoundRect,0.152400X1.063600X0.609600X-1.063600X0.609600X-1.063600X-0.609600X1.063600X-0.609600X0*%
%TD*%
%TA.AperFunction,ComponentPad*%
%ADD12C,1.524000*%
%TD*%
%TA.AperFunction,SMDPad,CuDef*%
%ADD13RoundRect,0.152400X-1.063600X-0.609600X1.063600X-0.609600X1.063600X0.609600X-1.063600X0.609600X0*%
%TD*%
%TA.AperFunction,WasherPad*%
%ADD14O,3.200000X2.000000*%
%TD*%
%TA.AperFunction,ComponentPad*%
%ADD15R,2.000000X2.000000*%
%TD*%
%TA.AperFunction,ComponentPad*%
%ADD16C,2.000000*%
%TD*%
%TA.AperFunction,ComponentPad*%
%ADD17C,1.400000*%
%TD*%
%TA.AperFunction,ComponentPad*%
%ADD18R,1.815000X1.815000*%
%TD*%
%TA.AperFunction,ComponentPad*%
%ADD19C,1.815000*%
%TD*%
%TA.AperFunction,ViaPad*%
%ADD20C,0.600000*%
%TD*%
%TA.AperFunction,Conductor*%
%ADD21C,0.200000*%
%TD*%
G04 APERTURE END LIST*
D10*
%TO.P,SW3,2,2*%
%TO.N,Net-(U1-GPIO28{slash}ADC2{slash}A2)*%
X110540000Y-92710000D03*
%TO.P,SW3,1,1*%
%TO.N,GND*%
X116890000Y-90170000D03*
%TD*%
D11*
%TO.P,U1,1,GPIO26/ADC0/A0*%
%TO.N,Net-(U1-GPIO26{slash}ADC0{slash}A0)*%
X66415000Y-65980000D03*
D12*
X67250000Y-65980000D03*
D11*
%TO.P,U1,2,GPIO27/ADC1/A1*%
%TO.N,Net-(U1-GPIO27{slash}ADC1{slash}A1)*%
X66415000Y-68520000D03*
D12*
X67250000Y-68520000D03*
D11*
%TO.P,U1,3,GPIO28/ADC2/A2*%
%TO.N,Net-(U1-GPIO28{slash}ADC2{slash}A2)*%
X66415000Y-71060000D03*
D12*
X67250000Y-71060000D03*
D11*
%TO.P,U1,4,GPIO29/ADC3/A3*%
%TO.N,Net-(U1-GPIO29{slash}ADC3{slash}A3)*%
X66415000Y-73600000D03*
D12*
X67250000Y-73600000D03*
D11*
%TO.P,U1,5,GPIO6/SDA*%
%TO.N,Net-(U1-GPIO6{slash}SDA)*%
X66415000Y-76140000D03*
D12*
X67250000Y-76140000D03*
D11*
%TO.P,U1,6,GPIO7/SCL*%
%TO.N,Net-(U1-GPIO7{slash}SCL)*%
X66415000Y-78680000D03*
D12*
X67250000Y-78680000D03*
D11*
%TO.P,U1,7,GPIO0/TX*%
%TO.N,Net-(U1-GPIO0{slash}TX)*%
X66415000Y-81220000D03*
D12*
X67250000Y-81220000D03*
%TO.P,U1,8,GPIO1/RX*%
%TO.N,Net-(U1-GPIO1{slash}RX)*%
X82490000Y-81220000D03*
D13*
X83325000Y-81220000D03*
D12*
%TO.P,U1,9,GPIO2/SCK*%
%TO.N,Net-(U1-GPIO2{slash}SCK)*%
X82490000Y-78680000D03*
D13*
X83325000Y-78680000D03*
D12*
%TO.P,U1,10,GPIO4/MISO*%
%TO.N,Net-(U1-GPIO4{slash}MISO)*%
X82490000Y-76140000D03*
D13*
X83325000Y-76140000D03*
D12*
%TO.P,U1,11,GPIO3/MOSI*%
%TO.N,Net-(U1-GPIO3{slash}MOSI)*%
X82490000Y-73600000D03*
D13*
X83325000Y-73600000D03*
D12*
%TO.P,U1,12,3V3*%
%TO.N,unconnected-(U1-3V3-Pad12)_1*%
X82490000Y-71060000D03*
D13*
%TO.N,unconnected-(U1-3V3-Pad12)*%
X83325000Y-71060000D03*
D12*
%TO.P,U1,13,GND*%
%TO.N,GND*%
X82490000Y-68520000D03*
D13*
X83325000Y-68520000D03*
D12*
%TO.P,U1,14,VBUS*%
%TO.N,unconnected-(U1-VBUS-Pad14)*%
X82490000Y-65980000D03*
D13*
%TO.N,unconnected-(U1-VBUS-Pad14)_1*%
X83325000Y-65980000D03*
%TD*%
D14*
%TO.P,SW5,*%
%TO.N,*%
X142570000Y-78650000D03*
X142570000Y-67450000D03*
D15*
%TO.P,SW5,A,A*%
%TO.N,Net-(U1-GPIO2{slash}SCK)*%
X135070000Y-70550000D03*
D16*
%TO.P,SW5,B,B*%
%TO.N,Net-(U1-GPIO4{slash}MISO)*%
X135070000Y-75550000D03*
%TO.P,SW5,C,C*%
%TO.N,GND*%
X135070000Y-73050000D03*
%TO.P,SW5,S1,S1*%
%TO.N,Net-(U1-GPIO3{slash}MOSI)*%
X149570000Y-75550000D03*
%TO.P,SW5,S2,S2*%
%TO.N,GND*%
X149570000Y-70550000D03*
%TD*%
D10*
%TO.P,SW4,1,1*%
%TO.N,GND*%
X135890000Y-90170000D03*
%TO.P,SW4,2,2*%
%TO.N,Net-(U1-GPIO29{slash}ADC3{slash}A3)*%
X129540000Y-92710000D03*
%TD*%
%TO.P,SW2,1,1*%
%TO.N,GND*%
X97800000Y-90160000D03*
%TO.P,SW2,2,2*%
%TO.N,Net-(U1-GPIO27{slash}ADC1{slash}A1)*%
X91450000Y-92700000D03*
%TD*%
%TO.P,SW1,1,1*%
%TO.N,GND*%
X78740000Y-90170000D03*
%TO.P,SW1,2,2*%
%TO.N,Net-(U1-GPIO26{slash}ADC0{slash}A0)*%
X72390000Y-92710000D03*
%TD*%
D17*
%TO.P,R4,1*%
%TO.N,Net-(U1-GPIO1{slash}RX)*%
X121830000Y-78040000D03*
%TO.P,R4,2*%
%TO.N,Net-(D4-PadA)*%
X121830000Y-70420000D03*
%TD*%
%TO.P,R3,1*%
%TO.N,Net-(U1-GPIO6{slash}SDA)*%
X110990000Y-78130000D03*
%TO.P,R3,2*%
%TO.N,Net-(D3-PadA)*%
X110990000Y-70510000D03*
%TD*%
%TO.P,R2,1*%
%TO.N,Net-(U1-GPIO7{slash}SCL)*%
X100600000Y-78130000D03*
%TO.P,R2,2*%
%TO.N,Net-(D2-PadA)*%
X100600000Y-70510000D03*
%TD*%
%TO.P,R1,1*%
%TO.N,Net-(U1-GPIO0{slash}TX)*%
X88380000Y-78170000D03*
%TO.P,R1,2*%
%TO.N,Net-(D1-PadA)*%
X88380000Y-70550000D03*
%TD*%
D18*
%TO.P,D4,C*%
%TO.N,GND*%
X126360000Y-73910000D03*
D19*
%TO.P,D4,A*%
%TO.N,Net-(D4-PadA)*%
X128900000Y-73910000D03*
%TD*%
D18*
%TO.P,D3,C*%
%TO.N,GND*%
X115060000Y-73810000D03*
D19*
%TO.P,D3,A*%
%TO.N,Net-(D3-PadA)*%
X117600000Y-73810000D03*
%TD*%
D18*
%TO.P,D2,C*%
%TO.N,GND*%
X104310000Y-74090000D03*
D19*
%TO.P,D2,A*%
%TO.N,Net-(D2-PadA)*%
X106850000Y-74090000D03*
%TD*%
D18*
%TO.P,D1,C*%
%TO.N,GND*%
X92920000Y-73810000D03*
D19*
%TO.P,D1,A*%
%TO.N,Net-(D1-PadA)*%
X95460000Y-73810000D03*
%TD*%
D20*
%TO.N,Net-(U1-GPIO1{slash}RX)*%
X120590000Y-86260000D03*
%TO.N,Net-(U1-GPIO0{slash}TX)*%
X78000000Y-76920000D03*
%TO.N,Net-(U1-GPIO29{slash}ADC3{slash}A3)*%
X74350000Y-79280000D03*
X80310000Y-83820000D03*
%TO.N,Net-(U1-GPIO28{slash}ADC2{slash}A2)*%
X74420000Y-74530000D03*
%TO.N,Net-(U1-GPIO27{slash}ADC1{slash}A1)*%
X73820000Y-73460000D03*
%TD*%
D21*
%TO.N,Net-(U1-GPIO1{slash}RX)*%
X121830000Y-85020000D02*
X121830000Y-78040000D01*
X120590000Y-86260000D02*
X121830000Y-85020000D01*
%TO.N,Net-(U1-GPIO0{slash}TX)*%
X87462000Y-77252000D02*
X88380000Y-78170000D01*
X78000000Y-76920000D02*
X78332000Y-77252000D01*
X78332000Y-77252000D02*
X87462000Y-77252000D01*
X67250000Y-81220000D02*
X66415000Y-81220000D01*
%TO.N,Net-(U1-GPIO3{slash}MOSI)*%
X86818630Y-76851000D02*
X83567630Y-73600000D01*
X148269000Y-76851000D02*
X86818630Y-76851000D01*
X149570000Y-75550000D02*
X148269000Y-76851000D01*
X83567630Y-73600000D02*
X82490000Y-73600000D01*
%TO.N,Net-(D4-PadA)*%
X125410000Y-70420000D02*
X128900000Y-73910000D01*
X121830000Y-70420000D02*
X125410000Y-70420000D01*
%TO.N,Net-(D1-PadA)*%
X92200000Y-70550000D02*
X95460000Y-73810000D01*
X88380000Y-70550000D02*
X92200000Y-70550000D01*
%TO.N,Net-(D2-PadA)*%
X103270000Y-70510000D02*
X106850000Y-74090000D01*
X100600000Y-70510000D02*
X103270000Y-70510000D01*
%TO.N,Net-(D3-PadA)*%
X110990000Y-70510000D02*
X114300000Y-70510000D01*
X114300000Y-70510000D02*
X117600000Y-73810000D01*
%TO.N,Net-(U1-GPIO29{slash}ADC3{slash}A3)*%
X74330000Y-79260000D02*
X74350000Y-79280000D01*
X74320000Y-79260000D02*
X74330000Y-79260000D01*
X78880000Y-83820000D02*
X74320000Y-79260000D01*
X80310000Y-83820000D02*
X78880000Y-83820000D01*
%TO.N,Net-(U1-GPIO28{slash}ADC2{slash}A2)*%
X80020000Y-80130000D02*
X74420000Y-74530000D01*
X97960000Y-80130000D02*
X80020000Y-80130000D01*
X110540000Y-92710000D02*
X97960000Y-80130000D01*
%TO.N,Net-(U1-GPIO27{slash}ADC1{slash}A1)*%
X73820000Y-75070000D02*
X73820000Y-73460000D01*
X91450000Y-92700000D02*
X73820000Y-75070000D01*
%TO.N,Net-(U1-GPIO26{slash}ADC0{slash}A0)*%
X72390000Y-71120000D02*
X67250000Y-65980000D01*
X72390000Y-92710000D02*
X72390000Y-71120000D01*
%TD*%
%TA.AperFunction,Conductor*%
%TO.N,GND*%
G36*
X151872539Y-63510185D02*
G01*
X151918294Y-63562989D01*
X151929500Y-63614500D01*
X151929500Y-107495500D01*
X151909815Y-107562539D01*
X151857011Y-107608294D01*
X151805500Y-107619500D01*
X64214500Y-107619500D01*
X64147461Y-107599815D01*
X64101706Y-107547011D01*
X64090500Y-107495500D01*
X64090500Y-65304458D01*
X64698500Y-65304458D01*
X64698500Y-66655541D01*
X64701412Y-66692546D01*
X64701413Y-66692552D01*
X64747434Y-66850954D01*
X64747435Y-66850957D01*
X64831405Y-66992943D01*
X64831412Y-66992952D01*
X64948047Y-67109587D01*
X64948050Y-67109589D01*
X64948053Y-67109592D01*
X65004996Y-67143268D01*
X65052679Y-67194338D01*
X65065182Y-67263079D01*
X65038536Y-67327669D01*
X65004996Y-67356732D01*
X64948053Y-67390408D01*
X64948047Y-67390412D01*
X64831412Y-67507047D01*
X64831405Y-67507056D01*
X64747435Y-67649042D01*
X64747434Y-67649045D01*
X64701413Y-67807447D01*
X64701412Y-67807453D01*
X64698500Y-67844458D01*
X64698500Y-69195541D01*
X64701412Y-69232546D01*
X64701413Y-69232552D01*
X64747434Y-69390954D01*
X64747435Y-69390957D01*
X64831405Y-69532943D01*
X64831412Y-69532952D01*
X64948047Y-69649587D01*
X64948050Y-69649589D01*
X64948053Y-69649592D01*
X65004502Y-69682976D01*
X65004996Y-69683268D01*
X65052679Y-69734338D01*
X65065182Y-69803079D01*
X65038536Y-69867669D01*
X65004996Y-69896731D01*
X64949056Y-69929815D01*
X64948053Y-69930408D01*
X64948047Y-69930412D01*
X64831412Y-70047047D01*
X64831405Y-70047056D01*
X64747435Y-70189042D01*
X64747434Y-70189045D01*
X64701413Y-70347447D01*
X64701412Y-70347453D01*
X64698500Y-70384458D01*
X64698500Y-71735541D01*
X64701412Y-71772546D01*
X64701413Y-71772552D01*
X64747434Y-71930954D01*
X64747435Y-71930957D01*
X64831405Y-72072943D01*
X64831412Y-72072952D01*
X64948047Y-72189587D01*
X64948050Y-72189589D01*
X64948053Y-72189592D01*
X65004996Y-72223268D01*
X65052679Y-72274338D01*
X65065182Y-72343079D01*
X65038536Y-72407669D01*
X65004996Y-72436732D01*
X64948053Y-72470408D01*
X64948047Y-72470412D01*
X64831412Y-72587047D01*
X64831405Y-72587056D01*
X64747435Y-72729042D01*
X64747434Y-72729045D01*
X64701413Y-72887447D01*
X64701412Y-72887453D01*
X64698500Y-72924458D01*
X64698500Y-74275541D01*
X64701412Y-74312546D01*
X64701413Y-74312552D01*
X64747434Y-74470954D01*
X64747435Y-74470957D01*
X64831405Y-74612943D01*
X64831412Y-74612952D01*
X64948047Y-74729587D01*
X64948050Y-74729589D01*
X64948053Y-74729592D01*
X65004996Y-74763268D01*
X65052679Y-74814338D01*
X65065182Y-74883079D01*
X65038536Y-74947669D01*
X65004996Y-74976731D01*
X64953388Y-75007253D01*
X64948053Y-75010408D01*
X64948047Y-75010412D01*
X64831412Y-75127047D01*
X64831405Y-75127056D01*
X64747435Y-75269042D01*
X64747434Y-75269045D01*
X64701413Y-75427447D01*
X64701412Y-75427453D01*
X64698500Y-75464458D01*
X64698500Y-76815541D01*
X64701412Y-76852546D01*
X64701413Y-76852552D01*
X64747434Y-77010954D01*
X64747435Y-77010957D01*
X64831405Y-77152943D01*
X64831412Y-77152952D01*
X64948047Y-77269587D01*
X64948050Y-77269589D01*
X64948053Y-77269592D01*
X65004996Y-77303268D01*
X65052679Y-77354338D01*
X65065182Y-77423079D01*
X65038536Y-77487669D01*
X65004996Y-77516731D01*
X64948053Y-77550408D01*
X64948047Y-77550412D01*
X64831412Y-77667047D01*
X64831405Y-77667056D01*
X64747435Y-77809042D01*
X64747434Y-77809045D01*
X64701413Y-77967447D01*
X64701412Y-77967453D01*
X64698500Y-78004458D01*
X64698500Y-79355541D01*
X64701412Y-79392546D01*
X64701413Y-79392552D01*
X64747434Y-79550954D01*
X64747435Y-79550957D01*
X64831405Y-79692943D01*
X64831412Y-79692952D01*
X64948047Y-79809587D01*
X64948050Y-79809589D01*
X64948053Y-79809592D01*
X65004996Y-79843268D01*
X65052679Y-79894338D01*
X65065182Y-79963079D01*
X65038536Y-80027669D01*
X65004996Y-80056731D01*
X64948053Y-80090408D01*
X64948047Y-80090412D01*
X64831412Y-80207047D01*
X64831405Y-80207056D01*
X64747435Y-80349042D01*
X64747434Y-80349045D01*
X64701413Y-80507447D01*
X64701412Y-80507453D01*
X64698500Y-80544458D01*
X64698500Y-81895541D01*
X64701412Y-81932546D01*
X64701413Y-81932552D01*
X64747434Y-82090954D01*
X64747435Y-82090957D01*
X64831405Y-82232943D01*
X64831412Y-82232952D01*
X64948047Y-82349587D01*
X64948051Y-82349590D01*
X64948053Y-82349592D01*
X65090041Y-82433564D01*
X65131816Y-82445701D01*
X65248447Y-82479586D01*
X65248450Y-82479586D01*
X65248452Y-82479587D01*
X65285466Y-82482500D01*
X65285474Y-82482500D01*
X67544526Y-82482500D01*
X67544534Y-82482500D01*
X67581548Y-82479587D01*
X67581550Y-82479586D01*
X67581552Y-82479586D01*
X67623323Y-82467449D01*
X67739959Y-82433564D01*
X67881947Y-82349592D01*
X67978148Y-82253389D01*
X67992939Y-82240758D01*
X68072464Y-82182981D01*
X68212981Y-82042464D01*
X68329787Y-81881694D01*
X68420005Y-81704632D01*
X68481413Y-81515636D01*
X68512500Y-81319361D01*
X68512500Y-81120639D01*
X68481413Y-80924364D01*
X68430224Y-80766819D01*
X68420006Y-80735370D01*
X68420005Y-80735367D01*
X68329786Y-80558305D01*
X68212981Y-80397536D01*
X68072464Y-80257019D01*
X67992938Y-80199240D01*
X67986175Y-80193960D01*
X67982000Y-80190461D01*
X67881947Y-80090408D01*
X67816259Y-80051560D01*
X67808477Y-80045038D01*
X67794510Y-80024073D01*
X67777321Y-80005663D01*
X67775471Y-79995492D01*
X67769740Y-79986890D01*
X67769324Y-79961702D01*
X67764817Y-79936921D01*
X67768758Y-79927366D01*
X67768588Y-79917030D01*
X67781856Y-79895616D01*
X67791462Y-79872332D01*
X67801874Y-79863309D01*
X67805389Y-79857638D01*
X67812127Y-79854425D01*
X67825004Y-79843268D01*
X67881947Y-79809592D01*
X67978148Y-79713389D01*
X67992939Y-79700758D01*
X68072464Y-79642981D01*
X68212981Y-79502464D01*
X68329787Y-79341694D01*
X68420005Y-79164632D01*
X68481413Y-78975636D01*
X68512500Y-78779361D01*
X68512500Y-78580639D01*
X68481413Y-78384364D01*
X68429466Y-78224486D01*
X68420006Y-78195370D01*
X68420005Y-78195367D01*
X68374035Y-78105149D01*
X68329787Y-78018306D01*
X68212981Y-77857536D01*
X68072464Y-77717019D01*
X67992938Y-77659240D01*
X67986175Y-77653960D01*
X67982000Y-77650461D01*
X67881947Y-77550408D01*
X67816259Y-77511560D01*
X67808477Y-77505038D01*
X67794510Y-77484073D01*
X67777321Y-77465663D01*
X67775471Y-77455492D01*
X67769740Y-77446890D01*
X67769324Y-77421702D01*
X67764817Y-77396921D01*
X67768758Y-77387366D01*
X67768588Y-77377030D01*
X67781856Y-77355616D01*
X67791462Y-77332332D01*
X67801874Y-77323309D01*
X67805389Y-77317638D01*
X67812127Y-77314425D01*
X67825004Y-77303268D01*
X67881947Y-77269592D01*
X67978148Y-77173389D01*
X67992939Y-77160758D01*
X68072464Y-77102981D01*
X68212981Y-76962464D01*
X68329787Y-76801694D01*
X68420005Y-76624632D01*
X68481413Y-76435636D01*
X68512500Y-76239361D01*
X68512500Y-76040639D01*
X68481413Y-75844364D01*
X68424141Y-75668097D01*
X68420006Y-75655370D01*
X68420005Y-75655367D01*
X68370182Y-75557585D01*
X68329787Y-75478306D01*
X68212981Y-75317536D01*
X68072464Y-75177019D01*
X68069258Y-75174690D01*
X67992938Y-75119240D01*
X67986175Y-75113960D01*
X67982000Y-75110461D01*
X67881947Y-75010408D01*
X67816259Y-74971560D01*
X67808477Y-74965038D01*
X67794510Y-74944073D01*
X67777321Y-74925663D01*
X67775471Y-74915492D01*
X67769740Y-74906890D01*
X67769324Y-74881702D01*
X67764817Y-74856921D01*
X67768758Y-74847366D01*
X67768588Y-74837030D01*
X67781856Y-74815616D01*
X67791462Y-74792332D01*
X67801874Y-74783309D01*
X67805389Y-74777638D01*
X67812127Y-74774425D01*
X67825004Y-74763268D01*
X67881947Y-74729592D01*
X67978148Y-74633389D01*
X67992939Y-74620758D01*
X68072464Y-74562981D01*
X68212981Y-74422464D01*
X68329787Y-74261694D01*
X68420005Y-74084632D01*
X68481413Y-73895636D01*
X68512500Y-73699361D01*
X68512500Y-73500639D01*
X68481413Y-73304364D01*
X68438649Y-73172749D01*
X68420006Y-73115370D01*
X68420005Y-73115367D01*
X68338117Y-72954655D01*
X68329787Y-72938306D01*
X68212981Y-72777536D01*
X68072464Y-72637019D01*
X67999957Y-72584340D01*
X67992938Y-72579240D01*
X67986175Y-72573960D01*
X67982000Y-72570461D01*
X67881947Y-72470408D01*
X67816259Y-72431560D01*
X67808477Y-72425038D01*
X67794510Y-72404073D01*
X67777321Y-72385663D01*
X67775471Y-72375492D01*
X67769740Y-72366890D01*
X67769324Y-72341702D01*
X67764817Y-72316921D01*
X67768758Y-72307366D01*
X67768588Y-72297030D01*
X67781856Y-72275616D01*
X67791462Y-72252332D01*
X67801874Y-72243309D01*
X67805389Y-72237638D01*
X67812127Y-72234425D01*
X67825004Y-72223268D01*
X67881947Y-72189592D01*
X67978148Y-72093389D01*
X67992939Y-72080758D01*
X68072464Y-72022981D01*
X68212981Y-71882464D01*
X68329787Y-71721694D01*
X68420005Y-71544632D01*
X68481413Y-71355636D01*
X68512500Y-71159361D01*
X68512500Y-70960639D01*
X68481413Y-70764364D01*
X68442461Y-70644481D01*
X68420006Y-70575370D01*
X68420005Y-70575367D01*
X68373539Y-70484174D01*
X68329787Y-70398306D01*
X68212981Y-70237536D01*
X68072464Y-70097019D01*
X67992937Y-70039239D01*
X67986175Y-70033960D01*
X67982000Y-70030461D01*
X67881947Y-69930408D01*
X67816259Y-69891560D01*
X67808477Y-69885038D01*
X67794510Y-69864073D01*
X67777321Y-69845663D01*
X67775471Y-69835492D01*
X67769740Y-69826890D01*
X67769324Y-69801702D01*
X67764817Y-69776921D01*
X67768758Y-69767366D01*
X67768588Y-69757030D01*
X67781856Y-69735616D01*
X67791462Y-69712332D01*
X67801874Y-69703309D01*
X67805389Y-69697638D01*
X67812127Y-69694425D01*
X67825004Y-69683268D01*
X67825498Y-69682976D01*
X67881947Y-69649592D01*
X67978148Y-69553389D01*
X67992939Y-69540758D01*
X68072464Y-69482981D01*
X68212981Y-69342464D01*
X68329787Y-69181694D01*
X68420005Y-69004632D01*
X68481413Y-68815636D01*
X68512500Y-68619361D01*
X68512500Y-68420639D01*
X68510303Y-68406770D01*
X68519256Y-68337482D01*
X68564251Y-68284028D01*
X68631002Y-68263387D01*
X68698316Y-68282110D01*
X68720457Y-68299693D01*
X71753181Y-71332416D01*
X71786666Y-71393739D01*
X71789500Y-71420097D01*
X71789500Y-91143699D01*
X71769815Y-91210738D01*
X71721795Y-91254184D01*
X71551151Y-91341132D01*
X71347350Y-91489201D01*
X71347345Y-91489205D01*
X71169205Y-91667345D01*
X71169201Y-91667350D01*
X71021132Y-91871151D01*
X70906760Y-92095616D01*
X70828910Y-92335214D01*
X70789500Y-92584038D01*
X70789500Y-92835961D01*
X70828910Y-93084785D01*
X70906760Y-93324383D01*
X70932430Y-93374762D01*
X71016036Y-93538848D01*
X71021132Y-93548848D01*
X71169201Y-93752649D01*
X71169205Y-93752654D01*
X71169207Y-93752656D01*
X71347344Y-93930793D01*
X71347345Y-93930794D01*
X71347344Y-93930794D01*
X71353661Y-93935383D01*
X71396327Y-93990714D01*
X71402305Y-94060327D01*
X71369699Y-94122122D01*
X71308860Y-94156479D01*
X71261378Y-94158174D01*
X71206611Y-94149500D01*
X71033389Y-94149500D01*
X70993728Y-94155781D01*
X70862302Y-94176597D01*
X70697552Y-94230128D01*
X70543211Y-94308768D01*
X70486289Y-94350125D01*
X70403072Y-94410586D01*
X70403070Y-94410588D01*
X70403069Y-94410588D01*
X70280588Y-94533069D01*
X70280588Y-94533070D01*
X70280586Y-94533072D01*
X70236859Y-94593256D01*
X70178768Y-94673211D01*
X70100128Y-94827552D01*
X70046597Y-94992302D01*
X70019500Y-95163389D01*
X70019500Y-95336610D01*
X70045013Y-95497697D01*
X70046598Y-95507701D01*
X70100127Y-95672445D01*
X70178768Y-95826788D01*
X70280586Y-95966928D01*
X70403072Y-96089414D01*
X70543212Y-96191232D01*
X70697555Y-96269873D01*
X70862299Y-96323402D01*
X71033389Y-96350500D01*
X71033390Y-96350500D01*
X71206610Y-96350500D01*
X71206611Y-96350500D01*
X71377701Y-96323402D01*
X71542445Y-96269873D01*
X71696788Y-96191232D01*
X71836928Y-96089414D01*
X71959414Y-95966928D01*
X72061232Y-95826788D01*
X72139873Y-95672445D01*
X72193402Y-95507701D01*
X72220500Y-95336611D01*
X72220500Y-95163389D01*
X72210854Y-95102486D01*
X73949500Y-95102486D01*
X73949500Y-95397513D01*
X73981571Y-95641113D01*
X73988007Y-95689993D01*
X74062212Y-95966930D01*
X74064361Y-95974951D01*
X74064364Y-95974961D01*
X74177254Y-96247500D01*
X74177258Y-96247510D01*
X74324761Y-96502993D01*
X74504352Y-96737040D01*
X74504358Y-96737047D01*
X74712952Y-96945641D01*
X74712959Y-96945647D01*
X74947006Y-97125238D01*
X75202489Y-97272741D01*
X75202490Y-97272741D01*
X75202493Y-97272743D01*
X75475048Y-97385639D01*
X75760007Y-97461993D01*
X76052494Y-97500500D01*
X76052501Y-97500500D01*
X76347499Y-97500500D01*
X76347506Y-97500500D01*
X76639993Y-97461993D01*
X76924952Y-97385639D01*
X77197507Y-97272743D01*
X77452994Y-97125238D01*
X77687042Y-96945646D01*
X77895646Y-96737042D01*
X78075238Y-96502994D01*
X78222743Y-96247507D01*
X78335639Y-95974952D01*
X78411993Y-95689993D01*
X78450500Y-95397506D01*
X78450500Y-95163389D01*
X80179500Y-95163389D01*
X80179500Y-95336610D01*
X80205013Y-95497697D01*
X80206598Y-95507701D01*
X80260127Y-95672445D01*
X80338768Y-95826788D01*
X80440586Y-95966928D01*
X80563072Y-96089414D01*
X80703212Y-96191232D01*
X80857555Y-96269873D01*
X81022299Y-96323402D01*
X81193389Y-96350500D01*
X81193390Y-96350500D01*
X81366610Y-96350500D01*
X81366611Y-96350500D01*
X81537701Y-96323402D01*
X81702445Y-96269873D01*
X81856788Y-96191232D01*
X81996928Y-96089414D01*
X82119414Y-95966928D01*
X82221232Y-95826788D01*
X82299873Y-95672445D01*
X82353402Y-95507701D01*
X82380500Y-95336611D01*
X82380500Y-95163389D01*
X82353402Y-94992299D01*
X82299873Y-94827555D01*
X82221232Y-94673212D01*
X82119414Y-94533072D01*
X81996928Y-94410586D01*
X81856788Y-94308768D01*
X81702445Y-94230127D01*
X81537701Y-94176598D01*
X81537699Y-94176597D01*
X81537698Y-94176597D01*
X81406271Y-94155781D01*
X81366611Y-94149500D01*
X81193389Y-94149500D01*
X81153728Y-94155781D01*
X81022302Y-94176597D01*
X80857552Y-94230128D01*
X80703211Y-94308768D01*
X80646289Y-94350125D01*
X80563072Y-94410586D01*
X80563070Y-94410588D01*
X80563069Y-94410588D01*
X80440588Y-94533069D01*
X80440588Y-94533070D01*
X80440586Y-94533072D01*
X80396859Y-94593256D01*
X80338768Y-94673211D01*
X80260128Y-94827552D01*
X80206597Y-94992302D01*
X80179500Y-95163389D01*
X78450500Y-95163389D01*
X78450500Y-95102494D01*
X78411993Y-94810007D01*
X78335639Y-94525048D01*
X78222743Y-94252493D01*
X78216967Y-94242489D01*
X78075238Y-93997006D01*
X77895647Y-93762959D01*
X77895641Y-93762952D01*
X77687047Y-93554358D01*
X77687040Y-93554352D01*
X77452993Y-93374761D01*
X77197510Y-93227258D01*
X77197500Y-93227254D01*
X76924961Y-93114364D01*
X76924954Y-93114362D01*
X76924952Y-93114361D01*
X76639993Y-93038007D01*
X76591113Y-93031571D01*
X76347513Y-92999500D01*
X76347506Y-92999500D01*
X76052494Y-92999500D01*
X76052486Y-92999500D01*
X75774085Y-93036153D01*
X75760007Y-93038007D01*
X75622749Y-93074785D01*
X75475048Y-93114361D01*
X75475038Y-93114364D01*
X75202499Y-93227254D01*
X75202489Y-93227258D01*
X74947006Y-93374761D01*
X74712959Y-93554352D01*
X74712952Y-93554358D01*
X74504358Y-93762952D01*
X74504352Y-93762959D01*
X74324761Y-93997006D01*
X74177258Y-94252489D01*
X74177254Y-94252499D01*
X74064364Y-94525038D01*
X74064361Y-94525048D01*
X73990685Y-94800015D01*
X73988008Y-94810004D01*
X73988006Y-94810015D01*
X73949500Y-95102486D01*
X72210854Y-95102486D01*
X72193402Y-94992299D01*
X72139873Y-94827555D01*
X72061232Y-94673212D01*
X71959414Y-94533072D01*
X71907482Y-94481140D01*
X71873997Y-94419817D01*
X71878981Y-94350125D01*
X71920853Y-94294192D01*
X71986317Y-94269775D01*
X72014561Y-94270986D01*
X72015212Y-94271089D01*
X72015215Y-94271090D01*
X72264038Y-94310500D01*
X72264039Y-94310500D01*
X72515961Y-94310500D01*
X72515962Y-94310500D01*
X72764785Y-94271090D01*
X73004379Y-94193241D01*
X73228845Y-94078870D01*
X73432656Y-93930793D01*
X73610793Y-93752656D01*
X73758870Y-93548845D01*
X73873241Y-93324379D01*
X73951090Y-93084785D01*
X73990500Y-92835962D01*
X73990500Y-92584038D01*
X73951090Y-92335215D01*
X73873241Y-92095621D01*
X73873239Y-92095618D01*
X73873239Y-92095616D01*
X73831747Y-92014184D01*
X73758870Y-91871155D01*
X73685377Y-91770000D01*
X73610798Y-91667350D01*
X73610794Y-91667345D01*
X73432654Y-91489205D01*
X73432649Y-91489201D01*
X73228848Y-91341132D01*
X73228847Y-91341131D01*
X73228845Y-91341130D01*
X73159186Y-91305637D01*
X73058205Y-91254184D01*
X73007409Y-91206209D01*
X72990500Y-91143699D01*
X72990500Y-90044071D01*
X77140000Y-90044071D01*
X77140000Y-90295928D01*
X77179397Y-90544669D01*
X77257219Y-90784184D01*
X77371557Y-91008583D01*
X77445748Y-91110697D01*
X77445748Y-91110698D01*
X78062421Y-90494024D01*
X78075359Y-90525258D01*
X78157437Y-90648097D01*
X78261903Y-90752563D01*
X78384742Y-90834641D01*
X78415974Y-90847577D01*
X77799300Y-91464250D01*
X77901416Y-91538442D01*
X78125815Y-91652780D01*
X78365330Y-91730602D01*
X78614072Y-91770000D01*
X78865928Y-91770000D01*
X79114669Y-91730602D01*
X79354184Y-91652780D01*
X79578575Y-91538446D01*
X79578581Y-91538442D01*
X79680697Y-91464250D01*
X79680698Y-91464250D01*
X79064025Y-90847578D01*
X79095258Y-90834641D01*
X79218097Y-90752563D01*
X79322563Y-90648097D01*
X79404641Y-90525258D01*
X79417577Y-90494025D01*
X80034250Y-91110698D01*
X80034250Y-91110697D01*
X80108442Y-91008581D01*
X80108446Y-91008575D01*
X80222780Y-90784184D01*
X80300602Y-90544669D01*
X80340000Y-90295928D01*
X80340000Y-90044071D01*
X80300602Y-89795330D01*
X80222780Y-89555815D01*
X80108442Y-89331416D01*
X80034250Y-89229301D01*
X80034250Y-89229300D01*
X79417577Y-89845973D01*
X79404641Y-89814742D01*
X79322563Y-89691903D01*
X79218097Y-89587437D01*
X79095258Y-89505359D01*
X79064024Y-89492421D01*
X79680698Y-88875748D01*
X79578583Y-88801557D01*
X79354184Y-88687219D01*
X79114669Y-88609397D01*
X78865928Y-88570000D01*
X78614072Y-88570000D01*
X78365330Y-88609397D01*
X78125815Y-88687219D01*
X77901413Y-88801559D01*
X77799301Y-88875747D01*
X77799300Y-88875748D01*
X78415974Y-89492421D01*
X78384742Y-89505359D01*
X78261903Y-89587437D01*
X78157437Y-89691903D01*
X78075359Y-89814742D01*
X78062421Y-89845974D01*
X77445748Y-89229300D01*
X77445747Y-89229301D01*
X77371559Y-89331413D01*
X77257219Y-89555815D01*
X77179397Y-89795330D01*
X77140000Y-90044071D01*
X72990500Y-90044071D01*
X72990500Y-75236292D01*
X72995360Y-75219739D01*
X72995197Y-75202485D01*
X73005000Y-75186907D01*
X73010185Y-75169253D01*
X73023222Y-75157955D01*
X73032414Y-75143352D01*
X73049082Y-75135548D01*
X73062989Y-75123498D01*
X73080065Y-75121042D01*
X73095691Y-75113727D01*
X73113930Y-75116173D01*
X73132147Y-75113554D01*
X73147841Y-75120721D01*
X73164941Y-75123015D01*
X73178961Y-75134933D01*
X73195703Y-75142579D01*
X73205248Y-75157279D01*
X73218176Y-75168268D01*
X73231065Y-75197035D01*
X73233141Y-75200232D01*
X73233736Y-75202191D01*
X73260423Y-75301785D01*
X73260866Y-75302552D01*
X73267989Y-75314890D01*
X73267991Y-75314895D01*
X73339477Y-75438712D01*
X73339481Y-75438717D01*
X73458349Y-75557585D01*
X73458355Y-75557590D01*
X80798392Y-82897627D01*
X80831877Y-82958950D01*
X80826893Y-83028642D01*
X80785021Y-83084575D01*
X80719557Y-83108992D01*
X80663259Y-83099869D01*
X80543501Y-83050264D01*
X80543489Y-83050261D01*
X80388845Y-83019500D01*
X80388842Y-83019500D01*
X80231158Y-83019500D01*
X80231155Y-83019500D01*
X80076510Y-83050261D01*
X80076498Y-83050264D01*
X79930827Y-83110602D01*
X79930814Y-83110609D01*
X79799125Y-83198602D01*
X79732447Y-83219480D01*
X79730234Y-83219500D01*
X79180097Y-83219500D01*
X79113058Y-83199815D01*
X79092416Y-83183181D01*
X75186255Y-79277020D01*
X75152770Y-79215697D01*
X75150533Y-79201490D01*
X75150500Y-79201163D01*
X75150500Y-79201158D01*
X75119737Y-79046503D01*
X75082122Y-78955692D01*
X75059397Y-78900827D01*
X75059390Y-78900814D01*
X74971789Y-78769711D01*
X74971786Y-78769707D01*
X74860292Y-78658213D01*
X74860288Y-78658210D01*
X74729185Y-78570609D01*
X74729172Y-78570602D01*
X74583501Y-78510264D01*
X74583489Y-78510261D01*
X74428845Y-78479500D01*
X74428842Y-78479500D01*
X74271158Y-78479500D01*
X74271155Y-78479500D01*
X74116510Y-78510261D01*
X74116498Y-78510264D01*
X73970827Y-78570602D01*
X73970814Y-78570609D01*
X73839711Y-78658210D01*
X73839707Y-78658213D01*
X73728213Y-78769707D01*
X73728210Y-78769711D01*
X73640609Y-78900814D01*
X73640602Y-78900827D01*
X73580264Y-79046498D01*
X73580261Y-79046510D01*
X73549500Y-79201153D01*
X73549500Y-79358846D01*
X73580261Y-79513489D01*
X73580264Y-79513501D01*
X73640602Y-79659172D01*
X73640609Y-79659185D01*
X73728210Y-79790288D01*
X73728213Y-79790292D01*
X73839707Y-79901786D01*
X73839711Y-79901789D01*
X73970814Y-79989390D01*
X73970827Y-79989397D01*
X74116498Y-80049735D01*
X74116503Y-80049737D01*
X74173542Y-80061082D01*
X74259366Y-80078155D01*
X74321277Y-80110540D01*
X74322856Y-80112091D01*
X78395139Y-84184374D01*
X78395149Y-84184385D01*
X78399479Y-84188715D01*
X78399480Y-84188716D01*
X78511284Y-84300520D01*
X78562845Y-84330288D01*
X78598095Y-84350639D01*
X78598097Y-84350641D01*
X78636151Y-84372611D01*
X78648215Y-84379577D01*
X78800943Y-84420501D01*
X78800946Y-84420501D01*
X78966653Y-84420501D01*
X78966669Y-84420500D01*
X79730234Y-84420500D01*
X79797273Y-84440185D01*
X79799125Y-84441398D01*
X79930814Y-84529390D01*
X79930827Y-84529397D01*
X80076498Y-84589735D01*
X80076503Y-84589737D01*
X80231153Y-84620499D01*
X80231156Y-84620500D01*
X80231158Y-84620500D01*
X80388844Y-84620500D01*
X80388845Y-84620499D01*
X80543497Y-84589737D01*
X80689179Y-84529394D01*
X80820289Y-84441789D01*
X80931789Y-84330289D01*
X81019394Y-84199179D01*
X81079737Y-84053497D01*
X81110500Y-83898842D01*
X81110500Y-83741158D01*
X81110500Y-83741155D01*
X81110499Y-83741153D01*
X81079738Y-83586510D01*
X81079737Y-83586503D01*
X81030129Y-83466739D01*
X81022661Y-83397271D01*
X81053936Y-83334792D01*
X81114025Y-83299140D01*
X81183850Y-83301634D01*
X81232372Y-83331607D01*
X89917841Y-92017076D01*
X89951326Y-92078399D01*
X89948091Y-92143076D01*
X89888910Y-92325214D01*
X89849500Y-92574038D01*
X89849500Y-92825961D01*
X89888910Y-93074785D01*
X89966760Y-93314383D01*
X90081132Y-93538848D01*
X90229201Y-93742649D01*
X90229205Y-93742654D01*
X90229207Y-93742656D01*
X90407344Y-93920793D01*
X90407345Y-93920794D01*
X90407344Y-93920794D01*
X90413661Y-93925383D01*
X90456327Y-93980714D01*
X90462305Y-94050327D01*
X90429699Y-94112122D01*
X90368860Y-94146479D01*
X90321378Y-94148174D01*
X90266611Y-94139500D01*
X90093389Y-94139500D01*
X90053728Y-94145781D01*
X89922302Y-94166597D01*
X89757552Y-94220128D01*
X89603211Y-94298768D01*
X89587064Y-94310500D01*
X89463072Y-94400586D01*
X89463070Y-94400588D01*
X89463069Y-94400588D01*
X89340588Y-94523069D01*
X89340588Y-94523070D01*
X89340586Y-94523072D01*
X89333323Y-94533069D01*
X89238768Y-94663211D01*
X89160128Y-94817552D01*
X89106597Y-94982302D01*
X89079500Y-95153389D01*
X89079500Y-95326610D01*
X89090727Y-95397499D01*
X89106598Y-95497701D01*
X89160127Y-95662445D01*
X89238768Y-95816788D01*
X89340586Y-95956928D01*
X89463072Y-96079414D01*
X89603212Y-96181232D01*
X89757555Y-96259873D01*
X89922299Y-96313402D01*
X90093389Y-96340500D01*
X90093390Y-96340500D01*
X90266610Y-96340500D01*
X90266611Y-96340500D01*
X90437701Y-96313402D01*
X90602445Y-96259873D01*
X90756788Y-96181232D01*
X90896928Y-96079414D01*
X91019414Y-95956928D01*
X91121232Y-95816788D01*
X91199873Y-95662445D01*
X91253402Y-95497701D01*
X91280500Y-95326611D01*
X91280500Y-95153389D01*
X91270854Y-95092486D01*
X93009500Y-95092486D01*
X93009500Y-95387513D01*
X93025324Y-95507701D01*
X93048007Y-95679993D01*
X93122212Y-95956930D01*
X93124361Y-95964951D01*
X93124364Y-95964961D01*
X93237254Y-96237500D01*
X93237258Y-96237510D01*
X93384761Y-96492993D01*
X93564352Y-96727040D01*
X93564358Y-96727047D01*
X93772952Y-96935641D01*
X93772959Y-96935647D01*
X94007006Y-97115238D01*
X94262489Y-97262741D01*
X94262490Y-97262741D01*
X94262493Y-97262743D01*
X94535048Y-97375639D01*
X94820007Y-97451993D01*
X95112494Y-97490500D01*
X95112501Y-97490500D01*
X95407499Y-97490500D01*
X95407506Y-97490500D01*
X95699993Y-97451993D01*
X95984952Y-97375639D01*
X96257507Y-97262743D01*
X96512994Y-97115238D01*
X96747042Y-96935646D01*
X96955646Y-96727042D01*
X97135238Y-96492994D01*
X97282743Y-96237507D01*
X97395639Y-95964952D01*
X97471993Y-95679993D01*
X97510500Y-95387506D01*
X97510500Y-95153389D01*
X99239500Y-95153389D01*
X99239500Y-95326610D01*
X99250727Y-95397499D01*
X99266598Y-95497701D01*
X99320127Y-95662445D01*
X99398768Y-95816788D01*
X99500586Y-95956928D01*
X99623072Y-96079414D01*
X99763212Y-96181232D01*
X99917555Y-96259873D01*
X100082299Y-96313402D01*
X100253389Y-96340500D01*
X100253390Y-96340500D01*
X100426610Y-96340500D01*
X100426611Y-96340500D01*
X100597701Y-96313402D01*
X100762445Y-96259873D01*
X100916788Y-96181232D01*
X101056928Y-96079414D01*
X101179414Y-95956928D01*
X101281232Y-95816788D01*
X101359873Y-95662445D01*
X101413402Y-95497701D01*
X101440500Y-95326611D01*
X101440500Y-95153389D01*
X101413402Y-94982299D01*
X101359873Y-94817555D01*
X101281232Y-94663212D01*
X101179414Y-94523072D01*
X101056928Y-94400586D01*
X100916788Y-94298768D01*
X100762445Y-94220127D01*
X100597701Y-94166598D01*
X100597699Y-94166597D01*
X100597698Y-94166597D01*
X100466271Y-94145781D01*
X100426611Y-94139500D01*
X100253389Y-94139500D01*
X100213728Y-94145781D01*
X100082302Y-94166597D01*
X99917552Y-94220128D01*
X99763211Y-94298768D01*
X99747064Y-94310500D01*
X99623072Y-94400586D01*
X99623070Y-94400588D01*
X99623069Y-94400588D01*
X99500588Y-94523069D01*
X99500588Y-94523070D01*
X99500586Y-94523072D01*
X99493323Y-94533069D01*
X99398768Y-94663211D01*
X99320128Y-94817552D01*
X99266597Y-94982302D01*
X99239500Y-95153389D01*
X97510500Y-95153389D01*
X97510500Y-95092494D01*
X97471993Y-94800007D01*
X97395639Y-94515048D01*
X97282743Y-94242493D01*
X97254307Y-94193241D01*
X97135238Y-93987006D01*
X96955647Y-93752959D01*
X96955641Y-93752952D01*
X96747047Y-93544358D01*
X96747040Y-93544352D01*
X96512993Y-93364761D01*
X96257510Y-93217258D01*
X96257500Y-93217254D01*
X95984961Y-93104364D01*
X95984954Y-93104362D01*
X95984952Y-93104361D01*
X95699993Y-93028007D01*
X95651113Y-93021571D01*
X95407513Y-92989500D01*
X95407506Y-92989500D01*
X95112494Y-92989500D01*
X95112486Y-92989500D01*
X94834085Y-93026153D01*
X94820007Y-93028007D01*
X94645428Y-93074785D01*
X94535048Y-93104361D01*
X94535038Y-93104364D01*
X94262499Y-93217254D01*
X94262489Y-93217258D01*
X94007006Y-93364761D01*
X93772959Y-93544352D01*
X93772952Y-93544358D01*
X93564358Y-93752952D01*
X93564352Y-93752959D01*
X93384761Y-93987006D01*
X93237258Y-94242489D01*
X93237254Y-94242499D01*
X93124364Y-94515038D01*
X93124361Y-94515048D01*
X93048008Y-94800004D01*
X93048006Y-94800015D01*
X93009500Y-95092486D01*
X91270854Y-95092486D01*
X91253402Y-94982299D01*
X91199873Y-94817555D01*
X91121232Y-94663212D01*
X91019414Y-94523072D01*
X90967482Y-94471140D01*
X90933997Y-94409817D01*
X90938981Y-94340125D01*
X90980853Y-94284192D01*
X91046317Y-94259775D01*
X91074561Y-94260986D01*
X91075212Y-94261089D01*
X91075215Y-94261090D01*
X91324038Y-94300500D01*
X91324039Y-94300500D01*
X91575961Y-94300500D01*
X91575962Y-94300500D01*
X91824785Y-94261090D01*
X92064379Y-94183241D01*
X92288845Y-94068870D01*
X92492656Y-93920793D01*
X92670793Y-93742656D01*
X92818870Y-93538845D01*
X92933241Y-93314379D01*
X93011090Y-93074785D01*
X93050500Y-92825962D01*
X93050500Y-92574038D01*
X93011090Y-92325215D01*
X92933241Y-92085621D01*
X92933239Y-92085618D01*
X92933239Y-92085616D01*
X92891747Y-92004184D01*
X92818870Y-91861155D01*
X92678063Y-91667350D01*
X92670798Y-91657350D01*
X92670794Y-91657345D01*
X92492654Y-91479205D01*
X92492649Y-91479201D01*
X92288848Y-91331132D01*
X92288847Y-91331131D01*
X92288845Y-91331130D01*
X92218747Y-91295413D01*
X92064383Y-91216760D01*
X91824785Y-91138910D01*
X91575962Y-91099500D01*
X91324038Y-91099500D01*
X91199626Y-91119205D01*
X91075214Y-91138910D01*
X91044438Y-91148910D01*
X90893074Y-91198091D01*
X90823234Y-91200086D01*
X90767076Y-91167841D01*
X89633306Y-90034071D01*
X96200000Y-90034071D01*
X96200000Y-90285928D01*
X96239397Y-90534669D01*
X96317219Y-90774184D01*
X96431557Y-90998583D01*
X96505748Y-91100697D01*
X96505748Y-91100698D01*
X97122421Y-90484024D01*
X97135359Y-90515258D01*
X97217437Y-90638097D01*
X97321903Y-90742563D01*
X97444742Y-90824641D01*
X97475974Y-90837577D01*
X96859300Y-91454250D01*
X96961416Y-91528442D01*
X97185815Y-91642780D01*
X97425330Y-91720602D01*
X97674072Y-91760000D01*
X97925928Y-91760000D01*
X98174669Y-91720602D01*
X98414184Y-91642780D01*
X98638575Y-91528446D01*
X98638581Y-91528442D01*
X98740697Y-91454250D01*
X98740698Y-91454250D01*
X98124025Y-90837578D01*
X98155258Y-90824641D01*
X98278097Y-90742563D01*
X98382563Y-90638097D01*
X98464641Y-90515258D01*
X98477577Y-90484025D01*
X99094250Y-91100698D01*
X99094250Y-91100697D01*
X99168442Y-90998581D01*
X99168446Y-90998575D01*
X99282780Y-90774184D01*
X99360602Y-90534669D01*
X99400000Y-90285928D01*
X99400000Y-90034071D01*
X99360602Y-89785330D01*
X99282780Y-89545815D01*
X99168442Y-89321416D01*
X99094250Y-89219301D01*
X99094250Y-89219300D01*
X98477577Y-89835973D01*
X98464641Y-89804742D01*
X98382563Y-89681903D01*
X98278097Y-89577437D01*
X98155258Y-89495359D01*
X98124024Y-89482421D01*
X98740698Y-88865748D01*
X98638583Y-88791557D01*
X98414184Y-88677219D01*
X98174669Y-88599397D01*
X97925928Y-88560000D01*
X97674072Y-88560000D01*
X97425330Y-88599397D01*
X97185815Y-88677219D01*
X96961413Y-88791559D01*
X96859301Y-88865747D01*
X96859300Y-88865748D01*
X97475974Y-89482421D01*
X97444742Y-89495359D01*
X97321903Y-89577437D01*
X97217437Y-89681903D01*
X97135359Y-89804742D01*
X97122421Y-89835974D01*
X96505748Y-89219300D01*
X96505747Y-89219301D01*
X96431559Y-89321413D01*
X96317219Y-89545815D01*
X96239397Y-89785330D01*
X96200000Y-90034071D01*
X89633306Y-90034071D01*
X82293416Y-82694181D01*
X82259931Y-82632858D01*
X82264915Y-82563166D01*
X82306787Y-82507233D01*
X82372251Y-82482816D01*
X82381097Y-82482500D01*
X84454526Y-82482500D01*
X84454534Y-82482500D01*
X84491548Y-82479587D01*
X84491550Y-82479586D01*
X84491552Y-82479586D01*
X84533323Y-82467449D01*
X84649959Y-82433564D01*
X84791947Y-82349592D01*
X84908592Y-82232947D01*
X84992564Y-82090959D01*
X85038587Y-81932548D01*
X85041500Y-81895534D01*
X85041500Y-80854500D01*
X85061185Y-80787461D01*
X85113989Y-80741706D01*
X85165500Y-80730500D01*
X97659903Y-80730500D01*
X97726942Y-80750185D01*
X97747584Y-80766819D01*
X109007840Y-92027076D01*
X109041325Y-92088399D01*
X109038090Y-92153075D01*
X108978910Y-92335210D01*
X108978910Y-92335213D01*
X108939500Y-92584038D01*
X108939500Y-92835961D01*
X108978910Y-93084785D01*
X109056760Y-93324383D01*
X109082430Y-93374762D01*
X109166036Y-93538848D01*
X109171132Y-93548848D01*
X109319201Y-93752649D01*
X109319205Y-93752654D01*
X109319207Y-93752656D01*
X109497344Y-93930793D01*
X109497345Y-93930794D01*
X109497344Y-93930794D01*
X109503661Y-93935383D01*
X109546327Y-93990714D01*
X109552305Y-94060327D01*
X109519699Y-94122122D01*
X109458860Y-94156479D01*
X109411378Y-94158174D01*
X109356611Y-94149500D01*
X109183389Y-94149500D01*
X109143728Y-94155781D01*
X109012302Y-94176597D01*
X108847552Y-94230128D01*
X108693211Y-94308768D01*
X108636289Y-94350125D01*
X108553072Y-94410586D01*
X108553070Y-94410588D01*
X108553069Y-94410588D01*
X108430588Y-94533069D01*
X108430588Y-94533070D01*
X108430586Y-94533072D01*
X108386859Y-94593256D01*
X108328768Y-94673211D01*
X108250128Y-94827552D01*
X108196597Y-94992302D01*
X108169500Y-95163389D01*
X108169500Y-95336610D01*
X108195013Y-95497697D01*
X108196598Y-95507701D01*
X108250127Y-95672445D01*
X108328768Y-95826788D01*
X108430586Y-95966928D01*
X108553072Y-96089414D01*
X108693212Y-96191232D01*
X108847555Y-96269873D01*
X109012299Y-96323402D01*
X109183389Y-96350500D01*
X109183390Y-96350500D01*
X109356610Y-96350500D01*
X109356611Y-96350500D01*
X109527701Y-96323402D01*
X109692445Y-96269873D01*
X109846788Y-96191232D01*
X109986928Y-96089414D01*
X110109414Y-95966928D01*
X110211232Y-95826788D01*
X110289873Y-95672445D01*
X110343402Y-95507701D01*
X110370500Y-95336611D01*
X110370500Y-95163389D01*
X110360854Y-95102486D01*
X112099500Y-95102486D01*
X112099500Y-95397513D01*
X112131571Y-95641113D01*
X112138007Y-95689993D01*
X112212212Y-95966930D01*
X112214361Y-95974951D01*
X112214364Y-95974961D01*
X112327254Y-96247500D01*
X112327258Y-96247510D01*
X112474761Y-96502993D01*
X112654352Y-96737040D01*
X112654358Y-96737047D01*
X112862952Y-96945641D01*
X112862959Y-96945647D01*
X113097006Y-97125238D01*
X113352489Y-97272741D01*
X113352490Y-97272741D01*
X113352493Y-97272743D01*
X113625048Y-97385639D01*
X113910007Y-97461993D01*
X114202494Y-97500500D01*
X114202501Y-97500500D01*
X114497499Y-97500500D01*
X114497506Y-97500500D01*
X114789993Y-97461993D01*
X115074952Y-97385639D01*
X115347507Y-97272743D01*
X115602994Y-97125238D01*
X115837042Y-96945646D01*
X116045646Y-96737042D01*
X116225238Y-96502994D01*
X116372743Y-96247507D01*
X116485639Y-95974952D01*
X116561993Y-95689993D01*
X116600500Y-95397506D01*
X116600500Y-95163389D01*
X118329500Y-95163389D01*
X118329500Y-95336610D01*
X118355013Y-95497697D01*
X118356598Y-95507701D01*
X118410127Y-95672445D01*
X118488768Y-95826788D01*
X118590586Y-95966928D01*
X118713072Y-96089414D01*
X118853212Y-96191232D01*
X119007555Y-96269873D01*
X119172299Y-96323402D01*
X119343389Y-96350500D01*
X119343390Y-96350500D01*
X119516610Y-96350500D01*
X119516611Y-96350500D01*
X119687701Y-96323402D01*
X119852445Y-96269873D01*
X120006788Y-96191232D01*
X120146928Y-96089414D01*
X120269414Y-95966928D01*
X120371232Y-95826788D01*
X120449873Y-95672445D01*
X120503402Y-95507701D01*
X120530500Y-95336611D01*
X120530500Y-95163389D01*
X127169500Y-95163389D01*
X127169500Y-95336610D01*
X127195013Y-95497697D01*
X127196598Y-95507701D01*
X127250127Y-95672445D01*
X127328768Y-95826788D01*
X127430586Y-95966928D01*
X127553072Y-96089414D01*
X127693212Y-96191232D01*
X127847555Y-96269873D01*
X128012299Y-96323402D01*
X128183389Y-96350500D01*
X128183390Y-96350500D01*
X128356610Y-96350500D01*
X128356611Y-96350500D01*
X128527701Y-96323402D01*
X128692445Y-96269873D01*
X128846788Y-96191232D01*
X128986928Y-96089414D01*
X129109414Y-95966928D01*
X129211232Y-95826788D01*
X129289873Y-95672445D01*
X129343402Y-95507701D01*
X129370500Y-95336611D01*
X129370500Y-95163389D01*
X129360854Y-95102486D01*
X131099500Y-95102486D01*
X131099500Y-95397513D01*
X131131571Y-95641113D01*
X131138007Y-95689993D01*
X131212212Y-95966930D01*
X131214361Y-95974951D01*
X131214364Y-95974961D01*
X131327254Y-96247500D01*
X131327258Y-96247510D01*
X131474761Y-96502993D01*
X131654352Y-96737040D01*
X131654358Y-96737047D01*
X131862952Y-96945641D01*
X131862959Y-96945647D01*
X132097006Y-97125238D01*
X132352489Y-97272741D01*
X132352490Y-97272741D01*
X132352493Y-97272743D01*
X132625048Y-97385639D01*
X132910007Y-97461993D01*
X133202494Y-97500500D01*
X133202501Y-97500500D01*
X133497499Y-97500500D01*
X133497506Y-97500500D01*
X133789993Y-97461993D01*
X134074952Y-97385639D01*
X134347507Y-97272743D01*
X134602994Y-97125238D01*
X134837042Y-96945646D01*
X135045646Y-96737042D01*
X135225238Y-96502994D01*
X135372743Y-96247507D01*
X135485639Y-95974952D01*
X135561993Y-95689993D01*
X135600500Y-95397506D01*
X135600500Y-95163389D01*
X137329500Y-95163389D01*
X137329500Y-95336610D01*
X137355013Y-95497697D01*
X137356598Y-95507701D01*
X137410127Y-95672445D01*
X137488768Y-95826788D01*
X137590586Y-95966928D01*
X137713072Y-96089414D01*
X137853212Y-96191232D01*
X138007555Y-96269873D01*
X138172299Y-96323402D01*
X138343389Y-96350500D01*
X138343390Y-96350500D01*
X138516610Y-96350500D01*
X138516611Y-96350500D01*
X138687701Y-96323402D01*
X138852445Y-96269873D01*
X139006788Y-96191232D01*
X139146928Y-96089414D01*
X139269414Y-95966928D01*
X139371232Y-95826788D01*
X139449873Y-95672445D01*
X139503402Y-95507701D01*
X139530500Y-95336611D01*
X139530500Y-95163389D01*
X139503402Y-94992299D01*
X139449873Y-94827555D01*
X139371232Y-94673212D01*
X139269414Y-94533072D01*
X139146928Y-94410586D01*
X139006788Y-94308768D01*
X138852445Y-94230127D01*
X138687701Y-94176598D01*
X138687699Y-94176597D01*
X138687698Y-94176597D01*
X138556271Y-94155781D01*
X138516611Y-94149500D01*
X138343389Y-94149500D01*
X138303728Y-94155781D01*
X138172302Y-94176597D01*
X138007552Y-94230128D01*
X137853211Y-94308768D01*
X137796289Y-94350125D01*
X137713072Y-94410586D01*
X137713070Y-94410588D01*
X137713069Y-94410588D01*
X137590588Y-94533069D01*
X137590588Y-94533070D01*
X137590586Y-94533072D01*
X137546859Y-94593256D01*
X137488768Y-94673211D01*
X137410128Y-94827552D01*
X137356597Y-94992302D01*
X137329500Y-95163389D01*
X135600500Y-95163389D01*
X135600500Y-95102494D01*
X135561993Y-94810007D01*
X135485639Y-94525048D01*
X135372743Y-94252493D01*
X135366967Y-94242489D01*
X135225238Y-93997006D01*
X135045647Y-93762959D01*
X135045641Y-93762952D01*
X134837047Y-93554358D01*
X134837040Y-93554352D01*
X134602993Y-93374761D01*
X134347510Y-93227258D01*
X134347500Y-93227254D01*
X134074961Y-93114364D01*
X134074954Y-93114362D01*
X134074952Y-93114361D01*
X133789993Y-93038007D01*
X133741113Y-93031571D01*
X133497513Y-92999500D01*
X133497506Y-92999500D01*
X133202494Y-92999500D01*
X133202486Y-92999500D01*
X132924085Y-93036153D01*
X132910007Y-93038007D01*
X132772749Y-93074785D01*
X132625048Y-93114361D01*
X132625038Y-93114364D01*
X132352499Y-93227254D01*
X132352489Y-93227258D01*
X132097006Y-93374761D01*
X131862959Y-93554352D01*
X131862952Y-93554358D01*
X131654358Y-93762952D01*
X131654352Y-93762959D01*
X131474761Y-93997006D01*
X131327258Y-94252489D01*
X131327254Y-94252499D01*
X131214364Y-94525038D01*
X131214361Y-94525048D01*
X131140685Y-94800015D01*
X131138008Y-94810004D01*
X131138006Y-94810015D01*
X131099500Y-95102486D01*
X129360854Y-95102486D01*
X129343402Y-94992299D01*
X129289873Y-94827555D01*
X129211232Y-94673212D01*
X129109414Y-94533072D01*
X129057482Y-94481140D01*
X129023997Y-94419817D01*
X129028981Y-94350125D01*
X129070853Y-94294192D01*
X129136317Y-94269775D01*
X129164561Y-94270986D01*
X129165212Y-94271089D01*
X129165215Y-94271090D01*
X129414038Y-94310500D01*
X129414039Y-94310500D01*
X129665961Y-94310500D01*
X129665962Y-94310500D01*
X129914785Y-94271090D01*
X130154379Y-94193241D01*
X130378845Y-94078870D01*
X130582656Y-93930793D01*
X130760793Y-93752656D01*
X130908870Y-93548845D01*
X131023241Y-93324379D01*
X131101090Y-93084785D01*
X131140500Y-92835962D01*
X131140500Y-92584038D01*
X131101090Y-92335215D01*
X131023241Y-92095621D01*
X131023239Y-92095618D01*
X131023239Y-92095616D01*
X130981747Y-92014184D01*
X130908870Y-91871155D01*
X130835377Y-91770000D01*
X130760798Y-91667350D01*
X130760794Y-91667345D01*
X130582654Y-91489205D01*
X130582649Y-91489201D01*
X130378848Y-91341132D01*
X130378847Y-91341131D01*
X130378845Y-91341130D01*
X130308747Y-91305413D01*
X130154383Y-91226760D01*
X129914785Y-91148910D01*
X129851648Y-91138910D01*
X129665962Y-91109500D01*
X129414038Y-91109500D01*
X129289626Y-91129205D01*
X129165214Y-91148910D01*
X128925616Y-91226760D01*
X128701151Y-91341132D01*
X128497350Y-91489201D01*
X128497345Y-91489205D01*
X128319205Y-91667345D01*
X128319201Y-91667350D01*
X128171132Y-91871151D01*
X128056760Y-92095616D01*
X127978910Y-92335214D01*
X127939500Y-92584038D01*
X127939500Y-92835961D01*
X127978910Y-93084785D01*
X128056760Y-93324383D01*
X128082430Y-93374762D01*
X128166036Y-93538848D01*
X128171132Y-93548848D01*
X128319201Y-93752649D01*
X128319205Y-93752654D01*
X128319207Y-93752656D01*
X128497344Y-93930793D01*
X128497345Y-93930794D01*
X128497344Y-93930794D01*
X128503661Y-93935383D01*
X128546327Y-93990714D01*
X128552305Y-94060327D01*
X128519699Y-94122122D01*
X128458860Y-94156479D01*
X128411378Y-94158174D01*
X128356611Y-94149500D01*
X128183389Y-94149500D01*
X128143728Y-94155781D01*
X128012302Y-94176597D01*
X127847552Y-94230128D01*
X127693211Y-94308768D01*
X127636289Y-94350125D01*
X127553072Y-94410586D01*
X127553070Y-94410588D01*
X127553069Y-94410588D01*
X127430588Y-94533069D01*
X127430588Y-94533070D01*
X127430586Y-94533072D01*
X127386859Y-94593256D01*
X127328768Y-94673211D01*
X127250128Y-94827552D01*
X127196597Y-94992302D01*
X127169500Y-95163389D01*
X120530500Y-95163389D01*
X120503402Y-94992299D01*
X120449873Y-94827555D01*
X120371232Y-94673212D01*
X120269414Y-94533072D01*
X120146928Y-94410586D01*
X120006788Y-94308768D01*
X119852445Y-94230127D01*
X119687701Y-94176598D01*
X119687699Y-94176597D01*
X119687698Y-94176597D01*
X119556271Y-94155781D01*
X119516611Y-94149500D01*
X119343389Y-94149500D01*
X119303728Y-94155781D01*
X119172302Y-94176597D01*
X119007552Y-94230128D01*
X118853211Y-94308768D01*
X118796289Y-94350125D01*
X118713072Y-94410586D01*
X118713070Y-94410588D01*
X118713069Y-94410588D01*
X118590588Y-94533069D01*
X118590588Y-94533070D01*
X118590586Y-94533072D01*
X118546859Y-94593256D01*
X118488768Y-94673211D01*
X118410128Y-94827552D01*
X118356597Y-94992302D01*
X118329500Y-95163389D01*
X116600500Y-95163389D01*
X116600500Y-95102494D01*
X116561993Y-94810007D01*
X116485639Y-94525048D01*
X116372743Y-94252493D01*
X116366967Y-94242489D01*
X116225238Y-93997006D01*
X116045647Y-93762959D01*
X116045641Y-93762952D01*
X115837047Y-93554358D01*
X115837040Y-93554352D01*
X115602993Y-93374761D01*
X115347510Y-93227258D01*
X115347500Y-93227254D01*
X115074961Y-93114364D01*
X115074954Y-93114362D01*
X115074952Y-93114361D01*
X114789993Y-93038007D01*
X114741113Y-93031571D01*
X114497513Y-92999500D01*
X114497506Y-92999500D01*
X114202494Y-92999500D01*
X114202486Y-92999500D01*
X113924085Y-93036153D01*
X113910007Y-93038007D01*
X113772749Y-93074785D01*
X113625048Y-93114361D01*
X113625038Y-93114364D01*
X113352499Y-93227254D01*
X113352489Y-93227258D01*
X113097006Y-93374761D01*
X112862959Y-93554352D01*
X112862952Y-93554358D01*
X112654358Y-93762952D01*
X112654352Y-93762959D01*
X112474761Y-93997006D01*
X112327258Y-94252489D01*
X112327254Y-94252499D01*
X112214364Y-94525038D01*
X112214361Y-94525048D01*
X112140685Y-94800015D01*
X112138008Y-94810004D01*
X112138006Y-94810015D01*
X112099500Y-95102486D01*
X110360854Y-95102486D01*
X110343402Y-94992299D01*
X110289873Y-94827555D01*
X110211232Y-94673212D01*
X110109414Y-94533072D01*
X110057482Y-94481140D01*
X110023997Y-94419817D01*
X110028981Y-94350125D01*
X110070853Y-94294192D01*
X110136317Y-94269775D01*
X110164561Y-94270986D01*
X110165212Y-94271089D01*
X110165215Y-94271090D01*
X110414038Y-94310500D01*
X110414039Y-94310500D01*
X110665961Y-94310500D01*
X110665962Y-94310500D01*
X110914785Y-94271090D01*
X111154379Y-94193241D01*
X111378845Y-94078870D01*
X111582656Y-93930793D01*
X111760793Y-93752656D01*
X111908870Y-93548845D01*
X112023241Y-93324379D01*
X112101090Y-93084785D01*
X112140500Y-92835962D01*
X112140500Y-92584038D01*
X112101090Y-92335215D01*
X112023241Y-92095621D01*
X112023239Y-92095618D01*
X112023239Y-92095616D01*
X111981747Y-92014184D01*
X111908870Y-91871155D01*
X111835377Y-91770000D01*
X111760798Y-91667350D01*
X111760794Y-91667345D01*
X111582654Y-91489205D01*
X111582649Y-91489201D01*
X111378848Y-91341132D01*
X111378847Y-91341131D01*
X111378845Y-91341130D01*
X111308747Y-91305413D01*
X111154383Y-91226760D01*
X110914785Y-91148910D01*
X110851648Y-91138910D01*
X110665962Y-91109500D01*
X110414038Y-91109500D01*
X110331097Y-91122636D01*
X110165213Y-91148910D01*
X110165210Y-91148910D01*
X109983075Y-91208090D01*
X109913234Y-91210085D01*
X109857076Y-91177840D01*
X108723307Y-90044071D01*
X115290000Y-90044071D01*
X115290000Y-90295928D01*
X115329397Y-90544669D01*
X115407219Y-90784184D01*
X115521557Y-91008583D01*
X115595748Y-91110697D01*
X115595748Y-91110698D01*
X116212421Y-90494024D01*
X116225359Y-90525258D01*
X116307437Y-90648097D01*
X116411903Y-90752563D01*
X116534742Y-90834641D01*
X116565974Y-90847577D01*
X115949300Y-91464250D01*
X116051416Y-91538442D01*
X116275815Y-91652780D01*
X116515330Y-91730602D01*
X116764072Y-91770000D01*
X117015928Y-91770000D01*
X117264669Y-91730602D01*
X117504184Y-91652780D01*
X117728575Y-91538446D01*
X117728581Y-91538442D01*
X117830697Y-91464250D01*
X117830698Y-91464250D01*
X117214025Y-90847578D01*
X117245258Y-90834641D01*
X117368097Y-90752563D01*
X117472563Y-90648097D01*
X117554641Y-90525258D01*
X117567577Y-90494025D01*
X118184250Y-91110698D01*
X118184250Y-91110697D01*
X118258442Y-91008581D01*
X118258446Y-91008575D01*
X118372780Y-90784184D01*
X118450602Y-90544669D01*
X118490000Y-90295928D01*
X118490000Y-90044071D01*
X134290000Y-90044071D01*
X134290000Y-90295928D01*
X134329397Y-90544669D01*
X134407219Y-90784184D01*
X134521557Y-91008583D01*
X134595748Y-91110697D01*
X134595748Y-91110698D01*
X135212421Y-90494024D01*
X135225359Y-90525258D01*
X135307437Y-90648097D01*
X135411903Y-90752563D01*
X135534742Y-90834641D01*
X135565974Y-90847577D01*
X134949300Y-91464250D01*
X135051416Y-91538442D01*
X135275815Y-91652780D01*
X135515330Y-91730602D01*
X135764072Y-91770000D01*
X136015928Y-91770000D01*
X136264669Y-91730602D01*
X136504184Y-91652780D01*
X136728575Y-91538446D01*
X136728581Y-91538442D01*
X136830697Y-91464250D01*
X136830698Y-91464250D01*
X136214025Y-90847578D01*
X136245258Y-90834641D01*
X136368097Y-90752563D01*
X136472563Y-90648097D01*
X136554641Y-90525258D01*
X136567577Y-90494025D01*
X137184250Y-91110698D01*
X137184250Y-91110697D01*
X137258442Y-91008581D01*
X137258446Y-91008575D01*
X137372780Y-90784184D01*
X137450602Y-90544669D01*
X137490000Y-90295928D01*
X137490000Y-90044071D01*
X137450602Y-89795330D01*
X137372780Y-89555815D01*
X137258442Y-89331416D01*
X137184250Y-89229301D01*
X137184250Y-89229300D01*
X136567577Y-89845973D01*
X136554641Y-89814742D01*
X136472563Y-89691903D01*
X136368097Y-89587437D01*
X136245258Y-89505359D01*
X136214024Y-89492421D01*
X136830698Y-88875748D01*
X136728583Y-88801557D01*
X136504184Y-88687219D01*
X136264669Y-88609397D01*
X136015928Y-88570000D01*
X135764072Y-88570000D01*
X135515330Y-88609397D01*
X135275815Y-88687219D01*
X135051413Y-88801559D01*
X134949301Y-88875747D01*
X134949300Y-88875748D01*
X135565974Y-89492421D01*
X135534742Y-89505359D01*
X135411903Y-89587437D01*
X135307437Y-89691903D01*
X135225359Y-89814742D01*
X135212421Y-89845974D01*
X134595748Y-89229300D01*
X134595747Y-89229301D01*
X134521559Y-89331413D01*
X134407219Y-89555815D01*
X134329397Y-89795330D01*
X134290000Y-90044071D01*
X118490000Y-90044071D01*
X118450602Y-89795330D01*
X118372780Y-89555815D01*
X118258442Y-89331416D01*
X118184250Y-89229301D01*
X118184250Y-89229300D01*
X117567577Y-89845973D01*
X117554641Y-89814742D01*
X117472563Y-89691903D01*
X117368097Y-89587437D01*
X117245258Y-89505359D01*
X117214024Y-89492421D01*
X117830698Y-88875748D01*
X117728583Y-88801557D01*
X117504184Y-88687219D01*
X117264669Y-88609397D01*
X117015928Y-88570000D01*
X116764072Y-88570000D01*
X116515330Y-88609397D01*
X116275815Y-88687219D01*
X116051413Y-88801559D01*
X115949301Y-88875747D01*
X115949300Y-88875748D01*
X116565974Y-89492421D01*
X116534742Y-89505359D01*
X116411903Y-89587437D01*
X116307437Y-89691903D01*
X116225359Y-89814742D01*
X116212421Y-89845974D01*
X115595748Y-89229300D01*
X115595747Y-89229301D01*
X115521559Y-89331413D01*
X115407219Y-89555815D01*
X115329397Y-89795330D01*
X115290000Y-90044071D01*
X108723307Y-90044071D01*
X107689925Y-89010689D01*
X98447590Y-79768355D01*
X98447588Y-79768352D01*
X98328717Y-79649481D01*
X98328716Y-79649480D01*
X98241904Y-79599360D01*
X98241904Y-79599359D01*
X98241900Y-79599358D01*
X98191785Y-79570423D01*
X98039057Y-79529499D01*
X97880943Y-79529499D01*
X97873347Y-79529499D01*
X97873331Y-79529500D01*
X88863693Y-79529500D01*
X88796654Y-79509815D01*
X88750899Y-79457011D01*
X88740955Y-79387853D01*
X88769980Y-79324297D01*
X88825374Y-79287569D01*
X88840832Y-79282547D01*
X89009199Y-79196760D01*
X89162073Y-79085690D01*
X89295690Y-78952073D01*
X89406760Y-78799199D01*
X89492547Y-78630832D01*
X89550940Y-78451118D01*
X89571530Y-78321118D01*
X89580500Y-78264486D01*
X89580500Y-78075513D01*
X89550940Y-77888881D01*
X89508700Y-77758881D01*
X89492547Y-77709168D01*
X89492545Y-77709165D01*
X89492544Y-77709160D01*
X89453124Y-77631794D01*
X89440228Y-77563125D01*
X89466505Y-77498385D01*
X89523611Y-77458128D01*
X89563609Y-77451500D01*
X99396010Y-77451500D01*
X99463049Y-77471185D01*
X99508804Y-77523989D01*
X99518748Y-77593147D01*
X99506495Y-77631794D01*
X99487455Y-77669160D01*
X99429059Y-77848881D01*
X99399500Y-78035513D01*
X99399500Y-78224486D01*
X99429059Y-78411118D01*
X99487454Y-78590836D01*
X99573240Y-78759199D01*
X99684310Y-78912073D01*
X99817927Y-79045690D01*
X99970801Y-79156760D01*
X99986251Y-79164632D01*
X100139163Y-79242545D01*
X100139165Y-79242545D01*
X100139168Y-79242547D01*
X100235497Y-79273846D01*
X100318881Y-79300940D01*
X100505514Y-79330500D01*
X100505519Y-79330500D01*
X100694486Y-79330500D01*
X100881118Y-79300940D01*
X100937725Y-79282547D01*
X101060832Y-79242547D01*
X101229199Y-79156760D01*
X101382073Y-79045690D01*
X101515690Y-78912073D01*
X101626760Y-78759199D01*
X101712547Y-78590832D01*
X101770940Y-78411118D01*
X101775178Y-78384362D01*
X101800500Y-78224486D01*
X101800500Y-78035513D01*
X101770940Y-77848881D01*
X101713626Y-77672490D01*
X101712547Y-77669168D01*
X101712545Y-77669165D01*
X101712544Y-77669160D01*
X101693505Y-77631794D01*
X101680609Y-77563125D01*
X101706886Y-77498385D01*
X101763993Y-77458128D01*
X101803990Y-77451500D01*
X109786010Y-77451500D01*
X109853049Y-77471185D01*
X109898804Y-77523989D01*
X109908748Y-77593147D01*
X109896495Y-77631794D01*
X109877455Y-77669160D01*
X109819059Y-77848881D01*
X109789500Y-78035513D01*
X109789500Y-78224486D01*
X109819059Y-78411118D01*
X109877454Y-78590836D01*
X109963240Y-78759199D01*
X110074310Y-78912073D01*
X110207927Y-79045690D01*
X110360801Y-79156760D01*
X110376251Y-79164632D01*
X110529163Y-79242545D01*
X110529165Y-79242545D01*
X110529168Y-79242547D01*
X110625497Y-79273846D01*
X110708881Y-79300940D01*
X110895514Y-79330500D01*
X110895519Y-79330500D01*
X111084486Y-79330500D01*
X111271118Y-79300940D01*
X111327725Y-79282547D01*
X111450832Y-79242547D01*
X111619199Y-79156760D01*
X111772073Y-79045690D01*
X111905690Y-78912073D01*
X112016760Y-78759199D01*
X112102547Y-78590832D01*
X112160940Y-78411118D01*
X112165178Y-78384362D01*
X112190500Y-78224486D01*
X112190500Y-78035513D01*
X112160940Y-77848881D01*
X112103626Y-77672490D01*
X112102547Y-77669168D01*
X112102545Y-77669165D01*
X112102544Y-77669160D01*
X112083505Y-77631794D01*
X112070609Y-77563125D01*
X112096886Y-77498385D01*
X112153993Y-77458128D01*
X112193990Y-77451500D01*
X120588264Y-77451500D01*
X120655303Y-77471185D01*
X120701058Y-77523989D01*
X120711002Y-77593147D01*
X120706197Y-77613809D01*
X120692260Y-77656703D01*
X120659059Y-77758881D01*
X120629500Y-77945513D01*
X120629500Y-78134486D01*
X120659059Y-78321118D01*
X120717454Y-78500836D01*
X120763310Y-78590832D01*
X120803240Y-78669199D01*
X120914310Y-78822073D01*
X121047927Y-78955690D01*
X121178386Y-79050474D01*
X121221051Y-79105803D01*
X121229500Y-79150791D01*
X121229500Y-84719903D01*
X121209815Y-84786942D01*
X121193181Y-84807584D01*
X120575339Y-85425425D01*
X120514016Y-85458910D01*
X120511850Y-85459361D01*
X120356508Y-85490261D01*
X120356498Y-85490264D01*
X120210827Y-85550602D01*
X120210814Y-85550609D01*
X120079711Y-85638210D01*
X120079707Y-85638213D01*
X119968213Y-85749707D01*
X119968210Y-85749711D01*
X119880609Y-85880814D01*
X119880602Y-85880827D01*
X119820264Y-86026498D01*
X119820261Y-86026510D01*
X119789500Y-86181153D01*
X119789500Y-86338846D01*
X119820261Y-86493489D01*
X119820264Y-86493501D01*
X119880602Y-86639172D01*
X119880609Y-86639185D01*
X119968210Y-86770288D01*
X119968213Y-86770292D01*
X120079707Y-86881786D01*
X120079711Y-86881789D01*
X120210814Y-86969390D01*
X120210827Y-86969397D01*
X120356498Y-87029735D01*
X120356503Y-87029737D01*
X120511153Y-87060499D01*
X120511156Y-87060500D01*
X120511158Y-87060500D01*
X120668844Y-87060500D01*
X120668845Y-87060499D01*
X120823497Y-87029737D01*
X120969179Y-86969394D01*
X121100289Y-86881789D01*
X121211789Y-86770289D01*
X121299394Y-86639179D01*
X121359737Y-86493497D01*
X121379113Y-86396085D01*
X121390638Y-86338150D01*
X121423023Y-86276239D01*
X121424520Y-86274714D01*
X122198713Y-85500521D01*
X122198716Y-85500520D01*
X122310520Y-85388716D01*
X122360639Y-85301904D01*
X122389577Y-85251785D01*
X122430501Y-85099057D01*
X122430501Y-84940943D01*
X122430501Y-84933348D01*
X122430500Y-84933330D01*
X122430500Y-79150791D01*
X122450185Y-79083752D01*
X122481612Y-79050475D01*
X122612073Y-78955690D01*
X122745690Y-78822073D01*
X122856760Y-78669199D01*
X122942547Y-78500832D01*
X123000940Y-78321118D01*
X123009910Y-78264486D01*
X123030500Y-78134486D01*
X123030500Y-77945513D01*
X123000940Y-77758881D01*
X122972869Y-77672490D01*
X122953804Y-77613816D01*
X122951810Y-77543978D01*
X122987889Y-77484145D01*
X123050590Y-77453316D01*
X123071736Y-77451500D01*
X140747111Y-77451500D01*
X140814150Y-77471185D01*
X140859905Y-77523989D01*
X140869849Y-77593147D01*
X140840824Y-77656703D01*
X140834792Y-77663181D01*
X140825485Y-77672487D01*
X140825485Y-77672488D01*
X140825483Y-77672490D01*
X140798841Y-77709160D01*
X140686657Y-77863566D01*
X140579433Y-78074003D01*
X140506446Y-78298631D01*
X140469500Y-78531902D01*
X140469500Y-78768097D01*
X140506446Y-79001368D01*
X140579433Y-79225996D01*
X140672243Y-79408144D01*
X140686657Y-79436433D01*
X140825483Y-79627510D01*
X140992490Y-79794517D01*
X141183567Y-79933343D01*
X141282991Y-79984002D01*
X141394003Y-80040566D01*
X141394005Y-80040566D01*
X141394008Y-80040568D01*
X141443756Y-80056732D01*
X141618631Y-80113553D01*
X141851903Y-80150500D01*
X141851908Y-80150500D01*
X143288097Y-80150500D01*
X143521368Y-80113553D01*
X143592588Y-80090412D01*
X143745992Y-80040568D01*
X143956433Y-79933343D01*
X144147510Y-79794517D01*
X144314517Y-79627510D01*
X144453343Y-79436433D01*
X144560568Y-79225992D01*
X144633553Y-79001368D01*
X144641360Y-78952075D01*
X144670500Y-78768097D01*
X144670500Y-78531902D01*
X144633553Y-78298631D01*
X144599689Y-78194412D01*
X144560568Y-78074008D01*
X144560566Y-78074005D01*
X144560566Y-78074003D01*
X144495100Y-77945519D01*
X144453343Y-77863567D01*
X144314517Y-77672490D01*
X144305208Y-77663181D01*
X144271723Y-77601858D01*
X144276707Y-77532166D01*
X144318579Y-77476233D01*
X144384043Y-77451816D01*
X144392889Y-77451500D01*
X148182331Y-77451500D01*
X148182347Y-77451501D01*
X148189943Y-77451501D01*
X148348054Y-77451501D01*
X148348057Y-77451501D01*
X148500785Y-77410577D01*
X148560159Y-77376297D01*
X148637716Y-77331520D01*
X148749520Y-77219716D01*
X148749520Y-77219714D01*
X148759724Y-77209511D01*
X148759728Y-77209506D01*
X148966437Y-77002796D01*
X149027758Y-76969313D01*
X149092433Y-76972547D01*
X149218632Y-77013553D01*
X149306110Y-77027408D01*
X149451903Y-77050500D01*
X149451908Y-77050500D01*
X149688097Y-77050500D01*
X149921368Y-77013553D01*
X149954468Y-77002798D01*
X150145992Y-76940568D01*
X150356433Y-76833343D01*
X150547510Y-76694517D01*
X150714517Y-76527510D01*
X150853343Y-76336433D01*
X150960568Y-76125992D01*
X151033553Y-75901368D01*
X151070500Y-75668097D01*
X151070500Y-75431902D01*
X151033553Y-75198631D01*
X150988374Y-75059586D01*
X150960568Y-74974008D01*
X150960566Y-74974005D01*
X150960566Y-74974003D01*
X150886149Y-74827953D01*
X150853343Y-74763567D01*
X150714517Y-74572490D01*
X150547510Y-74405483D01*
X150356433Y-74266657D01*
X150303541Y-74239707D01*
X150145996Y-74159433D01*
X149921368Y-74086446D01*
X149688097Y-74049500D01*
X149688092Y-74049500D01*
X149451908Y-74049500D01*
X149451903Y-74049500D01*
X149218631Y-74086446D01*
X148994003Y-74159433D01*
X148783566Y-74266657D01*
X148682619Y-74340000D01*
X148592490Y-74405483D01*
X148592488Y-74405485D01*
X148592487Y-74405485D01*
X148425485Y-74572487D01*
X148425485Y-74572488D01*
X148425483Y-74572490D01*
X148396092Y-74612943D01*
X148286657Y-74763566D01*
X148179433Y-74974003D01*
X148106446Y-75198631D01*
X148069500Y-75431902D01*
X148069500Y-75668097D01*
X148106447Y-75901369D01*
X148106447Y-75901372D01*
X148147450Y-76027563D01*
X148147884Y-76042774D01*
X148153203Y-76057033D01*
X148148861Y-76076990D01*
X148149445Y-76097404D01*
X148141357Y-76111490D01*
X148138352Y-76125306D01*
X148117202Y-76153561D01*
X148056585Y-76214180D01*
X147995262Y-76247666D01*
X147968902Y-76250500D01*
X136590784Y-76250500D01*
X136523745Y-76230815D01*
X136477990Y-76178011D01*
X136468046Y-76108853D01*
X136472851Y-76088187D01*
X136533553Y-75901368D01*
X136570500Y-75668097D01*
X136570500Y-75431902D01*
X136533553Y-75198631D01*
X136488374Y-75059586D01*
X136460568Y-74974008D01*
X136460566Y-74974005D01*
X136460566Y-74974003D01*
X136386149Y-74827953D01*
X136353343Y-74763567D01*
X136214517Y-74572490D01*
X136047510Y-74405483D01*
X135991259Y-74364614D01*
X135948595Y-74309284D01*
X135943902Y-74277455D01*
X135199408Y-73532962D01*
X135262993Y-73515925D01*
X135377007Y-73450099D01*
X135470099Y-73357007D01*
X135535925Y-73242993D01*
X135552962Y-73179409D01*
X136292658Y-73919105D01*
X136292658Y-73919104D01*
X136352914Y-73836169D01*
X136352918Y-73836163D01*
X136460102Y-73625802D01*
X136533065Y-73401247D01*
X136570000Y-73168052D01*
X136570000Y-72931947D01*
X136533065Y-72698752D01*
X136460102Y-72474197D01*
X136352914Y-72263828D01*
X136283394Y-72168142D01*
X136259914Y-72102335D01*
X136275739Y-72034281D01*
X136309401Y-71995989D01*
X136312329Y-71993796D01*
X136312331Y-71993796D01*
X136427546Y-71907546D01*
X136513796Y-71792331D01*
X136564091Y-71657483D01*
X136570500Y-71597873D01*
X136570499Y-70431947D01*
X148070000Y-70431947D01*
X148070000Y-70668052D01*
X148106934Y-70901247D01*
X148179897Y-71125802D01*
X148287087Y-71336174D01*
X148347338Y-71419104D01*
X148347340Y-71419105D01*
X149087037Y-70679408D01*
X149104075Y-70742993D01*
X149169901Y-70857007D01*
X149262993Y-70950099D01*
X149377007Y-71015925D01*
X149440590Y-71032962D01*
X148700893Y-71772658D01*
X148783828Y-71832914D01*
X148994197Y-71940102D01*
X149218752Y-72013065D01*
X149218751Y-72013065D01*
X149451948Y-72050000D01*
X149688052Y-72050000D01*
X149921247Y-72013065D01*
X150145802Y-71940102D01*
X150356163Y-71832918D01*
X150356169Y-71832914D01*
X150439104Y-71772658D01*
X150439105Y-71772658D01*
X149699408Y-71032962D01*
X149762993Y-71015925D01*
X149877007Y-70950099D01*
X149970099Y-70857007D01*
X150035925Y-70742993D01*
X150052962Y-70679409D01*
X150792658Y-71419105D01*
X150792658Y-71419104D01*
X150852914Y-71336169D01*
X150852918Y-71336163D01*
X150960102Y-71125802D01*
X151033065Y-70901247D01*
X151070000Y-70668052D01*
X151070000Y-70431947D01*
X151033065Y-70198752D01*
X150960102Y-69974197D01*
X150852914Y-69763828D01*
X150792658Y-69680894D01*
X150792658Y-69680893D01*
X150052962Y-70420590D01*
X150035925Y-70357007D01*
X149970099Y-70242993D01*
X149877007Y-70149901D01*
X149762993Y-70084075D01*
X149699409Y-70067037D01*
X150439105Y-69327340D01*
X150439104Y-69327338D01*
X150356174Y-69267087D01*
X150145802Y-69159897D01*
X149921247Y-69086934D01*
X149921248Y-69086934D01*
X149688052Y-69050000D01*
X149451948Y-69050000D01*
X149218752Y-69086934D01*
X148994197Y-69159897D01*
X148783830Y-69267084D01*
X148700894Y-69327340D01*
X149440591Y-70067037D01*
X149377007Y-70084075D01*
X149262993Y-70149901D01*
X149169901Y-70242993D01*
X149104075Y-70357007D01*
X149087037Y-70420591D01*
X148347340Y-69680894D01*
X148287084Y-69763830D01*
X148179897Y-69974197D01*
X148106934Y-70198752D01*
X148070000Y-70431947D01*
X136570499Y-70431947D01*
X136570499Y-69502128D01*
X136564091Y-69442517D01*
X136562203Y-69437454D01*
X136554922Y-69417931D01*
X136513797Y-69307671D01*
X136513793Y-69307664D01*
X136427547Y-69192455D01*
X136427544Y-69192452D01*
X136312335Y-69106206D01*
X136312328Y-69106202D01*
X136177482Y-69055908D01*
X136177483Y-69055908D01*
X136117883Y-69049501D01*
X136117881Y-69049500D01*
X136117873Y-69049500D01*
X136117864Y-69049500D01*
X134022129Y-69049500D01*
X134022123Y-69049501D01*
X133962516Y-69055908D01*
X133827671Y-69106202D01*
X133827664Y-69106206D01*
X133712455Y-69192452D01*
X133712452Y-69192455D01*
X133626206Y-69307664D01*
X133626202Y-69307671D01*
X133575908Y-69442517D01*
X133569501Y-69502116D01*
X133569501Y-69502123D01*
X133569500Y-69502135D01*
X133569500Y-71597870D01*
X133569501Y-71597876D01*
X133575908Y-71657483D01*
X133626202Y-71792328D01*
X133626206Y-71792335D01*
X133712452Y-71907544D01*
X133712453Y-71907544D01*
X133712454Y-71907546D01*
X133743723Y-71930954D01*
X133830599Y-71995990D01*
X133872469Y-72051924D01*
X133877453Y-72121615D01*
X133856605Y-72168141D01*
X133787087Y-72263824D01*
X133679897Y-72474197D01*
X133606934Y-72698752D01*
X133570000Y-72931947D01*
X133570000Y-73168052D01*
X133606934Y-73401247D01*
X133679897Y-73625802D01*
X133787087Y-73836174D01*
X133847338Y-73919104D01*
X133847340Y-73919105D01*
X134587037Y-73179408D01*
X134604075Y-73242993D01*
X134669901Y-73357007D01*
X134762993Y-73450099D01*
X134877007Y-73515925D01*
X134940590Y-73532962D01*
X134194280Y-74279271D01*
X134185105Y-74322947D01*
X134148739Y-74364615D01*
X134092490Y-74405482D01*
X133925485Y-74572487D01*
X133925485Y-74572488D01*
X133925483Y-74572490D01*
X133896092Y-74612943D01*
X133786657Y-74763566D01*
X133679433Y-74974003D01*
X133606446Y-75198631D01*
X133569500Y-75431902D01*
X133569500Y-75668097D01*
X133606446Y-75901368D01*
X133644895Y-76019699D01*
X133667147Y-76088182D01*
X133669142Y-76158022D01*
X133633062Y-76217855D01*
X133570361Y-76248684D01*
X133549216Y-76250500D01*
X87118727Y-76250500D01*
X87051688Y-76230815D01*
X87031046Y-76214181D01*
X85077819Y-74260954D01*
X85063115Y-74234026D01*
X85046523Y-74208208D01*
X85045631Y-74202007D01*
X85044334Y-74199631D01*
X85041500Y-74173273D01*
X85041500Y-72924473D01*
X85041499Y-72924458D01*
X85038587Y-72887453D01*
X85038586Y-72887450D01*
X85038585Y-72887447D01*
X85038149Y-72885944D01*
X85038149Y-72885942D01*
X84995501Y-72739149D01*
X84992564Y-72729041D01*
X84931795Y-72626287D01*
X84908594Y-72587056D01*
X84908587Y-72587047D01*
X84791952Y-72470412D01*
X84791944Y-72470406D01*
X84735004Y-72436732D01*
X84687321Y-72385663D01*
X84674817Y-72316921D01*
X84701462Y-72252332D01*
X84735004Y-72223268D01*
X84791947Y-72189592D01*
X84908592Y-72072947D01*
X84992564Y-71930959D01*
X85032838Y-71792335D01*
X85038586Y-71772552D01*
X85038587Y-71772546D01*
X85041499Y-71735541D01*
X85041500Y-71735534D01*
X85041500Y-70455513D01*
X87179500Y-70455513D01*
X87179500Y-70644486D01*
X87209059Y-70831118D01*
X87267454Y-71010836D01*
X87343132Y-71159361D01*
X87353240Y-71179199D01*
X87464310Y-71332073D01*
X87597927Y-71465690D01*
X87750801Y-71576760D01*
X87830347Y-71617290D01*
X87919163Y-71662545D01*
X87919165Y-71662545D01*
X87919168Y-71662547D01*
X87979238Y-71682065D01*
X88098881Y-71720940D01*
X88285514Y-71750500D01*
X88285519Y-71750500D01*
X88474486Y-71750500D01*
X88661118Y-71720940D01*
X88840832Y-71662547D01*
X89009199Y-71576760D01*
X89162073Y-71465690D01*
X89295690Y-71332073D01*
X89390475Y-71201613D01*
X89445804Y-71158949D01*
X89490792Y-71150500D01*
X91899903Y-71150500D01*
X91966942Y-71170185D01*
X91987584Y-71186819D01*
X93133681Y-72332916D01*
X93167166Y-72394239D01*
X93170000Y-72420597D01*
X93170000Y-73255743D01*
X93153521Y-73246229D01*
X92999650Y-73205000D01*
X92840350Y-73205000D01*
X92686479Y-73246229D01*
X92670000Y-73255743D01*
X92670000Y-72402500D01*
X91964655Y-72402500D01*
X91905127Y-72408901D01*
X91905120Y-72408903D01*
X91770413Y-72459145D01*
X91770406Y-72459149D01*
X91655312Y-72545309D01*
X91655309Y-72545312D01*
X91569149Y-72660406D01*
X91569145Y-72660413D01*
X91518903Y-72795120D01*
X91518901Y-72795127D01*
X91512500Y-72854655D01*
X91512500Y-73560000D01*
X92365743Y-73560000D01*
X92356229Y-73576479D01*
X92315000Y-73730350D01*
X92315000Y-73889650D01*
X92356229Y-74043521D01*
X92365743Y-74060000D01*
X91512500Y-74060000D01*
X91512500Y-74765344D01*
X91518901Y-74824872D01*
X91518903Y-74824879D01*
X91569145Y-74959586D01*
X91569149Y-74959593D01*
X91655309Y-75074687D01*
X91655312Y-75074690D01*
X91770406Y-75160850D01*
X91770413Y-75160854D01*
X91905120Y-75211096D01*
X91905127Y-75211098D01*
X91964655Y-75217499D01*
X91964672Y-75217500D01*
X92670000Y-75217500D01*
X92670000Y-74364256D01*
X92686479Y-74373771D01*
X92840350Y-74415000D01*
X92999650Y-74415000D01*
X93153521Y-74373771D01*
X93170000Y-74364256D01*
X93170000Y-75217500D01*
X93875328Y-75217500D01*
X93875344Y-75217499D01*
X93934872Y-75211098D01*
X93934879Y-75211096D01*
X94069586Y-75160854D01*
X94069593Y-75160850D01*
X94184687Y-75074690D01*
X94184690Y-75074687D01*
X94270850Y-74959593D01*
X94270853Y-74959588D01*
X94297830Y-74887257D01*
X94339701Y-74831322D01*
X94405165Y-74806904D01*
X94473438Y-74821755D01*
X94501694Y-74842907D01*
X94542749Y-74883962D01*
X94722047Y-75014230D01*
X94783112Y-75045344D01*
X94919511Y-75114843D01*
X94919513Y-75114843D01*
X94919516Y-75114845D01*
X94983233Y-75135548D01*
X95130292Y-75183331D01*
X95349183Y-75218000D01*
X95349188Y-75218000D01*
X95570817Y-75218000D01*
X95789707Y-75183331D01*
X95833034Y-75169253D01*
X96000484Y-75114845D01*
X96197953Y-75014230D01*
X96377251Y-74883962D01*
X96533962Y-74727251D01*
X96664230Y-74547953D01*
X96764845Y-74350484D01*
X96813860Y-74199631D01*
X96833330Y-74139711D01*
X96833330Y-74139710D01*
X96833331Y-74139707D01*
X96856792Y-73991578D01*
X96868000Y-73920817D01*
X96868000Y-73699182D01*
X96833331Y-73480292D01*
X96797337Y-73369516D01*
X96764845Y-73269516D01*
X96764843Y-73269513D01*
X96764843Y-73269511D01*
X96739419Y-73219615D01*
X96696130Y-73134655D01*
X96664231Y-73072048D01*
X96606616Y-72992749D01*
X96533962Y-72892749D01*
X96377251Y-72736038D01*
X96197953Y-72605770D01*
X96145883Y-72579239D01*
X96000488Y-72505156D01*
X95789707Y-72436668D01*
X95570817Y-72402000D01*
X95570812Y-72402000D01*
X95349188Y-72402000D01*
X95349183Y-72402000D01*
X95130293Y-72436668D01*
X95055840Y-72460859D01*
X94985999Y-72462853D01*
X94929843Y-72430608D01*
X92914748Y-70415513D01*
X99399500Y-70415513D01*
X99399500Y-70604486D01*
X99429059Y-70791118D01*
X99487454Y-70970836D01*
X99558617Y-71110500D01*
X99573240Y-71139199D01*
X99684310Y-71292073D01*
X99817927Y-71425690D01*
X99970801Y-71536760D01*
X99986251Y-71544632D01*
X100139163Y-71622545D01*
X100139165Y-71622545D01*
X100139168Y-71622547D01*
X100235497Y-71653846D01*
X100318881Y-71680940D01*
X100505514Y-71710500D01*
X100505519Y-71710500D01*
X100694486Y-71710500D01*
X100881118Y-71680940D01*
X100937725Y-71662547D01*
X101060832Y-71622547D01*
X101064850Y-71620500D01*
X101067014Y-71619396D01*
X101229199Y-71536760D01*
X101382073Y-71425690D01*
X101515690Y-71292073D01*
X101610475Y-71161613D01*
X101665804Y-71118949D01*
X101710792Y-71110500D01*
X102969903Y-71110500D01*
X103036942Y-71130185D01*
X103057583Y-71146818D01*
X104523681Y-72612917D01*
X104557166Y-72674239D01*
X104560000Y-72700597D01*
X104560000Y-73535743D01*
X104543521Y-73526229D01*
X104389650Y-73485000D01*
X104230350Y-73485000D01*
X104076479Y-73526229D01*
X104060000Y-73535743D01*
X104060000Y-72682500D01*
X103354655Y-72682500D01*
X103295127Y-72688901D01*
X103295120Y-72688903D01*
X103160413Y-72739145D01*
X103160406Y-72739149D01*
X103045312Y-72825309D01*
X103045309Y-72825312D01*
X102959149Y-72940406D01*
X102959145Y-72940413D01*
X102908903Y-73075120D01*
X102908901Y-73075127D01*
X102902500Y-73134655D01*
X102902500Y-73840000D01*
X103755743Y-73840000D01*
X103746229Y-73856479D01*
X103705000Y-74010350D01*
X103705000Y-74169650D01*
X103746229Y-74323521D01*
X103755743Y-74340000D01*
X102902500Y-74340000D01*
X102902500Y-75045344D01*
X102908901Y-75104872D01*
X102908903Y-75104879D01*
X102959145Y-75239586D01*
X102959149Y-75239593D01*
X103045309Y-75354687D01*
X103045312Y-75354690D01*
X103160406Y-75440850D01*
X103160413Y-75440854D01*
X103295120Y-75491096D01*
X103295127Y-75491098D01*
X103354655Y-75497499D01*
X103354672Y-75497500D01*
X104060000Y-75497500D01*
X104060000Y-74644256D01*
X104076479Y-74653771D01*
X104230350Y-74695000D01*
X104389650Y-74695000D01*
X104543521Y-74653771D01*
X104560000Y-74644256D01*
X104560000Y-75497500D01*
X105265328Y-75497500D01*
X105265344Y-75497499D01*
X105324872Y-75491098D01*
X105324879Y-75491096D01*
X105459586Y-75440854D01*
X105459593Y-75440850D01*
X105574687Y-75354690D01*
X105574690Y-75354687D01*
X105660850Y-75239593D01*
X105660853Y-75239588D01*
X105687830Y-75167257D01*
X105729701Y-75111322D01*
X105795165Y-75086904D01*
X105863438Y-75101755D01*
X105891694Y-75122907D01*
X105932749Y-75163962D01*
X106112047Y-75294230D01*
X106205344Y-75341767D01*
X106309511Y-75394843D01*
X106309513Y-75394843D01*
X106309516Y-75394845D01*
X106409873Y-75427453D01*
X106520292Y-75463331D01*
X106739183Y-75498000D01*
X106739188Y-75498000D01*
X106960817Y-75498000D01*
X107179707Y-75463331D01*
X107390484Y-75394845D01*
X107587953Y-75294230D01*
X107767251Y-75163962D01*
X107923962Y-75007251D01*
X108054230Y-74827953D01*
X108154845Y-74630484D01*
X108223331Y-74419707D01*
X108227383Y-74394121D01*
X108258000Y-74200817D01*
X108258000Y-73979182D01*
X108223331Y-73760292D01*
X108175659Y-73613576D01*
X108154845Y-73549516D01*
X108154843Y-73549513D01*
X108154843Y-73549511D01*
X108080474Y-73403554D01*
X108054230Y-73352047D01*
X107923962Y-73172749D01*
X107767251Y-73016038D01*
X107587953Y-72885770D01*
X107390488Y-72785156D01*
X107179707Y-72716668D01*
X106960817Y-72682000D01*
X106960812Y-72682000D01*
X106739188Y-72682000D01*
X106739183Y-72682000D01*
X106520289Y-72716669D01*
X106445842Y-72740858D01*
X106376001Y-72742853D01*
X106319844Y-72710608D01*
X105229736Y-71620500D01*
X104024748Y-70415513D01*
X109789500Y-70415513D01*
X109789500Y-70604486D01*
X109819059Y-70791118D01*
X109877454Y-70970836D01*
X109948617Y-71110500D01*
X109963240Y-71139199D01*
X110074310Y-71292073D01*
X110207927Y-71425690D01*
X110360801Y-71536760D01*
X110376251Y-71544632D01*
X110529163Y-71622545D01*
X110529165Y-71622545D01*
X110529168Y-71622547D01*
X110625497Y-71653846D01*
X110708881Y-71680940D01*
X110895514Y-71710500D01*
X110895519Y-71710500D01*
X111084486Y-71710500D01*
X111271118Y-71680940D01*
X111327725Y-71662547D01*
X111450832Y-71622547D01*
X111454850Y-71620500D01*
X111457014Y-71619396D01*
X111619199Y-71536760D01*
X111772073Y-71425690D01*
X111905690Y-71292073D01*
X112000475Y-71161613D01*
X112055804Y-71118949D01*
X112100792Y-71110500D01*
X113999903Y-71110500D01*
X114066942Y-71130185D01*
X114087583Y-71146818D01*
X115273681Y-72332917D01*
X115307166Y-72394239D01*
X115310000Y-72420597D01*
X115310000Y-73255743D01*
X115293521Y-73246229D01*
X115139650Y-73205000D01*
X114980350Y-73205000D01*
X114826479Y-73246229D01*
X114810000Y-73255743D01*
X114810000Y-72402500D01*
X114104655Y-72402500D01*
X114045127Y-72408901D01*
X114045120Y-72408903D01*
X113910413Y-72459145D01*
X113910406Y-72459149D01*
X113795312Y-72545309D01*
X113795309Y-72545312D01*
X113709149Y-72660406D01*
X113709145Y-72660413D01*
X113658903Y-72795120D01*
X113658901Y-72795127D01*
X113652500Y-72854655D01*
X113652500Y-73560000D01*
X114505743Y-73560000D01*
X114496229Y-73576479D01*
X114455000Y-73730350D01*
X114455000Y-73889650D01*
X114496229Y-74043521D01*
X114505743Y-74060000D01*
X113652500Y-74060000D01*
X113652500Y-74765344D01*
X113658901Y-74824872D01*
X113658903Y-74824879D01*
X113709145Y-74959586D01*
X113709149Y-74959593D01*
X113795309Y-75074687D01*
X113795312Y-75074690D01*
X113910406Y-75160850D01*
X113910413Y-75160854D01*
X114045120Y-75211096D01*
X114045127Y-75211098D01*
X114104655Y-75217499D01*
X114104672Y-75217500D01*
X114810000Y-75217500D01*
X114810000Y-74364256D01*
X114826479Y-74373771D01*
X114980350Y-74415000D01*
X115139650Y-74415000D01*
X115293521Y-74373771D01*
X115310000Y-74364256D01*
X115310000Y-75217500D01*
X116015328Y-75217500D01*
X116015344Y-75217499D01*
X116074872Y-75211098D01*
X116074879Y-75211096D01*
X116209586Y-75160854D01*
X116209593Y-75160850D01*
X116324687Y-75074690D01*
X116324690Y-75074687D01*
X116410850Y-74959593D01*
X116410853Y-74959588D01*
X116437830Y-74887257D01*
X116479701Y-74831322D01*
X116545165Y-74806904D01*
X116613438Y-74821755D01*
X116641694Y-74842907D01*
X116682749Y-74883962D01*
X116862047Y-75014230D01*
X116923112Y-75045344D01*
X117059511Y-75114843D01*
X117059513Y-75114843D01*
X117059516Y-75114845D01*
X117123233Y-75135548D01*
X117270292Y-75183331D01*
X117489183Y-75218000D01*
X117489188Y-75218000D01*
X117710817Y-75218000D01*
X117929707Y-75183331D01*
X117973034Y-75169253D01*
X118140484Y-75114845D01*
X118337953Y-75014230D01*
X118517251Y-74883962D01*
X118673962Y-74727251D01*
X118804230Y-74547953D01*
X118904845Y-74350484D01*
X118973331Y-74139707D01*
X118996792Y-73991578D01*
X119008000Y-73920817D01*
X119008000Y-73699182D01*
X118973331Y-73480292D01*
X118937337Y-73369516D01*
X118904845Y-73269516D01*
X118904843Y-73269513D01*
X118904843Y-73269511D01*
X118826536Y-73115826D01*
X118804230Y-73072047D01*
X118788211Y-73049999D01*
X118769496Y-73024239D01*
X118769494Y-73024237D01*
X118740386Y-72984174D01*
X118673962Y-72892749D01*
X118517251Y-72736038D01*
X118337953Y-72605770D01*
X118285883Y-72579239D01*
X118140488Y-72505156D01*
X117929707Y-72436668D01*
X117710817Y-72402000D01*
X117710812Y-72402000D01*
X117489188Y-72402000D01*
X117489183Y-72402000D01*
X117270289Y-72436669D01*
X117195842Y-72460858D01*
X117126001Y-72462853D01*
X117069844Y-72430608D01*
X116059333Y-71420097D01*
X114964748Y-70325513D01*
X120629500Y-70325513D01*
X120629500Y-70514486D01*
X120659059Y-70701118D01*
X120717454Y-70880836D01*
X120763310Y-70970832D01*
X120803240Y-71049199D01*
X120914310Y-71202073D01*
X121047927Y-71335690D01*
X121200801Y-71446760D01*
X121280347Y-71487290D01*
X121369163Y-71532545D01*
X121369165Y-71532545D01*
X121369168Y-71532547D01*
X121406362Y-71544632D01*
X121548881Y-71590940D01*
X121735514Y-71620500D01*
X121735519Y-71620500D01*
X121924486Y-71620500D01*
X122111118Y-71590940D01*
X122154762Y-71576759D01*
X122290832Y-71532547D01*
X122459199Y-71446760D01*
X122612073Y-71335690D01*
X122745690Y-71202073D01*
X122840475Y-71071613D01*
X122895804Y-71028949D01*
X122940792Y-71020500D01*
X125109903Y-71020500D01*
X125176942Y-71040185D01*
X125197584Y-71056819D01*
X126573681Y-72432916D01*
X126607166Y-72494239D01*
X126610000Y-72520597D01*
X126610000Y-73355743D01*
X126593521Y-73346229D01*
X126439650Y-73305000D01*
X126280350Y-73305000D01*
X126126479Y-73346229D01*
X126110000Y-73355743D01*
X126110000Y-72502500D01*
X125404655Y-72502500D01*
X125345127Y-72508901D01*
X125345120Y-72508903D01*
X125210413Y-72559145D01*
X125210406Y-72559149D01*
X125095312Y-72645309D01*
X125095309Y-72645312D01*
X125009149Y-72760406D01*
X125009145Y-72760413D01*
X124958903Y-72895120D01*
X124958901Y-72895127D01*
X124952500Y-72954655D01*
X124952500Y-73660000D01*
X125805743Y-73660000D01*
X125796229Y-73676479D01*
X125755000Y-73830350D01*
X125755000Y-73989650D01*
X125796229Y-74143521D01*
X125805743Y-74160000D01*
X124952500Y-74160000D01*
X124952500Y-74865344D01*
X124958901Y-74924872D01*
X124958903Y-74924879D01*
X125009145Y-75059586D01*
X125009149Y-75059593D01*
X125095309Y-75174687D01*
X125095312Y-75174690D01*
X125210406Y-75260850D01*
X125210413Y-75260854D01*
X125345120Y-75311096D01*
X125345127Y-75311098D01*
X125404655Y-75317499D01*
X125404672Y-75317500D01*
X126110000Y-75317500D01*
X126110000Y-74464256D01*
X126126479Y-74473771D01*
X126280350Y-74515000D01*
X126439650Y-74515000D01*
X126593521Y-74473771D01*
X126610000Y-74464256D01*
X126610000Y-75317500D01*
X127315328Y-75317500D01*
X127315344Y-75317499D01*
X127374872Y-75311098D01*
X127374879Y-75311096D01*
X127509586Y-75260854D01*
X127509593Y-75260850D01*
X127624687Y-75174690D01*
X127624690Y-75174687D01*
X127710850Y-75059593D01*
X127710853Y-75059588D01*
X127737830Y-74987257D01*
X127779701Y-74931322D01*
X127845165Y-74906904D01*
X127913438Y-74921755D01*
X127941694Y-74942907D01*
X127982749Y-74983962D01*
X128162047Y-75114230D01*
X128230399Y-75149057D01*
X128359511Y-75214843D01*
X128359513Y-75214843D01*
X128359516Y-75214845D01*
X128425523Y-75236292D01*
X128570292Y-75283331D01*
X128789183Y-75318000D01*
X128789188Y-75318000D01*
X129010817Y-75318000D01*
X129229707Y-75283331D01*
X129440484Y-75214845D01*
X129637953Y-75114230D01*
X129817251Y-74983962D01*
X129973962Y-74827251D01*
X130104230Y-74647953D01*
X130204845Y-74450484D01*
X130273331Y-74239707D01*
X130279302Y-74202007D01*
X130308000Y-74020817D01*
X130308000Y-73799182D01*
X130273331Y-73580292D01*
X130225659Y-73433575D01*
X130204845Y-73369516D01*
X130204843Y-73369513D01*
X130204843Y-73369511D01*
X130131980Y-73226510D01*
X130104230Y-73172047D01*
X129973962Y-72992749D01*
X129817251Y-72836038D01*
X129637953Y-72705770D01*
X129607515Y-72690261D01*
X129440488Y-72605156D01*
X129229707Y-72536668D01*
X129010817Y-72502000D01*
X129010812Y-72502000D01*
X128789188Y-72502000D01*
X128789183Y-72502000D01*
X128570293Y-72536668D01*
X128495840Y-72560859D01*
X128425999Y-72562853D01*
X128369843Y-72530608D01*
X125897590Y-70058355D01*
X125897588Y-70058352D01*
X125778717Y-69939481D01*
X125778716Y-69939480D01*
X125671948Y-69877838D01*
X125671947Y-69877837D01*
X125641783Y-69860422D01*
X125585611Y-69845371D01*
X125489057Y-69819499D01*
X125330943Y-69819499D01*
X125323347Y-69819499D01*
X125323331Y-69819500D01*
X122940792Y-69819500D01*
X122873753Y-69799815D01*
X122840474Y-69768386D01*
X122840141Y-69767927D01*
X122745690Y-69637927D01*
X122612073Y-69504310D01*
X122459199Y-69393240D01*
X122454718Y-69390957D01*
X122290836Y-69307454D01*
X122111118Y-69249059D01*
X121924486Y-69219500D01*
X121924481Y-69219500D01*
X121735519Y-69219500D01*
X121735514Y-69219500D01*
X121548881Y-69249059D01*
X121369163Y-69307454D01*
X121200800Y-69393240D01*
X121139947Y-69437453D01*
X121047927Y-69504310D01*
X121047925Y-69504312D01*
X121047924Y-69504312D01*
X120914312Y-69637924D01*
X120914312Y-69637925D01*
X120914310Y-69637927D01*
X120881580Y-69682976D01*
X120803240Y-69790800D01*
X120717454Y-69959163D01*
X120659059Y-70138881D01*
X120629500Y-70325513D01*
X114964748Y-70325513D01*
X114787589Y-70148354D01*
X114787588Y-70148352D01*
X114668717Y-70029481D01*
X114668716Y-70029480D01*
X114561948Y-69967838D01*
X114561947Y-69967837D01*
X114531783Y-69950422D01*
X114457089Y-69930408D01*
X114379057Y-69909499D01*
X114220943Y-69909499D01*
X114213347Y-69909499D01*
X114213331Y-69909500D01*
X112100792Y-69909500D01*
X112033753Y-69889815D01*
X112000474Y-69858386D01*
X111991792Y-69846436D01*
X111905690Y-69727927D01*
X111772073Y-69594310D01*
X111619199Y-69483240D01*
X111618687Y-69482979D01*
X111450836Y-69397454D01*
X111271118Y-69339059D01*
X111084486Y-69309500D01*
X111084481Y-69309500D01*
X110895519Y-69309500D01*
X110895514Y-69309500D01*
X110708881Y-69339059D01*
X110529163Y-69397454D01*
X110360800Y-69483240D01*
X110281635Y-69540758D01*
X110207927Y-69594310D01*
X110207925Y-69594312D01*
X110207924Y-69594312D01*
X110074312Y-69727924D01*
X110074312Y-69727925D01*
X110074310Y-69727927D01*
X110045250Y-69767925D01*
X109963240Y-69880800D01*
X109877454Y-70049163D01*
X109819059Y-70228881D01*
X109789500Y-70415513D01*
X104024748Y-70415513D01*
X103757589Y-70148354D01*
X103757588Y-70148352D01*
X103638717Y-70029481D01*
X103638716Y-70029480D01*
X103531948Y-69967838D01*
X103531947Y-69967837D01*
X103501783Y-69950422D01*
X103427089Y-69930408D01*
X103349057Y-69909499D01*
X103190943Y-69909499D01*
X103183347Y-69909499D01*
X103183331Y-69909500D01*
X101710792Y-69909500D01*
X101643753Y-69889815D01*
X101610474Y-69858386D01*
X101601792Y-69846436D01*
X101515690Y-69727927D01*
X101382073Y-69594310D01*
X101229199Y-69483240D01*
X101228687Y-69482979D01*
X101060836Y-69397454D01*
X100881118Y-69339059D01*
X100694486Y-69309500D01*
X100694481Y-69309500D01*
X100505519Y-69309500D01*
X100505514Y-69309500D01*
X100318881Y-69339059D01*
X100139163Y-69397454D01*
X99970800Y-69483240D01*
X99891635Y-69540758D01*
X99817927Y-69594310D01*
X99817925Y-69594312D01*
X99817924Y-69594312D01*
X99684312Y-69727924D01*
X99684312Y-69727925D01*
X99684310Y-69727927D01*
X99655250Y-69767925D01*
X99573240Y-69880800D01*
X99487454Y-70049163D01*
X99429059Y-70228881D01*
X99399500Y-70415513D01*
X92914748Y-70415513D01*
X92687590Y-70188355D01*
X92687588Y-70188352D01*
X92568717Y-70069481D01*
X92568716Y-70069480D01*
X92481904Y-70019360D01*
X92481904Y-70019359D01*
X92481900Y-70019358D01*
X92431785Y-69990423D01*
X92279057Y-69949499D01*
X92120943Y-69949499D01*
X92113347Y-69949499D01*
X92113331Y-69949500D01*
X89490792Y-69949500D01*
X89423753Y-69929815D01*
X89390474Y-69898386D01*
X89295690Y-69767927D01*
X89162073Y-69634310D01*
X89009199Y-69523240D01*
X88967778Y-69502135D01*
X88840836Y-69437454D01*
X88661118Y-69379059D01*
X88474486Y-69349500D01*
X88474481Y-69349500D01*
X88285519Y-69349500D01*
X88285514Y-69349500D01*
X88098881Y-69379059D01*
X87919163Y-69437454D01*
X87750800Y-69523240D01*
X87718793Y-69546495D01*
X87597927Y-69634310D01*
X87597925Y-69634312D01*
X87597924Y-69634312D01*
X87464312Y-69767924D01*
X87464312Y-69767925D01*
X87464310Y-69767927D01*
X87426841Y-69819499D01*
X87353240Y-69920800D01*
X87267454Y-70089163D01*
X87209059Y-70268881D01*
X87179500Y-70455513D01*
X85041500Y-70455513D01*
X85041500Y-70384466D01*
X85038587Y-70347452D01*
X84992564Y-70189041D01*
X84915274Y-70058352D01*
X84908594Y-70047056D01*
X84908587Y-70047047D01*
X84791952Y-69930412D01*
X84791949Y-69930410D01*
X84791947Y-69930408D01*
X84734511Y-69896440D01*
X84686829Y-69845371D01*
X84674326Y-69776630D01*
X84700972Y-69712040D01*
X84734514Y-69682976D01*
X84791637Y-69649193D01*
X84791643Y-69649189D01*
X84908189Y-69532643D01*
X84908196Y-69532634D01*
X84992102Y-69390756D01*
X84992103Y-69390753D01*
X85038088Y-69232473D01*
X85038089Y-69232467D01*
X85040999Y-69195488D01*
X85040999Y-67844530D01*
X85040998Y-67844508D01*
X85038089Y-67807533D01*
X84992102Y-67649242D01*
X84908196Y-67507365D01*
X84908189Y-67507356D01*
X84822446Y-67421613D01*
X84724733Y-67350597D01*
X84710322Y-67331902D01*
X140469500Y-67331902D01*
X140469500Y-67568097D01*
X140506446Y-67801368D01*
X140579433Y-68025996D01*
X140680565Y-68224476D01*
X140686657Y-68236433D01*
X140825483Y-68427510D01*
X140992490Y-68594517D01*
X141183567Y-68733343D01*
X141282991Y-68784002D01*
X141394003Y-68840566D01*
X141394005Y-68840566D01*
X141394008Y-68840568D01*
X141502099Y-68875689D01*
X141618631Y-68913553D01*
X141851903Y-68950500D01*
X141851908Y-68950500D01*
X143288097Y-68950500D01*
X143521368Y-68913553D01*
X143745992Y-68840568D01*
X143956433Y-68733343D01*
X144147510Y-68594517D01*
X144314517Y-68427510D01*
X144453343Y-68236433D01*
X144560568Y-68025992D01*
X144633553Y-67801368D01*
X144670500Y-67568097D01*
X144670500Y-67331902D01*
X144633553Y-67098631D01*
X144560566Y-66874003D01*
X144504002Y-66762991D01*
X144453343Y-66663567D01*
X144314517Y-66472490D01*
X144147510Y-66305483D01*
X143956433Y-66166657D01*
X143745996Y-66059433D01*
X143521368Y-65986446D01*
X143288097Y-65949500D01*
X143288092Y-65949500D01*
X141851908Y-65949500D01*
X141851903Y-65949500D01*
X141618631Y-65986446D01*
X141394003Y-66059433D01*
X141183566Y-66166657D01*
X141074550Y-66245862D01*
X140992490Y-66305483D01*
X140992488Y-66305485D01*
X140992487Y-66305485D01*
X140825485Y-66472487D01*
X140825485Y-66472488D01*
X140825483Y-66472490D01*
X140765862Y-66554550D01*
X140686657Y-66663566D01*
X140579433Y-66874003D01*
X140506446Y-67098631D01*
X140469500Y-67331902D01*
X84710322Y-67331902D01*
X84706837Y-67327381D01*
X84686829Y-67305953D01*
X84685751Y-67300027D01*
X84682076Y-67295260D01*
X84679572Y-67266055D01*
X84674326Y-67237211D01*
X84676622Y-67231644D01*
X84676108Y-67225646D01*
X84689793Y-67199718D01*
X84700972Y-67172622D01*
X84706729Y-67167633D01*
X84708723Y-67163856D01*
X84715511Y-67160023D01*
X84734514Y-67143558D01*
X84791941Y-67109596D01*
X84791942Y-67109594D01*
X84791947Y-67109592D01*
X84908592Y-66992947D01*
X84992564Y-66850959D01*
X85038587Y-66692548D01*
X85041500Y-66655534D01*
X85041500Y-65304466D01*
X85038587Y-65267452D01*
X84992564Y-65109041D01*
X84908592Y-64967053D01*
X84908590Y-64967051D01*
X84908587Y-64967047D01*
X84791952Y-64850412D01*
X84791943Y-64850405D01*
X84649957Y-64766435D01*
X84649954Y-64766434D01*
X84491552Y-64720413D01*
X84491546Y-64720412D01*
X84454541Y-64717500D01*
X84454534Y-64717500D01*
X82195466Y-64717500D01*
X82195458Y-64717500D01*
X82158453Y-64720412D01*
X82158447Y-64720413D01*
X82000045Y-64766434D01*
X82000042Y-64766435D01*
X81858056Y-64850405D01*
X81858046Y-64850413D01*
X81761854Y-64946604D01*
X81747061Y-64959239D01*
X81667536Y-65017018D01*
X81527021Y-65157533D01*
X81410213Y-65318305D01*
X81319994Y-65495367D01*
X81319993Y-65495370D01*
X81258587Y-65684362D01*
X81227500Y-65880639D01*
X81227500Y-66079360D01*
X81258587Y-66275637D01*
X81319993Y-66464629D01*
X81319994Y-66464632D01*
X81410213Y-66641694D01*
X81527019Y-66802464D01*
X81527021Y-66802466D01*
X81667539Y-66942984D01*
X81747060Y-67000758D01*
X81753786Y-67006007D01*
X81757979Y-67009518D01*
X81858053Y-67109592D01*
X81924208Y-67148716D01*
X81931975Y-67155220D01*
X81945962Y-67176197D01*
X81963170Y-67194627D01*
X81965015Y-67204773D01*
X81970736Y-67213353D01*
X81971161Y-67238564D01*
X81975673Y-67263369D01*
X81971740Y-67272900D01*
X81971915Y-67283212D01*
X81958643Y-67304649D01*
X81949028Y-67327958D01*
X81938643Y-67336956D01*
X81935137Y-67342620D01*
X81928391Y-67345838D01*
X81915487Y-67357021D01*
X81858370Y-67390800D01*
X81858357Y-67390810D01*
X81786360Y-67462806D01*
X81786360Y-67462807D01*
X82405905Y-68082352D01*
X82318429Y-68105792D01*
X82217070Y-68164311D01*
X82134311Y-68247070D01*
X82075792Y-68348429D01*
X82052352Y-68435905D01*
X81437730Y-67821282D01*
X81437729Y-67821283D01*
X81410643Y-67858564D01*
X81320457Y-68035562D01*
X81259075Y-68224476D01*
X81259075Y-68224479D01*
X81228000Y-68420678D01*
X81228000Y-68619321D01*
X81259075Y-68815520D01*
X81259075Y-68815523D01*
X81320457Y-69004437D01*
X81410641Y-69181432D01*
X81437730Y-69218715D01*
X81437731Y-69218716D01*
X82052352Y-68604094D01*
X82075792Y-68691571D01*
X82134311Y-68792930D01*
X82217070Y-68875689D01*
X82318429Y-68934208D01*
X82405904Y-68957647D01*
X81786360Y-69577191D01*
X81858360Y-69649192D01*
X81858364Y-69649195D01*
X81915486Y-69682977D01*
X81963169Y-69734046D01*
X81975673Y-69802788D01*
X81949028Y-69867377D01*
X81931975Y-69884779D01*
X81924204Y-69891285D01*
X81858053Y-69930408D01*
X81757990Y-70030469D01*
X81753784Y-70033992D01*
X81752598Y-70034509D01*
X81747061Y-70039239D01*
X81667536Y-70097018D01*
X81527021Y-70237533D01*
X81410213Y-70398305D01*
X81319994Y-70575367D01*
X81319993Y-70575370D01*
X81258587Y-70764362D01*
X81238972Y-70888209D01*
X81227500Y-70960639D01*
X81227500Y-71159361D01*
X81233788Y-71199061D01*
X81258587Y-71355637D01*
X81319993Y-71544629D01*
X81319994Y-71544632D01*
X81390021Y-71682065D01*
X81410213Y-71721694D01*
X81527019Y-71882464D01*
X81527021Y-71882466D01*
X81667539Y-72022984D01*
X81747060Y-72080758D01*
X81753824Y-72086039D01*
X81757998Y-72089537D01*
X81858053Y-72189592D01*
X81923737Y-72228437D01*
X81931522Y-72234962D01*
X81945488Y-72255926D01*
X81962679Y-72274338D01*
X81964528Y-72284506D01*
X81970260Y-72293110D01*
X81970674Y-72318297D01*
X81975182Y-72343079D01*
X81971239Y-72352634D01*
X81971410Y-72362970D01*
X81958143Y-72384381D01*
X81948536Y-72407669D01*
X81938122Y-72416692D01*
X81934609Y-72422363D01*
X81927871Y-72425575D01*
X81914996Y-72436732D01*
X81858053Y-72470408D01*
X81858046Y-72470413D01*
X81761854Y-72566604D01*
X81747061Y-72579239D01*
X81667536Y-72637018D01*
X81527021Y-72777533D01*
X81410213Y-72938305D01*
X81319994Y-73115367D01*
X81319993Y-73115370D01*
X81258587Y-73304362D01*
X81227500Y-73500639D01*
X81227500Y-73699360D01*
X81258587Y-73895637D01*
X81319993Y-74084629D01*
X81319994Y-74084632D01*
X81382960Y-74208208D01*
X81410213Y-74261694D01*
X81527019Y-74422464D01*
X81527021Y-74422466D01*
X81667539Y-74562984D01*
X81747060Y-74620758D01*
X81753824Y-74626039D01*
X81757998Y-74629537D01*
X81858053Y-74729592D01*
X81923737Y-74768437D01*
X81931522Y-74774962D01*
X81945488Y-74795926D01*
X81962679Y-74814338D01*
X81964528Y-74824506D01*
X81970260Y-74833110D01*
X81970674Y-74858297D01*
X81975182Y-74883079D01*
X81971239Y-74892634D01*
X81971410Y-74902970D01*
X81958143Y-74924381D01*
X81948536Y-74947669D01*
X81938122Y-74956692D01*
X81934609Y-74962363D01*
X81927871Y-74965575D01*
X81914996Y-74976731D01*
X81863388Y-75007253D01*
X81858053Y-75010408D01*
X81858046Y-75010413D01*
X81761854Y-75106604D01*
X81747061Y-75119239D01*
X81667536Y-75177018D01*
X81527021Y-75317533D01*
X81410213Y-75478305D01*
X81319994Y-75655367D01*
X81319993Y-75655370D01*
X81258587Y-75844362D01*
X81229571Y-76027563D01*
X81227500Y-76040639D01*
X81227500Y-76239361D01*
X81228977Y-76248684D01*
X81258587Y-76435637D01*
X81275985Y-76489182D01*
X81277980Y-76559023D01*
X81241900Y-76618856D01*
X81179199Y-76649684D01*
X81158054Y-76651500D01*
X78838092Y-76651500D01*
X78771053Y-76631815D01*
X78725298Y-76579011D01*
X78723548Y-76574992D01*
X78709394Y-76540821D01*
X78700501Y-76527512D01*
X78621789Y-76409711D01*
X78621786Y-76409707D01*
X78510292Y-76298213D01*
X78510288Y-76298210D01*
X78379185Y-76210609D01*
X78379172Y-76210602D01*
X78233501Y-76150264D01*
X78233489Y-76150261D01*
X78078845Y-76119500D01*
X78078842Y-76119500D01*
X77921158Y-76119500D01*
X77921155Y-76119500D01*
X77766510Y-76150261D01*
X77766498Y-76150264D01*
X77620827Y-76210602D01*
X77620814Y-76210609D01*
X77489711Y-76298210D01*
X77489707Y-76298213D01*
X77378211Y-76409709D01*
X77370322Y-76421517D01*
X77316709Y-76466321D01*
X77247384Y-76475027D01*
X77184357Y-76444871D01*
X77179540Y-76440305D01*
X75254574Y-74515339D01*
X75221089Y-74454016D01*
X75220638Y-74451849D01*
X75200475Y-74350488D01*
X75189737Y-74296503D01*
X75181054Y-74275541D01*
X75129397Y-74150827D01*
X75129390Y-74150814D01*
X75041789Y-74019711D01*
X75041786Y-74019707D01*
X74930292Y-73908213D01*
X74930288Y-73908210D01*
X74799185Y-73820609D01*
X74799172Y-73820602D01*
X74676339Y-73769724D01*
X74621935Y-73725883D01*
X74599870Y-73659589D01*
X74602174Y-73630971D01*
X74620500Y-73538844D01*
X74620500Y-73381155D01*
X74620499Y-73381153D01*
X74605351Y-73305000D01*
X74589737Y-73226503D01*
X74567471Y-73172747D01*
X74529397Y-73080827D01*
X74529390Y-73080814D01*
X74441789Y-72949711D01*
X74441786Y-72949707D01*
X74330292Y-72838213D01*
X74330288Y-72838210D01*
X74199185Y-72750609D01*
X74199172Y-72750602D01*
X74053501Y-72690264D01*
X74053489Y-72690261D01*
X73898845Y-72659500D01*
X73898842Y-72659500D01*
X73741158Y-72659500D01*
X73741155Y-72659500D01*
X73586510Y-72690261D01*
X73586498Y-72690264D01*
X73440827Y-72750602D01*
X73440814Y-72750609D01*
X73309711Y-72838210D01*
X73309707Y-72838213D01*
X73202181Y-72945740D01*
X73140858Y-72979225D01*
X73071166Y-72974241D01*
X73015233Y-72932369D01*
X72990816Y-72866905D01*
X72990500Y-72858059D01*
X72990500Y-71209060D01*
X72990501Y-71209047D01*
X72990501Y-71040944D01*
X72983797Y-71015925D01*
X72949577Y-70888216D01*
X72878071Y-70764362D01*
X72870524Y-70751290D01*
X72870518Y-70751282D01*
X71753546Y-69634310D01*
X68513761Y-66394526D01*
X68480277Y-66333204D01*
X68480843Y-66280478D01*
X68480651Y-66280448D01*
X68480857Y-66279143D01*
X68480871Y-66277891D01*
X68481409Y-66275646D01*
X68481413Y-66275636D01*
X68512500Y-66079361D01*
X68512500Y-65880639D01*
X68481413Y-65684364D01*
X68420005Y-65495368D01*
X68420005Y-65495367D01*
X68329786Y-65318305D01*
X68212981Y-65157536D01*
X68072464Y-65017019D01*
X67992937Y-64959239D01*
X67978147Y-64946608D01*
X67881947Y-64850408D01*
X67881946Y-64850407D01*
X67881943Y-64850405D01*
X67739957Y-64766435D01*
X67739954Y-64766434D01*
X67581552Y-64720413D01*
X67581546Y-64720412D01*
X67544541Y-64717500D01*
X67544534Y-64717500D01*
X65285466Y-64717500D01*
X65285458Y-64717500D01*
X65248453Y-64720412D01*
X65248447Y-64720413D01*
X65090045Y-64766434D01*
X65090042Y-64766435D01*
X64948056Y-64850405D01*
X64948047Y-64850412D01*
X64831412Y-64967047D01*
X64831405Y-64967056D01*
X64747435Y-65109042D01*
X64747434Y-65109045D01*
X64701413Y-65267447D01*
X64701412Y-65267453D01*
X64698500Y-65304458D01*
X64090500Y-65304458D01*
X64090500Y-63614500D01*
X64110185Y-63547461D01*
X64162989Y-63501706D01*
X64214500Y-63490500D01*
X151805500Y-63490500D01*
X151872539Y-63510185D01*
G37*
%TD.AperFunction*%
%TD*%
M02*
